<?xml version="1.0" encoding="utf-8"?>
<!-- Generator: Adobe Illustrator 23.0.1, SVG Export Plug-In . SVG Version: 6.00 Build 0)  -->
<svg version="1.1" id="Layer_1" xmlns="http://www.w3.org/2000/svg" xmlns:xlink="http://www.w3.org/1999/xlink" x="0px" y="0px"
	 viewBox="0 0 309 376" style="enable-background:new 0 0 309 376;" xml:space="preserve">
<style type="text/css">
	.st0{fill:#032A30;}
	.st1{fill:#1291AD;}
	.st2{fill:#FFFFFF;}
	.st3{fill:#08718B;stroke:#08718B;stroke-miterlimit:10;}
	.st4{fill:none;stroke:#032A30;stroke-width:3;stroke-miterlimit:10;}
	.st5{enable-background:new    ;}
</style>
<g>
	<g>
		<g id="Layer_1-2">
			<path class="st0" d="M32.2,60.6h245c6.6,0,12,5.4,12,12v125.1c0,6.6-5.4,12-12,12h-245c-6.6,0-12-5.4-12-12V72.6
				C20.2,66,25.5,60.6,32.2,60.6z"/>
			<path class="st1" d="M31.8,158.2h245.4c6.6,0,12,5.4,12,12v146.9c0,6.6-5.4,12-12,12H31.8c-6.6,0-12-5.4-12-12V170.2
				C19.8,163.5,25.2,158.2,31.8,158.2z"/>
			<path class="st2" d="M192.8,252.3c-2,0.9-5.7,4.6-10.9,11c-13.1,12.7-19.8,19.3-20.1,20c-0.2,0.4-0.1,1,0.4,1.2
				c0.1,0,0.2,0.1,0.2,0.1c2.5,0.9,8.1-3.1,16.7-12.2c8.5-8.7,13.1-14.1,13.9-16.4l0.7-1.9C193.6,253.1,193.3,252.5,192.8,252.3z"/>
			<rect x="153.5" y="163.1" transform="matrix(0.3384 -0.941 0.941 0.3384 -52.19 252.8848)" width="0.5" height="1"/>
			<path class="st3" d="M289.2,218.6c0-15.5,0-31,0-46.5c0-15.9-4.5-30.2-15.3-42.1c-5.3-6-11.8-10.8-19.1-14.2
				c-3.3,13.7-9.9,26.5-19.2,37.1l-53.3-9.9c8.8-21,10.5-33,5.3-36s-14.2-0.3-27.1,8.2c-11.5,8.4-22.1,22.2-31.7,41.5
				c-8,17.8-7.7,29.5,0.7,35c10.6,5.5,23.9-1.1,40-19.8l50,12.2c-20.4,32.9-36.4,57.7-47.8,74.5c-11.4,2.2-25.8-1.6-43.1-11.3
				c3.5-6,7.9-12.9,13.2-20.6c-14.5,9.3-26.9,12.2-37.1,8.7c-19.7-11.4-28.6-29.9-26.5-55.5s11.5-50.5,28.2-74.6
				c8.7-13,19.8-24.2,32.6-33c-6.9-1.5-13.7-3-20.5-4.5c-4.3-1-7.2,0.1-9.1,4.4c-5,11.4-10.7,22.6-15.6,34c-1.5,3.4-3.3,4.3-6.7,4.2
				c-5.8-0.1-11.8-0.3-17.4,0.7c-30,5.2-50,29-50.1,59.5c0,18.3,0.6,36.6,0.7,54.9c0.1,20.1,0,40.2,0,59.3
				c2.6-11.9,9.1-22.8,19.3-31.6c9.1-7.9,17.9-9.2,28.4-3.4c3.8,2.1,7,5,10.6,7.4c10.5,7,20.5,15,31.7,20.5
				c20.1,9.8,41.3,14.7,63.9,8.9c13.3-3.4,24.9-10,36.1-17.6c9.8-6.6,19.5-13.4,29.7-19.4c8.6-5,17.3-4.5,25.6,1.8
				c10.6,8,18.4,17.9,22.6,30.8C289.2,260.8,289.2,239.7,289.2,218.6z M154.1,163.9l-0.9-0.3l0.2-0.5l0.9,0.3L154.1,163.9z"/>
			
				<image style="overflow:visible;opacity:0.75;enable-background:new    ;" width="199" height="228" xlink:href="31174DAF2384881A.png"  transform="matrix(1 0 0 1 69.345 46.925)">
			</image>
			<path class="st2" d="M234.3,153.6c9.2-10.7,15.8-23.4,19.2-37.2c-9.3-4.3-19.5-5.9-30.7-5.3c-4.9,0.3-8.4-1.2-10.7-6.2
				c6-7.4,12.1-15.1,18.4-22.6c2.8-3.4,2.6-5.7-1.3-7.9c-6.1-3.5-12.1-7-18-10.8c-4.2-2.8-6.2-1.8-8.2,2.6
				c-3.7,8.3-8,16.3-12.2,24.8l-10.2-5c4.5-8.9,8.5-17.3,13-25.5c1.9-3.5,1.3-5.3-1.8-6.7c-7.2,0.6-14.4,1.9-21.4,4
				c-3.3,1-6.5,2-9.6,3.2c-0.4,1.4-0.8,2.7-1.2,4.1c-1.2,4.1-2.5,8.1-3.6,11.9l-18.2-4c-12.9,8.8-23.9,20-32.6,33
				C88.4,130.1,79,155,77,180.5s6.8,44.1,26.5,55.5c10.2,3.5,22.6,0.6,37.1-8.7c-5.3,7.7-9.7,14.6-13.2,20.6
				c17.3,9.7,31.7,13.5,43.1,11.3c7.2-10.6,16.2-24.3,27-41.3l24.2-2.3v-23.5c-0.5,0-1.1,0-1.6,0.1l-6.8,0.7c1.6-2.6,3.3-5.3,5-8
				l-18.5-4.5l0,0c-0.3-0.1-0.6-0.2-0.9-0.3c-8.8-2.2-17.5-4.4-26.3-6.5c-12.2-2.9-24.6-5.1-37.1-6.9c-0.9-0.1-1.2,0.1-1.5,1
				c-0.9,2.6-1.8,5.1-2.8,7.7c-0.8,2.2-1.6,4.4-2.5,6.6l19.8,8.4c-7.7,4.5-14.5,5.2-20.4,2.1c-8.4-5.5-8.7-17.2-0.7-35
				c9.6-19.3,20.2-33.2,31.7-41.6c12.9-8.5,21.9-11.2,27.1-8.2s3.4,15-5.3,36L234.3,153.6z"/>
			<path class="st4" d="M234.3,153.6c9.2-10.7,15.8-23.4,19.2-37.2c-9.3-4.3-19.5-5.9-30.7-5.3c-4.9,0.3-8.4-1.2-10.7-6.2
				c6-7.4,12.1-15.1,18.4-22.6c2.8-3.4,2.6-5.7-1.3-7.9c-6.1-3.5-12.1-7-18-10.8c-4.2-2.8-6.2-1.8-8.2,2.6
				c-3.7,8.3-8,16.3-12.2,24.8l-10.2-5c4.5-8.9,8.5-17.3,13-25.5c1.9-3.5,1.3-5.3-1.8-6.7c-7.2,0.6-14.4,1.9-21.4,4
				c-3.3,1-6.5,2-9.6,3.2c-0.4,1.4-0.8,2.7-1.2,4.1c-1.2,4.1-2.5,8.1-3.6,11.9l-18.2-4c-12.9,8.8-23.9,20-32.6,33
				C88.4,130.1,79,155,77,180.5s6.8,44.1,26.5,55.5c10.2,3.5,22.6,0.6,37.1-8.7c-5.3,7.7-9.7,14.6-13.2,20.6
				c17.3,9.7,31.7,13.5,43.1,11.3c7.2-10.6,16.2-24.3,27-41.3l24.2-2.3v-23.5c-0.5,0-1.1,0-1.6,0.1l-6.8,0.7c1.6-2.6,3.3-5.3,5-8
				l-18.5-4.5l0,0c-0.3-0.1-0.6-0.2-0.9-0.3c-8.8-2.2-17.5-4.4-26.3-6.5c-12.2-2.9-24.6-5.1-37.1-6.9c-0.9-0.1-1.2,0.1-1.5,1
				c-0.9,2.6-1.8,5.1-2.8,7.7c-0.8,2.2-1.6,4.4-2.5,6.6l19.8,8.4c-7.7,4.5-14.5,5.2-20.4,2.1c-8.4-5.5-8.7-17.2-0.7-35
				c9.6-19.3,20.2-33.2,31.7-41.6c12.9-8.5,21.9-11.2,27.1-8.2s3.4,15-5.3,36L234.3,153.6z"/>
			<g class="st5">
				<path class="st2" d="M201.4,299c2-2.4,4.3-3.5,7.1-3.5c3.2,0,5.8,1.2,7.5,3.5s2.7,5.4,2.7,9.3c0,4.1-1,7.3-3,9.7
					s-4.5,3.6-7.5,3.6c-2.7,0-5-0.8-6.8-2.5v1.9H197v-34.4h4.4V299z M201.4,315c1.9,2,4.1,3,6.5,3c1.9,0,3.4-0.8,4.5-2.4
					s1.7-4.1,1.7-7.3c0-3.1-0.5-5.4-1.6-7s-2.5-2.4-4.5-2.4c-2.5,0-4.7,1.4-6.7,4.3V315z"/>
				<path class="st2" d="M228.1,320.9h-4.4v-34.4h4.4V320.9z"/>
				<path class="st2" d="M250.4,317.7c-2.2,2.5-4.7,3.8-7.4,3.8c-5.6,0-8.4-3.1-8.4-9.2V296h4.4v16.1c0,2,0.4,3.5,1.1,4.4
					s1.9,1.3,3.6,1.3c2.5,0,4.7-1.3,6.8-4V296h4.4v24.9h-4.4V317.7z"/>
				<path class="st2" d="M271.9,321.5c-3.7,0-6.6-1.1-8.8-3.4s-3.3-5.5-3.3-9.6c0-4.1,1.1-7.2,3.2-9.6s5-3.5,8.4-3.5
					c3.5,0,6.4,1.1,8.5,3.4s3.2,5.5,3.2,9.6v1.1h-18.7c0.2,2.9,1,5,2.4,6.4s3.1,2.1,5.2,2.1c1.5,0,2.9-0.4,4.2-1.2s1.9-1.9,2-3.4
					h4.6c-0.3,2.6-1.5,4.5-3.5,5.9S274.7,321.5,271.9,321.5z M278.4,306c-0.4-2.4-1.2-4.2-2.4-5.4s-2.8-1.8-4.6-1.8
					c-1.8,0-3.3,0.6-4.5,1.8s-2.1,3-2.4,5.4H278.4z"/>
			</g>
		</g>
	</g>
</g>
</svg>
