<svg xmlns="http://www.w3.org/2000/svg" viewBox="0 0 299.31 299.31"><defs><style>.cls-1{opacity:0.3;}.cls-2{fill:#fff;}</style></defs><title>btc-shape</title><g id="Layer_2" data-name="Layer 2"><g id="Layer_1-2" data-name="Layer 1"><g class="cls-1"><path class="cls-2" d="M114.36,298q-11-6.57-15.58-11.78a17.38,17.38,0,0,1-4.56-11.78h0q0-7.43,6-17.41t27.84-28.24q-17.79-8.7-27.31-24.29A64.8,64.8,0,0,1,91.26,170h0q0-28.84,21.74-49.64t55.68-20.8q26.88,0,46.79,12.63Q233,95.07,241.51,83,253,66.67,253,53.12q0-10.33-6.32-17a20.16,20.16,0,0,0-15.13-6.65,23.58,23.58,0,0,0-14.36,4.69q-6.36,4.68-9.4,13.73h-3q2-14.83,10.3-22.78t20.71-7.95c.58,0,1.15,0,1.72,0l.34,0,1.34.09.37,0c.44.05.87.09,1.29.15l.33.05,1.31.22.26.05,1.36.29.17.05c.48.11,1,.24,1.41.38l.09,0c.5.15,1,.31,1.46.48h0c.5.17,1,.36,1.47.56A169.54,169.54,0,0,0,60.47,299.31h52.65Z"/><path class="cls-2" d="M164.89,110.13q-15.63,0-26.2,12.48t-10.56,38.28q0,27.17,9.48,44.39c.22.4.45.77.68,1.15s.55,1,.84,1.45.43.65.64,1c.33.51.65,1,1,1.5.12.18.26.35.39.53.44.62.88,1.23,1.35,1.83.12.16.26.31.39.47q10.89,13.48,27.49,13.49a33.27,33.27,0,0,0,26.4-12q10.36-12.06,10.36-37.86,0-33.63-14.58-52.67Q181.79,110.14,164.89,110.13Z"/><path class="cls-2" d="M256,24l.23.19c.57.47,1.13,1,1.67,1.49a28.18,28.18,0,0,1,7.61,11.81,27,27,0,0,1,1.25,8.24,38.91,38.91,0,0,1-3.85,16.52q-5.94,13-19.25,27.51-19.51,21.28-24.63,26l.18.22h27.93a77.15,77.15,0,0,0,12.14-.64,15.71,15.71,0,0,0,6.29-2.6,17.06,17.06,0,0,0,4.89-5.58h3L263.87,135H234.46q9.87,14.64,9.88,36.32,0,27.22-20.75,46.56T167.91,237.2a106.65,106.65,0,0,1-29.44-4.3q-9.34,8-12.64,14t-3.3,10.18q0,3.57,3.5,6.93t13.69,4.83q5.94.93,29.7,1.64,43.71,1.19,56.65,3.3,19.73,2.75,31.51,14.59c.6.61,1.18,1.24,1.74,1.87l.47.54c.43.51.85,1,1.26,1.55l.35.45c.5.67,1,1.34,1.44,2l.22.35c.38.59.74,1.19,1.09,1.8l.3.53c.33.61.65,1.23,1,1.85H278.6a170.94,170.94,0,0,0,20.71-20.71V60.46a170.27,170.27,0,0,0-45.06-37.81C254.86,23.08,255.45,23.53,256,24Z"/></g></g></g></svg>