<?xml version="1.0" encoding="utf-8"?>
<!-- Generator: Adobe Illustrator 23.0.1, SVG Export Plug-In . SVG Version: 6.00 Build 0)  -->
<svg version="1.1" id="Layer_1" xmlns="http://www.w3.org/2000/svg" xmlns:xlink="http://www.w3.org/1999/xlink" x="0px" y="0px"
	 viewBox="0 0 269.4 269" style="enable-background:new 0 0 269.4 269;" xml:space="preserve">
<style type="text/css">
	.st0{fill:#032A30;}
	.st1{fill:#08718B;}
	.st2{fill:#1291AD;}
	.st3{enable-background:new    ;}
	.st4{fill:#FFFFFF;}
</style>
<title>icon</title>
<g>
	<g>
		<path class="st0" d="M269.2,45.2c0-24.8-20.3-45-45-45h-179c-24.8,0-45,20.2-45,45v67c0,24.7,20.2,45,45,45h179
			c24.8,0,45-20.2,45-45V45.2z"/>
	</g>
	<g>
		<path class="st1" d="M269.2,120.2c0-24.8-20.3-45-45-45h-179c-24.8,0-45,20.2-45,45v67c0,24.8,20.2,45,45,45h179
			c24.8,0,45-20.2,45-45V120.2z"/>
	</g>
	<g>
		<path class="st2" d="M269.2,198c0-24.8-20.3-45-45-45h-179c-24.8,0-45,20.2-45,45v26.1c0,24.8,20.2,45,45,45h179
			c24.8,0,45-20.2,45-45V198z"/>
	</g>
	<g class="st3">
		<path class="st4" d="M157.1,230.2l-7.5,24.9h-4.2l-5.4-18.3l-5.4,18.3h-4.2l-7.5-24.9h4.9l4.6,19l5.6-19h4l5.6,19l4.6-19H157.1z"
			/>
		<path class="st4" d="M176.4,252.5c-2.2,2.1-5.1,3.1-8.7,3.1c-2.5,0-4.5-0.7-6.1-2s-2.4-3.1-2.4-5.2c0-5.8,5-8.7,15-8.7h2.2
			c0-1.8-0.1-3.1-0.3-3.9s-0.7-1.5-1.6-2s-2.2-0.8-4.1-0.8c-3.9,0-6,1.4-6.1,4.2h-4.4c0.3-5.1,3.9-7.7,10.7-7.7
			c3.2,0,5.7,0.6,7.5,1.9s2.7,3.8,2.7,7.5v16.1h-4.4V252.5z M176.4,248.5V243h-3c-6.4,0-9.6,1.7-9.6,5.2c0,1.3,0.5,2.2,1.4,2.9
			s2.2,1,3.8,1c1.5,0,2.9-0.3,4.2-1S175.6,249.7,176.4,248.5z"/>
		<path class="st4" d="M191.8,255.1h-4.4v-34.4h4.4V255.1z"/>
		<path class="st4" d="M202.7,255.1h-4.4v-34.4h4.4V255.1z"/>
		<path class="st4" d="M219.8,255.7c-3.7,0-6.6-1.1-8.8-3.4s-3.3-5.5-3.3-9.6c0-4.1,1.1-7.2,3.2-9.6s5-3.5,8.4-3.5
			c3.5,0,6.4,1.1,8.5,3.4s3.2,5.5,3.2,9.6v1.1h-18.7c0.2,2.9,1,5,2.4,6.4s3.1,2.1,5.2,2.1c1.5,0,2.9-0.4,4.2-1.2s1.9-1.9,2-3.4h4.6
			c-0.3,2.6-1.5,4.5-3.5,5.9S222.6,255.7,219.8,255.7z M226.3,240.2c-0.4-2.4-1.2-4.2-2.4-5.4s-2.8-1.8-4.6-1.8
			c-1.8,0-3.3,0.6-4.5,1.8s-2.1,3-2.4,5.4H226.3z"/>
		<path class="st4" d="M245.6,255.1c-1,0.2-2,0.3-3.2,0.3c-1.8,0-3.1-0.3-4-1s-1.4-1.5-1.6-2.5s-0.3-2.4-0.3-4.1v-14.1h-3.1v-3.5
			h3.1V224h4.4v6.2h4v3.5h-4V248c0,1.7,0.2,2.8,0.6,3.2s1,0.7,1.8,0.7c0.8,0,1.5-0.1,2.2-0.2V255.1z"/>
	</g>
</g>
</svg>
