<svg xmlns="http://www.w3.org/2000/svg" viewBox="0 0 299 299"><defs><style>.cls-1{opacity:0.3;}.cls-2{fill:#fff;}</style></defs><title>lnd-shape</title><g id="Layer_2" data-name="Layer 2"><g id="Layer_1-2" data-name="Layer 1"><g class="cls-1"><path d="M299,299v-1.72c-.38.58-.77,1.15-1.16,1.72Z"/><path class="cls-2" d="M270.63,90.89c-2.69-2.55-3.43-.78-4.63,1.26q-23.77,40.18-47.61,80.32c-5.26,8.89-10.48,17.8-16.15,27.44l95.3-27.66.91,1.71a13.94,13.94,0,0,0-2.12,1.41q-53.28,51.13-106.53,102.3L167.58,299H297.84c.39-.57.78-1.14,1.16-1.72V123.19A211.15,211.15,0,0,0,270.63,90.89Z"/><path class="cls-2" d="M120.49,218.61l-95.4,27.73-.27-.8L280.3.19a3.78,3.78,0,0,0-3.37.58c-18.89,9.45-37.73,19-56.67,28.38C193.61,42.31,165.86,51.79,136,54.74c-19.29,1.9-37.58,7.65-55.15,16C32.6,93.54,0,149,0,205.33a141.82,141.82,0,0,0,1.07,17.46A166.62,166.62,0,0,0,30.26,299H74l47.12-79.52Z"/></g></g></g></svg>