<?xml version="1.0" encoding="utf-8"?>
<!-- Generator: Adobe Illustrator 23.0.1, SVG Export Plug-In . SVG Version: 6.00 Build 0)  -->
<svg version="1.1" id="Layer_1" xmlns="http://www.w3.org/2000/svg" xmlns:xlink="http://www.w3.org/1999/xlink" x="0px" y="0px"
	 viewBox="0 0 269 269" style="enable-background:new 0 0 269 269;" xml:space="preserve">
<style type="text/css">
	.st0{fill:#032A30;}
	.st1{fill:#08718B;}
	.st2{fill:#1291AD;}
	.st3{enable-background:new    ;}
	.st4{fill:#FFFFFF;}
</style>
<title>qr-code</title>
<g>
	<g>
		<g>
			<g id="Layer_1-2_1_">
				<path class="st0" d="M13.8,0.1h241.4c7.7,0,14,6.3,14,14v88.2c0,7.7-6.3,14-14,14H13.8c-7.7,0-14-6.3-14-14V14.1
					C-0.2,6.3,6.1,0.1,13.8,0.1z"/>
				<path class="st1" d="M13.8,69.1h241.4c7.7,0,14,6.3,14,14v88.1c0,7.7-6.3,14-14,14H13.8c-7.7,0-14-6.3-14-14V83.1
					C-0.2,75.4,6.1,69.1,13.8,69.1z"/>
				<path class="st2" d="M13.8,152.9h241.4c7.7,0,14,6.3,14,14v88.1c0,7.7-6.3,14-14,14H13.8c-7.7,0-14-6.3-14-14v-88.1
					C-0.2,159.2,6.1,152.9,13.8,152.9z"/>
			</g>
		</g>
	</g>
	<g>
		<g>
			<path class="st0" d="M269,45.1c0-24.8-20.2-45-45-45H45c-24.8,0-45,20.2-45,45v67c0,24.8,20.2,45,45,45h179c24.8,0,45-20.2,45-45
				V45.1z"/>
		</g>
		<g>
			<path class="st1" d="M269,120.1c0-24.8-20.2-45-45-45H45c-24.8,0-45,20.2-45,45v67c0,24.8,20.2,45,45,45h179
				c24.8,0,45-20.2,45-45V120.1z"/>
		</g>
		<g>
			<path class="st2" d="M269,197.9c0-24.8-20.2-45-45-45H45c-24.8,0-45,20.2-45,45v26.1c0,24.8,20.2,45,45,45h179
				c24.8,0,45-20.3,45-45V197.9z"/>
		</g>
	</g>
	<g class="st3">
		<path class="st4" d="M176.5,234.2c2-2.4,4.3-3.5,7.1-3.5c3.2,0,5.8,1.2,7.5,3.5s2.7,5.4,2.7,9.3c0,4.1-1,7.3-3,9.7
			s-4.5,3.6-7.5,3.6c-2.7,0-5-0.8-6.8-2.5v1.9h-4.4v-34.4h4.4V234.2z M176.5,250.2c1.9,2,4.1,3,6.5,3c1.9,0,3.4-0.8,4.5-2.4
			s1.7-4.1,1.7-7.3c0-3.1-0.5-5.4-1.6-7s-2.5-2.4-4.5-2.4c-2.5,0-4.7,1.4-6.7,4.3V250.2z"/>
		<path class="st4" d="M203.2,256.1h-4.4v-34.4h4.4V256.1z"/>
		<path class="st4" d="M225.5,252.9c-2.2,2.5-4.7,3.8-7.4,3.8c-5.6,0-8.4-3.1-8.4-9.2v-16.3h4.4v16.1c0,2,0.4,3.5,1.1,4.4
			s1.9,1.3,3.6,1.3c2.5,0,4.7-1.3,6.8-4v-17.8h4.4v24.9h-4.4V252.9z"/>
		<path class="st4" d="M247,256.7c-3.7,0-6.6-1.1-8.8-3.4s-3.3-5.5-3.3-9.6c0-4.1,1.1-7.2,3.2-9.6s5-3.5,8.4-3.5
			c3.5,0,6.4,1.1,8.5,3.4c2.1,2.3,3.2,5.5,3.2,9.6v1.1h-18.7c0.2,2.9,1,5,2.4,6.4s3.1,2.1,5.2,2.1c1.5,0,2.9-0.4,4.2-1.2
			s1.9-1.9,2-3.4h4.6c-0.3,2.6-1.5,4.5-3.5,5.9C252.3,256,249.9,256.7,247,256.7z M253.5,241.3c-0.4-2.4-1.2-4.2-2.4-5.4
			s-2.8-1.8-4.6-1.8c-1.8,0-3.3,0.6-4.5,1.8s-2.1,3-2.4,5.4H253.5z"/>
	</g>
</g>
</svg>
