<?xml version="1.0" encoding="utf-8"?>
<!-- Generator: Adobe Illustrator 25.2.3, SVG Export Plug-In . SVG Version: 6.00 Build 0)  -->
<svg version="1.1" id="Layer_1" xmlns="http://www.w3.org/2000/svg" xmlns:xlink="http://www.w3.org/1999/xlink" x="0px" y="0px"
	 viewBox="0 0 595.28 841.89" style="enable-background:new 0 0 595.28 841.89;" xml:space="preserve">
<style type="text/css">
	.st0{fill:#042A30;}
	.st1{fill:#0B728C;}
	.st2{fill:none;stroke:#0B728C;stroke-miterlimit:10;}
	.st3{fill:#1491AD;}
	.st4{fill:#FFFFFF;}
</style>
<g>
	<path class="st0" d="M410.52,257.43c-8.8-15.24-30.4-27.71-48-27.71h-109.3c-17.6,0-39.2,12.47-48,27.71l-54.65,94.66
		c-8.8,15.24-8.8,40.18,0,55.43l54.65,94.66c8.8,15.24,30.4,27.71,48,27.71h109.3c17.6,0,39.2-12.47,48-27.71l54.65-94.66
		c8.8-15.24,8.8-40.18,0-55.43L410.52,257.43z"/>
</g>
<g>
	<path class="st1" d="M393.86,286.29c-8.8-15.24-30.4-27.71-48-27.71h-75.97c-17.6,0-39.2,12.47-48,27.71l-37.99,65.79
		c-8.8,15.24-8.8,40.18,0,55.43l37.99,65.79c8.8,15.24,30.4,27.71,48,27.71h75.97c17.6,0,39.2-12.47,48-27.71l37.99-65.79
		c8.8-15.24,8.8-40.18,0-55.43L393.86,286.29z"/>
	<path class="st2" d="M393.86,286.29c-8.8-15.24-30.4-27.71-48-27.71h-75.97c-17.6,0-39.2,12.47-48,27.71l-37.99,65.79
		c-8.8,15.24-8.8,40.18,0,55.43l37.99,65.79c8.8,15.24,30.4,27.71,48,27.71h75.97c17.6,0,39.2-12.47,48-27.71l37.99-65.79
		c8.8-15.24,8.8-40.18,0-55.43L393.86,286.29z"/>
</g>
<g>
	<path class="st3" d="M375.77,317.61c-8.8-15.24-30.4-27.71-48-27.71h-39.81c-17.6,0-39.2,12.47-48,27.71l-19.91,34.48
		c-8.8,15.24-8.8,40.18,0,55.43l19.91,34.48c8.8,15.24,30.4,27.71,48,27.71h39.81c17.6,0,39.2-12.47,48-27.71l19.91-34.48
		c8.8-15.24,8.8-40.18,0-55.43L375.77,317.61z"/>
</g>
<g>
	<g>
		<path class="st4" d="M336.12,358.47c0-15.6-12.65-28.25-28.25-28.25c-15.6,0-28.25,12.65-28.25,28.25
			c0,10.2,5.43,19.12,13.54,24.08l-13.54,41.83h56.5l-13.54-41.83C330.69,377.58,336.12,368.67,336.12,358.47z"/>
	</g>
</g>
</svg>
