<svg id="Capa_1" data-name="Capa 1" xmlns="http://www.w3.org/2000/svg" xmlns:xlink="http://www.w3.org/1999/xlink" viewBox="0 0 512 512"><defs><style>.cls-1,.cls-2,.cls-5{opacity:0.6;}.cls-1{fill:url(#New_Gradient_Swatch_1);}.cls-2{fill:url(#linear-gradient);}.cls-3{fill:url(#New_Gradient_Swatch_1-2);}.cls-4{fill:url(#New_Gradient_Swatch_1-3);}.cls-5{fill:url(#New_Gradient_Swatch_1-4);}.cls-6{fill:url(#New_Gradient_Swatch_1-5);}.cls-7{fill:url(#New_Gradient_Swatch_1-6);}.cls-8{fill:url(#New_Gradient_Swatch_1-7);}.cls-9{fill:url(#New_Gradient_Swatch_1-8);}</style><linearGradient id="New_Gradient_Swatch_1" x1="304.24" y1="213.5" x2="503.85" y2="13.89" gradientUnits="userSpaceOnUse"><stop offset="0" stop-color="#00a5bd"/><stop offset="1" stop-color="#005e78"/></linearGradient><linearGradient id="linear-gradient" x1="355.14" y1="464.92" x2="161.61" y2="271.39" gradientUnits="userSpaceOnUse"><stop offset="0" stop-color="#377f94"/><stop offset="1" stop-color="#34adc4"/></linearGradient><linearGradient id="New_Gradient_Swatch_1-2" x1="137.4" y1="429.31" x2="293.34" y2="273.38" xlink:href="#New_Gradient_Swatch_1"/><linearGradient id="New_Gradient_Swatch_1-3" x1="207.84" y1="486.66" x2="382.71" y2="311.79" xlink:href="#New_Gradient_Swatch_1"/><linearGradient id="New_Gradient_Swatch_1-4" x1="9.88" y1="219.15" x2="220.56" y2="8.47" xlink:href="#New_Gradient_Swatch_1"/><linearGradient id="New_Gradient_Swatch_1-5" x1="-22.02" y1="175.03" x2="123.88" y2="29.14" xlink:href="#New_Gradient_Swatch_1"/><linearGradient id="New_Gradient_Swatch_1-6" x1="79.79" y1="226.17" x2="253.13" y2="52.83" xlink:href="#New_Gradient_Swatch_1"/><linearGradient id="New_Gradient_Swatch_1-7" x1="315.93" y1="114.23" x2="492.02" y2="114.23" xlink:href="#New_Gradient_Swatch_1"/><linearGradient id="New_Gradient_Swatch_1-8" x1="444.4" y1="184.18" x2="492.02" y2="184.18" xlink:href="#New_Gradient_Swatch_1"/></defs><title>Artboard 1</title><rect class="cls-1" x="309.65" y="8.47" width="188.78" height="210.45"/><circle class="cls-2" cx="258.38" cy="368.15" r="136.85"/><path class="cls-3" d="M250.65,370.71h-54.6L260.92,241h0a128.16,128.16,0,0,0-58.23,243.55Z"/><path class="cls-4" d="M322.75,257.84l-42,66.19h63.39L207.47,486.29A128.17,128.17,0,0,0,322.75,257.84Z"/><rect class="cls-5" x="9.88" y="8.47" width="210.68" height="210.68"/><polygon class="cls-6" points="100.07 121.58 56.14 121.58 109.53 14.79 16.42 14.79 16.42 213.47 61.35 213.47 100.07 121.58"/><polygon class="cls-7" points="168.56 14.79 124.94 83.5 176.53 83.5 67.08 213.47 215.09 213.47 215.09 14.79 168.56 14.79"/><path class="cls-8" d="M459.44,171.23H422.89l-2-10.53a29.73,29.73,0,0,1-4.88,5.19,46.54,46.54,0,0,1-7,4.58,51.78,51.78,0,0,1-15.41,2.9q-3.06,0-5.88-.15a46,46,0,0,1-5.42-.61,36.63,36.63,0,0,1-4.5-1.07,29.41,29.41,0,0,1-5.11-2.44,42.77,42.77,0,0,1-14.19-11.52q-6.56-7.86-10.37-20.68a109.86,109.86,0,0,1-2.75-25.18q0-23.49,9.61-41.2,12.36-20.9,38.61-20.9h5.8a30,30,0,0,1,6.86,1.07q15.57,2.93,25.18,17.38a28.13,28.13,0,0,1,2.67,4.31,46.21,46.21,0,0,1,2.36,5.22,92.82,92.82,0,0,1,4.28,12.46H415.11q-3.66-9-8.85-13.74a21.79,21.79,0,0,0-2.36-1.37c-1.17-.61-2.27-1.12-3.28-1.53a20.72,20.72,0,0,0-7.33-1.52,18.11,18.11,0,0,0-10.83,3.51q-11.91,9.3-11.9,35.55,0,11.6,2,17.4a55.17,55.17,0,0,0,5.8,14.34q4.88,8.7,14.65,8.7a19.37,19.37,0,0,0,8.62-1.91,22.73,22.73,0,0,0,7.4-6.18,36,36,0,0,0,5.8-15H388.26V107h51.57v64.08l24.95-49.89h26.69l-21.19,33.37H492V16H315.93V212.42H442.08Z"/><polygon class="cls-9" points="444.4 212.45 492.02 212.45 492.02 155.91 444.4 212.45"/></svg>