<?xml version="1.0" encoding="utf-8"?>
<!-- Generator: Adobe Illustrator 23.0.1, SVG Export Plug-In . SVG Version: 6.00 Build 0)  -->
<svg version="1.1" id="Layer_1" xmlns="http://www.w3.org/2000/svg" xmlns:xlink="http://www.w3.org/1999/xlink" x="0px" y="0px"
	 viewBox="0 0 900 424" style="enable-background:new 0 0 900 424;" xml:space="preserve">
<style type="text/css">
	.st0{fill:url(#SVGID_1_);}
	.st1{fill:#FFFFFF;}
	.st2{font-family:'MyriadPro-Bold';}
	.st3{font-size:86.4px;}
	.st4{fill:#25E0FF;}
	.st5{font-size:32.4px;}
	.st6{font-size:21.6px;}
	.st7{opacity:0.6;fill:url(#SVGID_2_);enable-background:new    ;}
	.st8{fill:url(#SVGID_3_);}
</style>
<g id="BACKGROUND">
	
		<radialGradient id="SVGID_1_" cx="447.3272" cy="413.14" r="921.6791" gradientTransform="matrix(0.969 0 0 -0.969 20.0279 420.7159)" gradientUnits="userSpaceOnUse">
		<stop  offset="0" style="stop-color:#0D468A"/>
		<stop  offset="0.2996" style="stop-color:#08286A"/>
		<stop  offset="0.3268" style="stop-color:#082665"/>
		<stop  offset="0.5783" style="stop-color:#03113F"/>
		<stop  offset="0.78" style="stop-color:#010528"/>
		<stop  offset="0.9055" style="stop-color:#00001F"/>
	</radialGradient>
	<rect y="-2.3" class="st0" width="900" height="900"/>
</g>
<g id="OBJECTS">
	<image style="overflow:visible;" width="1141" height="1039" xlink:href="AD058CB7.png"  transform="matrix(1 0 0 1 -86 -39)">
	</image>
</g>
<text transform="matrix(1 0 0 1 168.5325 258.3086)"><tspan x="0" y="0" class="st1 st2 st3">GROESTL</tspan><tspan x="356.4" y="0" class="st4 st2 st3">COIN</tspan></text>
<image style="overflow:visible;" width="900" height="424" xlink:href="AD058CB5.jpg"  transform="matrix(1 0 0 1 -354.3623 1480.1523)">
</image>
<text transform="matrix(1 0 0 1 214.3883 302.1738)"><tspan x="0" y="0" class="st1 st2 st5">22</tspan><tspan x="36" y="0" class="st1 st2 st6">ND</tspan><tspan x="65.9" y="0" class="st1 st2 st5"> SEPTEMBER 2019 </tspan><tspan x="329.6" y="0" class="st4 st2 st5">RELEASE</tspan></text>
<g>
	<g>
		
			<linearGradient id="SVGID_2_" gradientUnits="userSpaceOnUse" x1="-103.5168" y1="414.306" x2="-164.9099" y2="475.6991" gradientTransform="matrix(1 0 0 -1 202.3622 503.0551)">
			<stop  offset="0" style="stop-color:#377F94"/>
			<stop  offset="1" style="stop-color:#34ADC4"/>
		</linearGradient>
		<path class="st7" d="M88.3,96.5c-6,3.2-12.9,4.9-20.1,4.9c-5.4,0-10.5-1-15.3-2.8c0-0.2,0-0.4,0-0.5c0-1.2,0.4-2.6,1.2-4.1
			c0.8-1.5,2-3.1,3.6-4.8c4.1,0.6,10,1,17.6,1.2c5.2,0.1,8.7,0.6,10.5,1.3c1.7,0.7,2.6,2,2.6,3.7C88.4,95.8,88.3,96.2,88.3,96.5z
			 M68.4,71.8c2.6,0,4.7-1,6.3-2.9s2.5-5,2.5-9.1c0-5.4-1.2-9.6-3.5-12.6c-1.7-2.2-3.9-3.3-6.6-3.3c-2.5,0-4.6,1-6.3,3
			c-1.7,2-2.5,5.1-2.5,9.2c0,5.3,1.1,9.5,3.4,12.4C63.4,70.6,65.6,71.8,68.4,71.8z M68.1,14.6c-24,0-43.4,19.4-43.4,43.4
			c0,16.7,9.4,31.2,23.3,38.5c0.5-0.7,1.1-1.4,1.7-2.2c0.2-0.3,2-2.1,5.2-5.5c-1.8-1.1-3-2-3.7-2.8c-0.7-0.8-1.1-1.8-1.1-2.8
			c0-1.2,0.5-2.6,1.4-4.2c1-1.6,3.2-3.9,6.7-6.8c-2.8-1.4-5-3.3-6.5-5.8c-1.5-2.5-2.3-5.2-2.3-8.3c0-4.6,1.7-8.6,5.2-11.9
			c3.5-3.3,7.9-5,13.4-5c4.3,0,8,1,11.2,3c2.8-2.7,4.9-5.1,6.2-7c1.8-2.6,2.8-5,2.8-7.2c0-1.7-0.5-3-1.5-4.1c-1-1.1-2.2-1.6-3.6-1.6
			c-1.3,0-2.4,0.4-3.4,1.1c-1,0.7-1.8,1.8-2.3,3.3h-0.7c0.3-2.4,1.1-4.2,2.5-5.5c1.3-1.3,3-1.9,5-1.9c2.1,0,3.9,0.7,5.3,2
			c1.4,1.4,2.1,3,2.1,4.8c0,1.3-0.3,2.6-0.9,4c-0.9,2.1-2.5,4.3-4.6,6.6c-3.1,3.4-5.1,5.5-5.9,6.2l0,0.1h6.7c1.4,0,2.4-0.1,2.9-0.2
			c0.6-0.1,1.1-0.3,1.5-0.6c0.4-0.3,0.8-0.8,1.2-1.3h0.7l-2.3,6.7h-7.1c1.6,2.3,2.4,5.2,2.4,8.7c0,4.3-1.7,8.1-5,11.2
			c-3.3,3.1-7.8,4.6-13.4,4.6c-2.3,0-4.7-0.3-7.1-1c-1.5,1.3-2.5,2.4-3,3.3c-0.5,1-0.8,1.8-0.8,2.4c0,0.6,0.3,1.1,0.8,1.7
			c0.6,0.5,1.7,0.9,3.3,1.2c0.9,0.2,3.3,0.3,7.1,0.4c7,0.2,11.5,0.5,13.6,0.8c3.2,0.4,5.7,1.6,7.6,3.5c1.9,1.9,2.8,4.2,2.8,7
			c0,0.3,0,0.5,0,0.8c11.8-7.8,19.5-21.1,19.5-36.2C111.6,34.1,92.1,14.6,68.1,14.6z"/>
		
			<linearGradient id="SVGID_3_" gradientUnits="userSpaceOnUse" x1="-162.957" y1="473.7446" x2="-105.4704" y2="416.2579" gradientTransform="matrix(1 0 0 -1 202.3622 503.0551)">
			<stop  offset="0" style="stop-color:#00A5BD"/>
			<stop  offset="1" style="stop-color:#005E78"/>
		</linearGradient>
		<path class="st8" d="M73.7,47.2c2.3,3,3.5,7.3,3.5,12.6c0,4.1-0.8,7.2-2.5,9.1s-3.8,2.9-6.3,2.9c-2.7,0-4.9-1.1-6.7-3.3
			c-2.3-2.9-3.4-7.1-3.4-12.4c0-4.1,0.8-7.2,2.5-9.2c1.7-2,3.8-3,6.3-3C69.7,43.8,71.9,44.9,73.7,47.2z M54.9,88.9
			c-1.8-1.1-3-2-3.7-2.8c-0.7-0.8-1.1-1.8-1.1-2.8c0-1.2,0.5-2.6,1.4-4.2c1-1.6,3.2-3.9,6.7-6.8c-2.8-1.4-5-3.3-6.5-5.8
			c-1.5-2.5-2.3-5.2-2.3-8.3c0-4.6,1.7-8.6,5.2-11.9c3.5-3.3,7.9-5,13.4-5c4.3,0,8,1,11.2,3c2.8-2.7,4.9-5.1,6.2-7
			c1.8-2.6,2.8-5,2.8-7.2c0-1.7-0.5-3-1.5-4.1c-1-1.1-2.2-1.6-3.6-1.6c-1.3,0-2.4,0.4-3.4,1.1c-1,0.7-1.8,1.8-2.3,3.3h-0.7
			c0.3-2.4,1.1-4.2,2.5-5.5c1.3-1.3,3-1.9,5-1.9c1.1,0,2.2,0.2,3.1,0.6c-5.7-3-12.1-4.7-19-4.7c-22.5,0-40.6,18.2-40.6,40.6
			c0,15.8,9,29.5,22.2,36.3C50.1,93.9,51.8,92.1,54.9,88.9z M88.5,22.8c0.3,0.2,0.6,0.5,0.9,0.7c1.4,1.4,2.1,3,2.1,4.8
			c0,1.3-0.3,2.6-0.9,4c-0.9,2.1-2.5,4.3-4.6,6.6c-3.1,3.4-5.1,5.5-5.9,6.2l0,0.1h6.7c1.4,0,2.4-0.1,2.9-0.2
			c0.6-0.1,1.1-0.3,1.5-0.6c0.4-0.3,0.8-0.8,1.2-1.3h0.7l-2.3,6.7h-7.1c1.6,2.3,2.4,5.2,2.4,8.7c0,4.3-1.7,8.1-5,11.2
			c-3.3,3.1-7.8,4.6-13.4,4.6c-2.3,0-4.7-0.3-7.1-1c-1.5,1.3-2.5,2.4-3,3.3c-0.5,1-0.8,1.8-0.8,2.4c0,0.6,0.3,1.1,0.8,1.7
			c0.6,0.5,1.7,0.9,3.3,1.2c0.9,0.2,3.3,0.3,7.1,0.4c7,0.2,11.5,0.5,13.6,0.8c3.2,0.4,5.7,1.6,7.6,3.5c1.3,1.3,2.2,2.8,2.6,4.6
			c10.3-7.4,17-19.4,17-33.1C108.8,43,100.6,29.9,88.5,22.8z M85.8,91.8c-1.8-0.7-5.3-1.2-10.5-1.3c-7.6-0.2-13.5-0.6-17.6-1.2
			c-1.6,1.7-2.8,3.3-3.6,4.8c-0.3,0.6-0.6,1.2-0.8,1.8c4.6,1.8,9.6,2.8,14.9,2.8c7.2,0,13.9-1.9,19.8-5.1
			C87.5,92.8,86.8,92.2,85.8,91.8z"/>
		<path class="st1" d="M93.1,43.1h-0.7c-0.3,0.6-0.7,1-1.2,1.3c-0.4,0.3-1,0.5-1.5,0.6c-0.6,0.1-1.5,0.2-2.9,0.2h-6.7l0-0.1
			c0.8-0.8,2.8-2.8,5.9-6.2c2.1-2.3,3.7-4.5,4.6-6.6c0.6-1.3,0.9-2.6,0.9-4c0-1.8-0.7-3.4-2.1-4.8c-1.4-1.4-3.2-2-5.3-2
			c-2,0-3.6,0.6-5,1.9c-1.3,1.3-2.1,3.1-2.5,5.5h0.7c0.5-1.4,1.2-2.5,2.3-3.3c1-0.7,2.2-1.1,3.4-1.1c1.4,0,2.6,0.5,3.6,1.6
			c1,1.1,1.5,2.4,1.5,4.1c0,2.2-0.9,4.6-2.8,7.2c-1.4,1.9-3.4,4.3-6.2,7c-3.2-2-6.9-3-11.2-3c-5.4,0-9.9,1.7-13.4,5
			c-3.5,3.3-5.2,7.3-5.2,11.9c0,3,0.8,5.8,2.3,8.3c1.5,2.5,3.7,4.4,6.5,5.8c-3.5,2.9-5.7,5.2-6.7,6.8c-1,1.6-1.4,3-1.4,4.2
			c0,1.1,0.4,2,1.1,2.8c0.7,0.8,2,1.8,3.7,2.8c-3.2,3.3-5,5.2-5.2,5.5c-0.6,0.8-1.2,1.5-1.7,2.2c1.6,0.8,3.2,1.6,4.9,2.2
			c0-0.2,0-0.4,0-0.5c0-1.2,0.4-2.6,1.2-4.1c0.8-1.5,2-3.1,3.6-4.8c4.1,0.6,10,1,17.6,1.2c5.2,0.1,8.7,0.6,10.5,1.3
			c1.7,0.7,2.6,2,2.6,3.7c0,0.4,0,0.7-0.1,1c1.3-0.7,2.6-1.4,3.8-2.2c0-0.3,0-0.5,0-0.8c0-2.8-0.9-5.1-2.8-7
			c-1.9-1.9-4.4-3.1-7.6-3.5c-2.1-0.3-6.6-0.6-13.6-0.8c-3.8-0.1-6.2-0.2-7.1-0.4c-1.6-0.2-2.7-0.6-3.3-1.2
			c-0.6-0.5-0.8-1.1-0.8-1.7c0-0.7,0.3-1.5,0.8-2.4c0.5-1,1.5-2.1,3-3.3c2.4,0.7,4.8,1,7.1,1c5.6,0,10-1.5,13.4-4.6
			c3.3-3.1,5-6.8,5-11.2c0-3.5-0.8-6.4-2.4-8.7h7.1L93.1,43.1z M74.7,68.9c-1.7,1.9-3.8,2.9-6.3,2.9c-2.7,0-4.9-1.1-6.7-3.3
			c-2.3-2.9-3.4-7.1-3.4-12.4c0-4.1,0.8-7.2,2.5-9.2c1.7-2,3.8-3,6.3-3c2.7,0,4.9,1.1,6.6,3.3c2.3,3,3.5,7.3,3.5,12.6
			C77.2,63.9,76.3,66.9,74.7,68.9z"/>
	</g>
</g>
</svg>
