<?xml version="1.0" encoding="utf-8"?>
<!-- Generator: Adobe Illustrator 23.0.1, SVG Export Plug-In . SVG Version: 6.00 Build 0)  -->
<svg version="1.1" id="Layer_1" xmlns:serif="http://www.serif.com/"
	 xmlns="http://www.w3.org/2000/svg" xmlns:xlink="http://www.w3.org/1999/xlink" x="0px" y="0px" viewBox="0 0 288.3 172.8"
	 style="enable-background:new 0 0 288.3 172.8;" xml:space="preserve">
<style type="text/css">
	.st0{fill:#143942;}
	.st1{opacity:0.3629;}
	.st2{fill:#FFFFFF;fill-opacity:0.1059;}
	.st3{fill:#FFFFFF;fill-opacity:0.1686;}
	.st4{fill:#FFFFFF;fill-opacity:0.4118;}
	.st5{fill:#FFFFFF;fill-opacity:0.1412;}
	.st6{fill:#FFFFFF;fill-opacity:0.349;}
	.st7{fill:#FFFFFF;fill-opacity:0.149;}
	.st8{fill:#FFFFFF;fill-opacity:0.1608;}
	.st9{fill:#FFFFFF;fill-opacity:0.2;}
	.st10{fill:#EBEBEB;fill-opacity:9.803920e-02;}
	.st11{opacity:0.6;fill:url(#SVGID_1_);enable-background:new    ;}
	.st12{fill:url(#SVGID_2_);}
	.st13{fill:#FFFFFF;}
	.st14{fill:#F8E19A;}
	.st15{fill:#1BA4BA;}
	.st16{font-family:'FranklinGothic-DemiCond';}
	.st17{font-size:23.1011px;}
</style>
<g id="Rectangle-1" transform="matrix(-0.933904,-1.1437e-16,1.20053e-16,-0.98031,490.947,297.046)" serif:id="Rectangle 1">
	<rect x="217" y="126.8" class="st0" width="308.7" height="176.3"/>
</g>
<g>
	<g class="st1">
		<g transform="matrix(0.500938,0,0,0.500938,-0.59437,-0.183314)">
			<path class="st2" d="M31.6,2.1h8.9L111,33.8L71.5,2.1h2.8l40.4,32.3l-4.9-32.3h1.7l5.1,33.4l57.9-33.4h3.5l-60.4,34.8l0.1,0.1
				l49.4,8.6l12.2-43.5h1.8l-12.3,43.8l49.5,8.6l-0.1-0.2l0.4-0.2l-37-52h2.1L219.1,52l-1.9-49.9h1.7l1.9,48.8l16-48.8h1.8l-16.4,50
				l52.4-26.5l2.8-23.5h1.7l-2.7,22.5l13-6.6v2l-13.2,6.7l-5.4,45l18.6-25.6V49l-17.3,23.7l-1.4-1l-0.1,0.5l1.1,0.4l-0.3,0.8l0,0
				l0.9-0.1l0.5,4.6l16.2,38.9l-1.6,0.7l-14-33.7l3.5,34.5l11.3-0.9v0.3l0.9,0.2l-7.7,45.6l0.1,0.9l7.9,1.8v1.8l-8.9-2l-0.2,0.4
				l-0.1-0.1l0,0l0.1,0.8h-0.1l-0.9,7.8h-1.7l0.9-7.7l-38.1,2.6l-1.7,5h-1.8l1.6-4.9l-19.6,1.4l0.1,3.6h-1.7l-0.1-3.4l-34.1,2.4
				l0.8,1.1h-2.1l-0.7-0.9l-0.9,0.1v-0.4L178,175h-3.5l3.6-2.1l-69.6-17.5l3,19.6h-1.7l-3-19.5l-41.9,11.9l9.5,7.6h-2.8l-8.8-7
				L38,175h-5.1l-31.4-7.1v-1.8l32.3,7.3L1.4,119.1v-6.2L32.5,6.4L1.4,49.1v-2.9L31.5,4.8L1.4,20v-1.9L32.5,2.4L31.6,2.1z
				 M35.9,173.7l25.2-7.1L5,121.7L35.9,173.7z M182.9,171.1l-0.3,1.1l34.5-2.4l-1.6-43.1L182.9,171.1z M168.4,124.7l12.5,46.2
				l0.4-0.5l17.7-55l-4.9-3.2L168.4,124.7z M137.3,139.8l41.8,30.9l-12.3-45.2L137.3,139.8z M108.9,153.6l0.1,0.2l67.2,16.9
				l-40.6-30L108.9,153.6z M218.7,169.7l20.2-1.4l7.5-22.9L217.1,127L218.7,169.7z M240.8,168.1l37.7-2.6v-0.2l-30.5-19L240.8,168.1
				z M63.1,166l42-11.9L4.7,119.2L63.1,166z M184.6,165.9l29.8-40.7l-13.8-8.9L184.6,165.9z M256,121.9l-7.4,22.6l31,19.4l0.1-0.4
				l-4.3-43.2L256,121.9z M277.1,120.3l3.7,36.8l6.3-37.6L277.1,120.3z M7.5,118.4l99,34.4h0.1l-23.6-50L7.5,118.4z M108.1,151.8
				l14.8-20.5l-37.5-27.7L108.1,151.8z M111,150.6l22.9-11.1l-9.7-7.2L111,150.6z M218,125l-0.3,0.3l29.4,18.4l7.1-21.6L218,125z
				 M125.3,130.9l10.5,7.7l30.6-14.9L156.7,88l-0.4-0.2L125.3,130.9z M86.3,102.1l37.5,27.7l30-41.6L86.3,102.1z M217.2,123.3
				l49.6-46.5l-63.5,30.9l-2.2,6.9l15.1,9.7l0.1-0.1l-0.1-0.8L217.2,123.3z M220,123.1l34.7-2.8l14.1-43L220,123.1z M168,123
				l24.5-11.9l-33.6-21.7L168,123z M256.6,120.2l18.6-1.5l-4-40.2l-0.5-1.3L256.6,120.2z M3.1,116.8l1.2,0.4l77.9-16L52.9,79.5
				L3.1,116.8z M2.6,115.1l49.8-37.4l-17-75.2L2.6,115.1z M195.9,111.3l3.6,2.3l1.6-4.9L195.9,111.3z M158.2,87l36,23.2l7.6-3.7
				l8.1-25.2L158.2,87z M211.9,81l-7.9,24.4L266.7,75L211.9,81z M83.8,100.2l0.7,0.5l67.8-14l-77.7-6.1L83.8,100.2z M80.8,98
				l-8.3-17.5l-17.3-1.4L80.8,98z M166.5,47.3l-47.3-8.2l37.7,46.4l-0.3-0.6l0.6-0.3l-1.1-0.3L166.5,47.3z M69.1,69.2l4.6,9.7
				l80.7,6.3L116.9,39L69.1,69.2z M160.4,85l50.2-5.6l6.9-21.5L160.4,85z M157.9,84.2L217.5,56l-49.3-8.5L157.9,84.2z M221.1,57.3
				h-0.5l-0.1,0.3l-0.8-0.3h-0.2l-7,21.9l55.2-6.1L221,56.9L221.1,57.3z M55.9,77.5l15.8,1.2l-4.1-8.6L55.9,77.5z M52.9,77.7
				l0.4,0.5L52.9,77.7L52.9,77.7z M53.9,76.7l13-8.2L38.5,8.3L53.9,76.7z M221.5,54.5l-0.2,0.7L269,71.8l5.3-44.1L221.5,54.5z
				 M115.1,37.5L37.8,2.8l30.6,64.8l47.3-29.8h-0.1l-0.5,0.1V37.5z"/>
		</g>
		<g transform="matrix(0.500938,0,0,0.500938,249.968,-0.183314)">
			<path class="st2" d="M-180.5,2.1h8.9l70.6,31.7l-39.6-31.7h2.8l40.4,32.3l-4.9-32.3h1.7l5.1,33.4l57.9-33.4h3.5l-60.4,34.8
				l0.1,0.1l49.4,8.6l12.2-43.5h1.8l-12.3,43.8l49.5,8.6L6,54.2L6.4,54L-30.5,2.1h2.1L7,52L5.1,2.1h1.7l1.9,48.8l16-48.8h1.8
				l-16.4,50l52.4-26.5l2.8-23.5H67l-2.7,22.5l13-6.6v2l-13.2,6.7l-5.4,45l18.6-25.6V49L60.1,72.8l-1.4-1l-0.1,0.5l1.1,0.4l-0.3,0.8
				l0,0l0.9-0.1l0.5,4.6L77,117l-1.6,0.7L61.4,84l3.5,34.5l11.3-0.9v0.3l0.9,0.2l-7.7,45.6l0.1,0.9l7.9,1.8v1.8l-8.9-2l-0.2,0.4
				l-0.1-0.1l0,0l0.1,0.8h-0.1l-0.9,7.8h-1.7l0.9-7.7L28.4,170l-1.7,5h-1.8l1.6-4.9l-19.6,1.4l0.1,3.6H5.1L5,171.5l-34.1,2.4
				l0.8,1.1h-2.1l-0.7-0.9l-0.9,0.1v-0.4l-2.2,1.2h-3.5l3.6-2.1l-69.6-17.5l3,19.6h-1.7l-3-19.5l-41.9,11.9l9.5,7.6h-2.8l-8.8-7
				l-24.8,7h-5.1l-31.4-7.1v-1.8l32.3,7.3l-32.3-54.3v-6.2l31.1-106.4l-31.1,42.7v-2.9l30.1-41.4L-210.7,20v-1.9l31.1-15.8
				L-180.5,2.1z M-176.2,173.7l25.2-7.1l-56.1-44.9L-176.2,173.7z M-29.2,171.1l-0.3,1.1L5,169.8l-1.6-43.1L-29.2,171.1z
				 M-43.7,124.7l12.5,46.2l0.4-0.5l17.7-55l-4.9-3.2L-43.7,124.7z M-74.8,139.8l41.8,30.9l-12.3-45.2L-74.8,139.8z M-103.2,153.6
				l0.1,0.2l67.2,16.9l-40.6-30L-103.2,153.6z M6.7,169.7l20.2-1.4l7.5-22.9L5,127L6.7,169.7z M28.8,168.1l37.7-2.6v-0.2l-30.6-19.1
				L28.8,168.1z M-149,166l42-11.9l-100.4-34.9L-149,166z M-27.5,165.9l29.8-40.7l-13.8-8.9L-27.5,165.9z M43.9,121.9l-7.4,22.6
				l31,19.4l0.1-0.4l-4.3-43.2L43.9,121.9z M65,120.3l3.7,36.8l6.3-37.6L65,120.3z M-204.6,118.4l99,34.4h0.1l-23.6-50L-204.6,118.4
				z M-104,151.8l14.8-20.5l-37.5-27.7L-104,151.8z M-101,150.6l22.9-11.1l-9.7-7.2L-101,150.6z M5.9,125l-0.3,0.3L35,143.6
				l7.1-21.6L5.9,125z M-86.8,130.9l10.5,7.7l30.6-14.9L-55.4,88l-0.4-0.2L-86.8,130.9z M-125.7,102.1l37.5,27.7l30-41.6
				L-125.7,102.1z M5.2,123.3l49.6-46.5l-63.5,30.9l-2.2,6.9l15.1,9.7l0.1-0.1l-0.1-0.8L5.2,123.3z M7.9,123.1l34.7-2.8l14.1-43
				L7.9,123.1z M-44.1,123l24.5-11.9l-33.6-21.7L-44.1,123z M44.5,120.2l18.6-1.5l-4-40.2l-0.5-1.3L44.5,120.2z M-208.9,116.8
				l1.2,0.4l77.9-16l-29.3-21.7L-208.9,116.8z M-209.5,115.1l49.8-37.4l-17-75.2L-209.5,115.1z M-16.1,111.3l3.6,2.3l1.6-4.9
				L-16.1,111.3z M-53.8,87l36,23.2l7.6-3.7l8.1-25.2L-53.8,87z M-0.2,81L-8,105.4L54.6,75L-0.2,81z M-128.3,100.2l0.7,0.5l67.8-14
				l-77.7-6.1L-128.3,100.2z M-131.2,98l-8.3-17.5l-17.3-1.4L-131.2,98z M-45.6,47.3l-47.3-8.2l37.7,46.4l-0.3-0.6l0.6-0.3l-1.1-0.3
				L-45.6,47.3z M-143,69.2l4.6,9.7l80.7,6.3L-95.2,39L-143,69.2z M-51.7,85l50.2-5.6L5.4,58L-51.7,85z M-54.2,84.2L5.4,56.1
				l-49.3-8.5L-54.2,84.2z M9,57.3H8.5l-0.1,0.3l-0.8-0.3H7.4l-7,21.9l55.2-6.1L9,56.9V57.3z M-156.2,77.5l15.8,1.2l-4.1-8.6
				L-156.2,77.5z M-159.2,77.7l0.4,0.5L-159.2,77.7L-159.2,77.7z M-158.1,76.7l13-8.2l-28.4-60.2L-158.1,76.7z M9.4,54.5l-0.2,0.7
				L57,71.8l5.3-44.1L9.4,54.5z M-97,37.5l-77.2-34.7l30.6,64.8l47.3-29.8h-0.1l-0.5,0.1L-97,37.5z"/>
		</g>
		<g transform="matrix(0.500938,0,0,0.500938,249.968,150.132)">
			<path class="st2" d="M-180.5-125.1h8.9l70.6,31.7l-39.6-31.7h2.8l40.4,32.3l-4.9-32.3h1.7l5.1,33.4l57.9-33.4h3.5l-60.4,34.8
				l0.1,0.1l49.4,8.6l12.2-43.5h1.8l-12.3,43.8l49.5,8.6L6-73l0.4-0.2l-36.9-51.9h2.1L7-75.2l-1.9-49.9h1.7l1.9,48.8l16-48.8h1.8
				l-16.4,50l52.4-26.5l2.8-23.5H67l-2.7,22.5l13-6.6v1.9l-13.2,6.7l-5.4,45l18.6-25.6v2.9L60.1-54.4l-1.4-1l-0.1,0.5l1.1,0.4
				l-0.3,0.8l0,0l0.9-0.1l0.5,4.6l16.2,39l-1.6,0.7l-14-33.7l3.5,34.5l11.3-0.9v0.3l0.9,0.2l-7.7,45.6l0.1,0.9l7.9,1.8V41l-8.9-2
				l-0.2,0.4l-0.1-0.1l0,0l0.1,0.8h-0.1l-0.9,7.8h-1.7l0.9-7.7l-38.1,2.6l-1.7,5h-1.8l1.6-4.9L6.7,44.2l0.1,3.6H5.1L5,44.3
				l-34.1,2.4l0.8,1.1h-2.1l-0.7-0.9L-32,47v-0.4l-2.2,1.2h-3.5l3.6-2.1l-69.6-17.5l3,19.6h-1.7l-3-19.5l-41.9,11.9l9.5,7.6h-2.8
				l-8.8-7l-24.8,7h-5.1l-31.4-7.1v-1.8l32.3,7.3l-32.3-54.3v-6.2l31.1-106.4L-210.7-78v-2.9l30.1-41.4l-30.1,15.3v-1.9l31.1-15.8
				L-180.5-125.1z M-176.2,46.5l25.2-7.1l-56.1-44.9L-176.2,46.5z M-29.2,43.9l-0.3,1.1L5,42.6L3.3-0.5L-29.2,43.9z M-43.7-2.6
				l12.5,46.2l0.4-0.5l17.7-55l-4.9-3.2L-43.7-2.6z M-74.8,12.5L-33,43.4L-45.2-1.8L-74.8,12.5z M-103.2,26.3l0.1,0.2l67.2,16.9
				l-40.6-30L-103.2,26.3z M6.7,42.4L26.9,41l7.5-22.9L5-0.3L6.7,42.4z M28.8,40.9l37.7-2.6v-0.2L35.9,19L28.8,40.9z M-149,38.8
				l42-11.9L-207.4-8L-149,38.8z M-27.5,38.6L2.3-2l-13.8-8.9L-27.5,38.6z M43.9-5.3l-7.4,22.6l31,19.4l0.1-0.4L63.3-6.8L43.9-5.3z
				 M65-7l3.7,36.8L75-7.8L65-7z M-204.6-8.9l99,34.4h0.1l-23.6-50L-204.6-8.9z M-104,24.5L-89.2,4l-37.5-27.7L-104,24.5z
				 M-101,23.4l22.9-11.1L-87.8,5L-101,23.4z M5.9-2.2L5.6-2L35,16.4l7.1-21.6L5.9-2.2z M-86.8,3.6l10.5,7.7l30.6-14.9l-9.7-35.7
				l-0.4-0.2L-86.8,3.6z M-125.7-25.1l37.5,27.7l30-41.6L-125.7-25.1z M5.2-3.9l49.6-46.5L-8.8-19.5l-2.2,6.9L4.1-2.9L4.2-3L4.1-3.8
				L5.2-3.9z M7.9-4.1l34.7-2.8l14.1-43L7.9-4.1z M-44.1-4.3l24.5-11.9l-33.6-21.7L-44.1-4.3z M44.5-7.1l18.6-1.5l-4-40.2L58.6-50
				L44.5-7.1z M-208.9-10.4l1.2,0.4l77.9-16l-29.3-21.7L-208.9-10.4z M-209.5-12.1l49.8-37.4l-17-75.2L-209.5-12.1z M-16.1-16
				l3.6,2.3l1.6-4.9L-16.1-16z M-53.8-40.3l36,23.2l7.6-3.7L-2.1-46L-53.8-40.3z M-0.2-46.2L-8-21.8l62.6-30.4L-0.2-46.2z
				 M-128.3-27l0.7,0.5l67.8-14l-77.7-6.1L-128.3-27z M-131.2-29.2l-8.3-17.5l-17.3-1.4L-131.2-29.2z M-45.6-80l-47.3-8.2l37.7,46.4
				l-0.3-0.6l0.6-0.3L-56-43L-45.6-80z M-143-58l4.6,9.7l80.7,6.3l-37.5-46.2L-143-58z M-51.7-42.2l50.2-5.6l6.9-21.5L-51.7-42.2z
				 M-54.2-43L5.4-71.1l-49.3-8.5L-54.2-43z M9-70H8.5l-0.1,0.3L7.6-70H7.4l-7,22l55.2-6.1L9-70.3V-70z M-156.2-49.7l15.8,1.2
				l-4.1-8.6L-156.2-49.7z M-159.2-49.5l0.4,0.5L-159.2-49.5L-159.2-49.5z M-158.1-50.5l13-8.2l-28.4-60.2L-158.1-50.5z M9.4-72.8
				l-0.2,0.7L57-55.5l5.3-44.1L9.4-72.8z M-97-89.7l-77.2-34.7l30.6,64.8l47.3-29.8h-0.1l-0.5,0.1L-97-89.7z"/>
		</g>
		<g transform="matrix(0.500938,0,0,0.500938,-0.542185,150.132)">
			<path class="st2" d="M31.5-125.1h8.9L111-93.4l-39.6-31.7h2.8l40.4,32.3l-4.9-32.3h1.7l5.1,33.4l57.9-33.4h3.5l-60.4,34.8
				l0.1,0.1l49.4,8.6l12.2-43.5h1.8l-12.3,43.8l49.5,8.6L218-73l0.4-0.2l-36.9-51.9h2.1L219-75.2l-1.9-49.9h1.7l1.9,48.8l16-48.8
				h1.8l-16.4,50l52.4-26.5l2.8-23.5h1.7l-2.7,22.5l13-6.6v1.9l-13.2,6.7l-5.4,45l18.6-25.6v2.9L272-54.6l-1.4-1l-0.1,0.5l1.1,0.4
				l-0.3,0.8l0,0l0.9-0.1l0.5,4.6L289-10.2l-1.6,0.7l-14-33.7l3.5,34.5l11.3-0.9v0.3l0.9,0.2l-7.7,45.6l0.1,0.9l7.9,1.8V41l-8.9-2
				l-0.2,0.4l-0.1-0.1l0,0l0.1,0.8h-0.1l-0.9,7.8h-1.7l0.9-7.7l-38.1,2.6l-1.7,5h-1.8l1.6-4.9l-19.6,1.4l0.1,3.6h-1.7l-0.1-3.4
				l-34.1,2.4l0.8,1.1h-2.1l-0.7-0.9l-0.9,0.1v-0.4L178,48h-3.5l3.6-2.1l-69.6-17.5l3,19.6h-1.7l-3-19.5L64.7,40.1l9.5,7.6h-2.8
				l-8.8-7l-24.8,7h-5.1L1.4,40.6v-1.8l32.3,7.3L1.4-8.2v-6.2l31.1-106.4L1.4-78.1V-81l30.1-41.4L1.4-107.2v-1.9l31.1-15.8
				L31.5-125.1z M35.9,46.5L61,39.4L4.9-5.6L35.9,46.5z M182.8,43.9l-0.3,1.1l34.5-2.4l-1.6-43.1L182.8,43.9z M168.4-2.6l12.5,46.2
				l0.4-0.5l17.7-55l-4.9-3.2L168.4-2.6z M137.3,12.5l41.8,30.9L166.8-1.8L137.3,12.5z M108.9,26.3l0.1,0.2l67.2,16.9l-40.6-30
				L108.9,26.3z M218.7,42.4l20.2-1.4l7.5-22.9L217.1-0.3L218.7,42.4z M240.8,40.9l37.7-2.6v-0.2L248,19L240.8,40.9z M63.1,38.8
				l42-11.9L4.6-8L63.1,38.8z M184.5,38.6L214.3-2l-13.8-8.9L184.5,38.6z M256-5.3l-7.4,22.6l31,19.4l0.1-0.4l-4.3-43.2L256-5.3z
				 M277-7l3.7,36.8L287-7.8L277-7z M7.5-8.9l99,34.4h0.1L83-24.4L7.5-8.9z M108,24.5L122.8,4L85.3-23.7L108,24.5z M111,23.4
				l22.9-11.1L124.2,5L111,23.4z M217.9-2.2L217.6-2L247,16.4l7.1-21.6L217.9-2.2z M125.2,3.6l10.5,7.7l30.6-14.9l-9.7-35.7
				l-0.4-0.2L125.2,3.6z M86.3-25.1l37.5,27.7l30-41.6L86.3-25.1z M217.2-3.9l49.6-46.5l-63.5,30.9l-2.2,6.9l15.1,9.7l0.1-0.1
				l-0.1-0.8L217.2-3.9z M219.9-4.1l34.7-2.8l14.1-43L219.9-4.1z M167.9-4.3l24.5-11.9l-33.6-21.7L167.9-4.3z M256.5-7.1l18.6-1.5
				l-4-40.2l-0.5-1.3L256.5-7.1z M3.1-10.4L4.3-10l77.9-16L52.8-47.7L3.1-10.4z M2.5-12.1l49.8-37.4l-17-75.2L2.5-12.1z M195.9-16
				l3.6,2.3l1.6-4.9L195.9-16z M158.2-40.3l36,23.2l7.6-3.7L210-46L158.2-40.3z M211.8-46.2L204-21.8l62.6-30.4L211.8-46.2z
				 M83.7-27l0.7,0.5l67.8-14l-77.7-6.1L83.7-27z M80.8-29.2l-8.3-17.5L55.3-48L80.8-29.2z M166.4-80l-47.3-8.2l37.7,46.4l-0.3-0.6
				l0.6-0.3L156-43L166.4-80z M69.1-58l4.6,9.7l80.7,6.3l-37.5-46.2L69.1-58z M160.3-42.2l50.2-5.6l6.9-21.5L160.3-42.2z M157.9-43
				l59.6-28.2l-49.3-8.5L157.9-43z M221-70h-0.5l-0.1,0.3l-0.8-0.3h-0.2l-7,21.9l55.2-6.1L221-70.3V-70z M55.9-49.7l15.8,1.2
				l-4.1-8.6L55.9-49.7z M52.8-49.5l0.4,0.5L52.8-49.5L52.8-49.5z M53.9-50.5l13-8.2l-28.4-60.2L53.9-50.5z M221.4-72.8l-0.2,0.7
				L269-55.5l5.3-44.1L221.4-72.8z M115-89.7l-77.2-34.7l30.6,64.8l47.3-29.8h-0.1l-0.5,0.1L115-89.7z"/>
		</g>
		<g transform="matrix(0.500938,0,0,0.500938,-269.515,-452.67)">
			<g id="Ellipse-1" transform="matrix(1,0,0,1,538.598,904.155)" serif:id="Ellipse 1">
				<circle class="st3" cx="107.2" cy="153.8" r="2.3"/>
			</g>
			<g id="Ellipse-1-copy" transform="matrix(1,0,0,1,538.598,904.155)" serif:id="Ellipse 1 copy">
				<circle class="st4" cx="52.5" cy="77.8" r="2.3"/>
			</g>
			<g id="Ellipse-1-copy-6" transform="matrix(1,0,0,1,538.598,904.155)" serif:id="Ellipse 1 copy 6">
				<circle class="st4" cx="179.8" cy="171.7" r="2.3"/>
			</g>
			<g id="Ellipse-1-copy-2" transform="matrix(1,0,0,1,538.598,904.155)" serif:id="Ellipse 1 copy 2">
				<circle class="st5" cx="215.5" cy="124.5" r="2.3"/>
			</g>
			<g id="Ellipse-1-copy-3" transform="matrix(1,0,0,1,538.598,904.155)" serif:id="Ellipse 1 copy 3">
				<circle class="st6" cx="219.5" cy="55.3" r="2.3"/>
			</g>
			<g id="Ellipse-1-copy-7" transform="matrix(1,0,0,1,538.598,904.155)" serif:id="Ellipse 1 copy 7">
				<circle class="st4" cx="270.2" cy="73.2" r="2.3"/>
			</g>
			<g id="Ellipse-1-copy-8" transform="matrix(1,0,0,1,538.598,904.155)" serif:id="Ellipse 1 copy 8">
				<circle class="st4" cx="278.9" cy="165.4" r="2.3"/>
			</g>
			<g id="Ellipse-1-copy-9" transform="matrix(1,0,0,1,538.598,904.155)" serif:id="Ellipse 1 copy 9">
				<circle class="st4" cx="156.2" cy="85.9" r="2.3"/>
			</g>
			<g id="Ellipse-1-copy-10" transform="matrix(1,0,0,1,538.598,904.155)" serif:id="Ellipse 1 copy 10">
				<circle class="st7" cx="-1.1" cy="117.5" r="2.3"/>
			</g>
			<g id="Ellipse-1-copy-14" transform="matrix(1,0,0,1,538.598,904.155)" serif:id="Ellipse 1 copy 14">
				<circle class="st7" cx="288.1" cy="117.5" r="2.3"/>
			</g>
			<g id="Ellipse-1-copy-4" transform="matrix(1,0,0,1,538.598,904.155)" serif:id="Ellipse 1 copy 4">
				<circle class="st8" cx="116.4" cy="37.5" r="2.3"/>
			</g>
			<g id="Ellipse-1-copy-11" transform="matrix(1,0,0,1,538.598,904.155)" serif:id="Ellipse 1 copy 11">
				<circle class="st9" cx="34.6" cy="1.8" r="2.3"/>
			</g>
			<g id="Ellipse-1-copy-13" transform="matrix(1,0,0,1,538.598,904.155)" serif:id="Ellipse 1 copy 13">
				<circle class="st4" cx="34.6" cy="174.6" r="2.3"/>
			</g>
			<g id="Ellipse-1-copy-12" transform="matrix(1,0,0,1,538.598,904.155)" serif:id="Ellipse 1 copy 12">
				<circle class="st9" cx="34.6" cy="176.3" r="2.3"/>
			</g>
		</g>
		<g transform="matrix(0.500938,0,0,0.500938,-18.0316,-452.67)">
			<g id="Ellipse-11" transform="matrix(1,0,0,1,538.598,904.155)" serif:id="Ellipse 1">
				<circle class="st3" cx="-105.6" cy="153.8" r="2.3"/>
			</g>
			<g id="Ellipse-1-copy1" transform="matrix(1,0,0,1,538.598,904.155)" serif:id="Ellipse 1 copy">
				<circle class="st4" cx="-160.4" cy="77.8" r="2.3"/>
			</g>
			<g id="Ellipse-1-copy-61" transform="matrix(1,0,0,1,538.598,904.155)" serif:id="Ellipse 1 copy 6">
				<circle class="st4" cx="-33.1" cy="171.7" r="2.3"/>
			</g>
			<g id="Ellipse-1-copy-21" transform="matrix(1,0,0,1,538.598,904.155)" serif:id="Ellipse 1 copy 2">
				<circle class="st5" cx="2.7" cy="124.5" r="2.3"/>
			</g>
			<g id="Ellipse-1-copy-31" transform="matrix(1,0,0,1,538.598,904.155)" serif:id="Ellipse 1 copy 3">
				<circle class="st6" cx="6.7" cy="55.3" r="2.3"/>
			</g>
			<g id="Ellipse-1-copy-71" transform="matrix(1,0,0,1,538.598,904.155)" serif:id="Ellipse 1 copy 7">
				<circle class="st4" cx="57.4" cy="73.2" r="2.3"/>
			</g>
			<g id="Ellipse-1-copy-81" transform="matrix(1,0,0,1,538.598,904.155)" serif:id="Ellipse 1 copy 8">
				<circle class="st4" cx="66" cy="165.4" r="2.3"/>
			</g>
			<g id="Ellipse-1-copy-91" transform="matrix(1,0,0,1,538.598,904.155)" serif:id="Ellipse 1 copy 9">
				<circle class="st4" cx="-56.7" cy="85.9" r="2.3"/>
			</g>
			<g id="Ellipse-1-copy-101" transform="matrix(1,0,0,1,538.598,904.155)" serif:id="Ellipse 1 copy 10">
				<circle class="st7" cx="-213.9" cy="117.5" r="2.3"/>
			</g>
			<g id="Ellipse-1-copy-141" transform="matrix(1,0,0,1,538.598,904.155)" serif:id="Ellipse 1 copy 14">
				<circle class="st7" cx="75.2" cy="117.5" r="2.3"/>
			</g>
			<g id="Ellipse-1-copy-41" transform="matrix(1,0,0,1,538.598,904.155)" serif:id="Ellipse 1 copy 4">
				<circle class="st8" cx="-96.4" cy="37.5" r="2.3"/>
			</g>
			<g id="Ellipse-1-copy-111" transform="matrix(1,0,0,1,538.598,904.155)" serif:id="Ellipse 1 copy 11">
				<circle class="st9" cx="-178.2" cy="1.8" r="2.3"/>
			</g>
			<g id="Ellipse-1-copy-131" transform="matrix(1,0,0,1,538.598,904.155)" serif:id="Ellipse 1 copy 13">
				<circle class="st4" cx="-178.2" cy="174.6" r="2.3"/>
			</g>
			<g id="Ellipse-1-copy-121" transform="matrix(1,0,0,1,538.598,904.155)" serif:id="Ellipse 1 copy 12">
				<circle class="st9" cx="-178.2" cy="176.3" r="2.3"/>
			</g>
		</g>
		<g transform="matrix(0.500938,0,0,0.500938,-269.515,-302.328)">
			<g id="Ellipse-12" transform="matrix(1,0,0,1,538.598,904.155)" serif:id="Ellipse 1">
				<circle class="st3" cx="107.2" cy="26.6" r="2.3"/>
			</g>
			<g id="Ellipse-1-copy2" transform="matrix(1,0,0,1,538.598,904.155)" serif:id="Ellipse 1 copy">
				<circle class="st4" cx="52.5" cy="-49.4" r="2.3"/>
			</g>
			<g id="Ellipse-1-copy-62" transform="matrix(1,0,0,1,538.598,904.155)" serif:id="Ellipse 1 copy 6">
				<circle class="st4" cx="179.8" cy="44.4" r="2.3"/>
			</g>
			<g id="Ellipse-1-copy-22" transform="matrix(1,0,0,1,538.598,904.155)" serif:id="Ellipse 1 copy 2">
				<circle class="st5" cx="215.5" cy="-2.8" r="2.3"/>
			</g>
			<g id="Ellipse-1-copy-32" transform="matrix(1,0,0,1,538.598,904.155)" serif:id="Ellipse 1 copy 3">
				<circle class="st6" cx="219.5" cy="-71.9" r="2.3"/>
			</g>
			<g id="Ellipse-1-copy-72" transform="matrix(1,0,0,1,538.598,904.155)" serif:id="Ellipse 1 copy 7">
				<circle class="st4" cx="270.2" cy="-54.1" r="2.3"/>
			</g>
			<g id="Ellipse-1-copy-82" transform="matrix(1,0,0,1,538.598,904.155)" serif:id="Ellipse 1 copy 8">
				<circle class="st4" cx="278.9" cy="38.1" r="2.3"/>
			</g>
			<g id="Ellipse-1-copy-92" transform="matrix(1,0,0,1,538.598,904.155)" serif:id="Ellipse 1 copy 9">
				<circle class="st4" cx="156.2" cy="-41.4" r="2.3"/>
			</g>
			<g id="Ellipse-1-copy-102" transform="matrix(1,0,0,1,538.598,904.155)" serif:id="Ellipse 1 copy 10">
				<circle class="st7" cx="-1.1" cy="-9.7" r="2.3"/>
			</g>
			<g id="Ellipse-1-copy-142" transform="matrix(1,0,0,1,538.598,904.155)" serif:id="Ellipse 1 copy 14">
				<circle class="st7" cx="288.1" cy="-9.7" r="2.3"/>
			</g>
			<g id="Ellipse-1-copy-42" transform="matrix(1,0,0,1,538.598,904.155)" serif:id="Ellipse 1 copy 4">
				<circle class="st8" cx="116.4" cy="-89.8" r="2.3"/>
			</g>
			<g id="Ellipse-1-copy-112" transform="matrix(1,0,0,1,538.598,904.155)" serif:id="Ellipse 1 copy 11">
				<circle class="st9" cx="34.6" cy="-125.5" r="2.3"/>
			</g>
			<g id="Ellipse-1-copy-132" transform="matrix(1,0,0,1,538.598,904.155)" serif:id="Ellipse 1 copy 13">
				<circle class="st4" cx="34.6" cy="47.3" r="2.3"/>
			</g>
			<g id="Ellipse-1-copy-122" transform="matrix(1,0,0,1,538.598,904.155)" serif:id="Ellipse 1 copy 12">
				<circle class="st9" cx="34.6" cy="49" r="2.3"/>
			</g>
		</g>
		<g transform="matrix(0.500938,0,0,0.500938,-18.0316,-302.328)">
			<g id="Ellipse-13" transform="matrix(1,0,0,1,538.598,904.155)" serif:id="Ellipse 1">
				<circle class="st3" cx="-105.6" cy="26.6" r="2.3"/>
			</g>
			<g id="Ellipse-1-copy3" transform="matrix(1,0,0,1,538.598,904.155)" serif:id="Ellipse 1 copy">
				<circle class="st4" cx="-160.4" cy="-49.4" r="2.3"/>
			</g>
			<g id="Ellipse-1-copy-63" transform="matrix(1,0,0,1,538.598,904.155)" serif:id="Ellipse 1 copy 6">
				<circle class="st4" cx="-33.1" cy="44.4" r="2.3"/>
			</g>
			<g id="Ellipse-1-copy-23" transform="matrix(1,0,0,1,538.598,904.155)" serif:id="Ellipse 1 copy 2">
				<circle class="st5" cx="2.7" cy="-2.8" r="2.3"/>
			</g>
			<g id="Ellipse-1-copy-33" transform="matrix(1,0,0,1,538.598,904.155)" serif:id="Ellipse 1 copy 3">
				<circle class="st6" cx="6.7" cy="-71.9" r="2.3"/>
			</g>
			<g id="Ellipse-1-copy-73" transform="matrix(1,0,0,1,538.598,904.155)" serif:id="Ellipse 1 copy 7">
				<circle class="st4" cx="57.4" cy="-54.1" r="2.3"/>
			</g>
			<g id="Ellipse-1-copy-83" transform="matrix(1,0,0,1,538.598,904.155)" serif:id="Ellipse 1 copy 8">
				<circle class="st4" cx="66" cy="38.1" r="2.3"/>
			</g>
			<g id="Ellipse-1-copy-93" transform="matrix(1,0,0,1,538.598,904.155)" serif:id="Ellipse 1 copy 9">
				<circle class="st4" cx="-56.7" cy="-41.4" r="2.3"/>
			</g>
			<g id="Ellipse-1-copy-103" transform="matrix(1,0,0,1,538.598,904.155)" serif:id="Ellipse 1 copy 10">
				<circle class="st7" cx="-213.9" cy="-9.7" r="2.3"/>
			</g>
			<g id="Ellipse-1-copy-143" transform="matrix(1,0,0,1,538.598,904.155)" serif:id="Ellipse 1 copy 14">
				<circle class="st7" cx="75.2" cy="-9.7" r="2.3"/>
			</g>
			<g id="Ellipse-1-copy-43" transform="matrix(1,0,0,1,538.598,904.155)" serif:id="Ellipse 1 copy 4">
				<circle class="st8" cx="-96.4" cy="-89.8" r="2.3"/>
			</g>
			<g id="Ellipse-1-copy-113" transform="matrix(1,0,0,1,538.598,904.155)" serif:id="Ellipse 1 copy 11">
				<circle class="st9" cx="-178.2" cy="-125.5" r="2.3"/>
			</g>
			<g id="Ellipse-1-copy-133" transform="matrix(1,0,0,1,538.598,904.155)" serif:id="Ellipse 1 copy 13">
				<circle class="st4" cx="-178.2" cy="47.3" r="2.3"/>
			</g>
			<g id="Ellipse-1-copy-123" transform="matrix(1,0,0,1,538.598,904.155)" serif:id="Ellipse 1 copy 12">
				<circle class="st9" cx="-178.2" cy="49" r="2.3"/>
			</g>
		</g>
		<g transform="matrix(0.500938,0,0,0.500938,502.721,0.254881)">
			<g>
				<circle id="Ellipse-1-copy-104" serif:id="Ellipse 1 copy 10" class="st7" cx="-426.3" cy="117.5" r="2.3">
				</circle>
			</g>
		</g>
		<g transform="matrix(0.500938,0,0,0.500938,502.721,150.597)">
			<g>
				<circle id="Ellipse-1-copy-105" serif:id="Ellipse 1 copy 10" class="st7" cx="-426.3" cy="-9.7" r="2.3">
				</circle>
			</g>
		</g>
	</g>
</g>
<circle id="Ellipse-14" serif:id="Ellipse 1" class="st3" cx="107.3" cy="152.1" r="2.3">
</circle>
<circle id="Ellipse-1-copy4" serif:id="Ellipse 1 copy" class="st4" cx="52.6" cy="76" r="2.3">
</circle>
<circle id="Ellipse-1-copy-64" serif:id="Ellipse 1 copy 6" class="st4" cx="179.9" cy="169.9" r="2.3">
</circle>
<circle id="Ellipse-1-copy-24" serif:id="Ellipse 1 copy 2" class="st5" cx="215.6" cy="122.7" r="2.3">
</circle>
<circle id="Ellipse-1-copy-34" serif:id="Ellipse 1 copy 3" class="st6" cx="219.6" cy="53.6" r="2.3">
</circle>
<circle id="Ellipse-1-copy-74" serif:id="Ellipse 1 copy 7" class="st4" cx="270.3" cy="71.4" r="2.3">
</circle>
<circle id="Ellipse-1-copy-84" serif:id="Ellipse 1 copy 8" class="st4" cx="278.9" cy="163.6" r="2.3">
</circle>
<circle id="Ellipse-1-copy-94" serif:id="Ellipse 1 copy 9" class="st4" cx="156.3" cy="84.1" r="2.3">
</circle>
<circle id="Ellipse-1-copy-106" serif:id="Ellipse 1 copy 10" class="st7" cx="-1" cy="115.8" r="2.3">
</circle>
<circle id="Ellipse-1-copy-144" serif:id="Ellipse 1 copy 14" class="st7" cx="288.2" cy="115.8" r="2.3">
</circle>
<circle id="Ellipse-1-copy-44" serif:id="Ellipse 1 copy 4" class="st8" cx="116.5" cy="35.7" r="2.3">
</circle>
<circle id="Ellipse-1-copy-114" serif:id="Ellipse 1 copy 11" class="st9" cx="34.7" cy="0" r="2.3">
</circle>
<circle id="Ellipse-1-copy-134" serif:id="Ellipse 1 copy 13" class="st4" cx="34.7" cy="172.8" r="2.3">
</circle>
<circle id="Ellipse-1-copy-124" serif:id="Ellipse 1 copy 12" class="st9" cx="34.7" cy="174.5" r="2.3">
</circle>
<path class="st10" d="M30.9,0h8.9l70.6,31.7L70.8,0h2.8L114,32.3L109,0h1.7l5.1,33.4L173.7,0h3.5l-60.4,34.8l0.1,0.1l49.4,8.6
	L178.5,0h1.8L168,43.7l49.5,8.6l-0.1-0.2l0.4-0.2L180.9,0h2.1l35.4,49.9L216.6,0h1.7l1.9,48.8l16-48.8h1.8l-16.4,50L274,23.5
	L276.8,0h1.7l-2.7,22.5l13-6.6v1.9l-13.2,6.7l-5.4,45L288.8,44v2.9l-17.3,23.7l-1.4-1l-0.1,0.5l1.1,0.4l-0.3,0.8l0,0l0.9-0.1
	l0.5,4.6l16.2,38.9l-1.6,0.7l-14-33.7l3.5,34.5l11.3-0.9v0.3l0.9,0.2l-7.7,45.6l0.1,0.9l7.9,1.8v1.8l-8.9-2l-0.2,0.4l-0.1-0.1l0,0
	l0.1,0.8h-0.1l-0.9,7.8H277l0.9-7.7l-38.1,2.6l-1.7,5h-1.8l1.6-4.9l-19.6,1.4l0.1,3.6h-1.7l-0.1-3.4l-34.1,2.4l0.8,1.1h-2.1
	l-0.7-0.9l-0.9,0.1v-0.4l-2.2,1.2h-3.5l3.6-2.1l-69.6-17.5l3,19.6H109l-3-19.5l-41.9,11.9l9.5,7.6h-2.8l-8.8-7l-24.8,7h-5.1
	l-31.4-7.1V164l32.3,7.3L0.8,116.9v-6.2l31-106.4l-31,42.6V44L30.9,2.6L0.8,17.9V16L31.9,0.2L30.9,0z M35.2,171.6l25.2-7.1l-56.1-45
	L35.2,171.6z M182.2,169l-0.3,1.1l34.5-2.4l-1.6-43.1L182.2,169z M167.7,122.5l12.5,46.2l0.4-0.5l17.7-55l-4.9-3.2L167.7,122.5z
	 M136.6,137.6l41.8,30.9l-12.3-45.2L136.6,137.6z M108.3,151.4l0.1,0.2l67.2,16.9l-40.6-30L108.3,151.4z M218.1,167.5l20.2-1.4
	l7.5-22.9l-29.4-18.4L218.1,167.5z M240.2,166l37.7-2.6v-0.2l-30.6-19.1L240.2,166z M62.5,163.9l42-11.9L4,117L62.5,163.9z
	 M183.9,163.7l29.8-40.7l-13.8-8.9L183.9,163.7z M255.3,119.8l-7.4,22.6l31,19.4l0.1-0.4l-4.3-43.2L255.3,119.8z M276.4,118.1
	l3.7,36.8l6.3-37.6L276.4,118.1z M6.9,116.2l99,34.4h0.1l-23.6-50L6.9,116.2z M107.4,149.6l14.8-20.5l-37.5-27.7L107.4,149.6z
	 M110.4,148.5l22.9-11.1l-9.7-7.2L110.4,148.5z M217.3,122.8l-0.3,0.3l29.4,18.4l7.1-21.6L217.3,122.8z M124.6,128.7l10.5,7.7
	l30.6-14.9L156,85.9l-0.4-0.2L124.6,128.7z M85.7,100l37.5,27.7l30-41.6L85.7,100z M216.6,121.2l49.6-46.5l-63.5,30.9l-2.2,6.9
	l15.1,9.7l0.1-0.1l-0.1-0.8L216.6,121.2z M219.3,120.9l34.7-2.8l14.1-43L219.3,120.9z M167.3,120.8l24.5-11.9l-33.6-21.7
	L167.3,120.8z M255.9,118l18.6-1.5l-4-40.2L270,75L255.9,118z M2.5,114.7l1.2,0.4l77.9-16L52.2,77.4L2.5,114.7z M1.9,113l49.8-37.4
	l-17-75.2L1.9,113z M195.3,109.1l3.6,2.3l1.6-4.9L195.3,109.1z M157.6,84.8l36,23.2l7.6-3.7l8.1-25.2L157.6,84.8z M211.2,78.9
	l-7.9,24.4L266,72.8L211.2,78.9z M83.1,98.1l0.7,0.5l67.8-14l-77.7-6.1L83.1,98.1z M80.2,95.9l-8.3-17.5L54.6,77L80.2,95.9z
	 M165.8,45.1l-47.3-8.2l37.7,46.4l-0.3-0.6l0.6-0.3l-1.1-0.3L165.8,45.1z M68.5,67l4.6,9.7l80.7,6.3l-37.5-46.2L68.5,67z
	 M159.7,82.8l50.2-5.6l6.9-21.5L159.7,82.8z M157.2,82.1l59.6-28.2l-49.3-8.5L157.2,82.1z M220.4,55.1h-0.5l-0.1,0.3l-0.8-0.3h-0.2
	l-7,21.9l55.2-6l-46.6-16.2V55.1z M55.2,75.4L71,76.6L67,68L55.2,75.4z M52.2,75.5l0.4,0.5L52.2,75.5L52.2,75.5z M53.3,74.6l13-8.2
	L37.8,6.2L53.3,74.6z M220.8,52.3l-0.2,0.7l47.8,16.7l5.3-44.1L220.8,52.3z M114.4,35.4L37.2,0.7l30.6,64.8L115,35.6h-0.1l-0.5,0.1
	V35.4z"/>
<g>
	
		<image style="overflow:visible;opacity:0.75;enable-background:new    ;" width="133" height="133" xlink:href="CD34A441.png"  transform="matrix(1 0 0 1 3 6.8)">
	</image>
	<g>
		<g>
			
				<linearGradient id="SVGID_1_" gradientUnits="userSpaceOnUse" x1="105.3907" y1="727.6918" x2="28.8557" y2="651.1569" gradientTransform="matrix(1 0 0 1 0 -618)">
				<stop  offset="0" style="stop-color:#377F94"/>
				<stop  offset="1" style="stop-color:#34ADC4"/>
			</linearGradient>
			<path class="st11" d="M92.2,119.4c-7.5,3.9-16,6.2-25.1,6.2c-6.7,0-13.1-1.2-19-3.4c0-0.2-0.1-0.5-0.1-0.7c0-1.6,0.5-3.3,1.5-5.1
				c1-1.8,2.5-3.8,4.5-6c5.1,0.7,12.4,1.2,21.9,1.5c6.5,0.2,10.9,0.7,13.1,1.6s3.2,2.5,3.2,4.7C92.4,118.5,92.3,118.9,92.2,119.4z
				 M67.4,88.5c3.2,0,5.8-1.2,7.9-3.6s3.1-6.2,3.1-11.3c0-6.7-1.5-11.9-4.4-15.7c-2.1-2.8-4.9-4.2-8.3-4.2c-3.1,0-5.7,1.2-7.8,3.7
				s-3.2,6.3-3.2,11.4c0,6.7,1.4,11.8,4.3,15.5C61.3,87.1,64,88.5,67.4,88.5z M67.1,17.3C37.3,17.3,13,41.5,13,71.4
				c0,20.8,11.8,38.9,29,48c0.6-0.8,1.3-1.8,2.1-2.7c0.3-0.4,2.5-2.7,6.5-6.8c-2.2-1.3-3.7-2.5-4.7-3.5c-0.9-1-1.4-2.2-1.4-3.5
				c0-1.5,0.6-3.2,1.8-5.2s4-4.8,8.3-8.4c-3.5-1.7-6.3-4.2-8.2-7.3c-1.9-3.1-2.8-6.5-2.8-10.3c0-5.8,2.2-10.7,6.5-14.8
				s9.9-6.2,16.6-6.2c5.4,0,10,1.3,14,3.8c3.5-3.4,6.1-6.3,7.8-8.7c2.3-3.3,3.4-6.2,3.4-8.9c0-2.1-0.6-3.8-1.9-5.1
				c-1.3-1.3-2.8-2-4.5-2c-1.6,0-3,0.5-4.3,1.4c-1.3,0.9-2.2,2.3-2.8,4.1h-0.9c0.4-3,1.4-5.2,3.1-6.8c1.7-1.6,3.7-2.4,6.2-2.4
				c2.6,0,4.8,0.8,6.6,2.5c1.8,1.7,2.6,3.7,2.6,6c0,1.6-0.4,3.3-1.2,4.9c-1.2,2.6-3.1,5.3-5.8,8.2c-3.9,4.2-6.3,6.8-7.4,7.8l0.1,0.1
				H90c1.7,0,2.9-0.1,3.6-0.2c0.7-0.1,1.3-0.4,1.9-0.8c0.6-0.4,1-0.9,1.5-1.7h0.9L95,61.2h-8.8c2,2.9,3,6.5,3,10.9
				c0,5.4-2.1,10.1-6.2,13.9c-4.1,3.9-9.7,5.8-16.6,5.8c-2.9,0-5.8-0.4-8.8-1.3c-1.9,1.6-3.1,3-3.8,4.2s-1,2.2-1,3
				c0,0.7,0.3,1.4,1,2.1s2.1,1.2,4.1,1.4c1.2,0.2,4.1,0.4,8.9,0.5c8.7,0.2,14.4,0.6,16.9,1c3.9,0.5,7.1,2,9.4,4.4s3.5,5.3,3.5,8.7
				c0,0.3,0,0.6,0,0.9c14.6-9.7,24.3-26.3,24.3-45.2C121.3,41.5,97,17.3,67.1,17.3z"/>
			
				<linearGradient id="SVGID_2_" gradientUnits="userSpaceOnUse" x1="31.2796" y1="653.6204" x2="102.9445" y2="725.2854" gradientTransform="matrix(1 0 0 1 0 -618)">
				<stop  offset="0" style="stop-color:#00A5BD"/>
				<stop  offset="1" style="stop-color:#005E78"/>
			</linearGradient>
			<path class="st12" d="M74,57.8c2.9,3.8,4.4,9,4.4,15.7c0,5.1-1,8.9-3.1,11.3s-4.7,3.6-7.9,3.6c-3.4,0-6.1-1.4-8.3-4.2
				c-2.9-3.7-4.3-8.8-4.3-15.5c0-5.1,1.1-9,3.2-11.4c2.1-2.5,4.7-3.7,7.8-3.7C69.1,53.6,71.9,55,74,57.8z M50.7,109.8
				c-2.2-1.3-3.7-2.5-4.7-3.5c-0.9-1-1.4-2.2-1.4-3.5c0-1.5,0.6-3.2,1.8-5.2s4-4.8,8.3-8.4c-3.5-1.7-6.3-4.2-8.2-7.3
				c-1.9-3.1-2.8-6.5-2.8-10.3c0-5.8,2.2-10.7,6.5-14.8s9.9-6.2,16.6-6.2c5.4,0,10,1.3,14,3.8c3.5-3.4,6.1-6.3,7.8-8.7
				c2.3-3.3,3.4-6.2,3.4-8.9c0-2.1-0.6-3.8-1.9-5.1c-1.3-1.3-2.8-2-4.5-2c-1.6,0-3,0.5-4.3,1.4s-2.2,2.3-2.8,4.1h-0.9
				c0.4-3,1.4-5.2,3.1-6.8c1.7-1.6,3.7-2.4,6.2-2.4c1.4,0,2.7,0.2,3.9,0.7c-7.1-3.7-15.1-5.9-23.7-5.9c-28,0-50.7,22.7-50.7,50.7
				c0,19.7,11.3,36.8,27.7,45.2C44.6,116.1,46.7,113.9,50.7,109.8z M92.5,27.5c0.4,0.3,0.8,0.6,1.1,0.9c1.8,1.7,2.6,3.7,2.6,6
				c0,1.6-0.4,3.3-1.2,4.9c-1.2,2.6-3.1,5.3-5.8,8.2c-3.9,4.2-6.3,6.8-7.4,7.8l0.1,0.1h8.3c1.7,0,2.9-0.1,3.6-0.2
				c0.7-0.1,1.3-0.4,1.9-0.8c0.6-0.4,1-0.9,1.5-1.7h0.9L95.2,61h-8.8c2,2.9,3,6.5,3,10.9c0,5.4-2.1,10.1-6.2,13.9
				c-4.1,3.9-9.7,5.8-16.6,5.8c-2.9,0-5.8-0.4-8.8-1.3c-1.9,1.6-3.1,3-3.8,4.2s-1,2.2-1,3c0,0.7,0.3,1.4,1,2.1s2.1,1.2,4.1,1.4
				c1.2,0.2,4.1,0.4,8.9,0.5c8.7,0.2,14.4,0.6,16.9,1c3.9,0.5,7.1,2,9.4,4.4c1.6,1.6,2.7,3.5,3.2,5.7c12.8-9.2,21.2-24.2,21.2-41.2
				C117.8,52.6,107.6,36.3,92.5,27.5z M89.1,113.4c-2.2-0.9-6.5-1.5-13.1-1.6c-9.5-0.3-16.8-0.7-21.9-1.5c-2,2.1-3.5,4.1-4.5,6
				c-0.4,0.8-0.8,1.5-1,2.3c5.7,2.3,12,3.5,18.6,3.5c8.9,0,17.4-2.3,24.6-6.4C91.3,114.7,90.4,114,89.1,113.4z"/>
			<path class="st13" d="M98.2,52.8h-0.9c-0.4,0.7-0.9,1.3-1.5,1.7s-1.2,0.7-1.9,0.8c-0.7,0.1-1.9,0.2-3.6,0.2H82v-0.2
				c1-1,3.5-3.5,7.4-7.8c2.7-2.9,4.6-5.6,5.8-8.2c0.8-1.6,1.2-3.3,1.2-4.9c0-2.3-0.9-4.3-2.6-6c-1.8-1.7-4-2.5-6.6-2.5
				c-2.5,0-4.5,0.8-6.2,2.4s-2.7,3.9-3.1,6.8h0.9c0.6-1.8,1.5-3.2,2.8-4.1s2.7-1.4,4.3-1.4c1.8,0,3.3,0.7,4.5,2
				c1.3,1.3,1.9,3,1.9,5.1c0,2.7-1.1,5.7-3.4,8.9c-1.7,2.4-4.3,5.3-7.8,8.7c-4-2.5-8.6-3.8-14-3.8c-6.8,0-12.3,2.1-16.6,6.2
				S44,65.8,44,71.5c0,3.8,0.9,7.2,2.8,10.3c1.9,3.1,4.6,5.5,8.2,7.3c-4.3,3.6-7.1,6.5-8.3,8.4c-1.2,2-1.8,3.7-1.8,5.2
				c0,1.3,0.5,2.5,1.4,3.5s2.5,2.2,4.7,3.5c-4,4.2-6.2,6.4-6.5,6.8c-0.8,1-1.5,1.9-2.1,2.7c1.9,1,4,1.9,6.1,2.7
				c0-0.2-0.1-0.5-0.1-0.7c0-1.6,0.5-3.3,1.5-5.1c1-1.8,2.5-3.8,4.5-6c5.1,0.7,12.4,1.2,21.9,1.5c6.5,0.2,10.9,0.7,13.1,1.6
				s3.2,2.5,3.2,4.7c0,0.4,0,0.8-0.1,1.3c1.6-0.8,3.2-1.8,4.7-2.8c0-0.3,0-0.6,0-0.9c0-3.5-1.2-6.4-3.5-8.7
				c-2.3-2.4-5.5-3.8-9.4-4.4c-2.6-0.4-8.2-0.7-16.9-1c-4.7-0.1-7.7-0.3-8.9-0.5c-2-0.3-3.4-0.8-4.1-1.4c-0.7-0.7-1-1.4-1-2.1
				c0-0.8,0.3-1.8,1-3s1.9-2.6,3.8-4.2c3,0.9,5.9,1.3,8.8,1.3c7,0,12.5-1.9,16.6-5.8s6.2-8.5,6.2-13.9c0-4.3-1-7.9-3-10.9h8.8
				L98.2,52.8z M75.3,84.9c-2.1,2.4-4.7,3.6-7.9,3.6c-3.4,0-6.1-1.4-8.3-4.2c-2.9-3.7-4.3-8.8-4.3-15.5c0-5.1,1.1-9,3.2-11.4
				c2.1-2.5,4.7-3.7,7.8-3.7c3.4,0,6.1,1.4,8.3,4.2c2.9,3.8,4.4,9,4.4,15.7C78.4,78.7,77.4,82.5,75.3,84.9z"/>
		</g>
	</g>
</g>
<g id="XMLID_1_">
	
		<image style="overflow:visible;opacity:0.75;enable-background:new    ;" width="105" height="41" xlink:href="CD34A443.png"  transform="matrix(1 0 0 1 174 121.8)">
	</image>
	<g>
		<g>
			<g id="XMLID_67_">
				<path id="XMLID_72_" class="st14" d="M184.1,148.2v-15.6h4v12.5h7v3.1C195,148.2,184.1,148.2,184.1,148.2z"/>
				<polygon id="XMLID_71_" class="st14" points="264.2,148.2 256.5,140.5 264.2,132.7 258.6,132.7 253.7,137.6 253.7,132.6 
					249.7,132.6 249.7,148.2 253.7,148.2 253.7,143.3 258.6,148.2 				"/>
				<path id="XMLID_70_" class="st14" d="M219,145.2l-0.9,3h-4.2l5.4-15.6h5.3l5.4,15.6h-4.2l-0.9-3l-0.9-2.9l-2-6.5l-2.1,6.5
					L219,145.2z"/>
				<path id="XMLID_69_" class="st14" d="M236.4,138v10.2h-3.8v-15.6h4.9l5.9,10.7v-10.7h3.8v15.6h-4.9L236.4,138z"/>
				<path id="XMLID_68_" class="st14" d="M211,142.2c-0.2-0.5-0.5-0.8-0.8-1.2c-0.3-0.3-0.7-0.6-1.1-0.8c-0.4-0.2-0.8-0.3-1.2-0.4
					c0.4-0.1,0.8-0.2,1.1-0.4c0.4-0.2,0.7-0.4,0.9-0.7c0.3-0.3,0.5-0.6,0.6-1c0.2-0.4,0.2-0.8,0.2-1.3s-0.1-0.9-0.2-1.4
					c-0.2-0.5-0.4-0.8-0.8-1.2c-0.4-0.4-0.8-0.7-1.5-0.8s-1.4-0.3-2.4-0.3h-4.2h-2.2h-1.8v15.6h1.8h2.2h4.8c1.6,0,2.7-0.4,3.6-1.1
					c0.8-0.8,1.2-1.8,1.2-3.1C211.3,143.3,211.2,142.7,211,142.2z M201.6,135.2h4.2c0.4,0,0.7,0.1,0.9,0.2c0.3,0.1,0.5,0.2,0.7,0.4
					s0.3,0.4,0.4,0.6c0.1,0.2,0.1,0.4,0.1,0.7c0,0.5-0.2,0.9-0.5,1.2c-0.3,0.4-0.8,0.5-1.6,0.5h-4.2L201.6,135.2L201.6,135.2z
					 M207.9,144.9c-0.3,0.4-0.8,0.5-1.6,0.5h-4.6v-3.5h4.6c0.4,0,0.7,0.1,0.9,0.2c0.3,0.1,0.5,0.2,0.7,0.4s0.3,0.4,0.4,0.6
					s0.1,0.4,0.1,0.7C208.3,144.1,208.2,144.6,207.9,144.9z"/>
			</g>
		</g>
	</g>
</g>
<g id="XMLID_280_">
	
		<image style="overflow:visible;opacity:0.75;enable-background:new    ;" width="134" height="133" xlink:href="CD34A446.png"  transform="matrix(1 0 0 1 159 6.8)">
	</image>
	<g>
		<path class="st14" d="M224.1,17.1c-30.1,0-54.3,24.2-54.3,54.3s24.2,54.3,54.3,54.3s54.3-24.2,54.3-54.3
			C278,41.3,253.8,17.1,224.1,17.1z M229.1,80.3c1.5,1.5,2.5,3,2.5,5.4c0,4-3.5,7.4-7.4,7.4c-2,0-4-1-5.4-2.5
			c-2.5-2-5.4-3.5-9.4-3.5s-6.9,1.5-9.4,3.5l-0.5,0.5c-1.5,1-3,2-4.9,2s-3.5-0.5-4.9-2c-0.5-0.5-0.5-0.5-1-1c0,0,0,0,0-0.5l-0.5-0.5
			c0-0.5-0.5-1-0.5-1.5s-0.5-1.5-0.5-2l0,0c0-1,0-1.5,0.5-2c0-0.5,0.5-1,0.5-1.5c0,0,0-0.5,0.5-0.5c0,0,0,0,0-0.5c1,0,1,0,1-0.5
			l0.5-0.5l0,0c2-2.5,3.5-5.4,3.5-8.9s-1-6.4-3.5-8.9c-1-1.5-2-3.5-2-5.9c0-4,3.5-7.4,7.4-7.4c4,0,6.9,3.5,6.9,7.4c0,2-1,4-2.5,5.4
			c-2,2.5-3.5,5.9-3.5,9.4s1.5,6.9,3.5,9.4l0.5,0.5l0,0c2.5,2,5.4,3.5,8.9,3.5s6.4-1,8.9-3.5c0-0.5,0.5-0.5,1-1l0,0
			c2-2.5,3.5-5.4,3.5-8.9s-1-6.4-3.5-8.9c-1.5-1.5-2.5-3.5-2.5-5.9c0-4,3.5-7.4,7.4-7.4s7.4,3.5,7.4,7.4c0,2-1,4-2.5,5.4
			c-2,2.5-3.5,5.4-3.5,9.4C225.6,74.9,226.6,77.8,229.1,80.3z M238.5,78.3c-4,0-7.4-3.5-7.4-7.4c0-4,3.5-7.4,7.4-7.4
			s7.4,3.5,7.4,7.4C245.9,75.4,242.4,78.3,238.5,78.3z M257.7,80.3C258.2,80.8,258.2,80.8,257.7,80.3c0.5,1,1,1,1,1s0,0,0,0.5
			l0.5,0.5c0,0.5,0.5,1,0.5,1.5s0.5,1.5,0.5,2l0,0c0,1,0,1.5-0.5,2c0,0.5-0.5,1-0.5,1.5c0,0,0,0.5-0.5,0.5c0,0,0,0,0,0.5
			c-0.5,0.5-0.5,0.5-1,1c-1.5,1-3,2-4.9,2c-2,0-3.5-0.5-4.9-2c-0.5-0.5-0.5-0.5-1-1c0,0,0,0,0-0.5l-0.5-0.5c0-0.5-0.5-1-0.5-1.5
			s-0.5-1.5-0.5-2l0,0c0-1,0-1.5,0.5-2c0-0.5,0.5-1,0.5-1.5c0,0,0-0.5,0.5-0.5c0,0,0,0,0-0.5l0.5-0.5l0.5-0.5c2-2.5,3.5-5.4,3.5-8.9
			s-1-6.4-3.5-8.9c-1.5-1.5-2.5-3.5-2.5-5.4c0-4,3.5-7.4,7.4-7.4c4,0,7.4,3.5,7.4,7.4c0,2-1,4-2.5,5.4c-2,2.5-3.5,5.4-3.5,9.4
			C254.3,74.9,255.8,77.8,257.7,80.3z"/>
	</g>
</g>
<g>
	
		<image style="overflow:visible;opacity:0.75;enable-background:new    ;" width="150" height="51" xlink:href="CD34A447.png"  transform="matrix(1 0 0 1 -6 118.8)">
	</image>
	<g>
		<text transform="matrix(1 0 0 1 4.1749 148.1123)" class="st15 st16 st17">GROESTLCOIN</text>
	</g>
</g>
</svg>
