<?xml version="1.0" encoding="utf-8"?>
<!-- Generator: Adobe Illustrator 23.0.1, SVG Export Plug-In . SVG Version: 6.00 Build 0)  -->
<svg version="1.1" id="Layer_1" xmlns="http://www.w3.org/2000/svg" xmlns:xlink="http://www.w3.org/1999/xlink" x="0px" y="0px"
	 viewBox="0 0 2267.7 5669.3" style="enable-background:new 0 0 2267.7 5669.3;" xml:space="preserve">
<style type="text/css">
	.st0{fill:#52DDE8;}
	.st1{fill:#3A3A3A;}
	.st2{font-family:'HelveticaRounded-Bold';}
	.st3{font-size:48.4823px;}
	.st4{letter-spacing:3;}
	.st5{fill:#00A5BD;}
	.st6{opacity:0.3;fill:#00A5BD;}
	.st7{opacity:0.6;fill:url(#SVGID_1_);enable-background:new    ;}
	.st8{fill:#FFFFFF;}
	.st9{font-family:'Audiowide-Regular';}
	.st10{font-size:133.7609px;}
	.st11{letter-spacing:8;}
	.st12{fill:#F2F2F2;}
	.st13{font-size:96.2648px;}
	.st14{letter-spacing:5;}
	.st15{fill:#005E78;}
	.st16{font-size:57.0548px;}
	.st17{letter-spacing:4;}
	.st18{font-size:94.6353px;}
	.st19{fill:none;}
	.st20{fill:#444B54;}
	.st21{font-size:96.7786px;}
	.st22{font-size:55.3831px;}
	.st23{font-size:134.2915px;}
	.st24{fill-rule:evenodd;clip-rule:evenodd;fill:#FFFFFF;}
	.st25{font-size:44.8699px;}
	.st26{font-size:45.6374px;}
	.st27{font-size:96.5324px;}
	.st28{fill:#F7F7FB;}
	.st29{fill:#DEDFE6;}
	.st30{font-size:44.3055px;}
	.st31{fill:#C9C9C9;}
	.st32{fill:#B42424;}
	.st33{font-size:65.183px;}
	.st34{font-size:62.5324px;}
</style>
<g>
	<path class="st0" d="M1299.1,1942.4h956.7c6.6,0,12-5.4,12-12v-179.8c0-6.6-5.4-12-12-12h-956.7c-6.6,0-12,5.4-12,12v179.8
		C1287.1,1937,1292.5,1942.4,1299.1,1942.4z"/>
	<text transform="matrix(1 0 0 1 1667.6025 1795.4116)" class="st1 st2 st3 st4">Technology Built for</text>
	<text transform="matrix(1 0 0 1 1644.4026 1853.6116)" class="st1 st2 st3 st4">Every Major Platform</text>
</g>
<g>
	<path class="st0" d="M12,1942.3h956.7c6.6,0,12-5.4,12-12v-179.8c0-6.6-5.4-12-12-12H12c-6.6,0-12,5.4-12,12v179.8
		C0,1936.9,5.4,1942.3,12,1942.3z"/>
	<text transform="matrix(1 0 0 1 19.1167 1795.4116)" class="st1 st2 st3 st4">Over 300 Active</text>
	<text transform="matrix(1 0 0 1 20.8167 1853.6116)" class="st1 st2 st3 st4">Github Projects</text>
</g>
<g>
	<path class="st0" d="M1299,1220.9h956.7c6.6,0,12-5.4,12-12v-179.8c0-6.6-5.4-12-12-12H1299c-6.6,0-12,5.4-12,12v179.8
		C1287,1215.5,1292.4,1220.9,1299,1220.9z"/>
	<text transform="matrix(1 0 0 1 2026.0811 1136.6523)" class="st1 st2 st3 st4">First to</text>
	<text transform="matrix(1 0 0 1 1794.5811 1194.8523)" class="st1 st2 st3 st4">Activate Segwit</text>
</g>
<g>
	<path class="st0" d="M12.3,1220.9H969c6.6,0,12-5.4,12-12v-179.8c0-6.6-5.4-12-12-12H12.3c-6.6,0-12,5.4-12,12v179.8
		C0.3,1215.5,5.7,1220.9,12.3,1220.9z"/>
	<text transform="matrix(1 0 0 1 22.6699 1136.6523)" class="st1 st2 st3 st4">First Main-Net</text>
	<text transform="matrix(1 0 0 1 22.6699 1194.8523)" class="st1 st2 st3 st4">Lightning Transaction</text>
</g>
<polygon class="st5" points="1146.8,964.5 -0.1,964.5 -0.1,1017.1 -0.1,1026 -0.1,1078.5 1041.5,1078.5 1041.5,1026 1146.8,1026 "/>
<polygon class="st5" points="1125.6,964.5 2267.7,964.5 2267.7,1017.1 2267.7,1026 2267.7,1078.5 1230.5,1078.5 1230.5,1026 
	1125.6,1026 "/>
<polygon class="st5" points="1148.8,1997.4 0,1997.4 0,1944.9 0,1936 0,1883.4 1043.4,1883.4 1043.4,1936 1148.8,1936 "/>
<polygon class="st5" points="1125.6,1997.4 2267.9,1997.4 2267.9,1944.9 2267.9,1936 2267.9,1883.4 1230.4,1883.4 1230.4,1936 
	1125.6,1936 "/>
<rect y="3618.1" class="st5" width="1824.4" height="260.5"/>
<rect x="-0.2" y="-14" class="st6" width="2284.4" height="5683.3"/>
<rect y="2112.8" class="st1" width="2040.6" height="148.3"/>
<g>
	<path class="st1" d="M-1.8,853.7h951c6.6,0,12-5.4,12-12V642c0-6.6-5.4-12-12-12h-951c-6.6,0-12,5.4-12,12v199.8
		C-13.8,848.3-8.4,853.7-1.8,853.7z"/>
	<g>
		<path class="st1" d="M954.3,222.9h1312.3c6.6,0,12-5.4,12-12V11.1c0-6.6-5.4-12-12-12H954.3c-6.6,0-12,5.4-12,12v199.8
			C942.3,217.5,947.7,222.9,954.3,222.9z"/>
		<g>
			<circle class="st1" cx="961.2" cy="426.4" r="427.3"/>
			<g>
				
					<linearGradient id="SVGID_1_" gradientUnits="userSpaceOnUse" x1="1246.4901" y1="-3939.4116" x2="674.6091" y2="-4511.2925" gradientTransform="matrix(1 0 0 1 0 4646.7085)">
					<stop  offset="0" style="stop-color:#377F94"/>
					<stop  offset="1" style="stop-color:#34ADC4"/>
				</linearGradient>
				<path class="st7" d="M1148,779.5c-56,29.4-119.8,46-187.5,46c-50,0-97.8-9.1-142-25.7c-0.2-1.5-0.4-3.6-0.4-5.1
					c0-11.6,3.8-24.3,11.4-38.1c7.6-13.8,18.9-28.7,33.8-44.7c38.2,5.4,92.8,9.1,163.8,11c48.6,1.3,81.1,5.3,97.5,12.2
					c16.1,6.9,24.2,18.5,24.2,34.7C1148.9,773.2,1148.6,776.4,1148,779.5z M962.4,548.8c23.9,0,43.5-9,59-26.9
					c15.4-17.9,23.1-46.1,23.1-84.5c0-50.1-10.9-89.3-32.6-117.6c-16-20.8-36.6-31.2-61.8-31.2c-23.3,0-42.8,9.3-58.5,27.9
					S868,363.6,868,402c0,49.8,10.7,88.3,32.1,115.7C916.5,538.4,937.3,548.8,962.4,548.8z M960.5,17
					c-223.3,0-404.3,181-404.3,404.3c0,155.7,88,290.7,216.9,358.3c4.4-6.1,10-13.3,15.8-20.4c2.2-2.8,18.3-19.8,48.4-51
					c-16.4-9.8-28-18.6-34.8-26.3s-10.2-16.5-10.2-26.3c0-11.1,4.5-24,13.5-38.9s29.7-35.9,62.2-63.1c-26.5-12.9-46.8-31-61-54.2
					s-21.3-48.9-21.3-77c0-43,16.2-79.9,48.5-110.9c32.4-31,73.8-46.4,124.3-46.4c40,0,74.8,9.4,104.5,28.2
					c26.1-25.5,45.5-47.3,58.1-65.2c17.2-24.3,25.7-46.6,25.7-66.8c0-15.4-4.7-28-14.1-37.9s-20.7-14.8-33.8-14.8
					c-11.9,0-22.6,3.5-32.1,10.5c-9.5,7-16.5,17.2-21,30.7h-6.6c3-22.1,10.6-39,23-50.9c12.3-11.8,27.8-17.7,46.2-17.7
					c19.7,0,36.1,6.3,49.3,19c13.2,12.7,19.8,27.6,19.8,44.8c0,12.3-2.9,24.6-8.6,36.9c-8.8,19.3-23.2,39.8-43,61.4
					c-29.1,31.7-47.4,51-55,58.2l0.4,0.5h62.4c12.9,0,21.9-0.5,27.1-1.4c5.2-1,9.9-2.9,14-5.8c4.2-2.9,7.8-7.1,10.9-12.4h6.6
					l-21.4,62h-65.7c14.7,21.8,22.1,48.8,22.1,81.1c0,40.5-15.4,75.2-46.3,104s-72.3,43.2-124.3,43.2c-21.4,0-43.3-3.2-65.7-9.6
					c-13.9,11.9-23.3,22.3-28.2,31.2s-7.4,16.5-7.4,22.7c0,5.3,2.6,10.5,7.8,15.5s15.4,8.6,30.6,10.8c8.8,1.4,31,2.6,66.3,3.7
					c65.1,1.8,107.2,4.2,126.5,7.4c29.4,4.1,52.8,15,70.3,32.6s26.3,39.3,26.3,65.2c0,2.3-0.1,4.7-0.2,7
					c109.4-72.3,181.6-196.5,181.6-337.5C1364.8,198,1183.8,17,960.5,17z"/>
				<path class="st5" d="M1012,319.8c21.7,28.3,32.6,67.5,32.6,117.6c0,38.4-7.7,66.6-23.1,84.5s-35.1,26.9-59,26.9
					c-25.2,0-45.9-10.4-62.3-31.2c-21.4-27.4-32.1-66-32.1-115.7c0-38.4,7.9-66.9,23.6-85.5c15.7-18.6,35.2-27.9,58.5-27.9
					C975.3,288.6,995.9,299,1012,319.8z M837.3,708.2c-16.4-9.8-28-18.6-34.8-26.3s-10.2-16.5-10.2-26.3c0-11.1,4.5-24,13.5-38.9
					s29.7-35.9,62.2-63.1c-26.5-12.9-46.8-31-61-54.2s-21.3-48.9-21.3-77c0-43,16.2-79.9,48.5-110.9c32.4-31,73.8-46.4,124.3-46.4
					c40,0,74.8,9.4,104.5,28.2c26.1-25.5,45.5-47.3,58.1-65.2c17.2-24.3,25.7-46.6,25.7-66.8c0-15.4-4.7-28-14.1-37.9
					s-20.7-14.8-33.8-14.8c-11.9,0-22.6,3.5-32.1,10.5c-9.5,7-16.5,17.2-21,30.7h-6.6c3-22.1,10.6-39,23-50.9
					c12.3-11.8,27.8-17.7,46.2-17.7c10.6,0,20.2,1.8,28.9,5.5c-52.8-28-113.1-43.9-177-43.9C751.5,42.7,582,212.2,582,421.3
					c0,147.4,84.2,275.1,207.2,337.6C792.1,755.4,808.1,738.5,837.3,708.2z M1149.7,93.3c2.9,2,5.6,4.3,8.2,6.8
					c13.2,12.7,19.8,27.6,19.8,44.8c0,12.3-2.9,24.6-8.6,36.9c-8.8,19.3-23.2,39.8-43,61.4c-29.1,31.7-47.4,51-55,58.2l0.4,0.5h62.4
					c12.9,0,21.9-0.5,27.1-1.4c5.2-1,9.9-2.9,14-5.8c4.2-2.9,7.8-7.1,10.9-12.4h6.6l-21.4,62h-65.7c14.7,21.8,22.1,48.8,22.1,81.1
					c0,40.5-15.4,75.2-46.3,104s-72.3,43.2-124.3,43.2c-21.4,0-43.3-3.2-65.7-9.6c-13.9,11.9-23.3,22.3-28.2,31.2
					s-7.4,16.5-7.4,22.7c0,5.3,2.6,10.5,7.8,15.5s15.4,8.6,30.6,10.8c8.8,1.4,31,2.6,66.3,3.7c65.1,1.8,107.2,4.2,126.5,7.4
					c29.4,4.1,52.8,15,70.3,32.6c12.1,12.2,20.1,26.4,23.8,42.5c95.8-68.7,158.2-181,158.2-307.8
					C1339.1,281.1,1262.9,158.7,1149.7,93.3z M1124.7,735.3c-16.4-6.9-48.9-11-97.5-12.2c-71-1.9-125.7-5.6-163.8-11
					c-14.9,16-26.2,30.9-33.8,44.7c-3.2,5.8-5.8,11.5-7.6,16.9c42.9,16.9,89.7,26.2,138.6,26.2c66.8,0,129.6-17.3,184.1-47.7
					C1140.7,744.9,1134.1,739.3,1124.7,735.3z"/>
				<path class="st8" d="M1192.6,282.1h-6.6c-3.1,5.4-6.7,9.5-10.9,12.4c-4.2,2.9-8.9,4.9-14,5.8c-5.2,1-14.2,1.4-27.1,1.4h-62.4
					l-0.4-0.5c7.6-7.1,26-26.5,55-58.2c19.8-21.6,34.1-42.1,43-61.4c5.7-12.3,8.6-24.6,8.6-36.9c0-17.2-6.6-32.1-19.8-44.8
					c-13.2-12.7-29.6-19-49.3-19c-18.5,0-33.9,5.9-46.2,17.7c-12.3,11.8-20,28.8-23,50.9h6.6c4.5-13.5,11.5-23.7,21-30.7
					s20.2-10.5,32.1-10.5c13.1,0,24.4,5,33.8,14.8c9.4,9.9,14.1,22.5,14.1,37.9c0,20.2-8.6,42.4-25.7,66.8
					c-12.6,17.9-32,39.7-58.1,65.2c-29.7-18.8-64.5-28.2-104.5-28.2c-50.5,0-92,15.5-124.3,46.4c-32.4,31-48.5,67.9-48.5,110.9
					c0,28.1,7.1,53.8,21.3,77c14.2,23.2,34.5,41.3,61,54.2c-32.5,27.2-53.2,48.2-62.2,63.1c-9,14.9-13.5,27.8-13.5,38.9
					c0,9.8,3.4,18.6,10.2,26.3s18.4,16.5,34.8,26.3c-30.1,31.2-46.2,48.2-48.4,51c-5.9,7.3-11.3,14.2-15.8,20.4
					c14.5,7.6,29.9,14.5,45.3,20.3c-0.2-1.6-0.4-3.5-0.4-5.1c0-11.6,3.8-24.3,11.4-38.1c7.6-13.8,18.9-28.7,33.8-44.7
					c38.2,5.4,92.8,9.1,163.8,11c48.6,1.3,81.1,5.3,97.5,12.2c16.1,6.9,24.2,18.5,24.2,34.7c0,3.3-0.3,6.2-0.9,9.5
					c12.1-6.3,23.8-13.3,35.2-20.8c0.2-2.5,0.2-4.5,0.2-7c0-25.8-8.8-47.5-26.3-65.2c-17.5-17.6-41-28.5-70.3-32.6
					c-19.3-3.1-61.4-5.6-126.5-7.4c-35.4-1-57.5-2.3-66.3-3.7c-15.2-2.2-25.3-5.8-30.6-10.8c-5.2-5-7.8-10.2-7.8-15.5
					c0-6.2,2.4-13.8,7.4-22.7c4.9-8.9,14.3-19.3,28.2-31.2c22.4,6.4,44.3,9.6,65.7,9.6c52,0,93.4-14.4,124.3-43.2
					s46.3-63.4,46.3-104c0-32.3-7.4-59.3-22.1-81.1h65.7L1192.6,282.1z M1021.4,521.9c-15.4,17.9-35.1,26.9-59,26.9
					c-25.2,0-45.9-10.4-62.3-31.2c-21.4-27.4-32.1-66-32.1-115.7c0-38.4,7.9-66.9,23.6-85.5c15.7-18.6,35.2-27.9,58.5-27.9
					c25.2,0,45.8,10.4,61.8,31.2c21.7,28.3,32.6,67.5,32.6,117.6C1044.5,475.8,1036.8,504,1021.4,521.9z"/>
			</g>
		</g>
	</g>
	<text transform="matrix(1 0 0 1 1302.5498 154.3257)" class="st8 st9 st10 st11">Groestlcoin</text>
	<text transform="matrix(1 0 0 1 21.2163 729.0654)" class="st12 st9 st13 st14">Fast &amp;</text>
	<text transform="matrix(1 0 0 1 21.2163 803.0654)" class="st12 st9 st13 st14">      Secure</text>
</g>
<g>
	<g>
		<polygon class="st1" points="1581.7,1739.2 1581.7,1222.8 1134.4,964.5 687.2,1222.8 687.2,1739.2 1134.4,1997.4 		"/>
		<polygon class="st15" points="1525.3,1706.7 1525.3,1255.3 1134.4,1029.7 743.6,1255.3 743.6,1706.7 1134.4,1932.3 		"/>
	</g>
	<text transform="matrix(1 0 0 1 876.3286 1505.6709)" class="st8 st9 st16 st17">LAUNCHED IN</text>
	<text transform="matrix(1 0 0 1 910.9286 1619.2709)" class="st8 st9 st18 st11">MARCH</text>
	<text transform="matrix(1 0 0 1 1081.0286 1687.6709)" class="st8 st9 st16 st17">OF</text>
	<text transform="matrix(1 0 0 1 982.5286 1801.2709)" class="st8 st9 st18 st11">2014</text>
</g>
<g>
	<path class="st19" d="M1023.3,1365.7v-222.2h222.2v222.2H1023.3z"/>
	<g>
		<path class="st8" d="M1217.4,1363.9h-171.2c-3.6,0-7.1-1.9-9-5.2c-3.5-6.1-5.2-18.1-5.2-24.3c0-14.9,8.7-28.5,22.4-34.7
			c3.3-1.6,6.9-2.6,10.8-3.1c1.9-0.3,3.6-0.3,5.2-0.3c4,0,8,0.7,11.8,1.9c4.2,1.2,8.2,3.3,11.8,6.3c2.3,1.7,4.3,3.8,6.1,5.9
			c3,3.3,5.9,7.1,9.2,11.6l0.7,1c6.1,8,8.2,9.5,11.8,9.7c4.2,0,7.6-3.5,7.6-7.8v-16.5c0-3,2.3-5.2,5.2-5.2c3,0,5.2,2.3,5.2,5.2v16.5
			c0,9.4-7.1,17.2-16.3,18.1c-0.7,0.2-1.2,0.2-1.9,0.2l0,0c-0.2,0-0.2,0-0.3,0c-8.9-0.5-13.5-5.9-19.6-13.9l-0.7-1
			c-3.3-4.3-6.1-8-8.7-11.1l-0.2-0.2c-1.4-1.6-2.8-3.1-4.5-4.5c-2.8-2.3-5.4-3.6-8.3-4.5c-3-0.9-5.7-1.4-8.7-1.4
			c-1.2,0-2.4,0.2-3.8,0.3h-0.2c-2.6,0.3-5,1-7.3,2.1c0,0-0.2,0-0.2,0.2c-10.2,4.5-16.7,14.4-16.7,25.4c0,5.9,1.6,15.5,3.8,19.1
			h171.4c2.1-3.6,3.8-13.2,3.8-19.1c0-10.9-6.4-20.8-16.3-25.4c0,0-0.2,0-0.2-0.2c-2.3-1-4.7-1.7-7.3-2.1h-0.2c-1.6,0-2.8-0.2-4-0.2
			c-3,0-5.7,0.5-8.5,1.4c-3.1,0.9-5.7,2.3-8.3,4.5c-1.7,1.4-3.3,3-4.7,4.5l-0.2,0.2c-2.8,3.1-5.6,6.8-8.7,11.1l-0.9,0.9
			c-1.7,2.3-5,2.8-7.3,1c-2.3-1.7-2.8-5-1-7.3l0.7-1c3.3-4.5,6.3-8.3,9.2-11.6c1.7-2.3,3.8-4.2,6.3-6.1c3.6-3,7.5-5,11.8-6.3
			c3.6-1.2,7.6-1.7,11.6-1.7c1.6,0,3.3,0.2,5.2,0.3c3.8,0.3,7.5,1.4,10.8,3.1c13.5,6.3,22.4,19.8,22.4,34.7c0,6.3-1.6,18.2-5.2,24.3
			C1224.7,1362,1221.3,1363.9,1217.4,1363.9L1217.4,1363.9z M1134.4,1296.2c-0.3,0-0.7,0-1-0.2c-0.3,0-0.7-0.2-1-0.3
			c-0.3-0.2-0.5-0.3-0.9-0.5c-0.3-0.2-0.5-0.3-0.9-0.7c-0.9-0.7-1.4-2.1-1.4-3.5s0.5-2.8,1.6-3.6c0.2-0.2,0.5-0.5,0.9-0.7
			s0.5-0.3,0.9-0.5s0.7-0.2,1-0.3c0.7-0.2,1.4-0.2,2.1,0c0.3,0,0.7,0.2,1,0.3c0.3,0.2,0.7,0.3,0.9,0.5c0.3,0.2,0.5,0.3,0.7,0.7
			c1,1,1.6,2.3,1.6,3.6s-0.5,2.8-1.6,3.6c-0.2,0.2-0.5,0.5-0.7,0.7c-0.3,0.2-0.5,0.3-0.9,0.5c-0.3,0.2-0.7,0.2-1,0.3
			C1135.1,1296.2,1134.8,1296.2,1134.4,1296.2L1134.4,1296.2z"/>
		<path class="st20" d="M1152,1262.5c-0.5,0-1,0-1.6-0.2c-2.8-0.9-4.2-3.8-3.3-6.6l3.6-11.6c8-24.7,11.3-59.2-16.3-86.6
			c-27.6,27.4-24.3,62-16.3,86.6l2.3,7.1c0.9,2.8-0.7,5.7-3.3,6.6c-2.8,0.9-5.7-0.7-6.6-3.3l-2.3-7.1c-13-40.5-4.9-76.4,22.7-100.9
			c1.9-1.7,4.9-1.7,6.9,0c27.6,24.7,35.8,60.4,22.7,100.9l-3.6,11.5C1156.3,1261.1,1154.2,1262.5,1152,1262.5z"/>
		<path class="st8" d="M1134.4,1188.6c-3.8,0-6.9,3.1-6.9,6.9s3.1,6.9,6.9,6.9s6.9-3.1,6.9-6.9
			C1141.4,1191.7,1138.3,1188.6,1134.4,1188.6z"/>
		<path class="st8" d="M1170.9,1264.6c0-0.2,0-0.3,0-0.5s0-0.3-0.2-0.5c0-0.2-0.2-0.3-0.2-0.5s-0.2-0.3-0.2-0.5s-0.2-0.3-0.2-0.5
			c-0.2-0.2-0.2-0.3-0.3-0.3c-0.2-0.2-0.2-0.3-0.3-0.3c-0.2-0.2-0.2-0.2-0.3-0.3c-0.2-0.2-0.2-0.2-0.3-0.3c-0.2-0.2-0.3-0.2-0.5-0.3
			c-0.2,0-0.2-0.2-0.3-0.2l-9.9-4.7l2.6-8.3c13-40.1,4.9-76.1-22.7-100.5c-1.9-1.7-5-1.7-6.9,0c-27.6,24.5-35.8,60.4-22.7,100.7
			l1.2,4l-9.9,9.9c-1,1-1.6,2.4-1.6,3.8v8.5c0,2.6,1.7,4.9,4.2,5.4c3.3,0.7,6.3-1.9,6.3-5v-6.6l10.2-10.2c1.6-1.4,2.4-3.5,1.7-5.7
			l-2.3-7.1c-8-24.7-11.3-59.2,16.3-86.6c25.9,25.7,24.5,57.6,17.7,82l0,0c-1.7,6.3-8.7,9.4-14.6,6.6l-0.7-0.3
			c-2.3-1-5.2-0.5-6.6,1.4c-0.9,1-1,2.3-1,3.5c0,0.2,0,0.2,0,0.3v22.4c0,2.6,1.7,4.9,4.2,5.4c3.3,0.7,6.3-1.9,6.3-5v-15.1l20.8,9.7
			v5.2c0,2.6,1.7,4.9,4.2,5.4c3.3,0.7,6.3-1.9,6.3-5v-8.7C1170.9,1264.8,1170.9,1264.8,1170.9,1264.6L1170.9,1264.6z"/>
	</g>
</g>
<text transform="matrix(1 0 0 1 193.5322 1041.2793)" class="st8 st9 st16 st17">Lightning Network</text>
<text transform="matrix(1 0 0 1 1813.4 1041.2793)" class="st8 st9 st16 st17">Segwit</text>
<text transform="matrix(1 0 0 1 201.6392 1962.9419)" class="st8 st9 st16 st17">Open-Source</text>
<text transform="matrix(1 0 0 1 1500.2168 1962.9419)" class="st8 st9 st16 st17">Multi-Platform</text>
<g>
	<g>
		<polygon class="st1" points="2267.7,2506.3 2267.7,2244 2040.6,2112.8 1813.4,2244 1813.4,2506.3 2040.6,2637.5 		"/>
		<polygon class="st15" points="2239.1,2489.8 2239.1,2260.5 2040.6,2145.9 1842,2260.5 1842,2489.8 2040.6,2604.4 		"/>
	</g>
	<path class="st8" d="M2142.1,2319.7l2.1-2.1c3.4-3.4,3.4-8.7,0-12.2l-34.5-34.5c-3.4-3.4-8.7-3.4-12.2,0l-2.2,2.2
		c-28.7-19.5-62.4-30-98-29.8h-12.2c-4.3,0.2-7.9,3-8.5,7.3c-0.6,2.6,0.6,5.5,2.4,7.3c1,1,2,1.6,3.9,1.8c23.1,7.7,43.6,21.3,60,39.3
		c3,3.4,8.3,3.9,12,0.6c3.4-3,3.9-8.3,0.6-12c-8.5-9.3-17.8-17.4-28.2-24.5c19.8,3.8,38.6,11.4,55.5,22.4l-30,30
		c-3.2,3.2-3.4,7.9-0.8,11.3l-135.9,135.9c-10.1,10.1-10.1,26.4,0,36.5s26.4,10.1,36.5,0l136-136c3.3,2.1,7.8,1.9,10.8-1.1l0.6-0.6
		c25.9,16.6,45.5,41.5,55.4,71.2c1.2,4.1,5.3,6.5,9.5,5.9c4.3-0.6,7.3-4.5,7.3-8.5V2418C2172.4,2382.4,2161.8,2348.5,2142.1,2319.7z
		 M2102.7,2300.7c2.1,1.9,4.2,3.9,6.2,5.9s4,4.1,5.9,6.2l-24,24c-0.9-0.4-1.8-0.9-2.8-1.3l-4.9-2.1l-6.7-6.7L2102.7,2300.7z
		 M1940.6,2487.1c-3.4,3.4-8.7,3.4-12.2,0c-3.4-3.4-3.4-8.7,0-12.2l135.9-135.9l12.2,12.2L1940.6,2487.1z M2112.6,2349.3l17.1-17.1
		c11.2,17.2,18.9,36.3,22.7,56.4C2141.6,2373.2,2128.1,2359.9,2112.6,2349.3z"/>
</g>
<g>
	<g>
		<path class="st8" d="M1604.7,3611.3c1.9,0,1.9-3,0-3C1602.8,3608.3,1602.8,3611.3,1604.7,3611.3L1604.7,3611.3z"/>
	</g>
</g>
<text transform="matrix(1 0 0 1 578.6943 2220.0405)" class="st8 st9 st21">THE PROTOCOL</text>
<path class="st1" d="M22.8,2381.5h572.4c6.6,0,12-5.4,12-12v-85.7c0-6.6-5.4-12-12-12H22.8c-6.6,0-12,5.4-12,12v85.7
	C10.8,2376.1,16.2,2381.5,22.8,2381.5z"/>
<path class="st1" d="M630.7,2381.5h572.4c6.6,0,12-5.4,12-12v-85.7c0-6.6-5.4-12-12-12H630.7c-6.6,0-12,5.4-12,12v85.7
	C618.7,2376.1,624.1,2381.5,630.7,2381.5z"/>
<path class="st1" d="M1238.5,2381.5h555.2c6.6,0,12-5.4,12-12v-85.7c0-6.6-5.4-12-12-12h-555.2c-6.6,0-12,5.4-12,12v85.7
	C1226.5,2376.1,1231.9,2381.5,1238.5,2381.5z"/>
<text transform="matrix(1 0 0 1 41.0249 2343.0693)" class="st8 st9 st22">1 MB BLOCK SIZE</text>
<text transform="matrix(1 0 0 1 640.8643 2344.1309)" class="st8 st9 st22">1 MINUTE BLOCKS</text>
<g>
	<text transform="matrix(1 0 0 1 1247.5049 2344.0762)" class="st8 st9 st22">PROOF OF WORK</text>
</g>
<path class="st1" d="M925.4,2397.2H595.2H353H22.8c-6.6,0-12,5.4-12,12v85.7c0,6.6,5.4,12,12,12H353h242.2h330.2c6.6,0,12-5.4,12-12
	v-85.7C937.4,2402.6,932,2397.2,925.4,2397.2z"/>
<path class="st1" d="M959.8,2506.9h833.9c6.6,0,12-5.4,12-12v-85.7c0-6.6-5.4-12-12-12H959.8c-6.6,0-12,5.4-12,12v85.7
	C947.8,2501.5,953.2,2506.9,959.8,2506.9z"/>
<text transform="matrix(1 0 0 1 1087.1768 2467.8765)" class="st8 st9 st22">105M MAX SUPPLY</text>
<text transform="matrix(1 0 0 1 95.6475 2468.8833)" class="st8 st9 st22">~75M CURRENT SUPPLY</text>
<rect x="-0.4" y="5117.5" class="st1" width="2268.4" height="324.1"/>
<g>
	<text transform="matrix(1 0 0 1 189.9733 5313.8721)" class="st8 st9 st23">SOCIALS PLACEHOLDER</text>
</g>
<g>
	<g>
		<polygon class="st1" points="2268.4,3879.1 2268.4,3618.4 2042.8,3488.1 1817,3618.4 1817,3879.1 2042.8,4009.5 		"/>
		<polygon class="st15" points="2240,3862.7 2240,3634.8 2042.8,3521 1845.5,3634.8 1845.5,3862.7 2042.8,3976.6 		"/>
	</g>
	<g>
		<path class="st24" d="M2147.7,3654.6c-22.8-60.3-91.2-89.2-149.5-62.8c-58.8,26.9-82.6,95.8-52.2,153.6
			c13.7,25.8,28.9,50.7,43.6,76.5c17.2,29.9,35,60.3,54.7,95.3c2.5-5.6,3.6-8.1,5.1-10.6c30.4-53.7,61.8-106.9,91.7-161.2
			C2157.3,3716.9,2159.3,3685.5,2147.7,3654.6z M2043.9,3782.1c-50.2,0-90.8-40.7-90.8-90.8c0-50.1,40.7-90.8,90.8-90.8
			c50.1,0,90.8,40.7,90.8,90.8C2134.7,3741.4,2094,3782.1,2043.9,3782.1z"/>
		<path class="st8" d="M2015.4,3756.9c-3.4,3.4-6.6,6.9-9.9,10.3c-1,0.6-1.7,0-2.5-0.4c-4.9-2.6-9.5-5.7-13.7-9.3
			c-7.9-6.7-14.6-14.3-19.7-23.4c-6-10.7-9.8-22.1-10.9-34.3c-1.1-12.1,0.1-23.9,4-35.5c3.5-10.4,8.8-19.9,16-28.3
			c6.5-7.5,13.8-13.8,22.4-18.7c10.7-6.1,22.2-9.9,34.6-11.1c12.1-1.1,23.9,0.1,35.5,4c3,1,6,2.1,8.9,3.6c0.5,0.2,1.1,0.4,1.3,1
			c0.2,0.3,0.1,0.6-0.4,0.4c-2.4-0.3-4.8-0.5-7.2,0c-7.2,1.6-10.9,7.4-12,14.1c-0.1,0.4-0.3,0.9,0.4,1.1c0.7,0.1,1-0.2,1.2-0.8
			c1-2.6,2.5-4.9,5-6.4c3.7-2.3,7.5-2.8,11.4-0.8c3.9,2.1,5.8,5.5,6,9.9c0.2,6.1-2.5,11.1-5.8,15.8c-3.5,5-7.8,9.4-12.2,13.8
			c-0.8,0.8-1.3,0.5-2,0.1c-12.7-6.8-26-7.8-39.2-2.3c-12.2,5-20,14.3-21.7,27.7c-1.9,14.6,4.8,26.9,16.9,33.3
			c0.3,0.2,0.7,0.4,1.2,0.7c-1,0.9-1.9,1.7-2.8,2.4c-3.5,3.1-7.1,6.3-10,10.1c-1.8,2.4-3.1,5-3.9,8c-0.8,3.5,0.1,6.5,2.5,9
			c1.9,1.9,4,3.3,6.2,4.7C2015.8,3755.9,2016.1,3756.2,2015.4,3756.9z M2128.8,3679.7c-1.5-11.1-5.2-21.4-10.7-31.1
			c-5.1-8.9-11.8-16.4-19.5-23.1c-2.5-2.2-5.2-4-8-5.9c-1-0.6-1-0.6-1.7,0c4.1,4.4,4.9,9.6,3.1,15.2c-1.2,3.8-3.2,7.1-5.6,10.3
			c-3.4,4.7-7.4,8.7-11.3,13c-1.9,2.1-3.9,4.1-6,6.4c6.1,0,11.8,0,17.5,0c3.2,0,5.9-1,7.7-3.7c0.4-0.6,0.9-0.8,1.4-0.5
			c0.7,0.3,0.2,0.9,0,1.3c-1.3,3.7-2.6,7.4-3.8,11.2c-0.4,1.2-0.9,1.5-2.1,1.5c-4.3-0.1-8.5,0-12.8,0c-0.1,0.6,0.2,0.9,0.4,1.2
			c4.1,7.3,5.1,15.2,3.5,23.2c-2.7,13-11.1,21.1-23.5,24.9c-9.1,2.9-18.4,2.6-27.6,0.3c-0.6-0.2-1.3-0.5-1.9,0c-3,2.6-5.8,5.4-7,9.3
			c-1.1,3.1,0.1,5.7,3.2,7c2,0.8,4.1,1.2,6.2,1.4c6.7,0.6,13.3,0.6,20,0.9c7.4,0.3,14.9,0.4,22.2,1.5c10.3,1.5,18.1,6.3,21.2,16.9
			c0.9,0.2,1.5-0.5,2.1-0.9c5-3.8,9.3-8.1,13.5-12.8c7.2-8.3,12.5-17.9,16.1-28.3C2129.5,3706.1,2130.6,3693,2128.8,3679.7z
			 M2036,3662.7c-6.4,2.3-10,7.2-11.6,13.7c-1.9,7.5-1.6,15-0.1,22.6c1.1,5.8,3.2,11.2,7.3,15.7c8.5,9.3,23.5,6.8,28.6-4.6
			c2.1-4.8,2.6-9.9,2.6-15c0-3.1-0.2-6.2-0.7-9.2c-1-6.7-3.1-13-7.7-18.2C2049.8,3662.3,2042.5,3660.3,2036,3662.7z M2078.8,3761.6
			c-5.3-1.4-10.8-1.8-16.2-1.9c-13.2-0.4-26.4-0.8-39.5-2.5c-0.8-0.1-1.4,0.2-1.9,0.8c-1.3,1.6-2.7,3.1-3.9,4.7
			c-1.9,2.6-3.7,5.2-4.6,8.3c0.9,1.3,2.5,1.5,3.8,1.9c12.8,4.3,25.9,5.4,39.2,3.6c9.8-1.3,19.2-4.4,27.9-9.1
			c0.6-0.3,1.4-0.6,1.4-1.5C2083.8,3763.3,2081.4,3762.3,2078.8,3761.6z"/>
	</g>
</g>
<g>
	<text transform="matrix(1 0 0 1 1956.2441 3028.0449)" class="st8 st9 st25 st4">WATCH</text>
	<g>
		<g>
			<g>
				<polygon class="st5" points="1873.7,2616.7 1873.4,2616.9 1818.4,2584.9 1818.4,2584.9 1656.3,2584.9 1567.5,2584.9 0,2584.9 
					0,2621.4 0,2695.4 0,2786.2 0,2856.5 0,2897.7 35.4,2897.7 35.4,2856.5 1621.4,2856.5 1621.4,2929.1 1818.4,3043.9 
					1818.7,3043.8 1873.7,3075.8 2070.7,2961 2070.7,2731.5 				"/>
				<g>
					<g>
						<polygon class="st1" points="394.1,3085.2 394.1,2855.6 197,2740.9 0,2855.6 0,3085.2 197,3199.9 						"/>
						<polygon class="st5" points="369.2,3070.7 369.2,2870.1 197,2769.8 24.8,2870.1 24.8,3070.7 197,3171 						"/>
					</g>
					<g>
						<g>
							<path class="st8" d="M165.8,2806.4c-0.5,0.1-0.9,0.2-1.3,0.4c-1.6,1.1-2,3.4-0.9,5l7.7,11.5c-11.9,6.3-20.9,16.8-23.8,29.5
								h99c-2.9-12.6-11.8-23.1-23.8-29.5l7.7-11.5c1.1-1.6,0.7-3.9-0.9-5c-1.7-1.1-3.9-0.6-5,1l-8.5,12.5c-5.9-2.2-12.3-3.4-19-3.4
								s-13.1,1.2-19,3.4l-8.5-12.5C168.6,2806.6,167.1,2806.1,165.8,2806.4z M177.3,2834.9c3,0,5.4,2.4,5.4,5.4s-2.4,5.4-5.4,5.4
								s-5.4-2.4-5.4-5.4C171.9,2837.3,174.3,2834.9,177.3,2834.9z M216.7,2834.9c3,0,5.4,2.4,5.4,5.4s-2.4,5.4-5.4,5.4
								s-5.4-2.4-5.4-5.4C211.4,2837.3,213.8,2834.9,216.7,2834.9z M136.1,2860c-5.9,0-10.8,4.8-10.8,10.8v50.2
								c0,5.9,4.8,10.8,10.8,10.8c1.3,0,2.5-0.3,3.6-0.7v-70.4C138.5,2860.3,137.3,2860,136.1,2860z M146.8,2860v78.9
								c0,5.9,4.8,10.8,10.8,10.8h78.9c5.9,0,10.8-4.8,10.8-10.8V2860H146.8z M258,2860c-1.3,0-2.5,0.3-3.6,0.7v70.4
								c1.1,0.4,2.3,0.7,3.6,0.7c5.9,0,10.8-4.8,10.8-10.8v-50.2C268.7,2864.9,263.9,2860,258,2860z M161.2,2956.8v14.3
								c0,7.9,6.4,14.3,14.3,14.3c7.9,0,14.3-6.4,14.3-14.3v-14.3H161.2z M204.2,2956.8v14.3c0,7.9,6.4,14.3,14.3,14.3
								c7.9,0,14.3-6.4,14.3-14.3v-14.3H204.2z"/>
						</g>
					</g>
					<text transform="matrix(1 0 0 1 62.582 3061.2393)" class="st8 st9 st26 st4">ANDROID</text>
				</g>
				<g>
					<g>
						<polygon class="st1" points="769,3085.2 769,2855.6 572,2740.9 375,2855.6 375,3085.2 572,3199.9 						"/>
						<polygon class="st15" points="744.2,3070.7 744.2,2870.1 572,2769.8 399.8,2870.1 399.8,3070.7 572,3171 						"/>
					</g>
					<g>
						<g>
							<path class="st8" d="M641.1,2947.5c-4.1,9-6.1,13-11.4,20.9c-7.4,11-17.9,24.8-30.9,24.9c-11.5,0.1-14.5-7.3-30.1-7.2
								s-18.9,7.3-30.4,7.2c-12.9-0.1-22.9-12.5-30.3-23.5c-12.7-18.9-18.5-39.8-18.1-57.6c0.2-11.3,3-21.4,8-28.9
								c9.1-13.7,23.5-21.4,36.9-21.4c13.7,0,22.4,7.2,33.7,7.2c11,0,17.8-7.2,33.6-7.2c12,0,24.7,6.1,33.8,17.1
								c-13.5,7.3-19.4,19.8-19.5,32.4C616.4,2926.4,624.8,2941.5,641.1,2947.5z"/>
							<path class="st8" d="M538.5,2994.5h-0.3c-13.3-0.1-23.3-12.2-31.3-24.1c-12-17.9-18.7-39.1-18.3-58.3
								c0.2-11.7,3.1-21.9,8.2-29.5c9-13.5,23.5-22,37.9-22c7.4,0,13.2,2,18.9,3.9c5,1.7,9.6,3.3,14.8,3.3c4.8,0,8.7-1.4,13.2-3
								c5.4-1.9,11.5-4.1,20.4-4.1c12.7,0,25.7,6.6,34.7,17.6l0.9,1.1l-1.3,0.7c-11.9,6.4-18.7,17.8-18.8,31.3
								c-0.1,15.9,9.2,29.6,23.8,35l1.2,0.4l-0.5,1.2c-4.2,9.2-6.2,13.1-11.5,21c-8.4,12.5-18.8,25.4-31.8,25.5l0,0
								c-5.7,0-9.3-1.6-13.1-3.3c-4.3-1.9-8.8-3.9-16.7-3.9h-0.4c-8.1,0-12.7,2-17.1,3.9C547.7,2992.9,544,2994.5,538.5,2994.5z
								 M534.8,2863.1c-13.6,0-27.4,8-35.9,20.9c-4.8,7.3-7.5,17-7.8,28.3c-0.4,18.7,6.1,39.4,17.9,56.9c7.6,11.3,17.1,22.9,29.3,23
								h0.3c5,0,8.3-1.4,12.1-3.1c4.4-1.9,9.5-4.1,18.1-4.1h0.4c8.4,0,13.3,2.2,17.6,4.1c3.7,1.6,6.9,3.1,11.9,3.1
								c12.1-0.1,22-12.4,30.1-24.4c5-7.4,7-11.3,10.8-19.5c-14.8-6-24.3-20.3-24.2-36.8c0.1-14,6.9-25.8,18.8-32.7
								c-8.6-9.8-20.4-15.6-32-15.6c-8.5,0-14.1,2-19.6,4c-4.5,1.6-8.8,3.2-14,3.2c-5.6,0-10.5-1.6-15.6-3.4
								C547.4,2865,541.8,2863.1,534.8,2863.1z"/>
							<g>
								<path class="st8" d="M592.8,2845.5c6.1-7.5,10.7-18.2,9-29c-9.9,0.7-21.5,6.8-28.2,14.7c-6.1,7.2-11.2,17.9-9.2,28.3
									C575.2,2859.8,586.3,2853.6,592.8,2845.5z"/>
								<path class="st8" d="M565.2,2860.7c-0.3,0.1-0.6,0-0.9,0h-1l-0.2-0.9c-1.8-9.3,1.8-20.2,9.5-29.3c7-8.2,19-14.4,29.1-15.1
									l1.1-0.1l0.2,1.1c1.5,9.8-1.8,20.8-9.2,30C586.7,2855,575.5,2860.7,565.2,2860.7z M600.8,2817.8c-9.3,1-19.9,6.7-26.3,14.2
									c-7,8.2-10.3,18-9.1,26.3c9.4-0.1,20.1-5.5,26.5-13.5C595.1,2840.8,602.2,2830.3,600.8,2817.8z"/>
							</g>
						</g>
					</g>
					<text transform="matrix(1 0 0 1 424.5322 3061.2393)" class="st8 st9 st26 st4">IOS &amp; OSX</text>
				</g>
				<g>
					<g>
						<polygon class="st1" points="1144.7,3085.2 1144.7,2855.6 947.6,2740.9 750.6,2855.6 750.6,3085.2 947.6,3199.9 						"/>
						<polygon class="st5" points="1119.8,3070.7 1119.8,2870.1 947.6,2769.8 775.5,2870.1 775.5,3070.7 947.6,3171 						"/>
					</g>
					<g>
						<g>
							<path class="st8" d="M924.1,2929.4l-70.7-0.1v60.1l70.7,9.8V2929.4z M933.5,2929.5v71.1l99.1,13.7v-84.6L933.5,2929.5z
								 M924.1,2850.3l-70.8,10l0.1,59.5h70.7V2850.3z M933.5,2849v70.9h99.1V2835L933.5,2849z"/>
						</g>
					</g>
					<text transform="matrix(1 0 0 1 801.7183 3061.2393)" class="st8 st9 st26 st4">WINDOWS</text>
				</g>
				<g>
					<g>
						<polygon class="st1" points="1519.6,3085.2 1519.6,2855.6 1322.6,2740.9 1125.6,2855.6 1125.6,3085.2 1322.6,3199.9 						"/>
						<polygon class="st15" points="1494.8,3070.7 1494.8,2870.1 1322.6,2769.8 1150.4,2870.1 1150.4,3070.7 1322.6,3171 						"/>
					</g>
					<g>
						<g>
							<path class="st8" d="M1321.7,2837.9c-29.3,0-55.3,14.2-71.6,35.9l32.4,32.4c7.6-14,22.2-23.5,39.2-23.5c10,0,19.2,3.4,26.7,9
								h54l-40.6,16.2c2.9,6,4.7,12.6,4.7,19.6c0,14.7-7.2,27.7-18.2,35.9h0.2l-35.6,53.3c2.8,0.3,5.7,0.4,8.7,0.4
								c49.5,0,89.6-40.1,89.6-89.6S1371.2,2837.9,1321.7,2837.9z M1250,2873.8c-11.2,15-18,33.5-18,53.7
								c0,46.5,35.5,84.8,80.8,89.2l15-45c-2,0.3-4.1,0.6-6.2,0.6c-24.7,0-44.8-20.1-44.8-44.8L1250,2873.8z M1321.7,2897.7
								c-16.5,0-29.9,13.4-29.9,29.9s13.4,29.9,29.9,29.9s29.9-13.4,29.9-29.9S1338.2,2897.7,1321.7,2897.7z"/>
						</g>
					</g>
					<text transform="matrix(1 0 0 1 1194.2891 3061.2393)" class="st8 st9 st26 st4">CHROME</text>
					<text transform="matrix(1 0 0 1 1280.1891 3116.0393)" class="st8 st9 st26 st4">OS</text>
				</g>
				<g>
					<g>
						<polygon class="st1" points="1892.7,3075.7 1892.7,2846.2 1695.7,2731.5 1498.7,2846.2 1498.7,3075.7 1695.7,3190.5 						"/>
						<polygon class="st5" points="1867.9,3061.3 1867.9,2860.7 1695.7,2760.4 1523.5,2860.7 1523.5,3061.3 1695.7,3161.6 						"/>
					</g>
					<g>
						<g>
							<path class="st8" d="M1698.1,2833.2c-18.1,0-27.2,13.1-27.2,38.9v19.4c0,1.4-0.4,3.2-1.1,4.5c-0.2,0.5-1.3,2-2.3,3.4
								c-5.4,7.6-17.4,28.5-19.6,51.2c0.9-0.2,1.7-0.3,2.7-0.3c2.4,0,8.7,0,18.7,16.5c1.9,2.7,2.9,4.4,4.3,6.7
								c0.9,1.6,2.1,3.5,3.9,6.4l0.1,0.1l0.1,0.2c1,1.9,2.1,3.4,3.2,4.8c0.6,0.8,1.2,1.7,1.8,2.6c2.4-1,4.8-2.4,6.3-4.4
								c1.9-3.2,1.7-6.9-0.6-10.3c-0.9-1.4-2.6-2.4-6.7-4.8c-2.5-1.4-5.5-3.1-6.9-4.3c-3.3-2.8-7.8-8.9-7.8-13.7
								c0-10.3,6.9-26.1,12.5-35.4c3.2-5.3,5.6-9.4,6.5-13c0.5,0.4,1.2,0.7,2,1h0.1h0.2c2.7,0.7,5.4,0.6,7.2,0.6
								c3.7,0,6.3-1.8,8.8-3.2c2.4-1.5,4.8-2.8,5.1-3c1.8,3.3,4,6.4,6.4,9.6c6.5,8.7,14.3,23.5,16.6,45.3c3-1.6,4.8-2.1,8.5-2.1
								c0.1,0,0.2,0,0.2,0c0.3,0,0.7,0,1,0c1,0,2,0.1,2.9,0.2c2.3,0.1,5.4,0.9,7.2,1.5c3,0.9,5.5,2.5,7.3,4.5c1.6,0,3.1,0.4,4.5,1.1
								c0-2.5,0.2-6.3,0.2-7.3c0-12.8-8.4-30.5-14.7-39.6c-1.3-1.9-2.6-3.6-3.8-5.3c-5.6-7.8-10-13.9-12.6-24.5
								c-1.7-6.9-1.9-9-2.1-11c-0.2-2.1-0.5-4.2-1.8-10C1726.6,2847.8,1723.5,2833.2,1698.1,2833.2z M1686.4,2856.5
								c4.3,0,7.8,7.8,7.8,14.3c0,0.4,0,1-0.1,1.6c-0.3,0-0.6-0.1-0.9-0.1c-1.1,0-2.1,0.2-3.1,0.4c-0.5-2.5-1.9-4.3-3.7-4.3
								c-2.1,0-3.9,2.6-3.9,5.8c0,0.8,0.1,1.5,0.3,2.2c-1,0.8-1.9,1.5-2.3,1.9c-0.1,0.1-0.2,0.2-0.4,0.3c-0.3-0.6-0.5-1.2-0.7-1.9
								c-0.4-2.7-0.8-6-0.8-6C1678.6,2864.3,1682.1,2856.5,1686.4,2856.5z M1705.9,2856.5c4.3,0,7.8,7.8,7.8,14.3
								c0,2.4-0.5,5.2-1.4,7.5c-1.1-0.5-2.1-0.8-3.1-1.1c0.3-0.9,0.6-1.8,0.6-2.9c0-3.2-1.7-5.8-3.9-5.8c-2.1,0-3.9,2.6-3.9,5.8l0,0
								c-1.2-0.5-2.4-0.9-3.8-1.3c-0.1-0.8-0.1-1.7-0.1-2.2C1698.1,2864.3,1701.6,2856.5,1705.9,2856.5z M1693.2,2880.1
								c1.6,0,3.9,0.6,6,1.5s3.9,1.8,5.4,2.4l0.3,0.1l0.3,0.1c2,0.5,3.8,1,4.5,1.4c-0.2,1.7-0.4,2.6-0.5,2.7
								c-0.1,0.2-0.7,0.7-2.6,1.7c-2.5,0.9-4.3,2.3-6.3,3.5c-2.2,1.3-4.4,2.1-4.8,2.1c-1.7,0-4.1-0.1-5-0.3c0.4,0.1-0.3-0.2-1.1-1
								c-0.9-0.8-1.9-1.9-3-3.1l-0.3-0.3l-0.3-0.2c-1.2-0.9-2.2-1.7-2.7-2.2c-0.5-0.6-0.5-0.7-0.5-1.1c0-0.6-0.1-0.2,0.2-0.6
								c0.3-0.4,1.4-1.2,2.9-2.5l0.1-0.1l0.1-0.1c-0.2,0.2,1.2-1.2,2.7-2.2S1692.1,2880.1,1693.2,2880.1z M1742.1,2957.8
								c-3.6,0-6.1,1.1-6.8,1.9c1.6,1.8,2.6,3.6,3.6,6.8c1.1,2.4,3.8,3,5.9,3c6.6,0,7.9-4,9.9-6.2c0,0-0.5-0.6-0.5-1.2
								c-0.5-1.2-2.2-2.4-4.3-3c-1.6-0.6-4.3-1.2-5.4-1.2C1743.6,2957.8,1742.8,2957.8,1742.1,2957.8z M1650.7,2958.1
								c-2.7,0-4,1.3-5.8,3.1s-3.7,4.6-6.9,6.8c-2.8,3.6-11.1,0.1-13.5,5.6c-1.3,3,3.2,6.9,3.2,13.6c0,2.7-2.3,4.5-2.7,6.3
								c-0.5,2.2-0.9,3.6,0,5.4c1.8,2.7,4.1,3.6,19.4,6.7c8.1,1.8,15.8,6.3,20.7,6.7c4.9,0.4,13.5,0,13.5-12.1
								c0.5-7.2-3.6-9-7.7-16.2c-4.5-7.2-4.9-8.5-8.1-13C1660.1,2966.6,1654.3,2958.1,1650.7,2958.1z M1730.1,2965.8
								c-0.9,1.8-0.9,3.2-0.9,7.8c0,3.7,0,7.8-0.5,11c-0.9,7.8-3.4,11.3-3.4,15.9c0,5.1,1.4,8.3,3.2,9.7c1.4,1.4,3.7,2.3,8.7,2.3
								s8.3-1.8,11.5-5c2.3-2.3,4.1-3.2,10.6-7.8c5-3.2,12.9-7.3,14.2-8.7c0.9-0.9,2.3-1.4,2.3-4.2c0-2.3-1.8-3.2-3.2-3.7
								c-1.8-0.9-5-2.3-7.8-6.4c-1.2-2-1-7.1-2.5-10.2l-2,2.1c-0.2,0.2-0.4,0.6-0.7,0.9c-1.9,2.6-5.8,7.8-15,7.8
								c-6,0-10.9-2.8-13-7.5l-0.2-0.4l-0.2-0.5C1730.9,2967.3,1730.5,2966.5,1730.1,2965.8z M1719.5,2990.7
								c-3.7,3.2-9.4,6.3-17.5,6.3c-8.3,0-13.9-3.1-17.4-6.2c1.2,2.6,2,5.6,1.8,9.7c0,1.5-0.1,2.9-0.3,4.2h31.8
								c-0.2-1.3-0.3-2.7-0.3-4.2c0-3.4,0.9-6.2,1.7-8.9C1719.3,2991.3,1719.4,2991,1719.5,2990.7z"/>
						</g>
					</g>
					<text transform="matrix(1 0 0 1 1610.96 3061.2383)" class="st8 st9 st26 st4">LINUX</text>
				</g>
				<text transform="matrix(1 0 0 1 305.0059 2711.0884)" class="st8 st9 st27">YOUR PERFECT WALLET</text>
			</g>
			<g>
				<polygon class="st1" points="2267.7,3075.7 2267.7,2846.2 2070.7,2731.5 1873.7,2846.2 1873.7,3075.7 2070.7,3190.5 				"/>
				<polygon class="st15" points="2242.9,3061.3 2242.9,2860.7 2070.7,2760.4 1898.5,2860.7 1898.5,3061.3 2070.7,3161.5 				"/>
			</g>
			<g>
				<g>
					<path class="st8" d="M2060.9,2820.8c-3.7,0-6.9,2.5-7.9,6.1l-7.3,27.5c-10.4,2.8-18.2,12.3-18.2,23.5v65.2
						c0,11.2,7.8,20.7,18.2,23.5l7.3,27.5c0.9,3.6,4.2,6.1,7.9,6.1h39.2c3.7,0,6.9-2.5,7.9-6.1l7.3-27.5
						c10.4-2.8,18.2-12.3,18.2-23.5v-32.6c4.5,0,8.1-3.7,8.1-8.1V2886c0-4.5-3.7-8.1-8.1-8.1c0-11.2-7.8-20.7-18.2-23.5l-7.3-27.5
						c-0.9-3.6-4.2-6.1-7.9-6.1L2060.9,2820.8L2060.9,2820.8z M2052,2869.7h57c4.6,0,8.1,3.5,8.1,8.1v65.2c0,4.6-3.5,8.1-8.1,8.1
						h-57c-4.6,0-8.1-3.5-8.1-8.1v-65.2C2043.8,2873.2,2047.4,2869.7,2052,2869.7z"/>
				</g>
			</g>
			<text transform="matrix(1 0 0 1 1972.9961 3062.0146)" class="st8 st9 st26 st4">WATCH</text>
		</g>
		<g>
			<g>
				<polygon class="st1" points="595.6,3405.5 595.6,3176 398.6,3061.2 201.5,3176 201.5,3405.5 398.6,3520.3 				"/>
				<polygon class="st15" points="570.7,3391 570.7,3190.5 398.6,3090.2 226.4,3190.5 226.4,3391 398.6,3491.3 				"/>
			</g>
			<text transform="matrix(1 0 0 1 297.4814 3381.6064)" class="st8 st9 st26 st4">PAPER</text>
			<g>
				<path class="st28" d="M431,3149.9h-93.2c-3.9,0-7.1,3.2-7.1,7.1v155.8c0,3.9,3.2,7.1,7.1,7.1h121.3c3.9,0,7.1-3.2,7.1-7.1
					v-127.5L431,3149.9v28.3c0,3.9,3.2,7.1,7.1,7.1h28.3"/>
				<path class="st29" d="M431.2,3282.1H363c-2.6,0-4.6-2-4.6-4.6s2-4.6,4.6-4.6h68.2c2.6,0,4.6,2,4.6,4.6
					C435.8,3280,433.8,3282.1,431.2,3282.1z M431.2,3253.8H363c-2.6,0-4.6-2-4.6-4.6s2-4.6,4.6-4.6h68.2c2.6,0,4.6,2,4.6,4.6
					C435.8,3251.8,433.8,3253.8,431.2,3253.8z M431.2,3225.3H363c-2.6,0-4.6-2-4.6-4.6s2-4.6,4.6-4.6h68.2c2.6,0,4.6,2,4.6,4.6
					C435.8,3223.3,433.8,3225.3,431.2,3225.3z"/>
			</g>
		</g>
		<g>
			<g>
				<polygon class="st1" points="971.7,3406.3 971.7,3176.8 774.7,3062 577.6,3176.8 577.6,3406.3 774.7,3521.1 				"/>
				<polygon class="st5" points="946.8,3391.8 946.8,3191.2 774.7,3091 602.5,3191.2 602.5,3391.8 774.7,3492.1 				"/>
			</g>
			<text transform="matrix(1 0 0 1 695.5459 3382.3809)" class="st8 st9 st26 st4">COLD</text>
			<g>
				<g>
					<path class="st8" d="M852.8,3264.3l-37.2,1.2l-28.5-16.3l28.5-16.5l37.2,1.2h0.2c3.3,0,6-2.7,6.2-6c0.2-3.5-2.5-6.2-6-6.4
						l-29-0.8l13.7-25.6c1.7-3.1,0.4-6.8-2.5-8.5c-3.1-1.7-6.8-0.4-8.5,2.5l-17.6,32.9l-28.5,16.5v-29l19.9-35.8
						c1.7-2.9,0.6-6.8-2.5-8.5s-6.8-0.6-8.5,2.5l-15.1,27.3l-15.3-27.5c-1.7-2.9-5.4-4.1-8.5-2.5c-2.9,1.7-4.1,5.4-2.5,8.5l20.1,36
						v29l-25-14.5l-21.1-35.2c-1.9-2.9-5.6-3.9-8.5-2.1c-2.9,1.9-3.9,5.6-2.1,8.5l16.1,26.9l-31.4-0.6c-3.5,0-6.2,2.7-6.2,6.2
						s2.7,6.2,6.2,6.2l40.7,0.8l25,14.5l-25,14.5l-41.2,0.6c-3.5,0-6.2,2.9-6.2,6.2c0,3.5,2.9,6.2,6.2,6.2l31.4-0.6l-16.1,26.9
						c-1.9,2.9-0.8,6.8,2.1,8.5c1,0.6,2.1,0.8,3.1,0.8c2.1,0,4.1-1,5.4-3.1L743,3274l25-14.5v32.9l-19.7,31.6
						c-1.9,2.9-1,6.8,2.1,8.5c2.9,1.9,6.8,1,8.5-2.1l15.7-24l15.5,24.6c1,1.9,3.1,2.9,5.2,2.9c1,0,2.3-0.2,3.3-1
						c2.9-1.9,3.7-5.6,2.1-8.5l-19.9-31.6V3260l28.5,16.5l17.6,32.9c1,2.1,3.3,3.3,5.6,3.3c1,0,2.1-0.2,2.9-0.8
						c3.1-1.7,4.1-5.4,2.5-8.5l-13.7-25.6l29.2-1c3.5-0.2,6.2-2.9,6-6.4C859,3267,856.4,3264.3,852.8,3264.3L852.8,3264.3z"/>
				</g>
			</g>
		</g>
		<g>
			<g>
				<polygon class="st1" points="1350.3,3405.5 1350.3,3176 1153.2,3061.2 956.2,3176 956.2,3405.5 1153.2,3520.3 				"/>
				<polygon class="st15" points="1325.4,3391 1325.4,3190.5 1153.2,3090.2 981.1,3190.5 981.1,3391 1153.2,3491.3 				"/>
			</g>
			<text transform="matrix(1 0 0 1 988.1304 3381.6055)" class="st8 st9 st30 st4">HARDWARE</text>
			<g>
				<g>
					<path class="st31" d="M1260.7,3233.2v56.8c0,8-8.8,14.6-19.5,14.6h-166.6c-10.7,0-19.5-6.6-19.5-14.6v-56.8
						c0-8,8.8-14.6,19.5-14.6H1241C1252,3218.6,1260.7,3225.1,1260.7,3233.2z"/>
					<path class="st8" d="M1092.4,3219.2l130.4-1.2l0.8,86l-130.4,1.2L1092.4,3219.2"/>
					<path class="st1" d="M1223.2,3309c-3.3,0-5.8-1.9-5.8-4.4v-86c0-2.5,2.5-4.4,5.8-4.4s5.8,1.9,5.8,4.4v86
						C1229,3306.9,1226.5,3309,1223.2,3309z M1092.8,3309c-3.3,0-5.8-1.9-5.8-4.4v-86c0-2.5,2.5-4.4,5.8-4.4s5.8,1.9,5.8,4.4v86
						C1098.7,3306.9,1096.1,3309,1092.8,3309z"/>
					<path class="st1" d="M1241.3,3309h-166.6c-14,0-25.3-8.5-25.3-18.9v-56.8c0-10.5,11.3-18.9,25.3-18.9h166.4
						c14,0,25.3,8.5,25.3,18.9v56.8C1266.6,3300.5,1255.1,3309,1241.3,3309z M1074.7,3223c-7.6,0-13.6,4.5-13.6,10.2v56.8
						c0,5.7,6,10.2,13.6,10.2h166.4c7.6,0,13.6-4.5,13.6-10.2v-56.8c0-5.7-6-10.2-13.6-10.2H1074.7z"/>
				</g>
			</g>
		</g>
		<g>
			<polygon class="st1" points="2097.4,3394.5 2097.4,3165 1900.3,3050.2 1703.3,3165 1703.3,3394.5 1900.3,3509.3 			"/>
			<polygon class="st1" points="1720.5,3394.5 1720.5,3165 1523.5,3050.2 1326.4,3165 1326.4,3394.5 1523.5,3509.3 			"/>
			<polygon class="st32" points="1900.3,3079.2 1728.1,3179.5 1728.1,3179.5 1711.9,3189 1695.7,3179.5 1695.7,3179.5 
				1523.5,3079.2 1351.3,3179.5 1351.3,3380.1 1523.5,3480.3 1688.6,3384.2 1688.6,3384.3 1711.7,3370.6 1739,3386.4 1739,3386.4 
				1900.3,3480.3 2072.5,3380.1 2072.5,3179.5 			"/>
		</g>
		<g>
			<g>
				<path class="st8" d="M1516.7,3152.2c-51.5,0-94,38.1-101,88.1c14.5-16.7,40.3-38.1,72.5-45.1c2.7-0.5,6,1.1,6.5,4.4
					c0.5,2.7-1.1,5.8-4.4,6.4c-42.4,9.1-72.4,46.1-75.7,54.7v9.7c0,68.2,56.9,128.9,102,128.9c27.9,0,60.6-23.7,81.5-58.1
					c-30.6,21.5-68.2,25.8-70.3,25.8h-0.5c-2.7,0-4.8-2.2-5.4-4.9c-0.5-2.7,1.6-5.3,4.9-5.9c0.5,0,56.3-6.4,83.7-40.8
					c5.4-14,8.1-29.6,8.1-45.1v-16.1C1618.7,3197.8,1573.1,3152.2,1516.7,3152.2z M1516.7,3227.4c37.6,0,75.2,21.5,75.2,48.3
					c0,18.8-21.5,21.5-32.2,21.5c-15.6,0-31.1-10.7-43-10.7c-11.8,0-27.4,10.7-43,10.7c-10.7,0-32.2-2.7-32.2-21.5
					C1441.6,3248.8,1479.2,3227.4,1516.7,3227.4z M1467.4,3248.8c-2.4,0.4-4.2,2.5-4.4,4.9c-0.2,2.5,1.4,4.7,3.7,5.5l10.2,3.5
					c-2,2-3.2,4.6-3.2,7.5c0,5.9,4.8,10.7,10.7,10.7s10.7-4.8,10.7-10.7c0-0.6-0.1-1.1-0.2-1.7l3.9,1.3c1.9,1,4.2,0.7,5.8-0.6
					c1.7-1.3,2.4-3.5,1.8-5.5c-0.5-2-2.2-3.6-4.3-3.9l-32.2-10.7C1469.2,3248.8,1468.3,3248.7,1467.4,3248.8z M1564.2,3248.8
					c-0.3,0.1-0.6,0.2-0.8,0.3l-32.2,10.7c-2.1,0.4-3.8,1.9-4.3,3.9c-0.5,2.1,0.2,4.2,1.8,5.5c1.7,1.3,3.9,1.6,5.8,0.6l3.9-1.3
					c-0.1,0.5-0.2,1.1-0.2,1.7c0,5.9,4.8,10.7,10.7,10.7s10.7-4.8,10.7-10.7c0-3-1.2-5.6-3.2-7.5l10.2-3.5c2.6-0.9,4.2-3.6,3.5-6.4
					C1569.6,3250.2,1567,3248.4,1564.2,3248.8z M1407.7,3303c-7,10.7-14.4,29-14.4,58.6c0,3.2,2.1,5.4,5.4,5.4
					c12.4,0,21.4-8.7,27.3-20.5C1417.9,3333.6,1411.4,3318.6,1407.7,3303z M1432.5,3356.7c-5.4,8.6-11.9,14.6-20,17.8
					c2.7,4.3,5.9,6.9,5.9,6.9c1.1,1.1,2.2,1.7,3.9,1.7c1.1,0,2.1-0.5,2.7-1c0.5-0.5,8.6-6,13.4-17.8
					C1436.2,3362.1,1434.6,3359.4,1432.5,3356.7z"/>
			</g>
		</g>
		<text transform="matrix(1 0 0 1 1658.8164 3306.6514)" class="st8 st9 st33 st14">STEALTH</text>
		<g>
			<g>
				<polygon class="st1" points="180.1,2681.8 180.1,2585.1 96.4,2536.8 12.7,2585.1 12.7,2681.8 96.4,2730.1 				"/>
				<polygon class="st15" points="169.5,2675.7 169.5,2591.2 96.4,2549 23.3,2591.2 23.3,2675.7 96.4,2717.9 				"/>
			</g>
			<g>
				<path class="st8" d="M137.2,2633.5H124c-4.7,0-8.5,3.8-8.5,8.5s3.8,8.5,8.5,8.5h13.2c1.3,0,2.3-1,2.3-2.3v-12.4
					C139.5,2634.5,138.5,2633.5,137.2,2633.5z"/>
				<path class="st8" d="M125.5,2617.2c3,0,5.4,2.4,5.4,5.4c0,1.3,1,2.3,2.3,2.3s2.3-1,2.3-2.3c0-5.6-4.5-10.1-10.1-10.1H57.9v-9.3
					c0-3,2.4-5.4,5.4-5.4h69.9c1.3,0,2.3-1,2.3-2.3s-1-2.3-2.3-2.3H63.3c-5.6,0-10.1,4.5-10.1,10.1v58.3c0,5.6,4.5,10.1,10.1,10.1
					h62.2c5.6,0,10.1-4.5,10.1-10.1c0-1.3-1-2.3-2.3-2.3s-2.3,1-2.3,2.3c0,3-2.4,5.4-5.4,5.4H63.3c-3,0-5.4-2.4-5.4-5.4v-44.3
					L125.5,2617.2L125.5,2617.2z"/>
			</g>
		</g>
	</g>
</g>
<text transform="matrix(1 0 0 1 62.582 3796.1997)" class="st8 st9 st23">SUPPORT AND SPEND</text>
<g>
	<g>
		<polygon class="st1" points="180,2028.3 180,1931.7 96.4,1883.4 12.7,1931.7 12.7,2028.3 96.4,2076.6 		"/>
		<polygon class="st15" points="169.5,2022.2 169.5,1937.8 96.4,1895.6 23.3,1937.8 23.3,2022.2 96.4,2064.4 		"/>
	</g>
	<g>
		<g>
			<g>
				<path class="st8" d="M95.4,1927.9c-27.9,0-50.5,22.6-50.5,50.5c0,22.5,14.7,41.5,34.9,48l0,0c-0.1,0-0.1,0-0.2-0.1l-1.3-0.5
					c0.6,0,3.1-0.1,3.1-2v-8c-1.8,0.2-3,0.3-3.8,0.3h-0.3c-1.9-0.1-5.5-0.4-7.4-1.5c-1.4-0.8-4-2.7-4.8-4.6
					c-0.3-0.7-0.6-1.3-0.8-1.8c-0.4-0.9-0.7-1.7-1.3-2.7c-0.8-1.4-2.3-2.8-3.2-3.2c-0.7-0.4-2.4-1.4-2.8-2.5
					c-0.2-0.6-0.2-1.2,0.1-1.8c0.4-0.7,1.2-1.2,2.1-1.3c0.2,0,0.5-0.1,0.8-0.1c1.3,0,3,0.4,4.6,1.2c1.9,0.9,3.6,3.1,4.5,4.4
					c1.3,1.9,2.9,3.5,4,4.2c0.9,0.5,2.5,0.8,4.3,0.8c0.7,0,1.4-0.1,2.1-0.2s1.4-0.3,2.3-0.6c0.4-1.8,1.1-3.5,2.1-5
					c-15-2.4-21.9-10.4-21.9-24.8c0-5.6,1.7-10.5,5.1-14.6c-0.4-0.9-0.6-1.9-0.8-3c-0.4-3.2,0-5.3,0.5-7.1l0.1-0.3
					c0.4-1.9,1-3.3,1-3.3l0.3-0.7l0.8-0.1c0,0,0.4,0,1.1,0c1,0,2.4,0.1,3.7,0.5l0.5,0.2c1.8,0.6,3.5,1.2,5.9,2.6
					c0.8,0.5,1.8,1.1,2.8,1.8c3.9-1,8.1-1.5,12.6-1.5c4.4,0,8.6,0.5,12.5,1.5c1-0.7,1.9-1.3,2.8-1.8c2.4-1.4,4.1-2,5.9-2.6l0.5-0.2
					c1.3-0.4,2.7-0.5,3.7-0.5c0.7,0,1.1,0,1.1,0l0.8,0.1l0.3,0.7c0,0.1,0.6,1.4,1,3.3l0.1,0.3c0.4,1.8,0.9,3.9,0.5,7.1
					c-0.1,1-0.4,2-0.7,2.9c3.4,4.1,5.2,9.1,5.2,14.7c0,14.5-7,22.4-21.9,24.8c1.5,2.3,2.4,4.9,2.4,7.7v14.7c0,1.7,2.2,2.1,3.2,2l0,0
					l0,0l0,0c0.1,0-1.4,0.5-1.4,0.5c-0.1,0-0.1,0-0.2,0l0,0c20.3-6.6,34.9-25.6,34.9-48C146,1950.5,123.3,1927.9,95.4,1927.9z"/>
			</g>
		</g>
	</g>
</g>
<g>
	<g>
		<polygon class="st1" points="2258.5,2027.8 2258.5,1931.2 2174.9,1882.9 2091.2,1931.2 2091.2,2027.8 2174.9,2076.1 		"/>
		<polygon class="st15" points="2248,2021.7 2248,1937.3 2174.9,1895.1 2101.7,1937.3 2101.7,2021.7 2174.9,2063.9 		"/>
	</g>
	<g>
		<g>
			<path class="st8" d="M2161.6,2026.9h-23.2c-5.6,0-10.1-4.5-10.1-10.1v-46.5c0-5.6,4.5-10.1,10.1-10.1h23.2
				c5.6,0,10.1,4.5,10.1,10.1v46.5C2171.7,2022.4,2167.2,2026.9,2161.6,2026.9z M2138.3,1964.9c-3,0-5.4,2.4-5.4,5.4v46.5
				c0,3,2.4,5.4,5.4,5.4h23.2c3,0,5.4-2.4,5.4-5.4v-46.5c0-3-2.4-5.4-5.4-5.4H2138.3z"/>
			<path class="st8" d="M2208.1,2026.9h-15.5c-1.3,0-2.3-1-2.3-2.3s1-2.3,2.3-2.3h15.5c3,0,5.4-2.4,5.4-5.4v-77.5
				c0-3-2.4-5.4-5.4-5.4h-54.2c-3,0-5.4,2.4-5.4,5.4v11.6c0,1.3-1,2.3-2.3,2.3s-2.3-1-2.3-2.3v-11.6c0-5.6,4.5-10.1,10.1-10.1h54.2
				c5.6,0,10.1,4.5,10.1,10.1v77.5C2218.1,2022.4,2213.6,2026.9,2208.1,2026.9z"/>
			<path class="st8" d="M2180.9,2022.2c-0.2,0-0.3,0-0.5-0.1c-0.2,0-0.3-0.1-0.5-0.2s-0.2-0.2-0.4-0.2s-0.2-0.2-0.3-0.3
				c-0.5-0.5-0.7-1-0.7-1.6s0.2-1.2,0.7-1.6c0.9-0.9,2.4-0.9,3.3,0c0.5,0.5,0.7,1,0.7,1.6s-0.2,1.2-0.7,1.6
				c-0.1,0.1-0.2,0.2-0.3,0.3c-0.2,0.1-0.2,0.2-0.4,0.2c-0.2,0.1-0.3,0.1-0.5,0.2S2181.1,2022.2,2180.9,2022.2z"/>
		</g>
	</g>
</g>
<g>
	<g>
		<polygon class="st1" points="2258.5,1030.3 2258.5,933.7 2174.9,885.4 2091.2,933.7 2091.2,1030.3 2174.9,1078.6 		"/>
		<polygon class="st15" points="2248,1024.2 2248,939.8 2174.9,897.5 2101.7,939.8 2101.7,1024.2 2174.9,1066.4 		"/>
	</g>
	<path class="st8" d="M2136.7,962.1l-20.8,20.8l20.8,20.8l20.8,20.8l9.1-9.1l9.1-9.1l9.1,9.1l9.1,9.1l20.8-20.8l20.8-20.8
		l-20.8-20.8l-20.8-20.8l-9.1,9.1l-9.1,9.1l-9.1-9.1l-9.1-9.1L2136.7,962.1z M2186,986.6c-2.1,2.1-3.8,3.8-3.8,3.9
		c0,0.1,1,1.1,2.3,2.4l2.3,2.3l6.2-6.2l6.2-6.2l-9.4-9.4l-9.4-9.4l6.7-6.7l6.7-6.7l16.1,16.1l16.1,16.1l-16.2,16.2l-16.2,16.2
		l-16.1-16.1l-16.1-16.1l3.8-3.8l3.8-3.8l-2.3-2.3l-2.3-2.3l-6.1,6.1l-6.1,6.1l9.4,9.4l9.4,9.4l-6.7,6.7l-6.7,6.7l-16.1-16.1
		l-16.1-16.1l16.2-16.2l16.2-16.2l16.1,16.1l16.1,16.1L2186,986.6z"/>
</g>
<g>
	<g>
		<polygon class="st1" points="179.1,1030.2 179.1,933.6 95.4,885.3 11.8,933.6 11.8,1030.2 95.4,1078.5 		"/>
		<polygon class="st15" points="168.5,1024.2 168.5,939.7 95.4,897.5 22.3,939.7 22.3,1024.2 95.4,1066.4 		"/>
	</g>
	<g>
		<g>
			<path class="st8" d="M65.9,991l41.4-68.6c1.4-2.2,4.8-0.9,4.3,1.7L100.9,978h22.2c1.9,0,2.9,2.2,1.9,3.6l-42.5,58
				c-1.5,2-4.8,0.5-4.1-1.9l10.7-43.3H67.8C66.1,994.6,64.9,992.5,65.9,991z"/>
			<path class="st8" d="M83,1019.1l6.1-24.6h4.8c2.7,0,4.4,3.1,2.9,5.5L83,1019.1z"/>
		</g>
	</g>
</g>
<g id="GRS">
</g>
<rect x="-17.2" y="5558.6" class="st1" width="2302.1" height="114"/>
<g>
	<g>
		<polygon class="st1" points="194.4,5620 194.4,5523.4 110.7,5475.1 27,5523.4 27,5620 110.7,5668.4 		"/>
		<polygon class="st15" points="183.9,5613.9 183.9,5529.5 110.7,5487.3 37.6,5529.5 37.6,5613.9 110.7,5656.1 		"/>
	</g>
	<g>
		<path class="st19" d="M41.3,5637.3v-137.8h137.8v137.8H41.3z"/>
		<g>
			<g>
				<polygon class="st8" points="133,5535.3 132,5537 131.9,5537 131.9,5538.2 133.2,5538.2 135.4,5536.5 135.5,5535.4 
					134.4,5534.9 				"/>
				<polygon class="st8" points="135.5,5538.8 137.1,5538.8 139.3,5538.7 140.4,5537.4 139.2,5537 138.5,5536.2 137.6,5534.7 
					137.1,5532.6 135.4,5532.9 134.9,5533.6 134.9,5534.5 135.7,5535 136.9,5535.8 137,5536.7 135.7,5537 				"/>
				<path class="st8" d="M60.6,5550.5l2.3,1.1v4.3l2.2,3.7l1.7,0.2l0.2-1.3l-2-3.1l-0.4-3.1h1.2l0.5,3.1l3,4.3l-0.8,1.4l1.9,2.9
					l4.7,1.2v-0.8l1.8,0.2l-0.2,1.3l1.5,0.3l2.3,0.6l3.2,3.7l3.9,0.1l0.4,3.3l-2.8,1.9l-0.1,3l-0.4,1.8l4.1,5.1l0.3,1.7
					c0,0,1.4,0.4,1.6,0.4c0.2,0,3.3,2.4,3.3,2.4v9.3l1.1,0.3l-0.8,4.2l1.8,2.5l-0.3,4.2l2.5,4.4l3.2,2.8l3.2,0.1l0.3-1.1l-2.4-1.9
					l0.1-1l0.4-1.2l0.1-1.2h-1.6l-0.8-1l1.3-1.3l0.2-1l-1.5-0.4l0.1-0.9l2.2-0.3l3.2-1.5l1.1-1.9l2.6-3.3l0.8-1l-0.8-3.3l1.1-1.8
					l3.1-0.1l2-1.6l0.6-6.5l2.3-2.9l0.4-1.8l-2-0.6l-1.4-2.3h-4.7l-1.3-0.5l-2.4-1l-0.2-2.7l-1.3-2.2H103l-1.9-3.1l-1.7-0.9l-0.1,1
					l-3.1,0.2l-1.2-1.6l-3.3-0.6l-2.7,3.1l-4.3-0.8l-0.3-4.8l-3.1-0.5l1.3-2.7l-0.3-1.4l-4.1,2.8l-2.6-0.3l-1-2l0.5-2l1.4-2.6
					l3.2-1.6H86v1.9l2.3,1.1l-0.2-3.3l1.6-1.6l3.3-2.2l0.2-1.5l3.3-3.4l3.6-1.9l-0.3-0.2l2.4-2.3l0.9,0.2l0.4,0.5l0.9-1l0.2-0.1
					l-1-0.1l-1-0.3v-1l0.5-0.4h1.2l0.5,0.2l0.5,1l0.5-0.1v-0.1l0.1,0.1l1.7-0.3l0.2-0.8l0.9,0.2v0.9l-0.9,0.6l0.1,1l2.2,0.6l0.9,0.3
					l0.6-0.1v-1.3l-1.5-0.8v-1.3l1.1-0.3v-2l-1.1-0.6l-1-0.5l-0.1-3.1l-2.8,1.4h-1.1l0.3-2.4l-3.9-0.9l-1.6,1.2v3.7l-2.8,0.9
					l-1.2,2.4l-1.2,0.2v-3.1l-2.7-0.3L91,5534l-0.5-1.9l4.7-2.8l2.4-0.8l0.2,1.6l1.3-0.1l0.1-0.8l1.4-0.2v-0.3l-0.5-0.2l-0.1-0.9
					l1.7-0.1l1-1.1l0.1-0.1l0.2-0.2l3.6-0.4l1.6,1.3l-4.1,2.2l5.2,1.2l0.6-1.7h0.4h1.8l0.9-1.5l-1.6-0.4v-1.9l-1.1-0.4l-4-1.7
					l-3.4,0.4l-1.9,1.1l0.1,2.5l-2-0.3l-0.3-1.4l1.9-1.8l-3.6-0.2l-1.1,0.3l-0.4,1.2l1.4,0.2l-0.3,1.3l-2.3,0.1l-0.3,0.9l-3.3,0.1
					c0,0-0.1-1.8-0.2-1.8c0.1,0,2.6,0,2.6,0l1.9-1.9l-1.1-0.5l-1.4,1.4l-2.4-0.1l-1.4-1.9h-3.1l-3.1,2.4h2.9l0.2,0.9l-0.8,0.8
					l-0.1,0.2l-2.3-0.5l-1.2-0.6h-2.5c-2.2,1.6-4.4,3.5-6.4,5.5c-5.2,5.2-9.2,11.3-11.8,17.8V5550.5z"/>
				<path class="st8" d="M148.4,5530.4c-4.8-4.8-10.2-8.5-16.1-11.1c4.9,2.2,9.4,5.1,13.4,8.6l-0.6,1.2l-2.5,1l-1.1,1.2l0.5,1.2
					l1.3,0.2l0.8,1.9l2.2-0.9l0.3,2.6h-0.6l-1.8-0.2l-2,0.3l-1.9,2.8l-2.8,0.4l-0.4,2.4l1.2,0.3l-0.3,1.5l-2.8-0.5l-2.6,0.5
					l-0.5,1.4l0.4,3l1.5,0.6h2.5l1.7-0.1l0.5-1.3l2.6-3.4l1.7,0.3l1.7-1.5l0.3,1.2l4.2,2.8l-0.6,0.6l-1.9-0.1l0.8,1.1l1.2,0.2
					l1.4-0.5v-1.6l0.6-0.3l-0.5-0.5l-2.8-1.6l-0.8-2h2.4l0.8,0.8l2,1.7l0.1,2l2,2.3l0.8-3l1.4-0.9l0.3,2.5l1.4,1.5h2.8h0
					c0.5,1.4,1,2.9,1.4,4.4l-0.3,0.3H157l-2.6-1.9l-2.8,0.2v1.7h-0.9l-1-0.6l-4.7-1.2v-3.1l-6,0.4l-1.8,1h-2.4l-1.2-0.1l-2.9,1.6v3
					l-5.9,4.3l0.5,1.8h1.2l-0.3,1.7l-0.9,0.3v4.5l5.1,5.8h2.3l0.1-0.3h4.1l1.2-1.1h2.3l1.1,1.4l3.4,0.3l-0.4,4.5l3.8,6.7l-1.9,3.8
					l0.1,1.8l1.6,1.6v4.3l2,2.8v3.6h1.6c-2.2,2.8-4.7,5.3-7.4,7.6c1.4-1.2,2.8-2.4,4.1-3.7C169.3,5585.4,169.3,5551.4,148.4,5530.4z
					"/>
			</g>
			<path class="st8" d="M72.4,5606.4c12.6,12.6,29.9,17.7,46.2,15.2c-10.9-1.7-21.4-6.7-29.8-15.2c-21-21-21-55,0-76
				c8.4-8.4,18.8-13.5,29.7-15.1c-16.4-2.5-33.6,2.5-46.2,15.1C51.3,5551.4,51.5,5585.4,72.4,5606.4z"/>
		</g>
	</g>
</g>
<text transform="matrix(1 0 0 1 692.2452 5633.2446)" class="st8 st9 st34">WWW.GROESTLCOIN.ORG</text>
</svg>
