<?xml version="1.0" encoding="utf-8"?>
<!-- Generator: Adobe Illustrator 23.0.1, SVG Export Plug-In . SVG Version: 6.00 Build 0)  -->
<svg version="1.1" xmlns="http://www.w3.org/2000/svg" xmlns:xlink="http://www.w3.org/1999/xlink" x="0px" y="0px"
	 viewBox="0 0 840 392" style="enable-background:new 0 0 840 392;" xml:space="preserve">
<style type="text/css">
	.st0{fill:#8CB8C4;}
	.st1{fill:url(#SVGID_1_);stroke:url(#SVGID_2_);stroke-miterlimit:10;}
	.st2{fill:none;stroke:url(#SVGID_3_);stroke-width:3;stroke-miterlimit:10;}
	.st3{fill:url(#SVGID_4_);stroke:url(#SVGID_5_);stroke-miterlimit:10;}
	.st4{fill:url(#SVGID_6_);stroke:url(#SVGID_7_);stroke-width:3;stroke-miterlimit:10;}
	.st5{fill:url(#SVGID_8_);stroke:url(#SVGID_9_);stroke-miterlimit:10;}
	.st6{fill:url(#SVGID_10_);stroke:url(#SVGID_11_);stroke-width:3;stroke-miterlimit:10;}
	.st7{fill:url(#SVGID_12_);stroke:url(#SVGID_13_);stroke-miterlimit:10;}
	.st8{fill:url(#SVGID_14_);stroke:url(#SVGID_15_);stroke-width:3;stroke-miterlimit:10;}
	.st9{fill:url(#SVGID_16_);stroke:url(#SVGID_17_);stroke-miterlimit:10;}
	.st10{fill:url(#SVGID_18_);stroke:url(#SVGID_19_);stroke-width:3;stroke-miterlimit:10;}
	.st11{fill:url(#SVGID_20_);stroke:url(#SVGID_21_);stroke-miterlimit:10;}
	.st12{fill:url(#SVGID_22_);stroke:url(#SVGID_23_);stroke-width:3;stroke-miterlimit:10;}
	.st13{fill:url(#SVGID_24_);}
	.st14{fill:url(#SVGID_25_);}
	.st15{fill:url(#SVGID_26_);}
	.st16{fill:url(#SVGID_27_);}
	.st17{fill:url(#SVGID_28_);}
	.st18{opacity:0.5;}
	.st19{fill:url(#SVGID_29_);}
	.st20{fill:url(#SVGID_30_);}
	.st21{opacity:0.7;}
	.st22{fill:url(#SVGID_31_);}
	.st23{fill:url(#SVGID_32_);}
	.st24{fill:url(#SVGID_33_);}
	.st25{fill:url(#SVGID_34_);}
	.st26{fill:url(#SVGID_35_);}
	.st27{fill:url(#SVGID_36_);}
	.st28{fill:url(#SVGID_37_);}
	.st29{fill:url(#SVGID_38_);}
</style>
<g id="BACKGROUND_2">
	<g>
		<g>
			<g>
				<path class="st0" d="M537.2,476h1.1c0-166.4,135.3-301.7,301.7-301.7v-1.1c-80.9,0-156.9,31.5-214.1,88.7S537.2,395.1,537.2,476
					z"/>
				<path class="st0" d="M600.1,476h1.1c0-131.7,107.1-238.8,238.8-238.8v-1.1c-64.1,0-124.3,25-169.6,70.3
					C625.1,351.7,600.1,411.9,600.1,476z"/>
				<path class="st0" d="M505.7,476h1.1c0-183.7,149.5-333.2,333.2-333.2v-1.1c-89.3,0-173.2,34.8-236.4,97.9
					C540.5,302.8,505.7,386.7,505.7,476z"/>
				<path class="st0" d="M521.5,476h1.1c0-175,142.4-317.4,317.4-317.4v-1.1c-85.1,0-165.1,33.1-225.2,93.3
					C554.6,310.9,521.5,390.9,521.5,476z"/>
				<path class="st0" d="M584.4,476h1.1c0-140.3,114.2-254.5,254.5-254.5v-1.1c-68.3,0-132.5,26.6-180.7,74.9
					C611,343.5,584.4,407.7,584.4,476z"/>
				<path class="st0" d="M568.7,476h1.1c0-149,121.2-270.2,270.2-270.2v-1.1c-72.5,0-140.6,28.2-191.9,79.5
					C596.9,335.4,568.7,403.5,568.7,476z"/>
				<path class="st0" d="M548,184c-37.9,37.9-67.7,82.1-88.5,131.3C438,366.2,427,420.3,427,476h1.1
					c0-227.1,184.7-411.8,411.8-411.8V63C784.3,63,730.2,74,679.3,95.5C630.1,116.3,585.9,146.1,548,184z"/>
				<path class="st0" d="M490,476h1.1c0-192.4,156.5-348.9,348.9-348.9V126c-93.5,0-181.4,36.4-247.5,102.5
					C526.4,294.6,490,382.5,490,476z"/>
				<path class="st0" d="M536.9,172.9c-39.4,39.4-70.3,85.2-91.9,136.3c-22.4,52.9-33.7,109-33.7,166.9h1.1
					c0-235.8,191.8-427.6,427.6-427.6v-1.1c-57.9,0-114,11.3-166.9,33.7C622.1,102.6,576.2,133.5,536.9,172.9z"/>
				<path class="st0" d="M525.7,161.7c-40.8,40.8-72.9,88.3-95.2,141.3c-23.2,54.8-34.9,113-34.9,173h1.1
					c0-244.4,198.9-443.3,443.3-443.3v-1.1c-60,0-118.2,11.8-173,34.9C614.1,88.9,566.6,120.9,525.7,161.7z"/>
				<path class="st0" d="M615.9,476h1.1c0-123,100-223,223-223v-1.1C716.4,251.9,615.9,352.4,615.9,476z"/>
				<path class="st0" d="M474.2,476h1.1c0-201.1,163.6-364.6,364.6-364.6v-1.1c-97.7,0-189.5,38-258.6,107.1
					C512.3,286.5,474.2,378.3,474.2,476z"/>
				<path class="st0" d="M559.1,195.1c-36.5,36.5-65.1,79-85.1,126.3c-20.7,49-31.2,101-31.2,154.6h1.1
					c0-218.4,177.7-396.1,396.1-396.1v-1.1c-53.6,0-105.6,10.5-154.6,31.2C638.1,130,595.6,158.6,559.1,195.1z"/>
				<path class="st0" d="M726,476h1.1c0-62.2,50.6-112.9,112.9-112.9V362C777.1,362,726,413.1,726,476z"/>
				<path class="st0" d="M788.9,476h1.1c0-27.5,22.4-49.9,49.9-49.9v-1.1C811.8,424.9,788.9,447.8,788.9,476z"/>
				<path class="st0" d="M804.7,476h1.1c0-18.9,15.3-34.2,34.2-34.2v-1.1C820.5,440.7,804.7,456.5,804.7,476z"/>
				<path class="st0" d="M773.2,476h1.1c0-36.2,29.5-65.7,65.7-65.7v-1.1C803.2,409.2,773.2,439.2,773.2,476z"/>
				<path class="st0" d="M820.4,476h1.1c0-10.2,8.3-18.5,18.5-18.5v-1.1C829.2,456.4,820.4,465.2,820.4,476z"/>
				<path class="st0" d="M757.5,476h1.1c0-44.9,36.5-81.4,81.4-81.4v-1.1C794.5,393.5,757.5,430.5,757.5,476z"/>
				<path class="st0" d="M65.2,476h1.1c0-220.1,92.4-419,240.3-560h-2.1c-4.2,4-8.3,8-12.4,12.1c-71.2,71.2-127,154-166.1,246.3
					C85.6,269.9,65.2,371.4,65.2,476z"/>
				<path class="st0" d="M285.5,241.8c-31.4,74.2-47.3,153-47.3,234.2h1.1c0-254.6,159.3-472.8,383.4-560h-3.5
					c-4.5,1.8-9,3.6-13.5,5.5c-71.7,30.3-136,73.7-191.3,129C359.2,105.8,315.8,170.1,285.5,241.8z"/>
				<path class="st0" d="M663.1,476h1.1c0-96.9,78.9-175.8,175.8-175.8v-1.1C742.4,299.1,663.1,378.4,663.1,476z"/>
				<path class="st0" d="M678.8,476h1.1c0-88.3,71.8-160.1,160.1-160.1v-1.1C751.1,314.8,678.8,387.1,678.8,476z"/>
				<path class="st0" d="M631.6,476h1.1c0-114.3,93-207.3,207.3-207.3v-1.1C725.1,267.6,631.6,361.1,631.6,476z"/>
				<path class="st0" d="M694.5,476h1.1c0-79.6,64.8-144.4,144.4-144.4v-1.1C759.8,330.5,694.5,395.8,694.5,476z"/>
				<path class="st0" d="M514.6,150.6c-42.3,42.3-75.4,91.5-98.6,146.3c-24,56.7-36.2,117-36.2,179.1h1.1c0-253.1,205.9-459,459-459
					v-1.1C777.9,15.8,717.6,28,660.9,52C606.1,75.2,556.9,108.4,514.6,150.6z"/>
				<path class="st0" d="M710.3,476h1.1c0-70.9,57.7-128.6,128.6-128.6v-1.1C768.5,346.3,710.3,404.5,710.3,476z"/>
				<path class="st0" d="M0,251.4v5C33.2,129.3,94.7,13.5,177.1-84h-2C118.8-17.3,73.2,56.9,39.1,137.7
					C23.3,174.8,10.3,212.8,0,251.4z"/>
				<path class="st0" d="M18,476h1.1c0-216.2,84-413.2,221.2-560h-2.1C172.4-13.4,120.1,67.2,82.6,156C39.7,257.4,18,365,18,476z"/>
				<path class="st0" d="M49.4,476h1.1c0-218.7,89.4-416.9,233.5-560H282c-0.3,0.3-0.7,0.7-1,1C208.4-10.4,151.4,74.1,111.6,168.3
					C70.3,265.7,49.4,369.3,49.4,476z"/>
				<path class="st0" d="M0,196.7v4.2C34.5,95.9,88.1-0.4,156.7-84h-2C101.2-18.8,57.6,53.4,24.6,131.5C15.5,153,7.3,174.7,0,196.7z
					"/>
				<path class="st0" d="M33.7,476h1.1c0-217.4,86.6-415,227.2-560h-2.1C190.6-12.3,135.8,70.5,97.1,162.1
					C55,261.6,33.7,367.1,33.7,476z"/>
				<path class="st0" d="M2.2,476h1.1C3.3,260.8,85,64.4,218.9-84h-2.1C154.4-14.7,104.5,63.8,68.1,149.9
					C24.4,253.2,2.2,362.9,2.2,476z"/>
				<path class="st0" d="M0,6.4C17.5-24.9,36.8-55,57.6-84h-2C35.5-55.9,16.9-26.8,0,3.3V6.4z"/>
				<path class="st0" d="M0-24.9C12.1-45.1,24.8-64.8,38.3-84h-2C23.6-65.7,11.5-47.1,0-28V-24.9z"/>
				<path class="st0" d="M0-57.9v3C6.2-64.7,12.6-74.4,19.2-84h-2C11.3-75.4,5.6-66.7,0-57.9z"/>
				<path class="st0" d="M0,74.6C27,18.4,59.4-34.7,96.6-84h-2C58.1-35.5,26.5,16.4,0,71.3V74.6z"/>
				<path class="st0" d="M0,112.4C30.6,41.9,69.9-24,116.4-84h-2C68.5-24.7,30.2,39.9,0,109V112.4z"/>
				<path class="st0" d="M0,150.3v3.7C33.3,67.4,79.6-12.7,136.5-84h-2C83.7-20.2,42,49.9,10.1,125.4C6.6,133.7,3.2,141.9,0,150.3z"
					/>
				<path class="st0" d="M425.6,61.6c-53.8,53.8-96.1,116.5-125.6,186.3C269.5,320.1,254,396.9,254,476h1.1
					c0-263.8,175.5-487.3,415.9-560h-4.3c-18.5,5.7-36.8,12.4-54.8,20C542.1-34.5,479.4,7.8,425.6,61.6z"/>
				<path class="st0" d="M459,95c-49.5,49.5-88.3,107.1-115.5,171.3c-28.1,66.4-42.3,137-42.3,209.7h1.1
					c0-296.5,241.2-537.7,537.7-537.7v-1.1c-72.7,0-143.3,14.2-209.7,42.3C566.1,6.7,508.5,45.5,459,95z"/>
				<path class="st0" d="M447.9,83.9c-50.9,50.9-90.9,110.2-118.8,176.3c-28.9,68.4-43.6,141-43.6,215.9h1.1
					c0-305.2,248.3-553.4,553.4-553.4v-1.1c-74.9,0-147.5,14.7-215.9,43.6C558.1-7.1,498.8,32.9,447.9,83.9z"/>
				<path class="st0" d="M470.1,106.1c-48,48-85.8,104-112.1,166.3c-27.3,64.5-41.1,133-41.1,203.6h1.1c0-287.8,234.2-522,522-522
					v-1.1c-70.6,0-139.1,13.8-203.6,41.1C574.1,20.4,518.2,58.1,470.1,106.1z"/>
				<path class="st0" d="M492.4,128.4c-45.2,45.1-80.6,97.7-105.4,156.3c-25.6,60.6-38.6,125-38.6,191.4h1.1
					c0-270.5,220-490.5,490.5-490.5v-1.1c-66.4,0-130.8,13-191.4,38.6C590.1,47.8,537.5,83.2,492.4,128.4z"/>
				<path class="st0" d="M481.2,117.2c-46.6,46.6-83.2,100.9-108.7,161.3c-26.5,62.6-39.9,129-39.9,197.5h1.1
					c0-279.1,227.1-506.2,506.2-506.2v-1.1c-68.5,0-134.9,13.4-197.5,39.9C582.1,34.1,527.8,70.6,481.2,117.2z"/>
				<path class="st0" d="M242,223.4c-33.8,80-51,165-51,252.6h1.1c0-238.7,129.7-447.6,322.4-560h-2.8
					c-47.5,27.8-91.2,61.7-130.6,101.1C321.5,76.7,274.7,146.1,242,223.4z"/>
				<path class="st0" d="M184,198.9c-37.1,87.8-55.9,181-55.9,277.1h1.1c0-227.2,107.1-429.8,273.5-560h-2.4
					c-22.2,17.5-43.5,36.4-63.7,56.6C271.2,38,219.9,114.1,184,198.9z"/>
				<path class="st0" d="M198.5,205c-36.3,85.8-54.7,177-54.7,271h1.1c0-229.5,111.8-433.4,283.8-560h-2.5
					c-27.7,20.5-53.9,43.1-78.5,67.7C283.8,47.7,233.6,122.1,198.5,205z"/>
				<path class="st0" d="M169.5,192.8c-37.9,89.7-57.2,185-57.2,283.2h1.1c0-225.1,102.9-426.6,264.2-560h-2.3
					c-17.2,14.3-33.9,29.5-49.8,45.5C258.7,28.3,206.2,106.1,169.5,192.8z"/>
				<path class="st0" d="M256.5,229.5c-33,78.1-49.8,161-49.8,246.5h1.1c0-242.9,137.7-454.2,339.1-560h-2.9
					C488.3-54.5,437.4-16.9,392.2,28.2C334.1,86.4,288.4,154.1,256.5,229.5z"/>
				<path class="st0" d="M213,211.1c-35.5,83.9-53.5,173-53.5,264.9h1.1c0-232.1,117-437.4,295.2-560h-2.6
					c-33.6,23.2-65.1,49.6-94.4,78.9C296.4,57.3,247.3,130.1,213,211.1z"/>
				<path class="st0" d="M271,235.6c-32.2,76.1-48.5,157-48.5,240.4h1.1c0-248,147.3-462.3,358.9-560h-3.1
					C514-53.5,454.8-12.1,403.4,39.4C346.7,96.1,302.1,162.1,271,235.6z"/>
				<path class="st0" d="M155,186.6c-38.8,91.6-58.4,189-58.4,289.4h1.1c0-223.3,99.1-423.8,255.6-560h-2.3
					c-12.6,11-24.8,22.5-36.7,34.4C246.1,18.6,192.5,98.1,155,186.6z"/>
			</g>
		</g>
		<g>
			<g>
				
					<image style="overflow:visible;" width="336" height="247" xlink:href="5E5442DD.png"  transform="matrix(1 0 0 1 390.9841 299.8008)">
				</image>
			</g>
			<linearGradient id="SVGID_1_" gradientUnits="userSpaceOnUse" x1="442.7314" y1="422.0874" x2="676.7272" y2="422.0874">
				<stop  offset="0" style="stop-color:#5CA2BA"/>
				<stop  offset="1" style="stop-color:#355E76"/>
			</linearGradient>
			<linearGradient id="SVGID_2_" gradientUnits="userSpaceOnUse" x1="441.4642" y1="422.1558" x2="677.8163" y2="422.1558">
				<stop  offset="0" style="stop-color:#84B1BA"/>
				<stop  offset="0.5279" style="stop-color:#477E96"/>
				<stop  offset="1" style="stop-color:#355E76"/>
			</linearGradient>
			<polygon class="st1" points="559.7,344.6 676.7,438.3 442.7,499.6 			"/>
			<linearGradient id="SVGID_3_" gradientUnits="userSpaceOnUse" x1="524.1628" y1="358.7989" x2="596.0977" y2="483.3937">
				<stop  offset="0" style="stop-color:#84B1BA"/>
				<stop  offset="0.5279" style="stop-color:#477E96"/>
				<stop  offset="1" style="stop-color:#355E76"/>
			</linearGradient>
			<polygon class="st2" points="579.9,328.9 696.9,422.6 462.9,483.9 			"/>
		</g>
		<g>
			<g>
				
					<image style="overflow:visible;" width="336" height="235" xlink:href="5E5442DF.png"  transform="matrix(1 0 0 1 -81.0159 -130.1992)">
				</image>
			</g>
			<linearGradient id="SVGID_4_" gradientUnits="userSpaceOnUse" x1="-31.0899" y1="-11.5946" x2="200.6517" y2="-11.5946">
				<stop  offset="0" style="stop-color:#5CA2BA"/>
				<stop  offset="1" style="stop-color:#355E76"/>
			</linearGradient>
			<linearGradient id="SVGID_5_" gradientUnits="userSpaceOnUse" x1="-32.2142" y1="-11.7002" x2="202.085" y2="-11.7002">
				<stop  offset="0" style="stop-color:#84B1BA"/>
				<stop  offset="0.5279" style="stop-color:#477E96"/>
				<stop  offset="1" style="stop-color:#355E76"/>
			</linearGradient>
			<polygon class="st3" points="-31.1,-22.2 200.7,-82.9 77.3,59.7 			"/>
			<linearGradient id="SVGID_6_" gradientUnits="userSpaceOnUse" x1="-10.92" y1="-27.2822" x2="220.8215" y2="-27.2822">
				<stop  offset="0" style="stop-color:#5CA2BA"/>
				<stop  offset="1" style="stop-color:#355E76"/>
			</linearGradient>
			<linearGradient id="SVGID_7_" gradientUnits="userSpaceOnUse" x1="-14.293" y1="-27.5992" x2="225.1215" y2="-27.5992">
				<stop  offset="0" style="stop-color:#84B1BA"/>
				<stop  offset="0.5279" style="stop-color:#477E96"/>
				<stop  offset="1" style="stop-color:#355E76"/>
			</linearGradient>
			<polygon class="st4" points="-10.9,-37.9 220.8,-98.5 97.5,44 			"/>
		</g>
		<g>
			<g>
				
					<image style="overflow:visible;" width="326" height="226" xlink:href="5E5442DA.png"  transform="matrix(1 0 0 1 344.9841 -163.1992)">
				</image>
			</g>
			<linearGradient id="SVGID_8_" gradientUnits="userSpaceOnUse" x1="400.5826" y1="-50.5875" x2="625.9542" y2="-50.5875">
				<stop  offset="0" style="stop-color:#5CA2BA"/>
				<stop  offset="1" style="stop-color:#355E76"/>
			</linearGradient>
			<linearGradient id="SVGID_9_" gradientUnits="userSpaceOnUse" x1="468.1458" y1="-139.7524" x2="609.3995" y2="1.5012">
				<stop  offset="0" style="stop-color:#84B1BA"/>
				<stop  offset="0.5279" style="stop-color:#477E96"/>
				<stop  offset="1" style="stop-color:#355E76"/>
			</linearGradient>
			<polygon class="st5" points="400.6,-70.4 626,-118.9 592.1,17.7 			"/>
			<linearGradient id="SVGID_10_" gradientUnits="userSpaceOnUse" x1="420.7525" y1="-66.2753" x2="646.123" y2="-66.2753">
				<stop  offset="0" style="stop-color:#5CA2BA"/>
				<stop  offset="1" style="stop-color:#355E76"/>
			</linearGradient>
			<linearGradient id="SVGID_11_" gradientUnits="userSpaceOnUse" x1="486.5368" y1="-157.1537" x2="630.5837" y2="-13.1068">
				<stop  offset="0" style="stop-color:#84B1BA"/>
				<stop  offset="0.5279" style="stop-color:#477E96"/>
				<stop  offset="1" style="stop-color:#355E76"/>
			</linearGradient>
			<polygon class="st6" points="420.8,-86.1 646.1,-134.6 612.3,2 			"/>
		</g>
		<g>
			<g>
				
					<image style="overflow:visible;" width="318" height="212" xlink:href="5E5442DB.png"  transform="matrix(1 0 0 1 -94.0159 212.8008)">
				</image>
			</g>
			<linearGradient id="SVGID_12_" gradientUnits="userSpaceOnUse" x1="-49.4348" y1="319.2077" x2="166.7711" y2="319.2077">
				<stop  offset="0" style="stop-color:#5CA2BA"/>
				<stop  offset="1" style="stop-color:#355E76"/>
			</linearGradient>
			<linearGradient id="SVGID_13_" gradientUnits="userSpaceOnUse" x1="-50.0763" y1="319.1561" x2="168.463" y2="319.1561">
				<stop  offset="0" style="stop-color:#84B1BA"/>
				<stop  offset="0.5279" style="stop-color:#477E96"/>
				<stop  offset="1" style="stop-color:#355E76"/>
			</linearGradient>
			<polygon class="st7" points="-23.3,257.7 166.8,345.1 -49.4,380.7 			"/>
			<linearGradient id="SVGID_14_" gradientUnits="userSpaceOnUse" x1="-29.2661" y1="303.5194" x2="186.9399" y2="303.5194">
				<stop  offset="0" style="stop-color:#5CA2BA"/>
				<stop  offset="1" style="stop-color:#355E76"/>
			</linearGradient>
			<linearGradient id="SVGID_15_" gradientUnits="userSpaceOnUse" x1="-31.1906" y1="303.3647" x2="192.0154" y2="303.3647">
				<stop  offset="0" style="stop-color:#84B1BA"/>
				<stop  offset="0.5279" style="stop-color:#477E96"/>
				<stop  offset="1" style="stop-color:#355E76"/>
			</linearGradient>
			<polygon class="st8" points="-3.1,242 186.9,329.4 -29.3,365 			"/>
		</g>
		<g>
			<g>
				
					<image style="overflow:visible;" width="331" height="225" xlink:href="5E5442E5.png"  transform="matrix(1 0 0 1 587.9841 96.8008)">
				</image>
			</g>
			<linearGradient id="SVGID_16_" gradientUnits="userSpaceOnUse" x1="639.0224" y1="208.3542" x2="869.062" y2="208.3542">
				<stop  offset="0" style="stop-color:#5CA2BA"/>
				<stop  offset="1" style="stop-color:#355E76"/>
			</linearGradient>
			<linearGradient id="SVGID_17_" gradientUnits="userSpaceOnUse" x1="870.1276" y1="208.4311" x2="637.8326" y2="208.4311">
				<stop  offset="0" style="stop-color:#84B1BA"/>
				<stop  offset="0.5279" style="stop-color:#477E96"/>
				<stop  offset="1" style="stop-color:#355E76"/>
			</linearGradient>
			<polygon class="st9" points="639,158.9 869.1,140.8 767.5,275.9 			"/>
			<linearGradient id="SVGID_18_" gradientUnits="userSpaceOnUse" x1="659.1911" y1="192.6622" x2="889.2319" y2="192.6622">
				<stop  offset="0" style="stop-color:#5CA2BA"/>
				<stop  offset="1" style="stop-color:#355E76"/>
			</linearGradient>
			<linearGradient id="SVGID_19_" gradientUnits="userSpaceOnUse" x1="892.4289" y1="192.8931" x2="655.6215" y2="192.8931">
				<stop  offset="0" style="stop-color:#84B1BA"/>
				<stop  offset="0.5279" style="stop-color:#477E96"/>
				<stop  offset="1" style="stop-color:#355E76"/>
			</linearGradient>
			<polygon class="st10" points="659.2,143.2 889.2,125.1 787.6,260.3 			"/>
		</g>
		<g>
			<g>
				
					<image style="overflow:visible;" width="305" height="225" xlink:href="5E5442E7.png"  transform="matrix(1 0 0 1 150.9841 44.8008)">
				</image>
			</g>
			<linearGradient id="SVGID_20_" gradientUnits="userSpaceOnUse" x1="200.1651" y1="158.4387" x2="407.1555" y2="158.4387">
				<stop  offset="0" style="stop-color:#5CA2BA"/>
				<stop  offset="1" style="stop-color:#355E76"/>
			</linearGradient>
			<linearGradient id="SVGID_21_" gradientUnits="userSpaceOnUse" x1="199.0884" y1="158.348" x2="408.2053" y2="158.348">
				<stop  offset="0" style="stop-color:#84B1BA"/>
				<stop  offset="0.5279" style="stop-color:#477E96"/>
				<stop  offset="1" style="stop-color:#355E76"/>
			</linearGradient>
			<polygon class="st11" points="301.3,91.2 407.2,206.8 200.2,225.7 			"/>
			<linearGradient id="SVGID_22_" gradientUnits="userSpaceOnUse" x1="220.3348" y1="142.7511" x2="427.3259" y2="142.7511">
				<stop  offset="0" style="stop-color:#5CA2BA"/>
				<stop  offset="1" style="stop-color:#355E76"/>
			</linearGradient>
			<linearGradient id="SVGID_23_" gradientUnits="userSpaceOnUse" x1="217.1048" y1="142.479" x2="430.4752" y2="142.479">
				<stop  offset="0" style="stop-color:#84B1BA"/>
				<stop  offset="0.5279" style="stop-color:#477E96"/>
				<stop  offset="1" style="stop-color:#355E76"/>
			</linearGradient>
			<polygon class="st12" points="321.5,75.5 427.3,191.1 220.3,210 			"/>
		</g>
		<g>
			<linearGradient id="SVGID_24_" gradientUnits="userSpaceOnUse" x1="725.5529" y1="-74.471" x2="789.3666" y2="36.0576">
				<stop  offset="0" style="stop-color:#84B1BA"/>
				<stop  offset="0.5279" style="stop-color:#477E96"/>
				<stop  offset="1" style="stop-color:#355E76"/>
			</linearGradient>
			<path class="st13" d="M864.9-150.4c-11.8,10.9-23.7,21.8-35.7,32.6c-12,10.8-24,21.5-36.1,32.2l-36.3,31.9l-36.5,31.6l-2.5-6.8
				l43.3,0c7.2,0,14.4,0.1,21.6,0.1l21.6,0.2l10.2,0.1l-7.6,6.7C794-10.4,781,0.8,768.1,12.1c-12.9,11.3-26,22.4-39,33.6
				c-6.5,5.6-13.1,11.1-19.6,16.7c-6.5,5.6-13.1,11.1-19.7,16.6c-13.1,11.1-26.4,22-39.7,32.9c12.4-11.9,24.9-23.7,37.4-35.4
				c6.3-5.9,12.6-11.7,18.9-17.5c6.3-5.8,12.6-11.7,18.9-17.5c12.7-11.6,25.3-23.2,38.1-34.7c12.7-11.5,25.5-23,38.3-34.4l2.6,6.8
				l-21.6,0c-7.2,0-14.4,0-21.6-0.1l-43.3-0.3l-10.5-0.1l8-6.7l37.1-31l37.2-30.8c12.5-10.2,24.9-20.4,37.5-30.5
				C839.6-130.4,852.2-140.4,864.9-150.4z"/>
		</g>
		<g>
			<linearGradient id="SVGID_25_" gradientUnits="userSpaceOnUse" x1="106.2969" y1="-13.8929" x2="151.9206" y2="65.1297">
				<stop  offset="0" style="stop-color:#84B1BA"/>
				<stop  offset="0.5279" style="stop-color:#477E96"/>
				<stop  offset="1" style="stop-color:#355E76"/>
			</linearGradient>
			<path class="st14" d="M205.9-68.2c-8.5,7.8-17,15.6-25.6,23.3c-8.5,7.7-17.2,15.3-25.8,23l-26,22.8l-26.1,22.6l-1.8-4.8l30.9,0
				c10.3,0,20.6,0.1,30.9,0.2l7.3,0l-5.4,4.8c-9.2,8.1-18.5,16.2-27.7,24.2c-9.2,8.1-18.6,16-27.9,24.1c-4.6,4-9.4,8-14,11.9
				c-4.7,4-9.4,8-14.1,11.9c-9.4,7.9-18.8,15.8-28.4,23.5c8.8-8.5,17.8-17,26.8-25.3c4.5-4.2,9-8.4,13.5-12.5
				c4.5-4.2,9-8.4,13.5-12.5c9.1-8.3,18.1-16.6,27.2-24.8c9.1-8.2,18.2-16.5,27.4-24.6l1.8,4.9c-10.3,0-20.6,0-30.9-0.1l-30.9-0.2
				l-7.5-0.1l5.7-4.8l26.5-22.2l26.6-22c8.9-7.3,17.8-14.6,26.8-21.8C187.8-53.9,196.8-61.1,205.9-68.2z"/>
		</g>
		<g>
			<linearGradient id="SVGID_26_" gradientUnits="userSpaceOnUse" x1="35.8527" y1="389.2699" x2="81.4766" y2="468.2929">
				<stop  offset="0" style="stop-color:#84B1BA"/>
				<stop  offset="0.5279" style="stop-color:#477E96"/>
				<stop  offset="1" style="stop-color:#355E76"/>
			</linearGradient>
			<path class="st15" d="M135.5,335c-8.5,7.8-17,15.6-25.6,23.3c-8.5,7.7-17.2,15.3-25.8,23l-26,22.8L32,426.7l-1.8-4.8l30.9,0
				c10.3,0,20.6,0.1,30.9,0.2l7.3,0l-5.4,4.8c-9.2,8.1-18.5,16.2-27.7,24.2c-9.2,8.1-18.6,16-27.9,24.1c-4.6,4-9.4,8-14,11.9
				c-4.7,4-9.4,8-14.1,11.9c-9.4,7.9-18.8,15.8-28.4,23.5c8.8-8.5,17.8-17,26.8-25.3c4.5-4.2,9-8.4,13.5-12.5
				c4.5-4.2,9-8.4,13.5-12.5c9.1-8.3,18.1-16.6,27.2-24.8c9.1-8.2,18.2-16.5,27.4-24.6l1.8,4.9c-10.3,0-20.6,0-30.9-0.1l-30.9-0.2
				l-7.5-0.1l5.7-4.8L55,400.3l26.6-22c8.9-7.3,17.8-14.6,26.8-21.8C117.4,349.3,126.4,342.1,135.5,335z"/>
		</g>
		<g>
			<linearGradient id="SVGID_27_" gradientUnits="userSpaceOnUse" x1="681.511" y1="300.8107" x2="727.1351" y2="379.8339">
				<stop  offset="0" style="stop-color:#84B1BA"/>
				<stop  offset="0.5279" style="stop-color:#477E96"/>
				<stop  offset="1" style="stop-color:#355E76"/>
			</linearGradient>
			<path class="st16" d="M781.1,246.5c-8.5,7.8-17,15.6-25.6,23.3c-8.5,7.7-17.2,15.3-25.8,23l-26,22.8l-26.1,22.6l-1.8-4.8l30.9,0
				c10.3,0,20.6,0.1,30.9,0.2l7.3,0l-5.4,4.8c-9.2,8.1-18.5,16.2-27.7,24.2c-9.2,8.1-18.6,16-27.9,24.1c-4.6,4-9.4,8-14,11.9
				c-4.7,4-9.4,8-14.1,11.9c-9.4,7.9-18.8,15.8-28.4,23.5c8.8-8.5,17.8-17,26.8-25.3c4.5-4.2,9-8.4,13.5-12.5
				c4.5-4.2,9-8.4,13.5-12.5c9.1-8.3,18.1-16.6,27.2-24.8c9.1-8.2,18.2-16.5,27.4-24.6l1.8,4.9c-10.3,0-20.6,0-30.9-0.1l-30.9-0.2
				l-7.5-0.1l5.7-4.8l26.5-22.2l26.6-22c8.9-7.3,17.8-14.6,26.8-21.8C763,260.8,772.1,253.7,781.1,246.5z"/>
		</g>
		<g>
			<linearGradient id="SVGID_28_" gradientUnits="userSpaceOnUse" x1="378.2517" y1="118.4916" x2="459.565" y2="259.3304">
				<stop  offset="0" style="stop-color:#84B1BA"/>
				<stop  offset="0.5279" style="stop-color:#477E96"/>
				<stop  offset="1" style="stop-color:#355E76"/>
			</linearGradient>
			<path class="st17" d="M555.8,21.8c-7.5,7-15.1,13.9-22.7,20.8L521.7,53l-11.4,10.3c-15.2,13.8-30.6,27.3-46,41
				c-15.4,13.5-30.8,27.1-46.3,40.6l-46.5,40.3l-3.2-8.6l55.1,0.1c9.2,0,18.4,0.1,27.6,0.1l27.6,0.2l12.9,0.1l-9.7,8.6
				c-16.4,14.5-32.9,28.8-49.4,43.2c-16.5,14.4-33.1,28.6-49.7,42.9c-8.3,7.2-16.7,14.2-25,21.3c-8.3,7.1-16.7,14.2-25.1,21.2
				c-8.4,7-16.8,14.1-25.2,21c-8.4,7-16.9,14-25.4,20.9c7.9-7.6,15.8-15.2,23.8-22.7c7.9-7.5,15.9-15,23.9-22.5
				c8-7.5,16-14.9,24-22.4c8-7.4,16-14.9,24.1-22.3c16.2-14.8,32.3-29.6,48.5-44.2c16.2-14.7,32.5-29.4,48.8-43.9l3.3,8.7l-27.6,0
				c-9.2,0-18.4,0-27.6-0.1l-55.1-0.4l-13.4-0.1l10.2-8.5l47.2-39.5c15.8-13.1,31.6-26.2,47.5-39.2c15.9-13,31.8-26,47.8-38.8
				l12-9.7l12-9.6C539.6,34.5,547.7,28.1,555.8,21.8z"/>
		</g>
		<g class="st18">
			<linearGradient id="SVGID_29_" gradientUnits="userSpaceOnUse" x1="725.5529" y1="-74.471" x2="789.3666" y2="36.0576">
				<stop  offset="0" style="stop-color:#84B1BA"/>
				<stop  offset="0.5279" style="stop-color:#477E96"/>
				<stop  offset="1" style="stop-color:#355E76"/>
			</linearGradient>
			<path class="st19" d="M864.9-150.4c-11.8,10.9-23.7,21.8-35.7,32.6c-12,10.8-24,21.5-36.1,32.2l-36.3,31.9l-36.5,31.6l-2.5-6.8
				l43.3,0c7.2,0,14.4,0.1,21.6,0.1l21.6,0.2l10.2,0.1l-7.6,6.7C794-10.4,781,0.8,768.1,12.1c-12.9,11.3-26,22.4-39,33.6
				c-6.5,5.6-13.1,11.1-19.6,16.7c-6.5,5.6-13.1,11.1-19.7,16.6c-13.1,11.1-26.4,22-39.7,32.9c12.4-11.9,24.9-23.7,37.4-35.4
				c6.3-5.9,12.6-11.7,18.9-17.5c6.3-5.8,12.6-11.7,18.9-17.5c12.7-11.6,25.3-23.2,38.1-34.7c12.7-11.5,25.5-23,38.3-34.4l2.6,6.8
				l-21.6,0c-7.2,0-14.4,0-21.6-0.1l-43.3-0.3l-10.5-0.1l8-6.7l37.1-31l37.2-30.8c12.5-10.2,24.9-20.4,37.5-30.5
				C839.6-130.4,852.2-140.4,864.9-150.4z"/>
		</g>
		<g class="st18">
			<linearGradient id="SVGID_30_" gradientUnits="userSpaceOnUse" x1="106.2969" y1="-13.8929" x2="151.9206" y2="65.1297">
				<stop  offset="0" style="stop-color:#84B1BA"/>
				<stop  offset="0.5279" style="stop-color:#477E96"/>
				<stop  offset="1" style="stop-color:#355E76"/>
			</linearGradient>
			<path class="st20" d="M205.9-68.2c-8.5,7.8-17,15.6-25.6,23.3c-8.5,7.7-17.2,15.3-25.8,23l-26,22.8l-26.1,22.6l-1.8-4.8l30.9,0
				c10.3,0,20.6,0.1,30.9,0.2l7.3,0l-5.4,4.8c-9.2,8.1-18.5,16.2-27.7,24.2c-9.2,8.1-18.6,16-27.9,24.1c-4.6,4-9.4,8-14,11.9
				c-4.7,4-9.4,8-14.1,11.9c-9.4,7.9-18.8,15.8-28.4,23.5c8.8-8.5,17.8-17,26.8-25.3c4.5-4.2,9-8.4,13.5-12.5
				c4.5-4.2,9-8.4,13.5-12.5c9.1-8.3,18.1-16.6,27.2-24.8c9.1-8.2,18.2-16.5,27.4-24.6l1.8,4.9c-10.3,0-20.6,0-30.9-0.1l-30.9-0.2
				l-7.5-0.1l5.7-4.8l26.5-22.2l26.6-22c8.9-7.3,17.8-14.6,26.8-21.8C187.8-53.9,196.8-61.1,205.9-68.2z"/>
		</g>
		<g class="st21">
			<linearGradient id="SVGID_31_" gradientUnits="userSpaceOnUse" x1="312.3653" y1="3.4213" x2="332.8906" y2="38.9721">
				<stop  offset="0" style="stop-color:#84B1BA"/>
				<stop  offset="0.5279" style="stop-color:#477E96"/>
				<stop  offset="1" style="stop-color:#355E76"/>
			</linearGradient>
			<path class="st22" d="M357.2-21c-3.8,3.5-7.7,7-11.5,10.5c-3.8,3.5-7.7,6.9-11.6,10.3l-11.7,10.3l-11.7,10.2l-0.8-2.2l13.9,0
				l13.9,0.1l3.3,0l-2.5,2.2L326,31.3c-4.2,3.6-8.4,7.2-12.6,10.8c-4.2,3.6-8.4,7.2-12.6,10.7c-4.2,3.5-8.5,7.1-12.8,10.6
				c4-3.8,8-7.6,12-11.4c4-3.8,8.1-7.5,12.2-11.2c4.1-3.7,8.1-7.5,12.2-11.2l12.3-11.1l0.8,2.2l-13.9,0l-13.9-0.1l-3.4,0l2.6-2.2
				l11.9-10l12-9.9c4-3.3,8-6.6,12-9.8C349.1-14.5,353.1-17.8,357.2-21z"/>
		</g>
		<g class="st21">
			<linearGradient id="SVGID_32_" gradientUnits="userSpaceOnUse" x1="63.5602" y1="228.9427" x2="84.0853" y2="264.493">
				<stop  offset="0" style="stop-color:#84B1BA"/>
				<stop  offset="0.5279" style="stop-color:#477E96"/>
				<stop  offset="1" style="stop-color:#355E76"/>
			</linearGradient>
			<path class="st23" d="M108.4,204.5c-3.8,3.5-7.7,7-11.5,10.5c-3.8,3.5-7.7,6.9-11.6,10.3l-11.7,10.3l-11.7,10.2l-0.8-2.2l13.9,0
				l13.9,0.1l3.3,0l-2.5,2.2l-12.5,10.9c-4.2,3.6-8.4,7.2-12.6,10.8c-4.2,3.6-8.4,7.2-12.6,10.7c-4.2,3.5-8.5,7.1-12.8,10.6
				c4-3.8,8-7.6,12-11.4c4-3.8,8.1-7.5,12.2-11.2c4.1-3.7,8.1-7.5,12.2-11.2L88.1,244l0.8,2.2l-13.9,0L61,246.1l-3.4,0l2.6-2.2
				l11.9-10l12-9.9c4-3.3,8-6.6,12-9.8C100.3,211,104.3,207.7,108.4,204.5z"/>
		</g>
		<g class="st21">
			<linearGradient id="SVGID_33_" gradientUnits="userSpaceOnUse" x1="391.5686" y1="410.5173" x2="412.0935" y2="446.0674">
				<stop  offset="0" style="stop-color:#84B1BA"/>
				<stop  offset="0.5279" style="stop-color:#477E96"/>
				<stop  offset="1" style="stop-color:#355E76"/>
			</linearGradient>
			<path class="st24" d="M436.4,386.1c-3.8,3.5-7.7,7-11.5,10.5c-3.8,3.5-7.7,6.9-11.6,10.3l-11.7,10.3l-11.7,10.2l-0.8-2.2l13.9,0
				l13.9,0.1l3.3,0l-2.5,2.2l-12.5,10.9c-4.2,3.6-8.4,7.2-12.6,10.8c-4.2,3.6-8.4,7.2-12.6,10.7c-4.2,3.5-8.5,7.1-12.8,10.6
				c4-3.8,8-7.6,12-11.4c4-3.8,8.1-7.5,12.2-11.2c4.1-3.7,8.1-7.5,12.2-11.2l12.3-11.1l0.8,2.2l-13.9,0l-13.9-0.1l-3.4,0l2.6-2.2
				l11.9-10l12-9.9c4-3.3,8-6.6,12-9.8C428.3,392.6,432.3,389.3,436.4,386.1z"/>
		</g>
		<g class="st21">
			<linearGradient id="SVGID_34_" gradientUnits="userSpaceOnUse" x1="669.3286" y1="205.5573" x2="689.8535" y2="241.1075">
				<stop  offset="0" style="stop-color:#84B1BA"/>
				<stop  offset="0.5279" style="stop-color:#477E96"/>
				<stop  offset="1" style="stop-color:#355E76"/>
			</linearGradient>
			<path class="st25" d="M714.1,181.1c-3.8,3.5-7.7,7-11.5,10.5c-3.8,3.5-7.7,6.9-11.6,10.3l-11.7,10.3l-11.7,10.2l-0.8-2.2l13.9,0
				l13.9,0.1l3.3,0l-2.5,2.2L683,233.4c-4.2,3.6-8.4,7.2-12.6,10.8c-4.2,3.6-8.4,7.2-12.6,10.7c-4.2,3.5-8.5,7.1-12.8,10.6
				c4-3.8,8-7.6,12-11.4c4-3.8,8.1-7.5,12.2-11.2c4.1-3.7,8.1-7.5,12.2-11.2l12.3-11.1l0.8,2.2l-13.9,0l-13.9-0.1l-3.4,0l2.6-2.2
				l11.9-10l12-9.9c4-3.3,8-6.6,12-9.8C706,187.6,710.1,184.3,714.1,181.1z"/>
		</g>
		<g class="st21">
			<linearGradient id="SVGID_35_" gradientUnits="userSpaceOnUse" x1="805.3408" y1="30.2729" x2="825.8657" y2="65.823">
				<stop  offset="0" style="stop-color:#84B1BA"/>
				<stop  offset="0.5279" style="stop-color:#477E96"/>
				<stop  offset="1" style="stop-color:#355E76"/>
			</linearGradient>
			<path class="st26" d="M850.2,5.9c-3.8,3.5-7.7,7-11.5,10.5c-3.8,3.5-7.7,6.9-11.6,10.3l-11.7,10.3l-11.7,10.2l-0.8-2.2l13.9,0
				l13.9,0.1l3.3,0l-2.5,2.2L819,58.1c-4.2,3.6-8.4,7.2-12.6,10.8c-4.2,3.6-8.4,7.2-12.6,10.7c-4.2,3.5-8.5,7.1-12.8,10.6
				c4-3.8,8-7.6,12-11.4c4-3.8,8.1-7.5,12.2-11.2c4.1-3.7,8.1-7.5,12.2-11.2l12.3-11.1l0.8,2.2l-13.9,0l-13.9-0.1l-3.4,0l2.6-2.2
				l11.9-10l12-9.9c4-3.3,8-6.6,12-9.8C842,12.3,846.1,9,850.2,5.9z"/>
		</g>
		<g class="st18">
			<linearGradient id="SVGID_36_" gradientUnits="userSpaceOnUse" x1="35.8527" y1="389.2699" x2="81.4766" y2="468.2929">
				<stop  offset="0" style="stop-color:#84B1BA"/>
				<stop  offset="0.5279" style="stop-color:#477E96"/>
				<stop  offset="1" style="stop-color:#355E76"/>
			</linearGradient>
			<path class="st27" d="M135.5,335c-8.5,7.8-17,15.6-25.6,23.3c-8.5,7.7-17.2,15.3-25.8,23l-26,22.8L32,426.7l-1.8-4.8l30.9,0
				c10.3,0,20.6,0.1,30.9,0.2l7.3,0l-5.4,4.8c-9.2,8.1-18.5,16.2-27.7,24.2c-9.2,8.1-18.6,16-27.9,24.1c-4.6,4-9.4,8-14,11.9
				c-4.7,4-9.4,8-14.1,11.9c-9.4,7.9-18.8,15.8-28.4,23.5c8.8-8.5,17.8-17,26.8-25.3c4.5-4.2,9-8.4,13.5-12.5
				c4.5-4.2,9-8.4,13.5-12.5c9.1-8.3,18.1-16.6,27.2-24.8c9.1-8.2,18.2-16.5,27.4-24.6l1.8,4.9c-10.3,0-20.6,0-30.9-0.1l-30.9-0.2
				l-7.5-0.1l5.7-4.8L55,400.3l26.6-22c8.9-7.3,17.8-14.6,26.8-21.8C117.4,349.3,126.4,342.1,135.5,335z"/>
		</g>
		<g class="st18">
			<linearGradient id="SVGID_37_" gradientUnits="userSpaceOnUse" x1="681.511" y1="300.8107" x2="727.1351" y2="379.8339">
				<stop  offset="0" style="stop-color:#84B1BA"/>
				<stop  offset="0.5279" style="stop-color:#477E96"/>
				<stop  offset="1" style="stop-color:#355E76"/>
			</linearGradient>
			<path class="st28" d="M781.1,246.5c-8.5,7.8-17,15.6-25.6,23.3c-8.5,7.7-17.2,15.3-25.8,23l-26,22.8l-26.1,22.6l-1.8-4.8l30.9,0
				c10.3,0,20.6,0.1,30.9,0.2l7.3,0l-5.4,4.8c-9.2,8.1-18.5,16.2-27.7,24.2c-9.2,8.1-18.6,16-27.9,24.1c-4.6,4-9.4,8-14,11.9
				c-4.7,4-9.4,8-14.1,11.9c-9.4,7.9-18.8,15.8-28.4,23.5c8.8-8.5,17.8-17,26.8-25.3c4.5-4.2,9-8.4,13.5-12.5
				c4.5-4.2,9-8.4,13.5-12.5c9.1-8.3,18.1-16.6,27.2-24.8c9.1-8.2,18.2-16.5,27.4-24.6l1.8,4.9c-10.3,0-20.6,0-30.9-0.1l-30.9-0.2
				l-7.5-0.1l5.7-4.8l26.5-22.2l26.6-22c8.9-7.3,17.8-14.6,26.8-21.8C763,260.8,772.1,253.7,781.1,246.5z"/>
		</g>
		<g class="st18">
			<linearGradient id="SVGID_38_" gradientUnits="userSpaceOnUse" x1="378.2517" y1="118.4916" x2="459.565" y2="259.3304">
				<stop  offset="0" style="stop-color:#84B1BA"/>
				<stop  offset="0.5279" style="stop-color:#477E96"/>
				<stop  offset="1" style="stop-color:#355E76"/>
			</linearGradient>
			<path class="st29" d="M555.8,21.8c-7.5,7-15.1,13.9-22.7,20.8L521.7,53l-11.4,10.3c-15.2,13.8-30.6,27.3-46,41
				c-15.4,13.5-30.8,27.1-46.3,40.6l-46.5,40.3l-3.2-8.6l55.1,0.1c9.2,0,18.4,0.1,27.6,0.1l27.6,0.2l12.9,0.1l-9.7,8.6
				c-16.4,14.5-32.9,28.8-49.4,43.2c-16.5,14.4-33.1,28.6-49.7,42.9c-8.3,7.2-16.7,14.2-25,21.3c-8.3,7.1-16.7,14.2-25.1,21.2
				c-8.4,7-16.8,14.1-25.2,21c-8.4,7-16.9,14-25.4,20.9c7.9-7.6,15.8-15.2,23.8-22.7c7.9-7.5,15.9-15,23.9-22.5
				c8-7.5,16-14.9,24-22.4c8-7.4,16-14.9,24.1-22.3c16.2-14.8,32.3-29.6,48.5-44.2c16.2-14.7,32.5-29.4,48.8-43.9l3.3,8.7l-27.6,0
				c-9.2,0-18.4,0-27.6-0.1l-55.1-0.4l-13.4-0.1l10.2-8.5l47.2-39.5c15.8-13.1,31.6-26.2,47.5-39.2c15.9-13,31.8-26,47.8-38.8
				l12-9.7l12-9.6C539.6,34.5,547.7,28.1,555.8,21.8z"/>
		</g>
	</g>
</g>
<g id="BACKGROUND_1">
</g>
<g id="DESIGNED_BY_FREEPIK">
</g>
</svg>
