<?xml version="1.0" encoding="utf-8"?>
<!-- Generator: Adobe Illustrator 23.0.1, SVG Export Plug-In . SVG Version: 6.00 Build 0)  -->
<svg version="1.1" id="Layer_1" xmlns="http://www.w3.org/2000/svg" xmlns:xlink="http://www.w3.org/1999/xlink" x="0px" y="0px"
	 viewBox="0 0 994 994" style="enable-background:new 0 0 994 994;" xml:space="preserve">
<style type="text/css">
	.st0{fill-rule:evenodd;clip-rule:evenodd;fill:url(#Oval_2_);}
	.st1{opacity:0.6;fill-rule:evenodd;clip-rule:evenodd;fill:url(#Oval_3_);}
	.st2{fill:none;}
	.st3{fill:#F5F5F5;}
	.st4{filter:url(#Adobe_OpacityMaskFilter);}
	.st5{mask:url(#SVGID_1_);}
	.st6{opacity:0.6;fill-rule:evenodd;clip-rule:evenodd;fill:url(#SVGID_2_);}
	.st7{filter:url(#Adobe_OpacityMaskFilter_1_);}
	.st8{fill-rule:evenodd;clip-rule:evenodd;fill:url(#SVGID_3_);}
	.st9{filter:url(#Adobe_OpacityMaskFilter_2_);}
	.st10{mask:url(#SVGID_4_);}
</style>
<title>02E8A409-3C12-40F6-8F23-1ABD4A5CCC35</title>
<desc>Created with sketchtool.</desc>
<g id="App-Icon">
	<g id="Desktop-App-Icon">
		<g>
			
				<linearGradient id="Oval_2_" gradientUnits="userSpaceOnUse" x1="190.7719" y1="893.0887" x2="191.6694" y2="892.2731" gradientTransform="matrix(994 0 0 -994 -189663 887743)">
				<stop  offset="0" style="stop-color:#00A5BD"/>
				<stop  offset="0.6844" style="stop-color:#00738D"/>
				<stop  offset="1" style="stop-color:#005E78"/>
			</linearGradient>
			<circle id="Oval_1_" class="st0" cx="497" cy="497" r="473.1"/>
			
				<linearGradient id="Oval_3_" gradientUnits="userSpaceOnUse" x1="190.7448" y1="893.1134" x2="191.6877" y2="892.2564" gradientTransform="matrix(994 0 0 -994 -189663 887743)">
				<stop  offset="0" style="stop-color:#00A5BD"/>
				<stop  offset="0.6844" style="stop-color:#00738D"/>
				<stop  offset="1" style="stop-color:#005E78"/>
			</linearGradient>
			<circle id="Oval" class="st1" cx="497" cy="497" r="497"/>
			<g transform="translate(142.681149, 142.681149)">
				
					<rect id="Background" x="0" y="0" transform="matrix(0.2229 -0.9748 0.9748 0.2229 -70.0626 620.7472)" class="st2" width="708.6" height="708.6"/>
				<g id="bolt-white" transform="translate(174.696595, 0.469002)">
					<path id="Shape" class="st3" d="M354.2,340.7l-0.1,0.2l-1,0c-3.1-2.4-6.7-4-10.6-4.7L196,302.8l175.8-264l-1.9,1.5l2.4-3.5
						l-6.6,6.9L74.2,274.9L73,275c0,0-4.3,3.4-10.7,8.4c-0.9,0.7-1.7,1.4-2.7,2.1c-0.8,0.6-1.6,1.2-2.4,1.9c-2,1.6-4.2,3.3-6.4,5
						c-1,0.8-2,1.6-3,2.4c-0.8,0.6-1.6,1.3-2.5,2c-2.4,1.9-4.8,3.8-7.2,5.7c-1.3,1.1-2.7,2.1-4,3.2c-9.7,7.7-18.5,14.9-22.5,18.4
						c-0.8,0.7-1.3,1.2-1.7,1.6c-2.3,2.4-7.2,3.8-9.9,15.4c-0.1,0.6-0.2,1.2-0.2,1.8c-0.2,1.8-0.2,3.7,0,5.6c0,0.2,0,0.3-0.1,0.5
						l0,0.1c0.1,0.4,0.2,0.7,0.4,1.1l-0.4,0c1.4,9.4,8.3,17,17.5,19.5l146.5,33.5l-175.8,264l1-0.8l-1.2,1.8l3.1-3.3l295.5-233.6
						l0.4,0.1c0.6-0.4,3.7-2.8,8.2-6.4c1.3-1,2.7-2.1,4.2-3.3c1.5-1.2,3.1-2.5,4.7-3.8c17.3-14,42-34.3,46-38.3
						c1.8-1.5,3.5-3.2,5-5.1c2.6-3.6,4.4-7.7,5.2-12.1C361.7,354.5,359.5,346.5,354.2,340.7z"/>
				</g>
			</g>
		</g>
	</g>
</g>
<g>
	<g>
		<defs>
			<filter id="Adobe_OpacityMaskFilter" filterUnits="userSpaceOnUse" x="1291.4" y="83.5" width="729.7" height="729.7">
				<feFlood  style="flood-color:white;flood-opacity:1" result="back"/>
				<feBlend  in="SourceGraphic" in2="back" mode="normal"/>
			</filter>
		</defs>
		<mask maskUnits="userSpaceOnUse" x="1291.4" y="83.5" width="729.7" height="729.7" id="SVGID_1_">
			<g class="st4">
				
					<image style="overflow:visible;" width="734" height="735" xlink:href="F1FF3533.jpg"  transform="matrix(1 0 0 1 1289.1515 80.7295)">
				</image>
			</g>
		</mask>
		<g class="st5">
			<g>
				<linearGradient id="SVGID_2_" gradientUnits="userSpaceOnUse" x1="1075.8362" y1="975.8484" x2="2047.7601" y2="92.518">
					<stop  offset="0" style="stop-color:#00A5BD"/>
					<stop  offset="0.6844" style="stop-color:#00738D"/>
					<stop  offset="1" style="stop-color:#005E78"/>
				</linearGradient>
				<rect x="1291.4" y="83.5" class="st6" width="729.7" height="729.7"/>
				<g>
					<defs>
						<filter id="Adobe_OpacityMaskFilter_1_" filterUnits="userSpaceOnUse" x="1320" y="109.2" width="678.3" height="678.3">
							<feFlood  style="flood-color:white;flood-opacity:1" result="back"/>
							<feBlend  in="SourceGraphic" in2="back" mode="normal"/>
						</filter>
					</defs>
					<mask maskUnits="userSpaceOnUse" x="1320" y="109.2" width="678.3" height="678.3" id="SVGID_1_">
						<g class="st7">
							
								<image style="overflow:visible;" width="684" height="683" xlink:href="F1FF3531.jpg"  transform="matrix(1 0 0 1 1317.1515 106.7295)">
							</image>
						</g>
					</mask>
					<g>
						<linearGradient id="SVGID_3_" gradientUnits="userSpaceOnUse" x1="1119.6371" y1="938.6284" x2="2023.0317" y2="117.5807">
							<stop  offset="0" style="stop-color:#00A5BD"/>
							<stop  offset="0.6844" style="stop-color:#00738D"/>
							<stop  offset="1" style="stop-color:#005E78"/>
						</linearGradient>
						<rect x="1320" y="109.2" class="st8" width="678.3" height="678.3"/>
					</g>
				</g>
			</g>
		</g>
	</g>
	<g transform="translate(142.681149, 142.681149)">
		<defs>
			<filter id="Adobe_OpacityMaskFilter_2_" filterUnits="userSpaceOnUse" x="1321.6" y="-11.5" width="384.7" height="631.4">
				<feFlood  style="flood-color:white;flood-opacity:1" result="back"/>
				<feBlend  in="SourceGraphic" in2="back" mode="normal"/>
			</filter>
		</defs>
		<mask maskUnits="userSpaceOnUse" x="1321.6" y="-11.5" width="384.7" height="631.4" id="SVGID_4_">
			<g class="st9">
				
					<image style="overflow:visible;" width="854" height="853" xlink:href="F1FF3537.jpg"  transform="matrix(1 0 0 1 1086.4703 -120.9517)">
				</image>
			</g>
		</mask>
		<g class="st10">
			<g>
				<g id="bolt-white_10_" transform="translate(174.696595, 0.469002)">
					<path id="Shape_10_" class="st3" d="M1513.4,292l-0.1,0.2l-1,0c-3.1-2.4-6.7-4-10.6-4.7l-146.5-33.5l175.8-264l-1.9,1.5
						l2.4-3.5l-6.6,6.9l-291.5,231.3l-1.2,0.1c0,0-4.3,3.4-10.7,8.4c-0.9,0.7-1.7,1.4-2.7,2.1c-0.8,0.6-1.6,1.2-2.4,1.9
						c-2,1.6-4.2,3.3-6.4,5c-1,0.8-2,1.6-3,2.4c-0.8,0.6-1.6,1.3-2.5,2c-2.4,1.9-4.8,3.8-7.2,5.7c-1.3,1.1-2.7,2.1-4,3.2
						c-9.7,7.7-18.5,14.9-22.5,18.4c-0.8,0.7-1.3,1.2-1.7,1.6c-2.3,2.4-7.2,3.8-9.9,15.4c-0.1,0.6-0.2,1.2-0.2,1.8
						c-0.2,1.8-0.2,3.7,0,5.6c0,0.2,0,0.3-0.1,0.5l0,0.1c0.1,0.4,0.2,0.7,0.4,1.1l-0.4,0c1.4,9.4,8.3,17,17.5,19.5l146.5,33.5
						l-175.8,264l1-0.8l-1.2,1.8l3.1-3.3l295.5-233.6l0.4,0.1c0.6-0.4,3.7-2.8,8.2-6.4c1.3-1,2.7-2.1,4.2-3.3
						c1.5-1.2,3.1-2.5,4.7-3.8c17.3-14,42-34.3,46-38.3c1.8-1.5,3.5-3.2,5-5.1c2.6-3.6,4.4-7.7,5.2-12.1
						C1521,305.9,1518.8,297.8,1513.4,292z"/>
				</g>
			</g>
		</g>
	</g>
</g>
</svg>
