<?xml version="1.0" encoding="utf-8"?>
<!-- Generator: Adobe Illustrator 23.0.1, SVG Export Plug-In . SVG Version: 6.00 Build 0)  -->
<svg version="1.1" id="Layer_1" xmlns="http://www.w3.org/2000/svg" xmlns:xlink="http://www.w3.org/1999/xlink" x="0px" y="0px"
	 viewBox="0 0 1494 165.1" style="enable-background:new 0 0 1494 165.1;" xml:space="preserve">
<style type="text/css">
	.st0{fill:url(#SVGID_1_);}
	.st1{fill:url(#SVGID_2_);}
	.st2{fill:url(#SVGID_3_);}
	.st3{fill:#FFFFFF;}
</style>
<g>
	<linearGradient id="SVGID_1_" gradientUnits="userSpaceOnUse" x1="25.3551" y1="98.7233" x2="128.1429" y2="98.7233">
		<stop  offset="0" style="stop-color:#00A5BD"/>
		<stop  offset="1" style="stop-color:#005E78"/>
	</linearGradient>
	<path class="st0" d="M25.4,158.9c6.3-6.1,12.5-12.2,18.8-18.2c11.5-11,23-22.1,34.5-33.1c13.1-12.5,26.1-25.1,39.2-37.6
		c0.2-0.2,0.5-0.3,0.8-0.5c-0.1-0.2-0.2-0.4-0.3-0.6c-11.6,3.4-23.1,6.7-35.1,10.2c2.1-3.5,4-6.8,5.9-10.1
		c5.8-9.9,11.7-19.7,17.5-29.5c0.4-0.8,0.7-1.4,1.7-0.5c7,6.7,13,14.1,16.5,23.2c2.9,7.4,3.5,15.1,3.1,22.9
		c-0.6,15.5-6.3,28.8-17.4,39.6c-7.4,7.2-16.4,11.4-26.4,13.4c-5,1-10.1,1.5-15.1,2.5c-8.4,1.6-16.2,4.9-23.7,8.8
		c-6.4,3.3-12.9,6.4-19.3,9.6C25.9,159.1,25.6,159.1,25.4,158.9z"/>
	<linearGradient id="SVGID_2_" gradientUnits="userSpaceOnUse" x1="8.8295" y1="66.0086" x2="111.9509" y2="66.0086">
		<stop  offset="0" style="stop-color:#00A5BD"/>
		<stop  offset="1" style="stop-color:#005E78"/>
	</linearGradient>
	<path class="st1" d="M112,5.5C80.6,35.6,49.3,65.7,18,95.8c0,0.1,0.1,0.2,0.1,0.3c11.7-3.4,23.4-6.8,35.1-10.2
		c0.1,0.1,0.2,0.2,0.2,0.3c-8,13.4-15.9,26.9-24,40.4c-3.1-3-5.8-6.2-8.3-9.5c-6.6-8.9-10.6-18.7-11.9-29.7
		c-2.8-22.8,9.8-46.7,29.4-56c6.5-3.1,13.2-5.2,20.3-5.9c11-1.1,21.2-4.6,31-9.4c7-3.4,13.9-7,20.9-10.4C111,5.5,111.3,5.3,112,5.5z
		"/>
	<linearGradient id="SVGID_3_" gradientUnits="userSpaceOnUse" x1="24.7616" y1="159.286" x2="26.1227" y2="159.286">
		<stop  offset="0" style="stop-color:#00A5BD"/>
		<stop  offset="1" style="stop-color:#005E78"/>
	</linearGradient>
	<path class="st2" d="M25.4,158.9c0.3,0,0.5,0,0.8,0c-0.4,0.2-0.9,0.5-1.4,0.8C24.7,159.1,25.1,159.1,25.4,158.9z"/>
</g>
<g>
	<path class="st3" d="M137.3,129.2c0-0.5,0.4-1.2,1.1-2c0.7-0.9,1.6-1.7,2.6-2.6c-2.4-1.5-3.6-3.3-3.6-5.2V98.6
		c0-3.5,1.1-6.7,3.2-9.7c2.1-3,4.7-5.6,7.6-7.8c3-2.2,6.1-3.9,9.3-5.2c3.2-1.3,5.9-1.9,8.2-1.9h75.6c0.7,0,1.5,0.3,2.5,0.9
		c1,0.6,1.9,1.3,2.8,2.1c0.9,0.8,1.7,1.6,2.3,2.4c0.6,0.8,0.9,1.4,0.9,1.8v13.8c0,0.9-0.3,1.8-1,2.7c-0.7,0.9-1.4,1.8-2.2,2.7
		c0.8,0.7,1.5,1.6,2.2,2.6c0.7,1,1,2.1,1,3.1v37.3c0,0.8-0.3,1.6-0.8,2.5c-0.6,0.9-1.3,1.6-2.1,2.4c-0.9,0.7-1.8,1.3-2.9,1.8
		c-1.1,0.4-2.2,0.7-3.2,0.7h-94.4c-1,0-2-0.3-3.1-0.8c-1.1-0.5-2-1.2-2.9-2c-0.9-0.8-1.6-1.6-2.1-2.5c-0.6-0.9-0.8-1.6-0.8-2.4
		V129.2z M139.3,129.2v13.9c0,0.7,0.2,1.3,0.6,2c0.4,0.7,0.9,1.3,1.6,1.9c0.7,0.6,1.4,1.1,2.3,1.5c0.9,0.4,1.7,0.6,2.5,0.6h94.4
		c0.9,0,1.8-0.2,2.6-0.5c0.8-0.4,1.6-0.8,2.3-1.3c0.7-0.5,1.3-1.1,1.7-1.8c0.4-0.7,0.6-1.4,0.6-2v-37.3c0-1.1-0.4-2.2-1.2-3.2
		c-0.8-1-1.9-1.8-3.2-2.5c1.3-0.6,2.4-1.5,3.2-2.6c0.8-1.1,1.2-2,1.2-2.7V81.3c0-0.3-0.2-0.8-0.7-1.5c-0.5-0.6-1-1.3-1.7-1.9
		c-0.7-0.6-1.4-1.2-2.1-1.6c-0.7-0.5-1.4-0.7-2-0.7h-75.6c-2,0-4.5,0.6-7.5,1.8c-3,1.2-5.9,2.8-8.7,4.9c-2.8,2.1-5.1,4.5-7.1,7.3
		c-2,2.8-2.9,5.8-2.9,9.1v20.7c0,0.7,0.5,1.6,1.4,2.6c0.9,1,2,1.8,3.2,2.4c-1.2,0.7-2.3,1.6-3.2,2.7
		C139.7,128.1,139.3,128.8,139.3,129.2z M212.3,126.3c0.5,0,1-0.1,1.6-0.2c0.6-0.2,0.8-0.7,0.8-1.6c0-0.6-0.1-1-0.3-1.2
		c-0.2-0.1-0.5-0.3-0.9-0.4c-0.2-0.1-0.7-0.2-1.4-0.5h-65.5c-0.8,0-1.7-0.3-2.6-1c-0.9-0.7-1.4-1.4-1.4-2V98.6c0-2.8,0.9-5.5,2.6-8
		c1.7-2.5,3.8-4.6,6.2-6.5c2.4-1.8,4.9-3.3,7.5-4.3c2.6-1.1,4.8-1.6,6.5-1.6h75.6c0.5,0,1.1,0.4,1.9,1.2c0.8,0.8,1.1,1.4,1.1,1.8
		v13.8c0,0.7-0.4,1.4-1.1,2.2c-0.8,0.8-1.5,1.2-2.3,1.2h-62.2c-0.8,0-1.8,0.3-3.1,0.8c-1.3,0.5-1.9,1.2-1.9,2.1c0,0.7,0.4,1,1.1,1.1
		h65.8c0.8,0,1.6,0.4,2.5,1.1c0.9,0.7,1.3,1.6,1.3,2.6v37.3c0,0.7-0.4,1.3-1.2,2c-0.8,0.7-1.6,1-2.4,1h-94.4c-0.9,0-1.7-0.4-2.4-1.2
		c-0.7-0.8-1.1-1.5-1.1-2.2v-13.9c0-0.3,0.4-0.9,1.1-1.7c0.8-0.8,1.4-1.2,1.9-1.2H212.3z M211.7,125.3l-0.3,0.2l-0.2-0.1v-0.2
		C211.5,125.2,211.6,125.2,211.7,125.3z"/>
	<path class="st3" d="M336.1,150.7c-2.1,0-4.2-0.8-6.1-2.4c-2-1.6-2.9-3.5-2.9-5.7v-5.4h-31.6v5.4c0,2.3-1,4.2-3,5.7
		c-2,1.5-4.1,2.3-6.3,2.3h-21.7c-2.2,0-4.3-0.8-6.3-2.3c-2-1.5-3-3.4-3-5.7V81.3c0-0.8,0.3-1.6,0.8-2.5c0.5-0.9,1.2-1.6,2-2.4
		c0.9-0.7,1.8-1.3,2.9-1.8c1.1-0.4,2.3-0.7,3.5-0.7h22c1.1,0,2.2,0.2,3.3,0.7c1.1,0.4,2.1,1,2.9,1.8c0.9,0.7,1.6,1.5,2.1,2.4
		c0.6,0.9,0.8,1.7,0.8,2.5v27.3h31.6V81.3c0-0.8,0.3-1.6,0.8-2.5c0.6-0.9,1.2-1.6,2-2.4c0.8-0.7,1.7-1.3,2.8-1.8
		c1.1-0.4,2.1-0.7,3.2-0.7h22.3c1,0,2.1,0.2,3.2,0.7c1.1,0.4,2.1,1,2.9,1.8c0.9,0.7,1.6,1.5,2.1,2.4c0.6,0.9,0.8,1.7,0.8,2.5v61.4
		c0,2.2-1,4.1-2.9,5.7c-2,1.6-4.1,2.4-6.3,2.4H336.1z M336.1,149.2h22c1.7,0,3.3-0.7,4.9-2c1.6-1.3,2.3-2.8,2.3-4.4V81.3
		c0-0.6-0.2-1.3-0.6-2c-0.4-0.7-1-1.3-1.7-1.8c-0.7-0.5-1.5-1-2.3-1.3c-0.8-0.4-1.7-0.5-2.6-0.5H336c-1.7,0-3.3,0.6-4.8,1.9
		c-1.5,1.3-2.2,2.5-2.2,3.8v28.7h-35.5V81.3c0-1.3-0.8-2.6-2.3-3.8c-1.5-1.3-3.2-1.9-5-1.9h-22c-1.8,0-3.5,0.6-5,1.9
		c-1.5,1.3-2.3,2.5-2.3,3.8v61.4c0,1.6,0.8,3.1,2.3,4.4c1.6,1.3,3.2,2,5.1,2h21.7c1.8,0,3.5-0.7,5.1-2c1.6-1.3,2.3-2.8,2.3-4.4v-6.9
		H329v6.9c0,1.6,0.8,3.1,2.3,4.4C332.8,148.5,334.4,149.2,336.1,149.2z M330.1,133h-37.6c-0.6,0-1.2,0.2-1.7,0.7
		c-0.6,0.4-0.8,0.9-0.8,1.3v7.8c0,1-0.4,1.8-1.2,2.6c-0.8,0.8-1.7,1.2-2.6,1.2h-21.7c-0.9,0-1.8-0.4-2.6-1.2
		c-0.9-0.8-1.3-1.6-1.3-2.6V81.3c0-0.6,0.4-1.3,1.1-2c0.8-0.7,1.6-1,2.6-1h22c1,0,1.9,0.3,2.6,1c0.7,0.7,1.1,1.4,1.1,2v29.6
		c0,0.4,0.3,0.8,0.8,1.3c0.6,0.4,1.1,0.7,1.6,0.7h37.9c0.5,0,1-0.2,1.5-0.7c0.5-0.4,0.8-0.9,0.8-1.3V81.3c0-0.6,0.4-1.3,1.1-2
		c0.8-0.7,1.5-1,2.3-1h22.3c0.8,0,1.6,0.3,2.4,1c0.8,0.7,1.2,1.4,1.2,2v61.4c0,1-0.4,1.8-1.3,2.6c-0.9,0.8-1.7,1.2-2.5,1.2h-22
		c-0.8,0-1.6-0.4-2.4-1.2c-0.8-0.8-1.2-1.6-1.2-2.6v-7.8c0-0.4-0.3-0.8-0.8-1.3C331.2,133.2,330.7,133,330.1,133z"/>
	<path class="st3" d="M485.1,126.1c0,3.5-1.1,6.7-3.2,9.7c-2.1,3-4.7,5.6-7.7,7.8c-3,2.2-6.1,3.9-9.4,5.2c-3.2,1.3-5.9,1.9-8.2,1.9
		H401c-2.2,0-4.9-0.6-8.2-1.9c-3.2-1.3-6.3-3-9.3-5.2c-3-2.2-5.5-4.8-7.6-7.8c-2.1-3-3.2-6.2-3.2-9.7V81.3c0-0.8,0.3-1.6,0.8-2.5
		c0.5-0.9,1.2-1.6,2-2.4c0.9-0.7,1.8-1.3,2.9-1.8c1.1-0.4,2.3-0.7,3.5-0.7h94.1c1,0,2.1,0.2,3.2,0.7c1.1,0.4,2.1,1,2.9,1.8
		c0.9,0.7,1.6,1.5,2.1,2.4c0.6,0.9,0.8,1.7,0.8,2.5V126.1z M483.2,81.3c0-0.6-0.2-1.3-0.6-2c-0.4-0.7-1-1.3-1.7-1.8
		c-0.7-0.5-1.5-1-2.3-1.3c-0.8-0.4-1.7-0.5-2.6-0.5H382c-1.8,0-3.5,0.6-5,1.9c-1.5,1.3-2.3,2.5-2.3,3.8v44.8c0,3.2,1,6.3,2.9,9.1
		c2,2.8,4.3,5.2,7.1,7.3c2.8,2.1,5.7,3.7,8.7,4.9c3,1.2,5.5,1.8,7.5,1.8h55.7c2.1,0,4.7-0.6,7.6-1.8c3-1.2,5.9-2.8,8.7-4.9
		c2.8-2.1,5.2-4.5,7.2-7.3c2-2.8,2.9-5.8,2.9-9.1V81.3z M479.7,126.1c0,2.8-0.9,5.5-2.6,8c-1.7,2.5-3.8,4.6-6.2,6.5
		c-2.4,1.8-4.9,3.3-7.5,4.3c-2.6,1.1-4.8,1.6-6.6,1.6H401c-1.7,0-3.9-0.5-6.5-1.6c-2.6-1.1-5.1-2.5-7.5-4.3c-2.4-1.8-4.5-4-6.2-6.5
		c-1.7-2.5-2.6-5.1-2.6-8V81.3c0-0.6,0.4-1.3,1.1-2c0.8-0.7,1.6-1,2.6-1h94.1c0.8,0,1.6,0.3,2.4,1c0.8,0.7,1.2,1.4,1.2,2V126.1z
		 M407.7,121.2c0,0.4,0.2,0.9,0.7,1.5c0.5,0.6,1,1.1,1.7,1.6c0.7,0.5,1.3,1,2,1.4c0.7,0.4,1.4,0.6,2,0.6h30c0.6,0,1.2-0.2,1.9-0.5
		c0.7-0.4,1.3-0.8,1.9-1.3c0.6-0.5,1.1-1,1.6-1.5c0.5-0.5,0.7-1,0.8-1.4v-21.2c-0.1-0.4-0.4-0.8-0.9-1.2c-0.5-0.4-1-0.6-1.5-0.6
		h-37.6c-0.6,0-1.2,0.2-1.7,0.6c-0.6,0.4-0.8,0.9-0.8,1.3V121.2z M446.8,121.2c-0.2,0.4-0.6,0.9-1.1,1.5c-0.6,0.6-1.1,0.9-1.6,0.9
		h-30c-0.4,0-1-0.3-1.7-1c-0.7-0.6-1.1-1.1-1.1-1.5v-20h35.5V121.2z M444.1,122c0.1,0,0.3-0.1,0.5-0.4c0.2-0.2,0.3-0.5,0.3-0.7
		v-18.1h-31.6v18.4c0,0.6,0.3,0.9,0.8,0.9H444.1z"/>
	<path class="st3" d="M567.9,112.1c-1.1-0.5-2-1.2-2.8-1.9c-0.8-0.8-1.4-1.6-1.9-2.6c-0.5-1-0.7-1.9-0.7-2.8v-1.9H531v18.1
		c0,0.2,0.1,0.4,0.4,0.7c0.3,0.3,0.5,0.4,0.7,0.4h61.7c0.9,0,1.9,0.2,2.9,0.7s2,1.1,2.9,1.8s1.7,1.5,2.3,2.4
		c0.6,0.9,0.9,1.6,0.9,2.4v14.1c0,0.8-0.3,1.6-0.8,2.5c-0.6,0.9-1.3,1.6-2.1,2.4c-0.9,0.7-1.8,1.3-2.9,1.8c-1.1,0.4-2.2,0.7-3.2,0.7
		h-74.9c-2.2,0-4.9-0.6-8.2-1.9c-3.2-1.3-6.3-3-9.4-5.2c-3-2.2-5.6-4.8-7.7-7.9c-2.1-3-3.2-6.2-3.2-9.7V81.3c0-0.8,0.3-1.6,0.8-2.5
		c0.5-0.9,1.2-1.6,2-2.4c0.9-0.7,1.8-1.3,2.9-1.8c1.1-0.4,2.3-0.7,3.5-0.7h94.1c1,0,2.1,0.2,3.2,0.7c1.1,0.4,2.1,1,2.9,1.8
		c0.9,0.7,1.6,1.5,2.1,2.4c0.6,0.9,0.8,1.7,0.8,2.5v23.5c0,2.2-1,4.1-2.9,5.7c-2,1.6-4.1,2.4-6.3,2.4h-22.2
		C570.2,112.9,569,112.6,567.9,112.1z M598.6,109.3c1.6-1.3,2.3-2.8,2.3-4.4V81.3c0-0.6-0.2-1.3-0.6-2c-0.4-0.7-1-1.3-1.7-1.8
		c-0.7-0.5-1.5-1-2.3-1.3c-0.8-0.4-1.7-0.5-2.6-0.5h-94.1c-1.8,0-3.5,0.6-5,1.9c-1.5,1.3-2.3,2.5-2.3,3.8V126c0,3.3,1,6.4,2.9,9.2
		c2,2.8,4.4,5.2,7.2,7.3c2.8,2.1,5.7,3.7,8.8,4.9c3,1.2,5.5,1.8,7.5,1.8h74.9c0.9,0,1.8-0.2,2.6-0.5c0.8-0.4,1.6-0.8,2.3-1.3
		c0.7-0.5,1.3-1.1,1.7-1.8c0.4-0.7,0.6-1.4,0.6-2v-14.1c0-0.6-0.2-1.2-0.7-1.9c-0.5-0.7-1-1.3-1.7-1.9c-0.7-0.6-1.5-1-2.3-1.4
		c-0.9-0.4-1.6-0.5-2.3-0.5h-61.7c-0.5,0-1.1-0.4-1.9-1.1c-0.8-0.7-1.1-1.3-1.1-1.6v-19.7h35.5v3.5c0,1.5,0.7,2.9,2,4.4
		c1.3,1.5,3,2.2,5,2.2h22.2C595.4,111.3,597,110.6,598.6,109.3z M567.3,99.3c-0.5-0.4-1-0.6-1.5-0.8H528c-0.6,0-1.2,0.2-1.7,0.5
		c-0.5,0.4-0.8,0.8-0.9,1.2v20.7c0,0.4,0.3,0.9,0.8,1.5c0.5,0.6,1.1,1.2,1.8,1.8c0.7,0.6,1.4,1.1,2.2,1.5c0.8,0.4,1.4,0.6,1.9,0.6
		h61.7c0.8,0,1.6,0.4,2.4,1.1c0.8,0.7,1.2,1.4,1.2,1.9v14.1c0,0.7-0.4,1.3-1.2,2c-0.8,0.7-1.6,1-2.4,1h-74.9c-1.8,0-4-0.5-6.6-1.6
		c-2.6-1.1-5.1-2.5-7.5-4.3c-2.4-1.8-4.5-4-6.2-6.5c-1.7-2.5-2.6-5.2-2.6-8.1V81.3c0-0.6,0.4-1.3,1.1-2c0.8-0.7,1.6-1,2.6-1h94.1
		c0.8,0,1.6,0.3,2.4,1c0.8,0.7,1.2,1.4,1.2,2v23.5c0,1-0.4,1.8-1.3,2.6c-0.9,0.7-1.7,1.1-2.5,1.1h-22.2c-1.1,0-2-0.4-2.6-1.3
		c-0.6-0.9-0.9-1.7-0.9-2.5v-4.3C568,100.1,567.8,99.7,567.3,99.3z"/>
	<path class="st3" d="M678.6,74.9c1.9-0.6,3.6-0.9,5.4-0.9h30.3c2.1,0.7,3.7,1.6,4.8,3c1.1,1.3,1.6,2.8,1.6,4.3
		c0,0.7-0.1,1.4-0.3,2.1c-0.2,0.7-0.6,1.4-1.2,2l-17.4,15.9c2.4,0.9,4.7,2,6.9,3.4c2.2,1.4,4.2,2.9,6,4.5c1.8,1.6,3.2,3.3,4.2,5.2
		c1.1,1.8,1.6,3.6,1.6,5.3v23.9c0,0.8-0.3,1.6-0.9,2.5c-0.6,0.9-1.4,1.6-2.3,2.3c-0.9,0.7-1.9,1.2-2.9,1.6c-1,0.4-1.9,0.7-2.7,0.7
		h-21.4c-0.9,0-1.9-0.2-3-0.5c-1.1-0.4-2.1-0.9-3.1-1.5c-1-0.6-1.8-1.4-2.5-2.3c-0.7-0.9-1.1-1.8-1.1-2.7v-14.7
		c0-0.6-0.1-1.1-0.2-1.5c-0.1-0.4-0.3-0.7-0.5-0.7h-31.3v15.9c0,2.3-1,4.2-3,5.7c-2,1.5-4.1,2.3-6.3,2.3h-21.7
		c-2.2,0-4.3-0.8-6.3-2.3c-2-1.5-3-3.4-3-5.7V81.3c0-0.8,0.3-1.6,0.8-2.5c0.5-0.9,1.2-1.6,2-2.4c0.9-0.7,1.8-1.3,2.9-1.8
		c1.1-0.4,2.3-0.7,3.5-0.7h22c1.1,0,2.2,0.2,3.3,0.7c1.1,0.4,2.1,1,2.9,1.8c0.9,0.7,1.6,1.5,2.1,2.4c0.6,0.9,0.8,1.7,0.8,2.5v16.6
		h3.2l22.2-20.3C675.2,76.4,676.7,75.5,678.6,74.9z M653,99.5h-6.2V81.3c0-1.3-0.8-2.6-2.3-3.8c-1.5-1.3-3.2-1.9-5-1.9h-22
		c-1.8,0-3.5,0.6-5,1.9c-1.5,1.3-2.3,2.5-2.3,3.8v61.4c0,1.6,0.8,3.1,2.3,4.4c1.6,1.3,3.2,2,5.1,2h21.7c1.8,0,3.5-0.7,5.1-2
		c1.6-1.3,2.3-2.8,2.3-4.4v-17.5H680c0.6,0,1.2,0.4,1.7,1.2c0.6,0.8,0.8,1.7,0.8,2.6v14.7c0,0.7,0.3,1.4,0.8,2.1
		c0.6,0.7,1.2,1.2,2,1.8c0.8,0.5,1.6,0.9,2.5,1.2c0.9,0.3,1.7,0.4,2.4,0.4h21.4c0.6,0,1.3-0.2,2.1-0.5c0.8-0.3,1.6-0.7,2.3-1.2
		c0.7-0.5,1.3-1.1,1.8-1.7c0.5-0.6,0.8-1.3,0.8-2.1v-23.9c0-1.7-0.6-3.4-1.8-5.2c-1.2-1.8-2.7-3.5-4.6-5.2c-1.9-1.7-4-3.1-6.4-4.4
		c-2.4-1.3-4.8-2.3-7.2-3l18.9-17.3c0.5-0.6,0.8-1.2,1-1.8c0.2-0.5,0.2-1,0.2-1.5c0-1.1-0.4-2.3-1.1-3.4c-0.8-1.1-1.9-1.9-3.4-2.3
		H684c-1.5,0-3.1,0.3-4.7,0.8c-1.6,0.5-2.9,1.4-3.8,2.5h-0.2L653,99.5z M680.7,78.8c1.1-0.4,2.1-0.5,3.2-0.5h29.4
		c0.7,0.2,1.2,0.7,1.4,1.2c0.3,0.6,0.4,1.2,0.4,1.8c0,0.7-0.2,1.4-0.6,1.9l-22.3,20.3c2.2,0.1,4.7,0.6,7.3,1.6
		c2.7,1,5.2,2.3,7.5,3.8c2.3,1.5,4.2,3.3,5.7,5.2c1.5,1.9,2.3,3.8,2.3,5.5v23.9c0,0.7-0.4,1.4-1.2,1.9c-0.8,0.6-1.5,0.9-2.1,0.9
		h-21.4c-0.8,0-1.7-0.3-2.8-0.8c-1.1-0.5-1.6-1.2-1.6-2v-14.7c0-1.6-0.6-3.1-1.8-4.4c-1.2-1.3-2.6-2-4.1-2h-34.3
		c-0.6,0-1.2,0.2-1.7,0.6c-0.6,0.4-0.8,0.8-0.8,1.2v18.4c0,1-0.4,1.8-1.2,2.6c-0.8,0.8-1.7,1.2-2.6,1.2h-21.7
		c-0.9,0-1.8-0.4-2.6-1.2c-0.9-0.8-1.3-1.6-1.3-2.6V81.3c0-0.6,0.4-1.3,1.1-2c0.8-0.7,1.6-1,2.6-1h22c1,0,1.9,0.3,2.6,1
		c0.7,0.7,1.1,1.4,1.1,2v19c0,0.4,0.3,0.8,0.8,1.2c0.6,0.4,1.1,0.6,1.6,0.6h8.8l23.9-21.8C678.8,79.7,679.7,79.2,680.7,78.8z"/>
	<path class="st3" d="M906.2,143c-0.6,1-1.4,1.9-2.4,2.6c-0.9,0.7-2,1.3-3.2,1.7c-1.2,0.4-2.3,0.6-3.4,0.6H789.5
		c-2.5,0-4.6-0.3-6.2-0.9c-1.6-0.6-3.2-1.5-4.6-2.5l-43-63.3c-0.7-1.1-1.1-2.3-1.1-3.7c0-3,2-5.5,6-7.4h29.6c2.1,0,4.1,0.3,6.1,0.8
		c2,0.5,3.6,1.8,4.9,3.8l29.6,43.2h-0.2l0.6,1h1.6l-25.3-37.6c-0.7-1.1-1.1-2.3-1.1-3.7c0-3,2-5.5,6-7.4H822c2.2,0,4.3,0.3,6.3,0.8
		c2,0.5,3.6,1.8,4.9,3.8l29.8,43.2h-0.2l0.6,1h0.3V77.4c0-0.8,0.3-1.7,0.9-2.5c0.6-0.9,1.3-1.7,2.3-2.4c0.9-0.7,2-1.3,3.1-1.8
		c1.1-0.5,2.3-0.7,3.5-0.7h23.8c1.3,0,2.5,0.2,3.6,0.7c1.1,0.5,2.2,1.1,3.1,1.8c0.9,0.7,1.7,1.5,2.3,2.4c0.6,0.9,0.9,1.7,0.9,2.5
		v62.3C907.2,140.9,906.9,142,906.2,143z M902.8,73.5c-1.6-1.3-3.4-1.9-5.5-1.9h-23.8c-2,0-3.8,0.6-5.3,1.9
		c-1.6,1.3-2.4,2.6-2.4,3.9v42.9h-3c-0.2-0.2-0.5-0.4-0.9-0.7c-0.4-0.3-0.8-0.8-1.3-1.5h0.2l-29.5-42.9c-0.9-1.5-2.3-2.5-4-2.9
		c-1.7-0.5-3.5-0.7-5.3-0.7h-29c-2.9,1.3-4.4,3.3-4.4,5.8c0,1.2,0.4,2.3,1.1,3.1l26.7,39.8h-5.6c-0.2-0.2-0.4-0.4-0.7-0.7
		c-0.3-0.3-0.7-0.8-1.2-1.4l-29.5-43c-0.9-1.5-2.2-2.5-3.9-2.9c-1.7-0.5-3.4-0.7-5.2-0.7h-29.2c-2.9,1.3-4.4,3.3-4.4,5.8
		c0,1.2,0.4,2.2,1.3,3.1l-0.2,0.1l42.8,62.9v-0.1c1.1,0.9,2.4,1.6,3.8,2.1c1.4,0.5,3.1,0.7,5.2,0.7h107.8c1.9,0,3.7-0.7,5.3-2
		c1.7-1.4,2.5-2.9,2.5-4.5V77.4C905.1,76.1,904.4,74.8,902.8,73.5z M900,142.4c-0.9,0.8-1.8,1.2-2.7,1.2H789.5
		c-1.6,0-2.8-0.2-3.6-0.5c-0.8-0.3-1.6-0.7-2.2-1.1l-42.7-62.8v0.1c-0.4-0.6-0.6-1.2-0.6-1.9c0-1.4,0.6-2.4,1.7-3.1h28.1
		c1.1,0,2.2,0.1,3.2,0.4c1,0.2,1.9,0.9,2.6,1.9l29.5,43.2v-0.1c0.7,0.8,1.5,1.6,2.2,2.2c0.7,0.7,1.5,1.1,2.4,1.2h8
		c1.9,0,2.8-0.8,2.8-2.3L793,79.2v0.1c-0.4-0.6-0.6-1.2-0.6-1.9c0-1.4,0.6-2.4,1.7-3.1H822c1.1,0,2.2,0.1,3.3,0.4
		c1,0.2,1.9,0.9,2.7,1.9l29.8,43.2v-0.1c0.6,0.8,1.3,1.6,2,2.2c0.7,0.7,1.5,1.1,2.4,1.2h4.9c1.7,0,2.5-0.8,2.5-2.3V77.4
		c0-0.7,0.4-1.3,1.2-2c0.8-0.7,1.7-1.1,2.7-1.1h23.8c1.1,0,2.1,0.4,2.9,1.1c0.8,0.7,1.2,1.4,1.2,2v62.3
		C901.4,140.7,900.9,141.6,900,142.4z"/>
	<path class="st3" d="M1001.6,70.7c1.1,0.5,2.2,1.1,3.1,1.8c0.9,0.7,1.6,1.5,2.2,2.4c0.6,0.9,0.9,1.7,0.9,2.5v14.3
		c0,0.7-0.3,1.5-0.9,2.4c-0.6,0.9-1.3,1.7-2.2,2.4c-0.9,0.7-1.9,1.4-3.1,1.9c-1.2,0.5-2.2,0.7-3.3,0.7h-16.8v19.5h16.8
		c1,0,2.1,0.2,3.3,0.7c1.1,0.5,2.2,1.1,3.1,1.9c0.9,0.7,1.6,1.5,2.2,2.4c0.6,0.9,0.9,1.7,0.9,2.4v14.3c0,0.8-0.3,1.7-0.9,2.5
		c-0.6,0.9-1.3,1.7-2.2,2.4c-0.9,0.7-1.9,1.3-3.1,1.8c-1.2,0.5-2.3,0.7-3.5,0.7h-75.6c-1.3,0-2.5-0.2-3.7-0.7
		c-1.2-0.5-2.3-1.1-3.1-1.8c-0.9-0.7-1.6-1.5-2.1-2.4c-0.5-0.9-0.8-1.7-0.8-2.5v-14.3c0-0.7,0.3-1.5,0.9-2.4
		c0.6-0.9,1.3-1.7,2.3-2.4c0.9-0.7,2-1.4,3.1-1.9s2.2-0.7,3.4-0.7h16.5V99.2h-16.5c-1.2,0-2.3-0.2-3.4-0.7c-1.1-0.5-2.1-1.1-3.1-1.9
		c-0.9-0.7-1.7-1.5-2.3-2.4c-0.6-0.9-0.9-1.7-0.9-2.4V77.4c0-0.8,0.3-1.7,0.8-2.5c0.5-0.9,1.2-1.7,2.1-2.4c0.9-0.7,1.9-1.3,3.1-1.8
		c1.2-0.5,2.4-0.7,3.7-0.7h75.6C999.3,70,1000.4,70.2,1001.6,70.7z M919.6,120.9c-0.9,0.4-1.7,0.8-2.4,1.4c-0.7,0.6-1.3,1.2-1.7,1.9
		c-0.5,0.7-0.7,1.3-0.7,1.9v14.3c0,1.3,0.8,2.6,2.4,3.9c1.6,1.3,3.3,1.9,5.3,1.9h75.6c1.9,0,3.6-0.6,5.2-1.9
		c1.6-1.3,2.4-2.6,2.4-3.9v-14.3c0-0.6-0.2-1.2-0.7-1.9c-0.5-0.7-1-1.3-1.7-1.9c-0.7-0.6-1.5-1.1-2.4-1.4c-0.9-0.4-1.8-0.6-2.6-0.6
		h-18.8V98c-0.1-0.1-0.3-0.1-0.5-0.1v-0.2h19.3c0.8,0,1.7-0.2,2.6-0.6c0.9-0.4,1.7-0.8,2.4-1.4c0.7-0.6,1.3-1.2,1.7-1.9
		c0.5-0.7,0.7-1.3,0.7-2V77.4c0-1.3-0.8-2.6-2.4-3.9c-1.6-1.3-3.3-1.9-5.2-1.9h-75.6c-2,0-3.8,0.6-5.3,1.9c-1.6,1.3-2.4,2.6-2.4,3.9
		v14.3c0,0.7,0.2,1.3,0.7,2c0.5,0.7,1,1.3,1.7,1.9c0.7,0.6,1.5,1.1,2.4,1.4c0.9,0.4,1.8,0.6,2.7,0.6h19.4c-0.3,0.2-0.6,0.4-0.9,0.4
		v21.8h0.2c0,0.2,0.1,0.4,0.2,0.4v0.2h-18.8C921.4,120.3,920.5,120.5,919.6,120.9z M1000.8,75.4c0.7,0.7,1.1,1.4,1.1,2v14.3
		c0,0.6-0.4,1.2-1.2,2c-0.8,0.7-1.6,1.1-2.4,1.1h-19.4c-0.6,0-1.3,0.3-1.9,0.9c-0.6,0.6-1,1.2-1.1,1.9v22.9c0.1,0.7,0.5,1.3,1.1,1.8
		c0.6,0.5,1.3,0.8,1.9,0.8h19.4c0.8,0,1.6,0.4,2.4,1.1c0.8,0.7,1.2,1.4,1.2,2v14.3c0,0.7-0.4,1.3-1.1,2c-0.7,0.7-1.6,1.1-2.7,1.1
		h-75.6c-1,0-2-0.3-2.7-1.1c-0.8-0.7-1.2-1.4-1.2-2v-14.3c0-0.6,0.4-1.2,1.3-2c0.8-0.7,1.7-1.1,2.5-1.1h19.1c0.5,0,1.1-0.3,1.8-0.8
		c0.7-0.5,1.1-1.1,1.3-1.8V97.6c-0.1-0.7-0.5-1.3-1.2-1.9c-0.7-0.6-1.3-0.9-2-0.9h-19.1c-0.8,0-1.7-0.4-2.5-1.1
		c-0.8-0.7-1.3-1.4-1.3-2V77.4c0-0.7,0.4-1.3,1.2-2c0.8-0.7,1.7-1.1,2.7-1.1h75.6C999.2,74.3,1000.1,74.7,1000.8,75.4z"/>
	<path class="st3" d="M1107.9,70.7c1.1,0.5,2.2,1.1,3.1,1.8c0.9,0.7,1.6,1.5,2.2,2.4c0.6,0.9,0.9,1.7,0.9,2.5v14.3
		c0,0.5-0.2,1.1-0.7,1.9c-0.5,0.7-1.9,2-4.2,3.9c-2.4,1.9-6.1,4.5-11.1,7.8c-5.1,3.3-12.2,7.8-21.3,13.4h28.1c1,0,2.1,0.2,3.2,0.7
		s2.1,1.1,3,1.9c0.9,0.7,1.6,1.5,2.2,2.4c0.6,0.9,0.9,1.7,0.9,2.4v14.3c0,0.8-0.3,1.7-0.9,2.5c-0.6,0.9-1.3,1.7-2.2,2.4
		c-0.9,0.7-1.9,1.3-3.1,1.8c-1.2,0.5-2.3,0.7-3.3,0.7h-82c-1.2,0-2.3-0.2-3.5-0.7c-1.2-0.5-2.1-1.1-3-1.8c-0.8-0.7-1.5-1.5-2-2.4
		c-0.5-0.9-0.8-1.7-0.8-2.5v-14.3c0-0.3,0.3-0.9,0.8-1.7c0.5-0.8,1.9-2.1,4.2-4.1c2.2-1.9,5.7-4.6,10.4-8
		c4.7-3.4,11.1-7.8,19.2-13.2h-25.4c-1,0-2.1-0.2-3.2-0.7c-1.1-0.5-2.1-1.1-2.9-1.9c-0.8-0.7-1.5-1.5-2.1-2.4
		c-0.6-0.9-0.9-1.7-0.9-2.4V77.4c0-0.8,0.3-1.7,0.8-2.5c0.5-0.9,1.2-1.7,2-2.4c0.8-0.7,1.8-1.3,3-1.8c1.1-0.5,2.3-0.7,3.5-0.7h82
		C1105.7,70,1106.8,70.2,1107.9,70.7z M1017.5,73.5c-1.5,1.3-2.3,2.6-2.3,3.9v14.3c0,0.7,0.2,1.3,0.6,2c0.4,0.7,1,1.3,1.6,1.9
		c0.7,0.6,1.5,1.1,2.4,1.4c0.9,0.4,1.7,0.6,2.6,0.6h30.9c-9,5.9-16.1,10.6-21.2,14.2c-5.1,3.6-8.9,6.4-11.5,8.5
		c-2.5,2.1-4.1,3.5-4.6,4.3c-0.6,0.8-0.9,1.3-0.9,1.7v14.3c0,1.3,0.8,2.6,2.3,3.9c1.5,1.3,3.2,1.9,5.1,1.9h82c0.9,0,1.8-0.2,2.7-0.6
		c0.8-0.4,1.6-0.8,2.4-1.4c0.7-0.5,1.3-1.2,1.7-1.9c0.4-0.7,0.6-1.4,0.6-2v-14.3c0-0.6-0.2-1.2-0.6-1.9c-0.4-0.7-1-1.3-1.7-1.9
		c-0.7-0.6-1.5-1.1-2.4-1.4c-0.8-0.4-1.7-0.6-2.5-0.6h-34.2c6.8-4.1,12.5-7.6,17.3-10.6c4.7-2.9,8.6-5.4,11.6-7.4
		c3-2,5.4-3.6,7.1-4.9c1.7-1.2,3-2.2,3.8-3s1.3-1.3,1.4-1.7c0.2-0.4,0.2-0.7,0.2-1.1V77.4c0-0.7-0.2-1.3-0.6-2
		c-0.4-0.7-1-1.3-1.7-1.9c-0.7-0.5-1.5-1-2.4-1.4c-0.8-0.4-1.7-0.6-2.7-0.6h-82C1020.7,71.6,1019,72.3,1017.5,73.5z M1107.2,75.4
		c0.8,0.7,1.3,1.4,1.3,2v14.3c0,0.2-0.1,0.5-0.2,0.9c-0.2,0.3-0.7,0.8-1.6,1.5c-0.9,0.7-2.4,1.7-4.4,3c-2,1.3-4.8,3.1-8.3,5.4
		c-3.6,2.3-8.1,5.1-13.5,8.3c-5.4,3.3-12.1,7.3-20.1,12.1h44.5c0.8,0,1.6,0.4,2.4,1.1c0.8,0.7,1.2,1.4,1.2,2v14.3
		c0,0.7-0.4,1.3-1.3,2c-0.8,0.7-1.7,1.1-2.5,1.1h-82c-0.8,0-1.7-0.3-2.5-1.1c-0.8-0.7-1.3-1.4-1.3-2v-14.3c0-0.2,0.1-0.4,0.3-0.7
		c0.2-0.3,0.8-0.9,1.7-1.7c0.9-0.8,2.4-1.9,4.2-3.2c1.9-1.4,4.5-3.2,7.8-5.4c3.3-2.2,7.4-5,12.3-8.3c4.9-3.3,10.9-7.3,18-12h-40.8
		c-0.9,0-1.8-0.4-2.5-1.1c-0.7-0.7-1.1-1.4-1.1-2V77.4c0-0.7,0.4-1.3,1.3-2c0.8-0.7,1.7-1.1,2.5-1.1h82
		C1105.5,74.3,1106.3,74.7,1107.2,75.4z"/>
	<path class="st3" d="M1159.9,73.7v-0.1c1.5-1.1,3-1.9,4.6-2.6c1.6-0.7,3.7-1,6.2-1h60.1c1.1,0,2.3,0.2,3.5,0.7
		c1.1,0.5,2.2,1.1,3.1,1.8c0.9,0.7,1.7,1.6,2.3,2.6c0.6,1,0.9,2,0.9,3.1v62.3c0,0.8-0.3,1.7-0.9,2.5c-0.6,0.9-1.3,1.7-2.2,2.4
		c-0.9,0.7-1.9,1.3-3.1,1.8c-1.2,0.5-2.3,0.7-3.5,0.7h-47.2c-1,0-2.1-0.3-3.2-0.8c-1.1-0.5-2.1-1.2-3-2c-0.9-0.8-1.6-1.7-2.2-2.5
		c-0.6-0.9-0.9-1.7-0.9-2.4V126c0-0.4,0.3-1,0.9-1.9c0.6-0.8,1.4-1.6,2.4-2.4c0.9-0.8,1.9-1.5,2.9-2.1c1-0.6,1.9-0.9,2.6-0.9h15.1
		V99.2h-6.3l-1.1,1.5l-28.4,42.7c-1.3,2-2.8,3.2-4.8,3.8c-1.9,0.5-3.9,0.8-6,0.8h-28.9c-1.9-0.9-3.3-1.9-4.3-3.1
		c-1-1.2-1.5-2.6-1.5-4.3c0-0.7,0.1-1.3,0.3-1.9c0.2-0.6,0.5-1.2,0.8-1.9L1159.9,73.7z M1161.7,74.3l-41.7,63.1h0.2
		c-0.7,0.8-1.1,1.9-1.1,3.1c0,2.6,1.5,4.5,4.4,5.8h28.2c1.8,0,3.5-0.2,5.1-0.7c1.6-0.5,2.9-1.4,3.8-2.9l28.5-42.9h-0.3
		c0.1-0.1,0.2-0.2,0.4-0.4c0.2-0.2,0.3-0.3,0.4-0.4c0.2-0.2,0.5-0.5,0.9-0.9c0.4-0.3,0.5-0.5,0.5-0.6h9.3v22.8h-17.1
		c-0.5,0-1.2,0.2-2,0.7c-0.8,0.5-1.5,1.1-2.2,1.7c-0.7,0.6-1.3,1.2-1.8,1.9c-0.5,0.6-0.8,1.1-0.8,1.4v14.1c0,0.7,0.2,1.3,0.6,2
		c0.4,0.7,1,1.4,1.6,2c0.7,0.6,1.5,1.1,2.4,1.5c0.9,0.4,1.7,0.6,2.6,0.6h47.2c1.9,0,3.6-0.6,5.2-1.9c1.6-1.3,2.4-2.6,2.4-3.9V78.2
		c0-1.6-0.8-3.2-2.4-4.5c-1.6-1.4-3.4-2-5.3-2h-60.1c-2.2,0-3.9,0.2-5.3,0.7c-1.3,0.5-2.5,1.2-3.7,2.1V74.3z M1164.7,76.2v-0.1
		c0.6-0.5,1.4-0.9,2.2-1.2c0.8-0.3,2.1-0.5,3.8-0.5h60.1c0.9,0,1.9,0.4,2.7,1.2c0.9,0.8,1.3,1.7,1.3,2.6v62.3c0,0.7-0.4,1.3-1.3,2
		c-0.8,0.7-1.7,1.1-2.7,1.1h-47.2c-0.9,0-1.8-0.4-2.5-1.2c-0.7-0.8-1.1-1.6-1.1-2.2V126c0-0.3,0.4-0.9,1.2-1.7
		c0.8-0.8,1.4-1.2,2-1.2h18.4c0.5,0,1.1-0.2,1.6-0.6c0.6-0.4,0.9-0.9,0.9-1.4V97.2c0-1.6-0.8-2.3-2.5-2.3h-11
		c-0.8,0.2-1.6,0.6-2.4,1.2c-0.7,0.7-1.4,1.4-2,2.2v-0.1l-28.9,43.2c-0.5,1-1.3,1.6-2.4,1.9s-2.2,0.4-3.2,0.4h-27.3
		c-1-0.6-1.6-1.6-1.6-3.1c0-0.4,0-0.7,0.1-1c0.1-0.2,0.2-0.5,0.4-0.9v0.1L1164.7,76.2z"/>
	<path class="st3" d="M1293.7,136.2c-1.9,0-3.7-0.9-5.5-2.8v7.2c0,0.7-0.3,1.5-0.9,2.4c-0.6,0.9-1.3,1.7-2.2,2.4
		c-0.9,0.7-1.8,1.4-2.8,1.9c-1,0.5-2,0.7-2.9,0.7h-23.7c-1.3,0-2.5-0.2-3.6-0.7c-1.2-0.5-2.2-1.1-3.1-1.8c-0.9-0.7-1.6-1.5-2.1-2.4
		c-0.5-0.9-0.8-1.7-0.8-2.5V77.4c0-0.8,0.3-1.7,0.8-2.5c0.5-0.9,1.2-1.7,2.1-2.4c0.9-0.7,1.9-1.3,3.1-1.8c1.1-0.5,2.4-0.7,3.6-0.7
		h97.7c1,0,2.1,0.2,3.3,0.7c1.1,0.5,2.2,1.1,3.1,1.8c0.9,0.7,1.6,1.5,2.2,2.4c0.6,0.9,0.9,1.7,0.9,2.5v51.3c0,1-0.3,2-1,3
		c-0.7,1-1.5,1.9-2.4,2.6l1.9,2.1c0.6,0.7,1,1.3,1.3,2c0.2,0.7,0.3,1.4,0.3,2.1c0,3.1-1.9,5.6-5.8,7.4h-28.7c-1.9,0-3.8-0.2-5.7-0.7
		c-1.9-0.5-3.5-1.7-4.8-3.6v0.1l-6.6-7.5H1293.7z M1287.5,130.2c0.5,0.7,1.1,1.3,1.8,1.9c0.7,0.6,1.4,1.2,2.2,1.7
		c0.8,0.5,1.5,0.7,2.1,0.7h18.8l6.7,7.8c1.1,1.7,2.5,2.8,4.2,3.3c1.6,0.5,3.3,0.7,4.9,0.7h28.1c2.9-1.3,4.4-3.3,4.4-5.8
		c0-0.5-0.1-1-0.2-1.5c-0.2-0.5-0.5-1.1-1-1.7l-3-3.5c1.1-0.6,2.1-1.3,3-2.3c0.8-0.9,1.3-1.9,1.3-2.8V77.4c0-0.7-0.2-1.3-0.6-2
		c-0.4-0.7-1-1.3-1.7-1.9c-0.7-0.5-1.5-1-2.4-1.4c-0.8-0.4-1.7-0.6-2.7-0.6h-97.7c-1.9,0-3.6,0.6-5.2,1.9c-1.6,1.3-2.4,2.6-2.4,3.9
		v63.1c0,1.3,0.8,2.6,2.4,3.9c1.6,1.3,3.3,1.9,5.2,1.9h23.7c0.7,0,1.5-0.2,2.3-0.6c0.8-0.4,1.5-0.8,2.2-1.4c0.7-0.5,1.2-1.2,1.6-1.9
		c0.4-0.7,0.6-1.4,0.6-2V97.6h36.9v11h-29c-0.8,0-1.7,0.2-2.5,0.6c-0.8,0.4-1.6,0.9-2.4,1.5c-0.7,0.6-1.3,1.3-1.7,2
		c-0.4,0.7-0.6,1.4-0.6,2v14C1286.8,129.1,1287,129.6,1287.5,130.2z M1325.7,95.5c-0.6-0.4-1.1-0.6-1.6-0.6H1285
		c-0.6,0-1.2,0.2-1.8,0.6c-0.6,0.4-0.9,0.8-0.9,1.2v43.8c0,0.7-0.3,1.3-1,2c-0.7,0.7-1.3,1.1-2,1.1h-23.7c-1,0-2-0.3-2.7-1.1
		c-0.8-0.7-1.2-1.4-1.2-2V77.4c0-0.7,0.4-1.3,1.2-2c0.8-0.7,1.7-1.1,2.7-1.1h97.7c0.8,0,1.7,0.4,2.5,1.1c0.8,0.7,1.3,1.4,1.3,2v51.3
		c0,0.7-0.4,1.3-1.3,2c-0.8,0.7-1.7,1.1-2.5,1.1h-2.8l6,6.7c0.4,0.6,0.6,1.2,0.6,2c0,1.4-0.6,2.4-1.7,3.1h-27.1
		c-1.2,0-2.2-0.1-3.2-0.4c-1-0.2-1.8-0.9-2.3-1.9v0.1l-8.6-9.6h-20.5c-0.5,0-1.2-0.4-2-1.2c-0.8-0.8-1.2-1.4-1.2-1.9v-14
		c0-0.7,0.3-1.4,1-2.2c0.7-0.8,1.5-1.2,2.4-1.2h30.1c0.5,0,1-0.2,1.5-0.6c0.5-0.4,0.8-0.8,1-1.2V96.8
		C1326.6,96.4,1326.3,95.9,1325.7,95.5z M1290.9,107.7c1-0.5,2-0.7,3.1-0.7h27v-7.8h-32.8v10.3
		C1289,108.8,1289.9,108.2,1290.9,107.7z"/>
	<path class="st3" d="M1370.4,101.7c1.3-1.4,2.8-2.4,4.5-3c-1.8-0.7-3.3-1.7-4.5-3.1c-1.3-1.4-1.9-2.7-1.9-3.8V77.4
		c0-0.8,0.3-1.7,0.8-2.5c0.5-0.9,1.2-1.7,2.1-2.4c0.9-0.7,1.9-1.3,3.1-1.8c1.1-0.5,2.4-0.7,3.6-0.7h97.7c1,0,2.1,0.2,3.3,0.7
		c1.1,0.5,2.2,1.1,3.1,1.8c0.9,0.7,1.6,1.5,2.2,2.4c0.6,0.9,0.9,1.7,0.9,2.5v45.4c0,3.5-1.1,6.8-3.3,9.9c-2.2,3.1-4.9,5.7-8,8
		c-3.1,2.3-6.4,4-9.8,5.3c-3.4,1.3-6.2,1.9-8.5,1.9H1378c-1.3,0-2.5-0.2-3.6-0.7c-1.2-0.5-2.2-1.1-3.1-1.8c-0.9-0.7-1.6-1.5-2.1-2.4
		c-0.5-0.9-0.8-1.7-0.8-2.5v-34.3C1368.5,104.6,1369.1,103.1,1370.4,101.7z M1408.5,106.4c0-1.5-0.7-3-2.2-4.5
		c-1.5-1.5-3.2-2.2-5.3-2.2h-22.7c-1.9,0-3.6,0.7-5.3,2c-1.6,1.4-2.4,2.9-2.4,4.5v34.3c0,1.3,0.8,2.6,2.4,3.9
		c1.6,1.3,3.3,1.9,5.2,1.9h77.5c2.2,0,4.9-0.6,8-1.8c3.1-1.2,6.2-2.8,9.1-4.9c2.9-2.1,5.4-4.6,7.5-7.4c2-2.8,3.1-6,3.1-9.3V77.4
		c0-0.7-0.2-1.3-0.6-2c-0.4-0.7-1-1.3-1.7-1.9c-0.7-0.5-1.5-1-2.4-1.4c-0.8-0.4-1.7-0.6-2.7-0.6H1378c-1.9,0-3.6,0.6-5.2,1.9
		c-1.6,1.3-2.4,2.6-2.4,3.9v14.3c0,0.7,0.2,1.3,0.6,2c0.4,0.7,1,1.3,1.7,1.9c0.7,0.6,1.5,1.1,2.4,1.4c0.8,0.4,1.7,0.6,2.7,0.6h67.4
		v20c0,0.3-0.5,0.8-1.4,1.5c-0.9,0.7-1.7,1.1-2.4,1.2h-33.1V106.4z M1405.6,122.4c0.6,0.4,1.2,0.6,1.8,0.6h35c0.6-0.1,1.3-0.3,2-0.7
		c0.7-0.4,1.4-0.9,2.1-1.4c0.7-0.5,1.3-1.1,1.7-1.7s0.7-1.1,0.7-1.5v-21c-0.1-0.4-0.4-0.8-0.9-1.2c-0.5-0.4-1-0.6-1.6-0.6h-68.5
		c-0.8,0-1.7-0.4-2.5-1.1c-0.8-0.7-1.3-1.4-1.3-2V77.4c0-0.7,0.4-1.3,1.2-2c0.8-0.7,1.7-1.1,2.7-1.1h97.7c0.8,0,1.7,0.4,2.5,1.1
		c0.8,0.7,1.3,1.4,1.3,2v45.4c0,3-0.9,5.7-2.7,8.2c-1.8,2.5-3.9,4.7-6.5,6.6c-2.6,1.9-5.2,3.3-7.9,4.4c-2.7,1.1-5,1.6-6.9,1.6H1378
		c-1,0-2-0.3-2.7-1.1c-0.8-0.7-1.2-1.4-1.2-2v-34.3c0-1,0.4-1.9,1.3-2.6c0.9-0.7,1.8-1.1,2.7-1.1h22.7c1.3,0,2.2,0.4,2.8,1.2
		c0.6,0.8,0.9,1.7,0.9,2.6v14.7C1404.7,121.6,1405,122,1405.6,122.4z M1441.6,118.7c0.4-0.2,0.8-0.3,1.2-0.6
		c0.4-0.2,0.5-0.4,0.5-0.6V99.2h-37.8c1.5,0.9,2.7,2,3.6,3.2c0.9,1.2,1.4,2.6,1.4,4v12.4H1441.6z"/>
</g>
<g>
	<path class="st3" d="M326.8,25.6c0,0.6-0.2,1.2-0.5,1.8c-0.3,0.6-0.7,1.1-1.2,1.6c0.4,0.5,0.8,1.1,1.2,1.7c0.3,0.7,0.5,1.4,0.5,2.2
		v25.4c0,0.6-0.2,1.1-0.5,1.7c-0.3,0.6-0.7,1.1-1.2,1.6c-0.5,0.5-1,0.9-1.6,1.2c-0.6,0.3-1.2,0.5-1.7,0.5h-41.1
		c-1.2,0-2.7-0.4-4.5-1.3c-1.8-0.9-3.5-2-5.1-3.6c-1.7-1.5-3.1-3.3-4.2-5.4c-1.2-2-1.7-4.3-1.7-6.6V16c0-0.6,0.1-1.1,0.4-1.7
		c0.3-0.6,0.7-1.1,1.1-1.6c0.5-0.5,1-0.9,1.6-1.2c0.6-0.3,1.2-0.5,1.9-0.5h51.7c0.6,0,1.1,0.2,1.7,0.5c0.6,0.3,1.1,0.7,1.6,1.2
		s0.9,1,1.2,1.6c0.3,0.6,0.5,1.1,0.5,1.7V25.6z M325.7,25.6V16c0-0.4-0.1-0.9-0.3-1.4c-0.2-0.5-0.5-0.9-0.9-1.2
		c-0.4-0.4-0.8-0.7-1.2-0.9c-0.4-0.2-0.9-0.4-1.4-0.4h-51.7c-1,0-1.9,0.4-2.7,1.3c-0.8,0.9-1.2,1.7-1.2,2.6v30.4
		c0,2.3,0.5,4.4,1.6,6.3c1.1,1.9,2.4,3.6,3.9,5c1.5,1.4,3.2,2.5,4.8,3.3c1.7,0.8,3,1.2,4.1,1.2h41.1c0.5,0,1-0.1,1.4-0.4
		c0.4-0.2,0.9-0.6,1.2-0.9c0.4-0.4,0.7-0.8,0.9-1.2c0.2-0.5,0.3-0.9,0.3-1.4V32.9c0-0.8-0.2-1.5-0.7-2.2c-0.4-0.7-1-1.3-1.7-1.7
		c0.7-0.4,1.2-1,1.7-1.6C325.5,26.7,325.7,26.1,325.7,25.6z M291.1,44c-0.5,0-0.9-0.3-1.3-0.8c-0.4-0.6-0.6-1-0.6-1.5v-9.4
		c0-0.2,0.2-0.6,0.6-1.2c0.4-0.6,0.8-0.8,1-0.8h30.9c0.4,0,0.9,0.2,1.4,0.7c0.5,0.5,0.7,1.1,0.7,1.8v25.4c0,0.4-0.2,0.9-0.7,1.4
		c-0.4,0.5-0.9,0.7-1.3,0.7h-41.1c-1,0-2.2-0.4-3.6-1.1c-1.4-0.7-2.8-1.7-4.1-2.9c-1.3-1.2-2.5-2.7-3.4-4.4
		c-0.9-1.7-1.4-3.5-1.4-5.5V16c0-0.4,0.2-0.9,0.6-1.4c0.4-0.5,0.9-0.7,1.5-0.7h51.7c0.4,0,0.9,0.2,1.3,0.7c0.4,0.5,0.7,0.9,0.7,1.4
		v9.6c0,0.4-0.2,0.8-0.6,1.3c-0.4,0.5-0.8,0.7-1.3,0.7h-36.3c-0.3,0-0.6,0.1-0.9,0.4c-0.3,0.2-0.4,0.5-0.5,0.8v14.1
		c0,0.3,0.1,0.6,0.4,1c0.2,0.4,0.6,0.8,0.9,1.2c0.4,0.4,0.7,0.7,1.2,1c0.4,0.3,0.8,0.4,1.1,0.5h18.5c0.3,0,0.5-0.1,0.8-0.4
		c0.3-0.3,0.4-0.6,0.5-0.8c-0.1-0.3-0.2-0.6-0.5-0.9c-0.2-0.3-0.5-0.5-0.8-0.5H291.1z M286.2,42.9V29.5h2.9
		c-0.5,0.6-0.9,1.1-1.3,1.6c-0.4,0.5-0.5,0.9-0.5,1.2v9.4c0,1,0.5,2,1.6,3.1h-0.8c-0.3-0.1-0.7-0.3-1.2-0.8
		C286.4,43.5,286.2,43.1,286.2,42.9z"/>
	<path class="st3" d="M396.4,55.4c-1,0-2-0.6-2.9-1.9v4.8c0,0.5-0.2,1-0.5,1.6c-0.3,0.6-0.7,1.1-1.2,1.6c-0.5,0.5-1,0.9-1.5,1.2
		c-0.5,0.3-1,0.5-1.5,0.5h-12.5c-0.7,0-1.3-0.2-1.9-0.5c-0.6-0.3-1.1-0.7-1.6-1.2c-0.5-0.5-0.8-1-1.1-1.6c-0.3-0.6-0.4-1.1-0.4-1.7
		V16c0-0.6,0.1-1.1,0.4-1.7c0.3-0.6,0.7-1.1,1.1-1.6c0.5-0.5,1-0.9,1.6-1.2c0.6-0.3,1.2-0.5,1.9-0.5H428c0.6,0,1.1,0.2,1.7,0.5
		c0.6,0.3,1.1,0.7,1.6,1.2s0.9,1,1.2,1.6c0.3,0.6,0.5,1.1,0.5,1.7v34.4c0,0.7-0.2,1.3-0.5,2c-0.4,0.7-0.8,1.2-1.3,1.7l1,1.4
		c0.3,0.4,0.6,0.9,0.7,1.3c0.1,0.4,0.2,0.9,0.2,1.4c0,2.1-1,3.8-3.1,5h-15.2c-1,0-2-0.2-3-0.5s-1.9-1.1-2.5-2.4v0.1l-3.5-5.1H396.4z
		 M393.2,51.4c0.3,0.4,0.6,0.9,1,1.3c0.4,0.4,0.7,0.8,1.2,1.1c0.4,0.3,0.8,0.5,1.1,0.5h10l3.6,5.2c0.6,1.2,1.3,1.9,2.2,2.2
		c0.9,0.3,1.7,0.5,2.6,0.5h14.8c1.5-0.9,2.3-2.2,2.3-3.9c0-0.3,0-0.7-0.1-1c-0.1-0.3-0.3-0.7-0.5-1.2l-1.6-2.3
		c0.6-0.4,1.1-0.9,1.6-1.5c0.4-0.6,0.7-1.3,0.7-1.9V16c0-0.4-0.1-0.9-0.3-1.4c-0.2-0.5-0.5-0.9-0.9-1.2c-0.4-0.4-0.8-0.7-1.2-0.9
		c-0.4-0.2-0.9-0.4-1.4-0.4h-51.7c-1,0-1.9,0.4-2.7,1.3c-0.8,0.9-1.2,1.7-1.2,2.6v42.3c0,0.9,0.4,1.8,1.2,2.6
		c0.8,0.9,1.7,1.3,2.7,1.3h12.5c0.4,0,0.8-0.1,1.2-0.4c0.4-0.2,0.8-0.6,1.2-0.9c0.4-0.4,0.7-0.8,0.9-1.2c0.2-0.5,0.3-0.9,0.3-1.4
		V29.5h19.5v7.4h-15.3c-0.4,0-0.9,0.1-1.3,0.4c-0.4,0.3-0.9,0.6-1.2,1c-0.4,0.4-0.7,0.9-0.9,1.4c-0.2,0.5-0.3,0.9-0.3,1.3v9.4
		C392.7,50.6,392.9,50.9,393.2,51.4z M413.4,28.1c-0.3-0.3-0.6-0.4-0.9-0.4h-20.7c-0.3,0-0.7,0.1-1,0.4c-0.3,0.3-0.5,0.6-0.5,0.8
		v29.4c0,0.4-0.2,0.9-0.5,1.4c-0.4,0.5-0.7,0.7-1,0.7h-12.5c-0.6,0-1-0.2-1.5-0.7c-0.4-0.5-0.6-0.9-0.6-1.4V16
		c0-0.4,0.2-0.9,0.6-1.4c0.4-0.5,0.9-0.7,1.5-0.7H428c0.4,0,0.9,0.2,1.3,0.7c0.4,0.5,0.7,0.9,0.7,1.4v34.4c0,0.4-0.2,0.9-0.7,1.4
		c-0.4,0.5-0.9,0.7-1.3,0.7h-1.5l3.2,4.5c0.2,0.4,0.3,0.8,0.3,1.3c0,0.9-0.3,1.6-0.9,2.1h-14.4c-0.6,0-1.2-0.1-1.7-0.2
		s-0.9-0.6-1.2-1.2v0.1l-4.6-6.5h-10.9c-0.3,0-0.6-0.3-1-0.8c-0.4-0.6-0.6-1-0.6-1.2V41c0-0.4,0.2-0.9,0.5-1.5
		c0.4-0.6,0.8-0.8,1.3-0.8h15.9c0.3,0,0.5-0.1,0.8-0.4c0.3-0.2,0.4-0.5,0.5-0.8V29C413.8,28.6,413.7,28.3,413.4,28.1z M394.9,36.3
		c0.5-0.3,1.1-0.5,1.6-0.5h14.3v-5.2h-17.3v6.9C393.9,37,394.4,36.6,394.9,36.3z"/>
	<path class="st3" d="M539.2,46.5c0,2.4-0.6,4.6-1.7,6.6c-1.2,2-2.6,3.8-4.2,5.3c-1.7,1.5-3.4,2.7-5.1,3.5c-1.8,0.9-3.3,1.3-4.5,1.3
		H493c-1.2,0-2.7-0.4-4.5-1.3c-1.8-0.9-3.5-2-5.1-3.5c-1.6-1.5-3-3.3-4.2-5.3c-1.2-2-1.7-4.3-1.7-6.6V16c0-0.6,0.1-1.1,0.4-1.7
		c0.3-0.6,0.7-1.1,1.1-1.6c0.5-0.5,1-0.9,1.6-1.2c0.6-0.3,1.2-0.5,1.9-0.5h51.7c0.6,0,1.1,0.2,1.7,0.5c0.6,0.3,1.1,0.7,1.6,1.2
		c0.5,0.5,0.9,1,1.2,1.6c0.3,0.6,0.5,1.1,0.5,1.7V46.5z M538.1,16c0-0.4-0.1-0.9-0.3-1.4c-0.2-0.5-0.5-0.9-0.9-1.2
		c-0.4-0.4-0.8-0.7-1.2-0.9c-0.4-0.2-0.9-0.4-1.4-0.4h-51.7c-1,0-1.9,0.4-2.7,1.3c-0.8,0.9-1.2,1.7-1.2,2.6v30.5
		c0,2.2,0.5,4.3,1.6,6.2c1.1,1.9,2.4,3.6,3.9,5c1.5,1.4,3.1,2.5,4.8,3.3c1.7,0.8,3,1.2,4.1,1.2h30.6c1.2,0,2.6-0.4,4.2-1.2
		c1.6-0.8,3.2-1.9,4.8-3.3c1.5-1.4,2.9-3.1,3.9-5c1.1-1.9,1.6-4,1.6-6.2V16z M536.2,46.5c0,1.9-0.5,3.7-1.4,5.4
		c-0.9,1.7-2.1,3.2-3.4,4.4c-1.3,1.2-2.7,2.2-4.1,2.9c-1.4,0.7-2.7,1.1-3.7,1.1H493c-0.9,0-2.1-0.4-3.6-1.1
		c-1.4-0.7-2.8-1.7-4.1-2.9c-1.3-1.2-2.5-2.7-3.4-4.4c-0.9-1.7-1.4-3.5-1.4-5.4V16c0-0.4,0.2-0.9,0.6-1.4c0.4-0.5,0.9-0.7,1.5-0.7
		h51.7c0.4,0,0.9,0.2,1.3,0.7c0.4,0.5,0.7,0.9,0.7,1.4V46.5z M496.6,43.1c0,0.3,0.1,0.6,0.4,1c0.2,0.4,0.6,0.8,0.9,1.1
		c0.4,0.4,0.7,0.7,1.1,1c0.4,0.3,0.7,0.4,1.1,0.4h16.5c0.3,0,0.7-0.1,1-0.4c0.4-0.2,0.7-0.5,1-0.9c0.3-0.3,0.6-0.7,0.9-1
		c0.2-0.4,0.4-0.7,0.5-1V28.9c-0.1-0.3-0.2-0.6-0.5-0.8c-0.3-0.3-0.6-0.4-0.8-0.4H498c-0.3,0-0.7,0.1-1,0.4
		c-0.3,0.3-0.5,0.6-0.5,0.9V43.1z M518.1,43.1c-0.1,0.3-0.3,0.6-0.6,1c-0.3,0.4-0.6,0.6-0.9,0.6h-16.5c-0.2,0-0.5-0.2-0.9-0.7
		c-0.4-0.4-0.6-0.8-0.6-1V29.5h19.5V43.1z M516.6,43.7c0.1,0,0.1-0.1,0.2-0.2c0.1-0.2,0.2-0.3,0.2-0.5V30.6h-17.3v12.5
		c0,0.4,0.1,0.6,0.4,0.6H516.6z"/>
	<path class="st3" d="M645.4,41.3c0,0.8-0.2,1.6-0.5,2.2c-0.3,0.6-0.7,1.2-1.2,1.7c0.4,0.6,0.8,1.1,1.2,1.7c0.3,0.6,0.5,1.2,0.5,1.7
		v9.6c0,0.6-0.2,1.1-0.5,1.7c-0.3,0.6-0.7,1.1-1.2,1.6c-0.5,0.5-1,0.9-1.6,1.2c-0.6,0.3-1.2,0.5-1.7,0.5h-51.7
		c-0.7,0-1.3-0.2-1.9-0.5c-0.6-0.3-1.1-0.7-1.6-1.2c-0.5-0.5-0.8-1-1.1-1.6c-0.3-0.6-0.4-1.1-0.4-1.7V27.8c0-2.4,0.6-4.6,1.7-6.6
		c1.2-2,2.6-3.8,4.2-5.4c1.7-1.5,3.4-2.7,5.1-3.6c1.8-0.9,3.3-1.3,4.5-1.3h41.1c0.6,0,1.1,0.2,1.7,0.5c0.6,0.3,1.1,0.7,1.6,1.2
		c0.5,0.5,0.9,1,1.2,1.6c0.3,0.6,0.5,1.1,0.5,1.7V41.3z M644.3,41.3V16c0-0.4-0.1-0.9-0.3-1.4c-0.2-0.5-0.5-0.9-0.9-1.2
		c-0.4-0.4-0.8-0.7-1.2-0.9c-0.4-0.2-0.9-0.4-1.4-0.4h-41.1c-1.1,0-2.5,0.4-4.1,1.2c-1.7,0.8-3.3,1.9-4.8,3.3
		c-1.5,1.4-2.9,3.1-3.9,5c-1.1,1.9-1.6,4-1.6,6.2v30.4c0,0.9,0.4,1.8,1.2,2.6c0.8,0.9,1.7,1.3,2.7,1.3h51.7c0.5,0,1-0.1,1.4-0.4
		c0.4-0.2,0.9-0.6,1.2-0.9c0.4-0.4,0.7-0.8,0.9-1.2c0.2-0.5,0.3-0.9,0.3-1.4v-9.6c0-0.5-0.2-1.1-0.6-1.7c-0.4-0.7-1-1.2-1.7-1.7
		c0.7-0.4,1.2-1,1.7-1.7C644.1,42.8,644.3,42.1,644.3,41.3z M624.9,30.2c0.3,0,0.5-0.2,0.8-0.5c0.2-0.3,0.4-0.6,0.5-0.9
		c-0.1-0.3-0.3-0.6-0.5-0.8c-0.2-0.3-0.5-0.4-0.8-0.4h-18.5c-0.3,0.1-0.7,0.2-1.1,0.5c-0.4,0.3-0.8,0.6-1.2,1
		c-0.4,0.4-0.7,0.7-0.9,1.2c-0.2,0.4-0.4,0.7-0.4,1v14.1c0.1,0.3,0.2,0.5,0.5,0.8c0.3,0.2,0.6,0.4,0.9,0.4h36.3
		c0.4,0,0.9,0.2,1.3,0.7c0.4,0.5,0.6,0.9,0.6,1.3v9.6c0,0.4-0.2,0.9-0.7,1.4c-0.4,0.5-0.9,0.7-1.3,0.7h-51.7c-0.6,0-1-0.2-1.5-0.7
		c-0.4-0.5-0.6-0.9-0.6-1.4V27.8c0-2,0.5-3.8,1.4-5.5c0.9-1.7,2.1-3.2,3.4-4.4c1.3-1.2,2.7-2.2,4.1-2.9c1.4-0.7,2.7-1.1,3.7-1.1
		h41.1c0.4,0,0.9,0.2,1.3,0.7c0.4,0.5,0.7,0.9,0.7,1.4v25.4c0,0.7-0.2,1.3-0.7,1.8c-0.5,0.5-0.9,0.7-1.4,0.7h-30.9
		c-0.3,0-0.6-0.3-1-0.8c-0.4-0.6-0.6-0.9-0.6-1.2v-9.4c0-0.4,0.2-0.9,0.6-1.5c0.4-0.6,0.8-0.8,1.3-0.8H624.9z M605.9,32.5v9.4
		c0,0.3,0.2,0.7,0.5,1.2c0.4,0.5,0.8,1.1,1.3,1.6h-2.9V31.3c0-0.2,0.2-0.6,0.7-1c0.4-0.4,0.8-0.7,1.2-0.8h0.8
		C606.4,30.5,605.9,31.6,605.9,32.5z"/>
	<path class="st3" d="M689.8,48.6c0-0.3,0.2-0.8,0.6-1.4c0.4-0.6,0.9-1.2,1.4-1.8c-1.3-1.1-2-2.2-2-3.6V27.7c0-2.4,0.6-4.6,1.7-6.6
		c1.2-2,2.6-3.8,4.2-5.3s3.3-2.7,5.1-3.5c1.8-0.9,3.3-1.3,4.5-1.3h41.6c0.4,0,0.8,0.2,1.4,0.6c0.5,0.4,1,0.9,1.5,1.5
		c0.5,0.6,0.9,1.1,1.2,1.7c0.3,0.6,0.5,1,0.5,1.2v9.4c0,0.6-0.2,1.2-0.5,1.8c-0.4,0.6-0.8,1.2-1.2,1.8c0.4,0.5,0.8,1.1,1.2,1.8
		c0.4,0.7,0.5,1.4,0.5,2.1v25.4c0,0.6-0.2,1.1-0.5,1.7c-0.3,0.6-0.7,1.1-1.2,1.6c-0.5,0.5-1,0.9-1.6,1.2c-0.6,0.3-1.2,0.5-1.7,0.5
		h-51.8c-0.6,0-1.1-0.2-1.7-0.5c-0.6-0.4-1.1-0.8-1.6-1.4c-0.5-0.6-0.9-1.1-1.2-1.7c-0.3-0.6-0.5-1.1-0.5-1.6V48.6z M690.9,48.6V58
		c0,0.4,0.1,0.9,0.3,1.4c0.2,0.5,0.5,0.9,0.9,1.3c0.4,0.4,0.8,0.8,1.2,1c0.5,0.3,0.9,0.4,1.4,0.4h51.8c0.5,0,1-0.1,1.4-0.4
		c0.4-0.2,0.9-0.6,1.2-0.9c0.4-0.4,0.7-0.8,0.9-1.2c0.2-0.5,0.3-0.9,0.3-1.4V32.9c0-0.8-0.2-1.5-0.7-2.2c-0.4-0.7-1-1.3-1.7-1.7
		c0.7-0.4,1.3-1,1.7-1.8c0.4-0.7,0.7-1.4,0.7-1.9V16c0-0.2-0.1-0.6-0.4-1c-0.2-0.4-0.6-0.9-1-1.3c-0.4-0.4-0.8-0.8-1.2-1.1
		c-0.4-0.3-0.7-0.5-1.1-0.5h-41.6c-1.1,0-2.5,0.4-4.1,1.2c-1.7,0.8-3.2,1.9-4.8,3.3c-1.5,1.4-2.8,3.1-3.9,5c-1.1,1.9-1.6,4-1.6,6.2
		v14.1c0,0.5,0.3,1.1,0.7,1.8c0.5,0.7,1.1,1.2,1.7,1.6c-0.7,0.5-1.2,1.1-1.7,1.8C691.1,47.8,690.9,48.3,690.9,48.6z M731,46.6
		c0.3,0,0.6-0.1,0.9-0.2c0.3-0.1,0.5-0.5,0.5-1.1c0-0.4-0.1-0.7-0.2-0.8c-0.1-0.1-0.3-0.2-0.5-0.3c-0.1-0.1-0.4-0.2-0.7-0.3h-36
		c-0.4,0-0.9-0.2-1.4-0.7c-0.5-0.5-0.7-0.9-0.7-1.4V27.7c0-1.9,0.5-3.7,1.4-5.4c0.9-1.7,2.1-3.2,3.4-4.4c1.3-1.2,2.7-2.2,4.1-2.9
		c1.4-0.7,2.6-1.1,3.6-1.1h41.6c0.3,0,0.6,0.3,1,0.8c0.4,0.6,0.6,1,0.6,1.2v9.4c0,0.4-0.2,0.9-0.6,1.5c-0.4,0.6-0.8,0.8-1.3,0.8
		h-34.2c-0.4,0-1,0.2-1.7,0.5c-0.7,0.4-1,0.8-1,1.5c0,0.4,0.2,0.7,0.6,0.7h36.2c0.4,0,0.9,0.2,1.4,0.7c0.5,0.5,0.7,1.1,0.7,1.7v25.4
		c0,0.4-0.2,0.9-0.7,1.4c-0.4,0.5-0.9,0.7-1.3,0.7h-51.8c-0.5,0-0.9-0.3-1.3-0.8c-0.4-0.6-0.6-1-0.6-1.5v-9.5c0-0.2,0.2-0.6,0.6-1.2
		c0.4-0.6,0.8-0.8,1-0.8H731z M730.7,45.9l-0.2,0.2l-0.1-0.1v-0.2C730.6,45.8,730.7,45.8,730.7,45.9z"/>
	<path class="st3" d="M800.8,30.6c-0.6,0-1.1-0.2-1.7-0.5c-0.6-0.3-1.1-0.7-1.5-1.2c-0.4-0.5-0.8-1-1.1-1.6
		c-0.3-0.6-0.5-1.1-0.5-1.6V16c0-0.6,0.1-1.1,0.4-1.7c0.3-0.6,0.6-1.1,1.1-1.6s1-0.9,1.6-1.2c0.6-0.3,1.2-0.5,1.8-0.5h43
		c0.6,0,1.1,0.2,1.7,0.5c0.6,0.3,1.1,0.7,1.6,1.2c0.5,0.5,0.9,1,1.2,1.6c0.3,0.6,0.5,1.1,0.5,1.7v9.6c0,0.5-0.2,1-0.5,1.6
		c-0.3,0.6-0.7,1.1-1.2,1.6c-0.5,0.5-1,0.9-1.6,1.2s-1.1,0.5-1.7,0.5h-14v12.5l0.3,0.3c0.1,0.1,0.1,0.1,0.2,0.1
		c0.1,0,0.1,0.1,0.2,0.1h6.3c0.6,0,1.1,0.2,1.7,0.5c0.6,0.4,1.1,0.8,1.5,1.4c0.5,0.6,0.9,1.1,1.2,1.7c0.3,0.6,0.5,1.1,0.5,1.6v9.4
		c0,0.3-0.2,0.7-0.5,1.2c-0.3,0.6-0.7,1.1-1.2,1.7c-0.5,0.6-1,1-1.5,1.5c-0.5,0.4-1,0.6-1.4,0.6h-13.8c-1.2,0-2.6-0.4-4.4-1.3
		c-1.8-0.9-3.5-2-5.1-3.5c-1.6-1.5-3-3.3-4.1-5.3c-1.2-2-1.7-4.3-1.7-6.6V30.6H800.8z M810.7,52.7c1.1,1.9,2.4,3.6,3.9,5
		c1.5,1.4,3.1,2.5,4.7,3.3c1.6,0.8,3,1.2,4.1,1.2h13.8c0.3,0,0.6-0.2,1-0.5c0.4-0.3,0.8-0.7,1.2-1.1c0.4-0.4,0.7-0.8,1-1.3
		c0.3-0.4,0.4-0.8,0.4-1v-9.4c0-0.4-0.1-0.8-0.3-1.3c-0.2-0.5-0.5-1-0.9-1.4c-0.4-0.4-0.8-0.8-1.2-1c-0.4-0.3-0.9-0.4-1.3-0.4h-6.6
		c-0.4-0.1-0.7-0.4-1-0.7c-0.3-0.4-0.4-0.7-0.4-0.9V29.7c-0.1-0.1-0.1-0.1-0.2-0.1v-0.2H844c0.4,0,0.9-0.1,1.3-0.4
		c0.4-0.2,0.9-0.6,1.2-1c0.4-0.4,0.7-0.8,0.9-1.2c0.2-0.4,0.3-0.9,0.3-1.3V16c0-0.4-0.1-0.9-0.3-1.4c-0.2-0.5-0.5-0.9-0.9-1.2
		c-0.4-0.4-0.8-0.7-1.2-0.9c-0.4-0.2-0.9-0.4-1.4-0.4h-43c-1,0-1.9,0.4-2.7,1.3c-0.8,0.9-1.2,1.7-1.2,2.6v9.6c0,0.4,0.1,0.9,0.3,1.3
		c0.2,0.4,0.5,0.9,0.9,1.2c0.4,0.4,0.8,0.7,1.2,1c0.5,0.2,0.9,0.4,1.4,0.4h8.7c-0.2,0.2-0.3,0.2-0.4,0.2v16.8
		C809.1,48.7,809.7,50.8,810.7,52.7z M810.4,28.2c-0.4-0.4-0.7-0.6-1-0.6h-8.5c-0.5,0-0.9-0.2-1.3-0.7s-0.6-0.9-0.6-1.3V16
		c0-0.4,0.2-0.9,0.7-1.4c0.4-0.5,0.9-0.7,1.3-0.7h43c0.4,0,0.9,0.2,1.3,0.7c0.4,0.5,0.7,0.9,0.7,1.4v9.6c0,0.4-0.2,0.8-0.6,1.3
		c-0.4,0.5-0.8,0.7-1.3,0.7h-15.3c-0.3,0-0.7,0.2-1,0.6c-0.3,0.4-0.5,0.8-0.6,1.2v13.6c0,0.3,0.1,0.6,0.3,1c0.2,0.4,0.5,0.7,0.8,1.1
		c0.3,0.4,0.7,0.7,1,1c0.4,0.3,0.7,0.4,1,0.5h6.7c0.4,0,0.9,0.3,1.3,0.8c0.4,0.6,0.6,1.1,0.6,1.5v9.4c0,0.3-0.2,0.7-0.6,1.2
		c-0.4,0.6-0.8,0.8-1,0.8h-13.8c-0.9,0-2.1-0.4-3.5-1.1c-1.4-0.7-2.8-1.7-4.1-2.9c-1.3-1.2-2.4-2.7-3.4-4.4
		c-0.9-1.7-1.4-3.5-1.4-5.4v-17C811,29,810.8,28.6,810.4,28.2z"/>
	<path class="st3" d="M915.9,43.5c0.2,0.1,0.3,0.2,0.5,0.2h21.3c0.6,0,1.1,0.2,1.7,0.5c0.6,0.4,1.1,0.8,1.6,1.4
		c0.5,0.6,0.9,1.1,1.2,1.7c0.3,0.6,0.5,1.1,0.5,1.6v9.4c0,0.3-0.2,0.7-0.5,1.2c-0.3,0.6-0.7,1.1-1.2,1.7c-0.5,0.6-1,1-1.6,1.5
		c-0.6,0.4-1,0.6-1.4,0.6H909c-1.2,0-2.7-0.4-4.5-1.3c-1.8-0.9-3.5-2-5.1-3.5c-1.7-1.5-3.1-3.3-4.2-5.3c-1.2-2-1.7-4.3-1.7-6.6V16
		c0-0.6,0.1-1.1,0.4-1.7c0.3-0.6,0.6-1.1,1.1-1.6c0.5-0.5,1-0.9,1.6-1.2c0.6-0.3,1.2-0.5,1.9-0.5h12.3c0.6,0,1.1,0.2,1.7,0.5
		c0.6,0.3,1.1,0.7,1.6,1.2c0.5,0.5,0.9,1,1.2,1.6c0.3,0.6,0.5,1.1,0.5,1.7v27.1C915.6,43.2,915.7,43.3,915.9,43.5z M913.4,13.3
		c-0.8-0.9-1.7-1.3-2.7-1.3h-12.3c-1,0-1.9,0.4-2.7,1.3c-0.8,0.9-1.2,1.7-1.2,2.6v30.5c0,2.2,0.5,4.3,1.6,6.2c1.1,1.9,2.4,3.6,3.9,5
		c1.5,1.4,3.2,2.5,4.8,3.3c1.7,0.8,3.1,1.2,4.2,1.2h28.9c0.3,0,0.7-0.2,1.1-0.5c0.4-0.3,0.8-0.7,1.2-1.1c0.4-0.4,0.7-0.8,1-1.3
		c0.3-0.4,0.4-0.8,0.4-1v-9.4c0-0.4-0.1-0.8-0.3-1.3c-0.2-0.5-0.5-1-0.9-1.4c-0.4-0.4-0.8-0.8-1.2-1c-0.4-0.3-0.9-0.4-1.3-0.4h-21.4
		c-0.3-0.1-0.6-0.3-1-0.7c-0.4-0.4-0.6-0.7-0.6-1V16C914.6,15.1,914.2,14.2,913.4,13.3z M913,44.1c0.2,0.4,0.6,0.8,0.9,1.1
		c0.4,0.4,0.7,0.7,1.1,1c0.4,0.3,0.7,0.4,1,0.4h21.7c0.5,0,0.9,0.3,1.3,0.8c0.4,0.6,0.5,1.1,0.5,1.5v9.4c0,0.3-0.2,0.7-0.6,1.2
		c-0.4,0.6-0.8,0.8-1,0.8H909c-1,0-2.2-0.4-3.7-1.1c-1.4-0.7-2.8-1.7-4.1-2.9c-1.3-1.2-2.5-2.7-3.4-4.4c-0.9-1.7-1.4-3.5-1.4-5.4V16
		c0-0.4,0.2-0.9,0.7-1.4c0.4-0.5,0.9-0.7,1.3-0.7h12.3c0.4,0,0.9,0.2,1.3,0.7c0.4,0.5,0.7,0.9,0.7,1.4v27.1
		C912.6,43.4,912.8,43.7,913,44.1z"/>
	<path class="st3" d="M1029.6,36.9c-0.6-0.4-1.1-0.8-1.5-1.3c-0.4-0.5-0.8-1.1-1-1.8c-0.3-0.7-0.4-1.3-0.4-1.9v-1.3h-17.3v12.4
		c0,0.1,0.1,0.3,0.2,0.5c0.1,0.2,0.3,0.3,0.4,0.3h33.9c0.5,0,1,0.2,1.6,0.5c0.6,0.3,1.1,0.7,1.6,1.2c0.5,0.5,0.9,1,1.2,1.6
		c0.3,0.6,0.5,1.1,0.5,1.6v9.6c0,0.6-0.2,1.1-0.5,1.7c-0.3,0.6-0.7,1.1-1.2,1.6c-0.5,0.5-1,0.9-1.6,1.2c-0.6,0.3-1.2,0.5-1.7,0.5
		h-41.1c-1.2,0-2.7-0.4-4.5-1.3c-1.8-0.9-3.5-2-5.1-3.6c-1.7-1.5-3.1-3.3-4.2-5.4c-1.2-2-1.7-4.3-1.7-6.6V16c0-0.6,0.1-1.1,0.4-1.7
		c0.3-0.6,0.7-1.1,1.1-1.6c0.5-0.5,1-0.9,1.6-1.2c0.6-0.3,1.2-0.5,1.9-0.5h51.7c0.6,0,1.1,0.2,1.7,0.5c0.6,0.3,1.1,0.7,1.6,1.2
		c0.5,0.5,0.9,1,1.2,1.6c0.3,0.6,0.5,1.1,0.5,1.7v16c0,1.5-0.5,2.8-1.6,3.9c-1.1,1.1-2.2,1.6-3.4,1.6h-12.2
		C1030.8,37.4,1030.2,37.3,1029.6,36.9z M1046.4,35c0.9-0.9,1.3-1.9,1.3-3V16c0-0.4-0.1-0.9-0.3-1.4c-0.2-0.5-0.5-0.9-0.9-1.2
		c-0.4-0.4-0.8-0.7-1.2-0.9c-0.4-0.2-0.9-0.4-1.4-0.4h-51.7c-1,0-1.9,0.4-2.7,1.3c-0.8,0.9-1.2,1.7-1.2,2.6v30.4
		c0,2.3,0.5,4.4,1.6,6.3c1.1,1.9,2.4,3.6,3.9,5c1.5,1.4,3.2,2.5,4.8,3.3c1.7,0.8,3,1.2,4.1,1.2h41.1c0.5,0,1-0.1,1.4-0.4
		c0.4-0.2,0.9-0.6,1.2-0.9c0.4-0.4,0.7-0.8,0.9-1.2c0.2-0.5,0.3-0.9,0.3-1.4v-9.6c0-0.4-0.1-0.8-0.4-1.3c-0.2-0.5-0.6-0.9-1-1.3
		c-0.4-0.4-0.8-0.7-1.3-1c-0.5-0.2-0.9-0.4-1.3-0.4h-33.9c-0.3,0-0.6-0.2-1-0.7c-0.4-0.5-0.6-0.9-0.6-1.1V29.5h19.5v2.4
		c0,1,0.4,2,1.1,3c0.7,1,1.6,1.5,2.7,1.5h12.2C1044.7,36.4,1045.6,35.9,1046.4,35z M1029.2,28.2c-0.3-0.2-0.6-0.4-0.8-0.5h-20.7
		c-0.3,0-0.6,0.1-0.9,0.4c-0.3,0.2-0.4,0.5-0.5,0.8v14.1c0,0.3,0.1,0.6,0.4,1c0.3,0.4,0.6,0.8,1,1.2c0.4,0.4,0.8,0.7,1.2,1
		c0.4,0.3,0.8,0.4,1,0.4h33.9c0.4,0,0.9,0.2,1.3,0.7c0.4,0.5,0.7,0.9,0.7,1.3v9.6c0,0.4-0.2,0.9-0.7,1.4c-0.4,0.5-0.9,0.7-1.3,0.7
		h-41.1c-1,0-2.2-0.4-3.7-1.1c-1.4-0.7-2.8-1.7-4.1-2.9c-1.3-1.2-2.5-2.7-3.4-4.4c-0.9-1.7-1.4-3.5-1.4-5.5V16
		c0-0.4,0.2-0.9,0.6-1.4c0.4-0.5,0.9-0.7,1.5-0.7h51.7c0.4,0,0.9,0.2,1.3,0.7c0.4,0.5,0.7,0.9,0.7,1.4v16c0,0.7-0.2,1.2-0.7,1.7
		c-0.5,0.5-0.9,0.7-1.4,0.7h-12.2c-0.6,0-1.1-0.3-1.4-0.9c-0.3-0.6-0.5-1.1-0.5-1.7V29C1029.6,28.7,1029.5,28.4,1029.2,28.2z"/>
	<path class="st3" d="M1155,46.5c0,2.4-0.6,4.6-1.7,6.6c-1.2,2-2.6,3.8-4.2,5.3c-1.7,1.5-3.4,2.7-5.1,3.5c-1.8,0.9-3.3,1.3-4.5,1.3
		h-30.6c-1.2,0-2.7-0.4-4.5-1.3c-1.8-0.9-3.5-2-5.1-3.5c-1.6-1.5-3-3.3-4.2-5.3c-1.2-2-1.7-4.3-1.7-6.6V16c0-0.6,0.1-1.1,0.4-1.7
		c0.3-0.6,0.7-1.1,1.1-1.6c0.5-0.5,1-0.9,1.6-1.2c0.6-0.3,1.2-0.5,1.9-0.5h51.7c0.6,0,1.1,0.2,1.7,0.5c0.6,0.3,1.1,0.7,1.6,1.2
		c0.5,0.5,0.9,1,1.2,1.6c0.3,0.6,0.5,1.1,0.5,1.7V46.5z M1153.9,16c0-0.4-0.1-0.9-0.3-1.4c-0.2-0.5-0.5-0.9-0.9-1.2
		c-0.4-0.4-0.8-0.7-1.2-0.9c-0.4-0.2-0.9-0.4-1.4-0.4h-51.7c-1,0-1.9,0.4-2.7,1.3c-0.8,0.9-1.2,1.7-1.2,2.6v30.5
		c0,2.2,0.5,4.3,1.6,6.2c1.1,1.9,2.4,3.6,3.9,5c1.5,1.4,3.1,2.5,4.8,3.3c1.7,0.8,3,1.2,4.1,1.2h30.6c1.2,0,2.6-0.4,4.2-1.2
		c1.6-0.8,3.2-1.9,4.8-3.3c1.5-1.4,2.9-3.1,3.9-5c1.1-1.9,1.6-4,1.6-6.2V16z M1152,46.5c0,1.9-0.5,3.7-1.4,5.4
		c-0.9,1.7-2.1,3.2-3.4,4.4c-1.3,1.2-2.7,2.2-4.1,2.9c-1.4,0.7-2.7,1.1-3.7,1.1h-30.6c-0.9,0-2.1-0.4-3.6-1.1
		c-1.4-0.7-2.8-1.7-4.1-2.9c-1.3-1.2-2.5-2.7-3.4-4.4c-0.9-1.7-1.4-3.5-1.4-5.4V16c0-0.4,0.2-0.9,0.6-1.4c0.4-0.5,0.9-0.7,1.5-0.7
		h51.7c0.4,0,0.9,0.2,1.3,0.7c0.4,0.5,0.7,0.9,0.7,1.4V46.5z M1112.4,43.1c0,0.3,0.1,0.6,0.4,1c0.2,0.4,0.6,0.8,0.9,1.1
		c0.4,0.4,0.7,0.7,1.1,1c0.4,0.3,0.7,0.4,1.1,0.4h16.5c0.3,0,0.7-0.1,1-0.4c0.4-0.2,0.7-0.5,1-0.9c0.3-0.3,0.6-0.7,0.9-1
		c0.2-0.4,0.4-0.7,0.5-1V28.9c-0.1-0.3-0.2-0.6-0.5-0.8c-0.3-0.3-0.6-0.4-0.8-0.4h-20.7c-0.3,0-0.7,0.1-1,0.4
		c-0.3,0.3-0.5,0.6-0.5,0.9V43.1z M1133.9,43.1c-0.1,0.3-0.3,0.6-0.6,1c-0.3,0.4-0.6,0.6-0.9,0.6h-16.5c-0.2,0-0.5-0.2-0.9-0.7
		c-0.4-0.4-0.6-0.8-0.6-1V29.5h19.5V43.1z M1132.4,43.7c0.1,0,0.1-0.1,0.2-0.2c0.1-0.2,0.2-0.3,0.2-0.5V30.6h-17.3v12.5
		c0,0.4,0.1,0.6,0.4,0.6H1132.4z"/>
	<path class="st3" d="M1246.5,11.4c0.6,0.3,1.1,0.7,1.6,1.2c0.5,0.5,0.9,1,1.2,1.6c0.3,0.6,0.5,1.1,0.5,1.7v9.6c0,0.5-0.2,1-0.5,1.6
		c-0.3,0.6-0.7,1.1-1.2,1.6c-0.5,0.5-1,0.9-1.6,1.2c-0.6,0.3-1.2,0.5-1.7,0.5h-8.9v13.1h8.9c0.6,0,1.1,0.2,1.7,0.5
		c0.6,0.3,1.1,0.7,1.6,1.2c0.5,0.5,0.9,1,1.2,1.6c0.3,0.6,0.5,1.1,0.5,1.6v9.6c0,0.6-0.2,1.1-0.5,1.7c-0.3,0.6-0.7,1.1-1.2,1.6
		c-0.5,0.5-1,0.9-1.6,1.2c-0.6,0.3-1.2,0.5-1.8,0.5h-40c-0.7,0-1.3-0.2-1.9-0.5c-0.6-0.3-1.2-0.7-1.7-1.2c-0.5-0.5-0.8-1-1.1-1.6
		c-0.3-0.6-0.4-1.1-0.4-1.7v-9.6c0-0.5,0.2-1,0.5-1.6c0.3-0.6,0.7-1.1,1.2-1.6c0.5-0.5,1-0.9,1.6-1.2c0.6-0.3,1.2-0.5,1.8-0.5h8.7
		V30.6h-8.7c-0.6,0-1.2-0.2-1.8-0.5c-0.6-0.3-1.1-0.7-1.6-1.2c-0.5-0.5-0.9-1-1.2-1.6c-0.3-0.6-0.5-1.1-0.5-1.6V16
		c0-0.6,0.1-1.1,0.4-1.7c0.3-0.6,0.6-1.1,1.1-1.6c0.5-0.5,1-0.9,1.7-1.2c0.6-0.3,1.3-0.5,1.9-0.5h40
		C1245.3,11,1245.9,11.1,1246.5,11.4z M1203.1,45.1c-0.5,0.2-0.9,0.6-1.2,1c-0.4,0.4-0.7,0.8-0.9,1.3c-0.2,0.5-0.4,0.9-0.4,1.3v9.6
		c0,0.9,0.4,1.8,1.2,2.6c0.8,0.9,1.8,1.3,2.8,1.3h40c1,0,1.9-0.4,2.7-1.3c0.8-0.9,1.2-1.7,1.2-2.6v-9.6c0-0.4-0.1-0.8-0.4-1.3
		c-0.2-0.5-0.6-0.9-0.9-1.3c-0.4-0.4-0.8-0.7-1.2-1c-0.5-0.2-0.9-0.4-1.4-0.4h-10v-15c-0.1-0.1-0.1-0.1-0.2-0.1v-0.2h10.2
		c0.4,0,0.9-0.1,1.4-0.4c0.5-0.2,0.9-0.6,1.2-1c0.4-0.4,0.7-0.8,0.9-1.2c0.2-0.4,0.4-0.9,0.4-1.3V16c0-0.9-0.4-1.8-1.2-2.6
		c-0.8-0.9-1.7-1.3-2.7-1.3h-40c-1,0-2,0.4-2.8,1.3c-0.8,0.9-1.2,1.7-1.2,2.6v9.6c0,0.4,0.1,0.9,0.4,1.3c0.2,0.4,0.6,0.9,0.9,1.2
		c0.4,0.4,0.8,0.7,1.2,1c0.5,0.2,1,0.4,1.5,0.4h10.3c-0.2,0.2-0.3,0.2-0.5,0.2v14.6h0.1c0,0.2,0,0.2,0.1,0.2v0.2h-10
		C1204.1,44.7,1203.6,44.9,1203.1,45.1z M1246.1,14.6c0.4,0.5,0.6,0.9,0.6,1.4v9.6c0,0.4-0.2,0.8-0.6,1.3s-0.8,0.7-1.3,0.7h-10.3
		c-0.3,0-0.7,0.2-1,0.6c-0.3,0.4-0.5,0.8-0.6,1.2v15.3c0.1,0.4,0.2,0.8,0.6,1.2c0.3,0.4,0.7,0.5,1,0.5h10.3c0.4,0,0.9,0.2,1.3,0.7
		c0.4,0.5,0.6,0.9,0.6,1.3v9.6c0,0.4-0.2,0.9-0.6,1.4c-0.4,0.5-0.9,0.7-1.4,0.7h-40c-0.6,0-1-0.2-1.5-0.7c-0.4-0.5-0.6-0.9-0.6-1.4
		v-9.6c0-0.4,0.2-0.8,0.7-1.3c0.4-0.5,0.9-0.7,1.3-0.7h10.1c0.3,0,0.6-0.2,1-0.5c0.4-0.4,0.6-0.8,0.7-1.2V29.5
		c-0.1-0.4-0.3-0.9-0.6-1.2c-0.4-0.4-0.7-0.6-1-0.6h-10.1c-0.4,0-0.9-0.2-1.3-0.7c-0.4-0.5-0.7-0.9-0.7-1.3V16
		c0-0.4,0.2-0.9,0.6-1.4c0.4-0.5,0.9-0.7,1.5-0.7h40C1245.2,13.9,1245.7,14.1,1246.1,14.6z"/>
	<path class="st3" d="M1317.4,11.6c1,0.4,1.9,1.1,2.5,2l15.3,17.3V16c0-0.6,0.1-1.1,0.4-1.7c0.3-0.6,0.7-1.1,1.1-1.6
		c0.5-0.5,1-0.9,1.6-1.2c0.6-0.3,1.2-0.5,1.8-0.5h12.3c0.6,0,1.1,0.2,1.7,0.5c0.6,0.3,1.1,0.7,1.6,1.2c0.5,0.5,0.9,1,1.2,1.6
		c0.3,0.6,0.5,1.1,0.5,1.7v42.1c0,1.1-0.3,2-1,2.9c-0.6,0.9-1.4,1.6-2.3,2.2h-16.8c-1.1,0-2.1-0.2-3.2-0.5c-1.1-0.3-2-1.2-2.6-2.5
		v0.1l-15.1-16.9v14.4c0,1.5-0.5,2.8-1.6,3.9c-1.1,1.1-2.2,1.6-3.4,1.6h-12c-1.2,0-2.4-0.5-3.5-1.6c-1.1-1-1.7-2.3-1.7-3.9V16.1
		c0-0.8,0.3-1.8,1-2.9c0.7-1.1,1.6-1.9,2.7-2.2h16.3C1315.3,11,1316.3,11.2,1317.4,11.6z M1319,14.3l-0.2-0.2
		c-0.6-0.8-1.3-1.3-2.1-1.6c-0.9-0.3-1.7-0.5-2.4-0.5H1298c-0.8,0.3-1.4,0.8-2,1.7c-0.5,0.8-0.8,1.6-0.8,2.4v41.6
		c0,1.1,0.4,2.1,1.3,3c0.9,0.9,1.8,1.4,2.8,1.4h12c0.9,0,1.8-0.5,2.7-1.4c0.9-0.9,1.3-1.9,1.3-3V40.4l17,19.2
		c0.6,1.1,1.4,1.8,2.3,2.1c0.9,0.3,1.8,0.4,2.7,0.4h16.6c0.6-0.4,1.2-1,1.7-1.7c0.5-0.7,0.7-1.5,0.7-2.4V16c0-0.4-0.1-0.9-0.3-1.4
		c-0.2-0.5-0.5-0.9-0.9-1.2c-0.4-0.4-0.8-0.7-1.2-0.9c-0.4-0.2-0.9-0.4-1.4-0.4h-12.3c-1,0-1.9,0.4-2.7,1.3
		c-0.8,0.9-1.2,1.7-1.2,2.6v17.8L1319,14.3z M1317.4,15.3l20.7,23.6V16c0-0.4,0.2-0.9,0.6-1.4c0.4-0.5,0.9-0.7,1.4-0.7h12.3
		c0.4,0,0.9,0.2,1.3,0.7c0.4,0.5,0.7,0.9,0.7,1.4v42.1c0,0.5-0.1,0.9-0.3,1.3c-0.2,0.4-0.5,0.7-0.7,0.9h-16c-0.7,0-1.3-0.1-1.9-0.2
		s-1-0.6-1.3-1.2v0.1l-20.7-23.5v22.3c0,0.7-0.2,1.3-0.7,1.8c-0.5,0.5-0.9,0.8-1.4,0.8h-12c-0.6,0-1-0.3-1.5-0.8
		c-0.4-0.5-0.6-1.1-0.6-1.8V16.1c0-0.4,0.1-0.9,0.3-1.3c0.2-0.4,0.5-0.7,0.8-0.9h15.9C1315.7,13.9,1316.7,14.4,1317.4,15.3z"/>
</g>
</svg>
