<?xml version="1.0" encoding="utf-8"?>
<!-- Generator: Adobe Illustrator 23.0.1, SVG Export Plug-In . SVG Version: 6.00 Build 0)  -->
<svg version="1.1" id="Layer_1" xmlns="http://www.w3.org/2000/svg" xmlns:xlink="http://www.w3.org/1999/xlink" x="0px" y="0px"
	 viewBox="0 0 365.6 365.6" style="enable-background:new 0 0 365.6 365.6;" xml:space="preserve">
<style type="text/css">
	.st0{fill:#FFFFFF;}
</style>
<g>
	<path class="st0" d="M22,359.8V5.8h321.6v354H22z M331.6,347.8v-330H35.2v330H331.6z M245.5,141.4h-43.1
		c-4.1-10.2-9.1-17.9-15-23.2c-0.7-0.5-2-1.3-4-2.3c-2-1-3.8-1.9-5.6-2.6c-4.5-1.7-8.6-2.6-12.4-2.6c-6.7,0-12.8,2-18.3,5.9
		c-13.4,10.5-20.1,30.6-20.1,60.2c0,13.1,1.1,22.9,3.4,29.4c2.6,9.6,5.8,17.7,9.8,24.3c5.5,9.8,13.8,14.7,24.8,14.7
		c5.3,0,10.2-1.1,14.6-3.2c4.4-2.2,8.6-5.6,12.5-10.5c5-7.2,8.3-15.7,9.8-25.3h-44.2v-36H244v108h-28.6l-3.3-17.8
		c-2.6,3.4-5.3,6.4-8.2,8.8c-2.9,2.4-6.9,5-11.8,7.7c-10.1,3.3-18.8,4.9-26,4.9c-3.4,0-6.7-0.1-9.9-0.3c-3.2-0.2-6.2-0.5-9.1-1
		c-2.9-0.5-5.5-1.1-7.6-1.8c-2.1-0.7-5-2.1-8.6-4.1c-8.6-4.1-16.6-10.6-23.9-19.4c-7.4-8.8-13.2-20.5-17.5-34.9
		c-3.1-13.2-4.6-27.4-4.6-42.5c0-26.4,5.4-49.6,16.2-69.5C114.8,84.8,136.5,73,166,73h4.4h5.2c2.9,0,6.8,0.6,11.6,1.8
		c17.6,3.3,31.7,13.1,42.6,29.4c1.4,1.7,2.9,4.2,4.5,7.3c1.6,3.1,3,6.1,4,8.8C240.8,126.2,243.2,133.3,245.5,141.4z M313.3,281.5
		c0,5-1.5,9.5-4.6,13.6l-2.6,3.3l-3.9,3.6l-3.6,2.6l-2.6,1.8l-2.6,1.8l-3.3,2.6c-2.1,1.2-3.7,2.7-4.9,4.4l-1.8,1.5h30.1v12H268v-2.2
		c0,0,3.6-16.2,12.1-23.4l7.4-5.4l4.6-3.9l3.6-3.3c2.5-2.9,3.8-6.2,3.8-9.8c0-6.5-2.9-9.8-8.7-9.8c-3.3,0-5.7,1.5-7.2,4.4l-2.3,3.9
		v5H268V282c-0.7-3.1-0.1-5.9,0.9-8.5c0.3-1.4,0.9-2.6,1.5-3.7c0.7-1.1,1.7-2.5,3.1-4.2c3.9-3.9,9.4-5.9,16.4-5.9
		c10.8,0,17.9,4.1,21.3,12.3c0.7,1.9,1.2,3.5,1.5,4.7C313.1,278,313.3,279.6,313.3,281.5z"/>
</g>
</svg>
