<?xml version="1.0" encoding="utf-8"?>
<!-- Generator: Adobe Illustrator 23.0.1, SVG Export Plug-In . SVG Version: 6.00 Build 0)  -->
<svg version="1.1" id="Layer_1" xmlns="http://www.w3.org/2000/svg" xmlns:xlink="http://www.w3.org/1999/xlink" x="0px" y="0px"
	 viewBox="0 0 192 84" style="enable-background:new 0 0 192 84;" xml:space="preserve">
<style type="text/css">
	.st0{fill:#FCFCFC;}
</style>
<g>
	<g>
		<path class="st0" d="M28.7,17.8C14.9,17.8,3.6,29,3.6,42.9S14.9,68,28.7,68s25.1-11.3,25.1-25.1S42.5,17.8,28.7,17.8z M17.7,31
			c0-6.1,5-11,11-11c6.1,0,11,5,11,11s-5,11-11,11C22.6,42,17.7,37.1,17.7,31z M5.7,42.9c0-9.4,5.7-17.5,13.8-21.1
			c-2.3,2.4-3.8,5.6-3.8,9.2c0,4.7,2.6,8.9,6.3,11.2c-4.4,2.1-6.1,4.6-5.6,8.5c0.5,3.9,3.1,6.2,7,6.3c3.4,0.1,6.8,0,10.2,0
			c1.7,0,3.1,0.4,4.3,1.7c1.6,1.8,1.8,3.6,0.8,4.9c-3,1.5-6.4,2.3-10,2.3C16,65.9,5.7,55.6,5.7,42.9z M41,62.4
			c-0.1-0.5-0.3-1-0.4-1.5c-0.8-3.3-3-5.2-6.4-5.2c-3.4-0.1-6.8,0-10.2,0c-3.9,0-6.1-2.2-6.1-6c0.1-3.7,2.2-5.7,6-5.8
			c0.7,0,1.4,0,2.2,0c0.9,0.2,1.7,0.3,2.6,0.3c7.2,0,13.1-5.9,13.1-13.1c0-3.6-1.4-6.8-3.8-9.2c8.1,3.6,13.8,11.7,13.8,21.1
			C51.8,51.1,47.5,58.3,41,62.4z"/>
	</g>
	<g>
		<path class="st0" d="M70.8,55c-8,0-9.9-1.8-9.9-10.8v-2.7c0-8.9,1.9-10.7,9.9-10.7h0.7c7.2,0,9.3,1.6,9.3,6.9v0.7h-4.4v-0.5
			c0-2.8-0.8-3.6-5-3.6H71c-4.5,0-5.4,0.9-5.4,7.2v2.7c0,6.3,0.8,7.2,5.4,7.2h0.5c4.3,0,5.2-0.8,5.2-4.2v-1.5h-6.2v-3.3h10.5v4.3
			c0,6.8-1.9,8.3-9.6,8.3H70.8z"/>
		<path class="st0" d="M103.6,54.8h-4.5v-3.3c0-4.5-0.6-5.1-4.8-5.1h-5v8.4h-4.5V31h10.9c6.5,0,7.9,1.6,7.9,6.9v0.7
			c0,3.7-1,5.4-3.4,5.8v0.1c2.8,0.5,3.4,1.6,3.4,6.2V54.8z M95.3,43c3,0,3.8-0.9,3.8-3.8v-0.8c0-3.5-0.8-4-4.4-4h-5.4V43H95.3z"/>
		<path class="st0" d="M126.3,48.1c0,5.5-1.6,6.9-8.4,6.9H117c-8.5,0-9.7-1.1-9.7-6.6v-1.1h4.3v0.8c0,2.9,0.8,3.4,5.1,3.4h0.7
			c4,0,4.7-0.5,4.7-3.3v-0.5c0-2.4-0.6-3-5.8-3.4c-7.4-0.6-8.6-2.1-8.6-6.8v-0.6c0-4.7,1.6-6.4,8.4-6.4h0.9c7.7,0,9,1.5,9,6.4v0.9
			h-4.2v-0.7c0-2.5-0.7-3.2-4.6-3.2h-0.7c-3.7,0-4.4,0.6-4.4,3v0.5c0,2.2,0.5,2.7,5.8,3.1c7.5,0.6,8.7,1.9,8.7,6.8V48.1z"/>
		<path class="st0" d="M134.6,54.8h-4.5V31h9.8c7.2,0,8.8,1.3,8.8,7.5v1.2c0,6.2-1.9,7.5-8.6,7.5h-5.6V54.8z M139.6,43.6
			c4.1,0,4.7-0.8,4.7-3.9v-1.3c0-3.3-0.7-4-4.7-4h-5v9.2H139.6z"/>
		<path class="st0" d="M171.2,54.8h-4.8l-1.6-5h-10.1l-1.6,5h-4.7l8.2-23.8h6.4L171.2,54.8z M163.7,46.4l-3.9-12.1h-0.2l-4,12.1
			H163.7z"/>
		<path class="st0" d="M181.5,54.8h-4.5v-8L168.5,31h4.9l5.8,11.7h0.1l5.6-11.7h4.9l-8.4,15.8V54.8z"/>
	</g>
</g>
</svg>
