<svg xmlns="http://www.w3.org/2000/svg" xmlns:xlink="http://www.w3.org/1999/xlink" viewBox="0 0 254.21 254.21"><defs><style>.cls-1{fill:#fff;}.cls-2{fill:url(#linear-gradient);}.cls-3{fill:url(#linear-gradient-2);}.cls-4{fill:url(#linear-gradient-3);}.cls-5{fill:url(#linear-gradient-4);}</style><linearGradient id="linear-gradient" x1="236.21" y1="198.17" x2="56.04" y2="18" gradientUnits="userSpaceOnUse"><stop offset="0" stop-color="#18839a"/><stop offset="1" stop-color="#1fa8c7"/></linearGradient><linearGradient id="linear-gradient-2" x1="216.87" y1="217.5" x2="36.7" y2="37.33" xlink:href="#linear-gradient"/><linearGradient id="linear-gradient-3" x1="214.97" y1="219.41" x2="34.79" y2="39.24" xlink:href="#linear-gradient"/><linearGradient id="linear-gradient-4" x1="163.78" y1="270.59" x2="-16.39" y2="90.42" xlink:href="#linear-gradient"/></defs><title>bitcoin</title><g id="Layer_2" data-name="Layer 2"><g id="Layer_1-2" data-name="Layer 1"><path class="cls-1" d="M169.59,205.41q-9.74-1.59-42.57-2.47-17.86-.52-22.32-1.24c-5.11-.73-8.53-1.94-10.29-3.63a7.28,7.28,0,0,1-2.63-5.2c0-2.11.83-4.65,2.48-7.65s4.82-6.5,9.5-10.5A80,80,0,0,0,125.88,178q26.25,0,41.84-14.53t15.59-35q0-16.29-7.42-27.29H198l7.21-20.87H203a12.89,12.89,0,0,1-3.68,4.19,11.9,11.9,0,0,1-4.72,2,58.48,58.48,0,0,1-9.12.48h-21l-.14-.17q3.85-3.58,18.51-19.57,10-10.9,14.46-20.67a29.17,29.17,0,0,0,2.89-12.42A20.21,20.21,0,0,0,193.53,19c-.32-.31-.65-.59-1-.88q-3.9-2.34-8-4.41a25.68,25.68,0,0,0-7.63-1.1,21.6,21.6,0,0,0-15.56,6q-6.23,6-7.74,17.12h2.23a20.43,20.43,0,0,1,7.07-10.32,17.76,17.76,0,0,1,10.79-3.52,15.16,15.16,0,0,1,11.37,5,17.75,17.75,0,0,1,4.75,12.76q0,10.18-8.66,22.47-6.37,9-19.57,22-15-9.48-35.16-9.49-25.5,0-41.84,15.63t-16.34,37.3a48.77,48.77,0,0,0,7.16,25.92A48.08,48.08,0,0,0,96,171.65Q79.58,185.38,75,192.87T70.51,206a13.06,13.06,0,0,0,3.42,8.85q3.42,3.91,11.71,8.86-14,14.47-16,16.83,5.33,2.7,10.92,4.91A35.5,35.5,0,0,1,83,240,78.07,78.07,0,0,1,94.4,225q19.27,2.74,55.13,3.71,24.54.63,32.83,4.11a13.27,13.27,0,0,1,6.55,5.4,126.11,126.11,0,0,0,12.28-7.8,29.31,29.31,0,0,0-7.93-14Q184.41,207.49,169.59,205.41ZM103.92,91.84q8-9.37,19.69-9.38,12.69,0,20.8,10.49,11,14.31,11,39.58,0,19.4-7.78,28.45A25,25,0,0,1,127.74,170q-12.7,0-21-10.49Q96,145.72,96,120.61,96,101.22,103.92,91.84Z"/><path class="cls-2" d="M254.21,127.1a127,127,0,0,0-61.67-109c.34.29.67.57,1,.88a20.21,20.21,0,0,1,6.65,15.07,29.17,29.17,0,0,1-2.89,12.42q-4.46,9.76-14.46,20.67-14.67,16-18.51,19.57l.14.17h21a58.48,58.48,0,0,0,9.12-.48,11.9,11.9,0,0,0,4.72-2A12.89,12.89,0,0,0,203,80.27h2.23L198,101.14h-22.1q7.41,11,7.42,27.29,0,20.44-15.59,35T125.88,178a80,80,0,0,1-22.12-3.23q-7,6-9.5,10.5c-1.65,3-2.48,5.54-2.48,7.65a7.28,7.28,0,0,0,2.63,5.2c1.76,1.69,5.18,2.9,10.29,3.63q4.45.7,22.32,1.24,32.83.88,42.57,2.47,14.82,2.07,23.67,11a29.31,29.31,0,0,1,7.93,14A126.9,126.9,0,0,0,254.21,127.1Z"/><path class="cls-3" d="M127.74,170A25,25,0,0,0,147.58,161q7.78-9.06,7.78-28.45,0-25.27-11-39.58-8.1-10.49-20.8-10.49-11.74,0-19.69,9.38T96,120.61q0,25.11,10.79,38.94Q115,170,127.74,170Z"/><path class="cls-4" d="M73.93,214.81A13.06,13.06,0,0,1,70.51,206q0-5.58,4.53-13.09T96,171.65A48.08,48.08,0,0,1,75.44,153.4a48.77,48.77,0,0,1-7.16-25.92q0-21.67,16.34-37.3t41.84-15.63q20.19,0,35.16,9.49,13.19-12.9,19.57-22,8.66-12.29,8.66-22.47a17.75,17.75,0,0,0-4.75-12.76,15.16,15.16,0,0,0-11.37-5,17.76,17.76,0,0,0-10.79,3.52,20.43,20.43,0,0,0-7.07,10.32h-2.23q1.52-11.15,7.74-17.12a21.6,21.6,0,0,1,15.56-6,25.68,25.68,0,0,1,7.63,1.1A127.13,127.13,0,0,0,69.63,240.5q2.06-2.37,16-16.83Q77.36,218.72,73.93,214.81Z"/><path class="cls-5" d="M182.36,232.78q-8.28-3.48-32.83-4.11-35.85-1-55.13-3.71A78.07,78.07,0,0,0,83,240a35.5,35.5,0,0,0-2.46,5.42,127.32,127.32,0,0,0,108.36-7.23A13.27,13.27,0,0,0,182.36,232.78Z"/></g></g></svg>