<?xml version="1.0" encoding="utf-8"?>
<!-- Generator: Adobe Illustrator 23.0.1, SVG Export Plug-In . SVG Version: 6.00 Build 0)  -->
<svg version="1.1" id="GRS" xmlns="http://www.w3.org/2000/svg" xmlns:xlink="http://www.w3.org/1999/xlink" x="0px" y="0px"
	 viewBox="0 0 1024 1024" style="enable-background:new 0 0 1024 1024;" xml:space="preserve">
<style type="text/css">
	.st0{fill:#FFFFFF;}
</style>
<g>
	<path class="st0" d="M31,994V30h962v964H31z M960.6,957.2V58.3H64v898.9H960.6z"/>
</g>
<g>
	<path class="st0" d="M633.1,355H519.9c-10.8-26.5-23.8-46.7-39.1-60.6c-1.8-1.3-5.3-3.4-10.4-6.1c-5.2-2.7-10-4.9-14.5-6.7
		c-11.7-4.5-22.4-6.7-32.3-6.7c-17.5,0-33.5,5.2-47.8,15.5c-35,27.4-52.5,79.9-52.5,157.6c0,34.4,2.9,60.1,8.8,77.3
		c6.8,25.2,15.3,46.3,25.7,63.4c14.4,25.6,36.1,38.4,65,38.4c14,0,26.7-2.8,38.3-8.4c11.5-5.6,22.4-14.7,32.8-27.3
		c13.1-18.9,21.7-40.9,25.7-66H401.8v-94.9h227.9v284.6h-74.6l-8.7-45.8c-6.8,8.9-14,16.5-21.6,22.8c-7.7,6.3-18,13-31.1,20.1
		c-26.6,8.5-49.3,12.7-68.2,12.7c-9,0-17.7-0.2-26-0.7c-8.3-0.4-16.3-1.3-24-2.7c-7.7-1.4-14.3-2.9-19.9-4.7
		c-5.6-1.8-13.2-5.4-22.6-10.8c-22.5-10.8-43.5-27.8-62.8-51.1s-34.7-53.8-45.9-91.7c-8.1-34.7-12.2-71.9-12.2-111.6
		c0-69.4,14.2-130.3,42.5-182.6c36.4-61.8,93.4-92.7,170.8-92.7h12.2h13.5c7.6,0,17.7,1.6,30.2,4.8c45.7,8.6,82.6,34.3,110.8,76.9
		c3.6,4.5,7.5,10.9,11.7,19.1c4.3,8.2,7.7,15.9,10.4,23.1C621,315.3,627.2,333.7,633.1,355z"/>
	<path class="st0" d="M811.9,723c0,13-4.1,24.9-12.2,35.7l-6.8,8.8l-10.2,9.4l-9.5,6.7l-6.8,4.7l-6.8,4.7l-8.8,6.7
		c-5.4,3.1-9.7,7-12.9,11.4l-4.7,4h78.5v32.7H690.9v-6.1c0-22,11.1-42.4,33.3-61.3l19.3-14.1l12-10.1l9.3-8.8
		c6.7-7.6,10-16.2,10-25.6c0-17.1-7.6-25.6-22.7-25.6c-8.6,0-14.9,3.8-18.8,11.4l-4.4,10.1v13.4h-38.2v-6.1c0-8.2,1.3-15.7,4.1-22.5
		c0.9-3.6,2.2-6.9,4.1-9.9c1.8-2.9,4.5-6.7,8.1-11.2c10.4-10.4,24.8-15.7,43.3-15.7c28.4,0,47.1,10.8,56.1,32.3
		c1.8,4.9,3.1,9.1,4,12.5C811.5,713.9,811.9,718.1,811.9,723z"/>
</g>
</svg>
