<?xml version="1.0" encoding="utf-8"?>
<!-- Generator: Adobe Illustrator 23.0.1, SVG Export Plug-In . SVG Version: 6.00 Build 0)  -->
<svg version="1.1" id="GRS" xmlns="http://www.w3.org/2000/svg" xmlns:xlink="http://www.w3.org/1999/xlink" x="0px" y="0px"
	 viewBox="0 0 1024 1024" style="enable-background:new 0 0 1024 1024;" xml:space="preserve">
<style type="text/css">
	.st0{opacity:0.6;fill:#FFFFFF;enable-background:new    ;}
	.st1{fill:#FFFFFF;}
</style>
<g>
	<g>
		<path class="st0" d="M437.8,636.8c-0.7-0.9-1.5-1.8-2.3-2.8c-27-34.7-40.7-83.6-40.7-146.5c0-48.6,9.9-84.7,29.9-108.2
			c19.9-23.6,44.6-35.3,74-35.3c31.8,0,58,13.2,78.2,39.5c27.4,35.8,41.3,85.5,41.3,148.9l0,0c0-63.4-13.7-113-41.3-148.9
			c-20.3-26.3-46.4-39.5-78.2-39.5c-29.5,0-54.2,11.8-74,35.3c-19.9,23.6-29.9,59.6-29.9,108.2c0,63,13.5,111.8,40.7,146.5
			C436.3,635,437,635.9,437.8,636.8z"/>
		<path class="st0" d="M346.1,936.8c2.2-3.9,4.5-7.8,7.2-11.9C350.6,929,348.3,933,346.1,936.8C346.1,936.9,346.1,936.9,346.1,936.8
			C346.1,936.9,346.1,936.9,346.1,936.8z"/>
		<path class="st0" d="M439.9,886c-19-1.7-36-3.6-51-5.7c-0.4,0.4-0.8,0.8-1.1,1.2c0.4-0.4,0.8-0.8,1.1-1.2
			C403.9,882.4,421,884.3,439.9,886z"/>
		<path class="st0" d="M761.7,105c-0.8-0.8-1.6-1.5-2.5-2.3C760,103.4,760.8,104.1,761.7,105z"/>
		<path class="st0" d="M757.8,101.5c-0.4-0.4-0.9-0.8-1.3-1.1C756.8,100.7,757.4,101.1,757.8,101.5z"/>
		<path class="st0" d="M317.5,610.9c17.9,29.4,43.7,52.3,77.2,68.7l0,0C361.3,663.2,335.6,640.3,317.5,610.9
			c-17.9-29.4-26.9-62-26.9-97.5l0,0C290.6,549.1,299.6,581.5,317.5,610.9z"/>
		<path class="st0" d="M355.9,875.3L355.9,875.3c-20.8-12.4-35.4-23.6-44-33.3c-8.6-9.8-12.9-20.9-12.9-33.3l0,0
			c0,12.4,4.3,23.6,12.9,33.3C320.5,851.9,335.2,862.9,355.9,875.3z"/>
		<path class="st0" d="M805.9,335.8l-27.1,78.5L805.9,335.8z"/>
		<path class="st0" d="M440.3,886.1c0.8,0.1,1.7,0.1,2.6,0.2C442.1,886.2,441.2,886.1,440.3,886.1z"/>
		<path class="st0" d="M319.1,913.8c0-0.1,0.1-0.1,0.1-0.2C319.2,913.7,319.1,913.7,319.1,913.8z"/>
		<path class="st0" d="M720,909.6c0.7,0.3,1.3,0.6,2,0.9C721.3,910.2,720.6,909.9,720,909.6c-20.8-8.7-62-13.9-123.5-15.5
			c-56.2-1.5-104.3-3.9-144.3-7.2c39.9,3.3,88.1,5.6,144.3,7.2C657.9,895.8,699.2,900.9,720,909.6z"/>
		<path class="st0" d="M714.8,82.2c-0.3,0-0.6-0.1-0.9-0.1C714.1,82.1,714.4,82.2,714.8,82.2z"/>
		<path class="st0" d="M710.2,81.7c-0.3,0-0.7-0.1-1-0.1C709.5,81.6,709.8,81.7,710.2,81.7z"/>
		<path class="st0" d="M719.3,83c-0.2,0-0.5-0.1-0.7-0.1C718.7,82.9,719,82.9,719.3,83z"/>
		<path class="st0" d="M754.6,98.8c-0.3-0.2-0.6-0.4-0.9-0.7C754,98.4,754.3,98.6,754.6,98.8z"/>
		<path class="st0" d="M620.2,168c5.7-17.1,14.6-30,26.6-38.8c12-8.8,25.5-13.2,40.7-13.2c16.6,0,30.8,6.2,42.8,18.8
			c11.9,12.5,17.9,28.6,17.9,48l0,0c0-19.5-5.9-35.4-17.9-48c-11.9-12.5-26.2-18.8-42.8-18.8c-15.1,0-28.7,4.4-40.7,13.2
			C634.9,138,626,151,620.2,168h-8.4l0,0H620.2z"/>
		<path class="st0" d="M705.3,81.3c-0.3,0-0.6,0-1-0.1C704.7,81.3,705,81.3,705.3,81.3z"/>
		<path class="st0" d="M652,360L652,360c9.7-9,32.9-33.5,69.6-73.6c25.1-27.3,43.2-53.2,54.4-77.8c7.3-15.6,10.9-31.1,10.9-46.7
			c0-8.2-1.1-16-3.5-23.2c2.4,7.4,3.5,15.2,3.5,23.2c0,15.6-3.6,31.1-10.9,46.7c-11.2,24.5-29.3,50.4-54.4,77.8
			C685,326.6,661.7,351,652,360z"/>
		<path class="st0" d="M732,86.5L732,86.5L732,86.5z"/>
		<path class="st0" d="M723.6,84c-0.2,0-0.3-0.1-0.5-0.1C723.3,83.9,723.4,84,723.6,84z"/>
		<path class="st0" d="M727.9,85.1c-0.1,0-0.2-0.1-0.3-0.1C727.7,85.1,727.8,85.1,727.9,85.1z"/>
		<path class="st0" d="M777.9,869.5c0.1,0.1,0.2,0.3,0.2,0.4C778,869.7,778,869.6,777.9,869.5z"/>
		<path class="st0" d="M773.7,863.1C773.8,863.1,773.8,863.1,773.7,863.1C773.8,863.1,773.8,863.1,773.7,863.1z"/>
		<path class="st0" d="M771.2,859.6c0.2,0.2,0.3,0.5,0.5,0.7C771.6,860.2,771.4,859.9,771.2,859.6z"/>
		<path class="st0" d="M728,913.7c-0.5-0.3-1-0.6-1.5-0.8C727,913.1,727.4,913.4,728,913.7z"/>
		<path class="st0" d="M775.9,866.2c0.1,0.2,0.2,0.3,0.3,0.5C776.1,866.5,776,866.4,775.9,866.2z"/>
		<path class="st0" d="M726,912.6c-0.4-0.2-0.9-0.5-1.3-0.7C725.1,912.1,725.5,912.3,726,912.6z"/>
		<path class="st0" d="M768.9,856.8c0.1,0.2,0.2,0.3,0.4,0.5C769.2,857.1,769,857,768.9,856.8z"/>
		<path class="st0" d="M512,0C229.3,0,0,229.2,0,512c0,197.1,111.4,368.2,274.7,453.7c5.6-7.7,12.7-16.8,20-25.8
			c0.1-0.1,0.2-0.2,0.3-0.4C139.3,860.4,32.6,698.7,32.6,512C32.6,247.2,247.2,32.6,512,32.6c81,0,157.3,20.1,224.2,55.6
			c5.4,2.3,10.5,5.1,15.5,8.5C895,179.5,991.4,334.4,991.4,512c0,160.7-79.1,302.8-200.3,389.8c2.2,9.1,3.2,18.6,3.2,28.7
			c0,3-0.1,5.9-0.3,8.9c138.5-91.6,230-248.8,230-427.4C1024,229.2,794.7,0,512,0z"/>
		<path class="st0" d="M781.9,876.5c0-0.1-0.1-0.2-0.1-0.3C781.8,876.3,781.8,876.4,781.9,876.5z"/>
		<path class="st0" d="M331.4,900.9L331.4,900.9L331.4,900.9z"/>
		<path class="st0" d="M763.5,850.5c0.2,0.2,0.5,0.5,0.7,0.7C763.9,851,763.7,850.8,763.5,850.5z"/>
		<path class="st0" d="M766.1,853.4c0.2,0.2,0.4,0.4,0.5,0.6C766.5,853.8,766.3,853.6,766.1,853.4z"/>
		<path class="st0" d="M326,906.4c0.1-0.1,0.3-0.3,0.4-0.4C326.3,906.1,326.1,906.3,326,906.4z"/>
		<path class="st0" d="M728.3,913.9c7.6,4.6,13.2,10.2,16.9,17.1c-69,38.5-148.5,60.4-233.2,60.4c-62,0-121.2-11.8-175.6-33.2
			c0.8-2.5,1.7-4.9,2.8-7.4c-5.1,12.1-7.6,23.6-7.6,34.2c0,1.8,0.3,4.5,0.5,6.5c56,21,116.6,32.5,179.9,32.5
			c85.7,0,166.5-21.1,237.5-58.3c0.7-4,1.1-8,1.1-12.1C750.5,936,743.1,922.8,728.3,913.9z"/>
		<path class="st0" d="M323.7,909c0-0.1,0.1-0.1,0.1-0.2C323.8,908.9,323.7,908.9,323.7,909z"/>
		<path class="st0" d="M328.6,903.8c0.1-0.1,0.3-0.3,0.4-0.4C328.9,903.6,328.7,903.7,328.6,903.8z"/>
		<path class="st0" d="M342.2,944.2c0.2-0.5,0.5-0.9,0.7-1.4C342.7,943.2,342.5,943.7,342.2,944.2z"/>
		<path class="st0" d="M343.9,941c0.2-0.4,0.4-0.8,0.6-1.1C344.3,940.2,344.1,940.5,343.9,941z"/>
		<path class="st0" d="M339.5,950.3c0.3-0.6,0.5-1.2,0.8-1.8C340.1,949,339.8,949.7,339.5,950.3z"/>
		<path class="st0" d="M340.8,947.3c0.2-0.5,0.5-1.1,0.7-1.6C341.3,946.2,341.1,946.7,340.8,947.3z"/>
		<path class="st0" d="M724,911.6c-0.5-0.2-0.9-0.4-1.4-0.7C723,911.1,723.6,911.3,724,911.6z"/>
	</g>
	<path class="st1" d="M805.9,335.8h-8.4c-3.9,6.8-8.5,12.1-13.8,15.8s-11.3,6.1-17.8,7.4c-6.6,1.2-18,1.8-34.3,1.8h-79l-0.5-0.6
		c9.6-9,32.9-33.5,69.6-73.6c25.1-27.3,43.2-53.2,54.4-77.8c7.3-15.6,10.9-31.1,10.9-46.7c0-21.8-8.4-40.7-25-56.7
		c-16.7-16.1-37.5-24.1-62.5-24.1c-23.4,0-42.9,7.5-58.6,22.4s-25.3,36.5-29.1,64.4h8.4c5.7-17.1,14.6-30,26.6-38.8
		c12-8.8,25.5-13.2,40.7-13.2c16.6,0,30.8,6.2,42.8,18.8c11.9,12.5,17.9,28.6,17.9,48c0,25.6-10.9,53.8-32.6,84.6
		c-16,22.7-40.6,50.3-73.6,82.5c-37.6-23.8-81.6-35.7-132.3-35.7c-64,0-116.4,19.6-157.5,58.8c-41,39.2-61.4,86-61.4,140.4
		c0,35.6,9,68.1,26.9,97.5c17.9,29.4,43.7,52.3,77.2,68.7c-41.2,34.4-67.4,61-78.7,79.9c-11.4,18.8-17.1,35.2-17.1,49.3
		c0,12.4,4.3,23.6,12.9,33.3c8.6,9.8,23.2,20.9,44,33.3c-38.1,39.5-58.5,61-61.3,64.6c-7.5,9.2-14.3,18-20,25.8
		c18.3,9.6,37.8,18.3,57.4,25.7c-0.3-1.9-0.5-4.4-0.5-6.5c0-14.6,4.8-30.8,14.4-48.2c9.6-17.5,24-36.4,42.8-56.6
		c48.3,6.9,117.6,11.6,207.5,13.9c61.5,1.5,102.7,6.8,123.5,15.5c20.4,8.7,30.6,23.3,30.6,44c0,4.2-0.3,7.9-1.1,12.1
		c15.4-8,30.2-16.9,44.5-26.3c0.2-3.2,0.3-5.7,0.3-8.9c0-32.7-11.2-60.2-33.3-82.5c-22.2-22.3-51.9-36-89.1-41.3
		c-24.4-4-77.8-7.1-160.2-9.3c-44.9-1.3-72.8-2.9-84-4.6c-19.3-2.8-32.2-7.3-38.7-13.6c-6.6-6.3-9.9-12.9-9.9-19.6
		c0-7.9,3.1-17.5,9.3-28.8c6.2-11.3,18.1-24.5,35.7-39.5c28.4,8.1,56.1,12.2,83.3,12.2c65.8,0,118.4-18.2,157.5-54.7
		c39.1-36.5,58.7-80.4,58.7-131.7c0-40.9-9.3-75.2-28-102.7h83.1L805.9,335.8z M589,639.5c-19.6,22.7-44.4,34.1-74.6,34.1
		c-31.8,0-58.2-13.1-78.8-39.5c-27-34.7-40.7-83.6-40.7-146.5c0-48.6,9.9-84.7,29.9-108.2c19.9-23.6,44.6-35.3,74-35.3
		c31.8,0,58,13.2,78.2,39.5c27.4,35.8,41.3,85.5,41.3,148.9C618.3,581,608.6,616.8,589,639.5z"/>
</g>
</svg>
