<?xml version="1.0" encoding="utf-8"?>
<!-- Generator: Adobe Illustrator 23.0.1, SVG Export Plug-In . SVG Version: 6.00 Build 0)  -->
<svg version="1.1" id="Layer_1" xmlns="http://www.w3.org/2000/svg" xmlns:xlink="http://www.w3.org/1999/xlink" x="0px" y="0px"
	 viewBox="0 0 800 265" style="enable-background:new 0 0 800 265;" xml:space="preserve">
<style type="text/css">
	.st0{fill:#FFFFFF;}
	.st1{font-family:'imagine-font';}
	.st2{font-size:173.654px;}
	.st3{opacity:0.6;fill:#FFFFFF;enable-background:new    ;}
	.st4{fill:#FFFFFF;enable-background:new    ;}
</style>
<g>
	<g>
		<path class="st0" d="M511.6,190.4v-89h81.3v17.8h-65v53.4h48.8v-17.8h-32.5V137h48.8v53.4H511.6z"/>
		<path class="st0" d="M609,190.4v-89h81.3v53.4h-32.5l21.5,23.6l-10.8,12l-32.5-35.6h-10.7v35.6H609z M625.2,137H674v-17.8h-48.8
			V137z"/>
		<path class="st0" d="M706.4,190.4v-17.8h65v-17.8h-65v-53.4h81.3v17.8h-65V137h65v53.4H706.4z"/>
	</g>
	<text transform="matrix(0.9127 0 0 1 6.9629 190.3828)" class="st0 st1 st2">HODL</text>
</g>
<g>
</g>
<g>
	<g>
		<path class="st3" d="M470.5,99.5c-0.1-0.1-0.2-0.2-0.3-0.3C470.3,99.4,470.4,99.4,470.5,99.5z"/>
		<path class="st3" d="M470.1,99.1c0,0-0.1-0.1-0.1-0.1C470,99.1,470,99.1,470.1,99.1z"/>
		<path class="st3" d="M420.8,190.3C420.8,190.3,420.9,190.3,420.8,190.3C420.9,190.3,420.8,190.3,420.8,190.3z"/>
		<path class="st3" d="M465.2,97c0,0-0.1,0-0.1,0C465.2,97,465.2,97,465.2,97z"/>
		<path class="st3" d="M465.7,97.1C465.7,97.1,465.7,97.1,465.7,97.1C465.7,97.1,465.7,97.1,465.7,97.1z"/>
		<path class="st3" d="M469.7,98.8c0,0-0.1,0-0.1-0.1C469.6,98.8,469.7,98.8,469.7,98.8z"/>
		<path class="st3" d="M464.2,96.9c0,0-0.1,0-0.1,0C464.1,96.9,464.1,96.9,464.2,96.9z"/>
		<path class="st3" d="M467.2,97.5L467.2,97.5L467.2,97.5z"/>
		<path class="st3" d="M466.2,97.2C466.2,97.2,466.2,97.2,466.2,97.2C466.2,97.2,466.2,97.2,466.2,97.2z"/>
		<path class="st3" d="M466.7,97.3C466.7,97.3,466.7,97.3,466.7,97.3C466.7,97.3,466.7,97.3,466.7,97.3z"/>
		<path class="st3" d="M472.3,185.3C472.3,185.3,472.3,185.3,472.3,185.3C472.3,185.3,472.3,185.3,472.3,185.3z"/>
		<path class="st4" d="M442.5,87.8c-31.7,0-57.4,25.7-57.4,57.4c0,22.1,12.5,41.3,30.8,50.9c0.6-0.9,1.4-1.9,2.2-2.9c0,0,0,0,0,0
			c-17.5-8.9-29.4-27-29.4-48c0-29.7,24.1-53.8,53.8-53.8c9.1,0,17.6,2.3,25.1,6.2c0.6,0.3,1.2,0.6,1.7,1
			c16.1,9.3,26.9,26.7,26.9,46.6c0,18-8.9,34-22.5,43.7c0.2,1,0.4,2.1,0.4,3.2c0,0.3,0,0.7,0,1c15.5-10.3,25.8-27.9,25.8-47.9
			C499.9,113.5,474.2,87.8,442.5,87.8z"/>
		<path class="st3" d="M472.8,186.1C472.8,186.1,472.8,186.1,472.8,186.1C472.8,186.1,472.8,186.1,472.8,186.1z"/>
		<path class="st3" d="M421.6,189.4C421.6,189.4,421.7,189.4,421.6,189.4C421.7,189.4,421.6,189.4,421.6,189.4z"/>
		<path class="st3" d="M421.4,189.7C421.4,189.7,421.4,189.7,421.4,189.7C421.4,189.7,421.4,189.7,421.4,189.7z"/>
		<path class="st3" d="M432.2,199C432.3,199,432.3,199,432.2,199C432.3,199,432.3,199,432.2,199z"/>
	</g>
	<path class="st0" d="M475.5,125.4h-0.9c-0.4,0.8-1,1.4-1.6,1.8c-0.6,0.4-1.3,0.7-2,0.8c-0.7,0.1-2,0.2-3.8,0.2h-8.9l-0.1-0.1
		c1.1-1,3.7-3.8,7.8-8.3c2.8-3.1,4.8-6,6.1-8.7c0.8-1.7,1.2-3.5,1.2-5.2c0-2.4-0.9-4.6-2.8-6.4c-1.9-1.8-4.2-2.7-7-2.7
		c-2.6,0-4.8,0.8-6.6,2.5c-1.8,1.7-2.8,4.1-3.3,7.2h0.9c0.6-1.9,1.6-3.4,3-4.4s2.9-1.5,4.6-1.5c1.9,0,3.5,0.7,4.8,2.1
		c1.3,1.4,2,3.2,2,5.4c0,2.9-1.2,6-3.7,9.5c-1.8,2.6-4.5,5.6-8.3,9.3c-4.2-2.7-9.2-4-14.8-4c-7.2,0-13.1,2.2-17.7,6.6
		c-4.6,4.4-6.9,9.6-6.9,15.7c0,4,1,7.6,3,10.9c2,3.3,4.9,5.9,8.7,7.7c-4.6,3.9-7.6,6.8-8.8,9c-1.3,2.1-1.9,4-1.9,5.5
		c0,1.4,0.5,2.6,1.4,3.7c1,1.1,2.6,2.3,4.9,3.7c-4.3,4.4-6.6,6.8-6.9,7.2c-0.8,1-1.6,2-2.2,2.9c2.1,1.1,4.2,2.1,6.4,2.9
		c0-0.2-0.1-0.5-0.1-0.7c0-1.6,0.5-3.5,1.6-5.4c1.1-2,2.7-4.1,4.8-6.4c5.4,0.8,13.2,1.3,23.3,1.6c6.9,0.2,11.5,0.8,13.9,1.7
		c2.3,1,3.4,2.6,3.4,4.9c0,0.5,0,0.9-0.1,1.4c1.7-0.9,3.4-1.9,5-3c0-0.4,0-0.6,0-1c0-3.7-1.3-6.8-3.7-9.3c-2.5-2.5-5.8-4-10-4.6
		c-2.7-0.4-8.7-0.8-18-1c-5-0.1-8.2-0.3-9.4-0.5c-2.2-0.3-3.6-0.8-4.3-1.5c-0.7-0.7-1.1-1.4-1.1-2.2c0-0.9,0.3-2,1-3.2
		c0.7-1.3,2-2.7,4-4.4c3.2,0.9,6.3,1.4,9.3,1.4c7.4,0,13.3-2,17.7-6.1c4.4-4.1,6.6-9,6.6-14.8c0-4.6-1-8.4-3.1-11.5h9.3L475.5,125.4
		z M451.2,159.5c-2.2,2.6-5,3.8-8.4,3.8c-3.6,0-6.5-1.5-8.8-4.4c-3-3.9-4.6-9.4-4.6-16.4c0-5.5,1.1-9.5,3.4-12.1c2.2-2.6,5-4,8.3-4
		c3.6,0,6.5,1.5,8.8,4.4c3.1,4,4.6,9.6,4.6,16.7C454.5,152.9,453.4,156.9,451.2,159.5z"/>
</g>
</svg>
