<?xml version="1.0" encoding="utf-8"?>
<!-- Generator: Adobe Illustrator 23.0.1, SVG Export Plug-In . SVG Version: 6.00 Build 0)  -->
<svg version="1.1" id="Layer_1" xmlns="http://www.w3.org/2000/svg" xmlns:xlink="http://www.w3.org/1999/xlink" x="0px" y="0px"
	 viewBox="0 0 512 512" style="enable-background:new 0 0 512 512;" xml:space="preserve">
<style type="text/css">
	.st0{fill:url(#SVGID_1_);}
	.st1{enable-background:new    ;}
	.st2{fill:#FFFFFF;}
	.st3{fill:url(#SVGID_2_);}
</style>
<g>
	<g>
		<g>
			<g>
				<g>
					<linearGradient id="SVGID_1_" gradientUnits="userSpaceOnUse" x1="36.8721" y1="223.1536" x2="476.6279" y2="223.1536">
						<stop  offset="0" style="stop-color:#FFFFFF"/>
						<stop  offset="1" style="stop-color:#FFFFFF"/>
					</linearGradient>
					<path class="st0" d="M256.8,443c-58.9,0-114.2-22.8-155.6-64.3S36.9,282,36.9,223.2S59.7,109,101.1,67.5
						c41.4-41.4,96.7-64.3,155.6-64.3s114.2,22.8,155.6,64.3c41.4,41.4,64.3,96.7,64.3,155.6s-22.8,114.2-64.3,155.6
						S315.6,443,256.8,443z M256.8,6.3c-119.6,0-216.9,97.3-216.9,216.9c0,119.6,97.3,216.9,216.9,216.9s216.9-97.3,216.9-216.9
						C473.6,103.6,376.3,6.3,256.8,6.3z"/>
				</g>
			</g>
		</g>
		<g>
			<g class="st1">
				<path class="st2" d="M334.6,371.8c-23.3,12.2-49.8,19.1-77.9,19.1c-20.8,0-40.7-3.8-59-10.7c-0.1-0.6-0.2-1.5-0.2-2.1
					c0-4.8,1.6-10.1,4.7-15.8c3.2-5.7,7.9-11.9,14.1-18.6c15.9,2.3,38.6,3.8,68.1,4.6c20.2,0.5,33.7,2.2,40.5,5.1
					c6.7,2.9,10,7.7,10,14.4C335,369.2,334.9,370.5,334.6,371.8z M257.5,276c9.9,0,18.1-3.7,24.5-11.2s9.6-19.2,9.6-35.1
					c0-20.8-4.5-37.1-13.5-48.9c-6.7-8.6-15.2-13-25.7-13c-9.7,0-17.8,3.9-24.3,11.6c-6.5,7.7-9.8,19.6-9.8,35.5
					c0,20.7,4.4,36.7,13.3,48.1C238.5,271.7,247.1,276,257.5,276z M256.7,55c-92.8,0-168,75.2-168,168c0,64.7,36.6,120.8,90.1,148.9
					c1.8-2.5,4.2-5.5,6.5-8.5c0.9-1.2,7.6-8.2,20.1-21.2c-6.8-4.1-11.6-7.7-14.5-10.9c-2.8-3.2-4.2-6.9-4.2-10.9
					c0-4.6,1.9-10,5.6-16.1c3.7-6.2,12.3-14.9,25.8-26.2c-11-5.4-19.5-12.9-25.3-22.5c-5.9-9.6-8.8-20.3-8.8-32
					c0-17.8,6.7-33.2,20.2-46.1c13.4-12.9,30.7-19.3,51.7-19.3c16.6,0,31.1,3.9,43.4,11.7c10.8-10.6,18.9-19.6,24.2-27.1
					c7.1-10.1,10.7-19.4,10.7-27.8c0-6.4-2-11.6-5.9-15.8c-3.9-4.1-8.6-6.2-14-6.2c-5,0-9.4,1.4-13.3,4.3c-3.9,2.9-6.8,7.1-8.7,12.7
					h-2.7c1.2-9.2,4.4-16.2,9.6-21.1c5.1-4.9,11.5-7.4,19.2-7.4c8.2,0,15,2.6,20.5,7.9c5.5,5.3,8.2,11.5,8.2,18.6
					c0,5.1-1.2,10.2-3.6,15.3c-3.7,8-9.6,16.5-17.9,25.5c-12.1,13.2-19.7,21.2-22.9,24.2l0.2,0.2h25.9c5.4,0,9.1-0.2,11.3-0.6
					c2.2-0.4,4.1-1.2,5.8-2.4c1.7-1.2,3.2-2.9,4.5-5.2h2.8l-8.9,25.8H317c6.1,9.1,9.2,20.3,9.2,33.7c0,16.8-6.4,31.2-19.3,43.2
					c-12.8,12-30.1,17.9-51.7,17.9c-8.9,0-18-1.3-27.3-4c-5.8,4.9-9.7,9.3-11.7,13c-2,3.7-3.1,6.8-3.1,9.4c0,2.2,1.1,4.4,3.2,6.4
					c2.2,2.1,6.4,3.6,12.7,4.5c3.7,0.6,12.9,1.1,27.6,1.5c27,0.7,44.5,1.7,52.6,3.1c12.2,1.7,21.9,6.2,29.2,13.5
					c7.3,7.3,10.9,16.3,10.9,27.1c0,1,0,1.9-0.1,2.9c45.5-30.1,75.5-81.6,75.5-140.2C424.7,130.2,349.5,55,256.7,55z"/>
			</g>
		</g>
	</g>
	<g>
		<path class="st2" d="M257,508.7c-130.5,0-236-127.7-236-285.6h27.8c0,139.4,93,252,208.2,252s208.2-112.5,208.2-252H493
			C493,381.1,387.5,508.7,257,508.7z"/>
	</g>
	<g>
		<circle class="st2" cx="36.3" cy="223.2" r="33.6"/>
		<linearGradient id="SVGID_2_" gradientUnits="userSpaceOnUse" x1="1.2451" y1="223.1534" x2="71.4385" y2="223.1534">
			<stop  offset="0" style="stop-color:#FFFFFF"/>
			<stop  offset="1" style="stop-color:#FFFFFF"/>
		</linearGradient>
		<path class="st3" d="M36.3,258.3c-19.4,0-35.1-15.7-35.1-35.1s15.7-35.1,35.1-35.1s35.1,15.7,35.1,35.1S55.7,258.3,36.3,258.3z
			 M36.3,191.1c-17.7,0-32.1,14.4-32.1,32.1s14.4,32.1,32.1,32.1s32.1-14.4,32.1-32.1S54,191.1,36.3,191.1z"/>
	</g>
	<g>
		<circle class="st2" cx="477.2" cy="223.2" r="33.6"/>
	</g>
</g>
</svg>
