<?xml version="1.0" encoding="utf-8"?>
<!-- Generator: Adobe Illustrator 23.0.1, SVG Export Plug-In . SVG Version: 6.00 Build 0)  -->
<svg version="1.1" id="Layer_1" xmlns="http://www.w3.org/2000/svg" xmlns:xlink="http://www.w3.org/1999/xlink" x="0px" y="0px"
	 viewBox="0 0 1125 2436" style="enable-background:new 0 0 1125 2436;" xml:space="preserve">
<style type="text/css">
	.st0{fill:#FFFFFF;}
	.st1{fill:url(#SVGID_1_);}
</style>
<g>
	<path class="st0" d="M178.8,755.9v61.8c-6.4,3.7-13.2,6.6-20.4,8.7c-7.2,2.2-14.9,3.2-23,3.2c-11.8,0-22.8-2.2-33.2-6.7
		c-10.3-4.5-19.4-10.5-27.1-18.3c-7.7-7.7-13.8-16.7-18.3-27.1c-4.5-10.3-6.7-21.4-6.7-33.2c0-11.8,2.2-22.9,6.7-33.3
		c4.5-10.4,10.5-19.5,18.3-27.2c7.7-7.7,16.7-13.8,27.1-18.4c10.3-4.5,21.4-6.8,33.2-6.8c8.1,0,15.8,1,23,3.1
		c7.2,2.1,14.1,5,20.6,8.8l-3.8,5.5c-11.9-7.2-25.2-10.7-39.8-10.7c-10.8,0-21,2.1-30.5,6.3c-9.5,4.2-17.9,9.9-24.9,17
		c-7.1,7.1-12.7,15.5-16.8,25.1c-4.1,9.6-6.2,19.9-6.2,30.8c0,10.8,2.1,20.9,6.2,30.5c4.1,9.5,9.7,17.8,16.7,24.9
		c7,7.1,15.2,12.6,24.7,16.8c9.5,4.1,19.6,6.2,30.4,6.2c13.4,0,25.8-3.2,37.2-9.5v-50.9h-37.7v-6.7H178.8z"/>
	<path class="st0" d="M195.5,820.6h18.6v-76.1h-17.4v-6.7h22.4l0.5,10.5c0,2.4,0.1,4.5,0.2,6.4c0.2,1.9,0.2,4.1,0.2,6.4
		c3.5-7.8,8.8-13.9,15.9-18.3c7.1-4.4,14.7-6.6,22.8-6.8l-0.2,6.7c-5.1,0.2-9.9,1.1-14.6,2.8c-4.6,1.7-8.6,4.1-12.1,7.1
		c-3.4,3-6.1,6.6-8.1,10.7c-2,4.1-3,8.5-3,13.3v43.9h18.6v6.7h-43.9V820.6z"/>
	<path class="st0" d="M275.7,782.4c0-6.4,1.2-12.4,3.6-18.1c2.4-5.7,5.7-10.7,9.9-14.9c4.2-4.2,9.1-7.6,14.8-10
		c5.6-2.5,11.7-3.7,18.3-3.7c6.5,0,12.6,1.2,18.4,3.7c5.7,2.5,10.7,5.8,14.9,10c4.2,4.2,7.6,9.2,10,14.9c2.5,5.7,3.7,11.8,3.7,18.1
		c0,6.5-1.2,12.6-3.7,18.3c-2.5,5.6-5.8,10.5-10,14.7c-4.2,4.1-9.2,7.4-14.9,9.9s-11.9,3.7-18.4,3.7c-6.5,0-12.6-1.2-18.3-3.7
		c-5.6-2.5-10.6-5.8-14.8-9.9c-4.2-4.1-7.5-9-9.9-14.7C276.9,795,275.7,788.9,275.7,782.4z M282.4,782.4c0,5.6,1,10.8,3.1,15.6
		c2.1,4.9,4.9,9.1,8.5,12.6c3.6,3.6,7.8,6.4,12.7,8.5c4.9,2.1,10.1,3.1,15.7,3.1c5.4,0,10.6-1,15.6-3.1c4.9-2.1,9.2-4.9,12.8-8.5
		c3.6-3.6,6.5-7.8,8.6-12.6c2.2-4.9,3.2-10.1,3.2-15.6c0-5.6-1.1-10.8-3.2-15.6c-2.2-4.9-5-9.1-8.6-12.8c-3.6-3.7-7.9-6.5-12.8-8.6
		c-4.9-2.1-10.1-3.1-15.6-3.1c-5.6,0-10.8,1-15.7,3.1c-4.9,2.1-9.1,4.9-12.7,8.6c-3.6,3.7-6.4,7.9-8.5,12.8
		C283.4,771.6,282.4,776.8,282.4,782.4z"/>
	<path class="st0" d="M473.3,767.3c-12.9,5.2-25.8,10.4-38.7,15.5c-12.9,5.1-25.8,10.3-38.7,15.5c3,7.2,7.8,12.9,14.2,17.3
		c6.4,4.4,13.9,6.6,22.3,6.6c5.4,0,10.4-1,15-2.9c4.6-1.9,8.7-4.5,12.4-7.9c0.6,0.8,1.3,1.6,1.9,2.4c0.6,0.8,1.4,1.6,2.1,2.4
		c-4.1,4-8.9,7.1-14.2,9.3c-5.3,2.2-11.1,3.3-17.3,3.3c-6.5,0-12.6-1.2-18.3-3.7c-5.6-2.5-10.5-5.8-14.7-9.9
		c-4.1-4.1-7.4-9-9.9-14.7c-2.5-5.6-3.7-11.7-3.7-18.3c0-6.4,1.2-12.4,3.7-18.1c2.5-5.7,5.8-10.7,9.9-14.8c4.1-4.1,9-7.4,14.7-9.9
		c5.6-2.5,11.7-3.7,18.3-3.7c9.5,0,17.9,2.9,25.2,8.8C464.9,750.6,470.1,758.1,473.3,767.3z M432.5,742.5c-6.5,0-12.5,1.4-17.9,4.2
		c-5.4,2.8-9.9,6.5-13.5,11.1c-3.6,4.5-6.1,9.8-7.5,15.8c-1.4,6-1.4,12,0.2,18.1c11.9-4.8,23.7-9.5,35.4-14.2
		c11.7-4.7,23.5-9.4,35.4-14.2c-3-6.2-7.4-11.1-13-15C446,744.5,439.6,742.5,432.5,742.5z"/>
	<path class="st0" d="M501.4,804.1v13c3.3,2.4,6.9,3.9,10.7,4.5c3.9,0.6,7.6,0.9,11.2,0.9c1.9,0,4-0.4,6.4-1.2
		c2.4-0.8,4.6-2,6.7-3.6c2.1-1.6,3.9-3.6,5.3-5.9c1.4-2.4,2.1-5.2,2.1-8.5c0-4.4-1.1-7.9-3.3-10.3c-2.2-2.4-5-4.4-8.4-5.9
		c-3.3-1.5-7-2.8-11-3.8c-4-1-7.7-2.3-11.1-3.9c-3.4-1.6-6.3-3.8-8.6-6.6c-2.3-2.8-3.5-6.7-3.5-11.8c0-4,0.8-7.5,2.3-10.5
		c1.5-3,3.5-5.6,5.8-7.6c2.4-2.1,5-3.6,8-4.7c2.9-1,5.8-1.6,8.7-1.6c0.5,0,1.7,0,3.6,0.1c1.9,0.1,4.1,0.4,6.6,0.8
		c2.5,0.5,5,1.2,7.5,2.3c2.5,1,4.7,2.5,6.4,4.4v16.7h-6.7v-13.2c-1.3-1.1-2.8-2-4.6-2.6s-3.6-1.1-5.4-1.3c-1.8-0.2-3.4-0.4-4.8-0.5
		c-1.4-0.1-2.4-0.1-2.8-0.1c-1.9,0-3.9,0.3-6,0.9c-2.1,0.6-4.1,1.6-5.9,2.8s-3.3,3-4.4,5.2c-1.1,2.2-1.6,4.8-1.6,7.8
		c0,4.1,1.1,7.3,3.3,9.5c2.2,2.2,5,4,8.5,5.4c3.4,1.4,7.1,2.7,11.1,3.8c4,1.1,7.7,2.6,11.1,4.4c3.4,1.8,6.2,4.2,8.5,7.2
		c2.2,2.9,3.3,7,3.3,12.3c0,2.9-0.5,5.8-1.6,8.9c-1,3.1-2.7,6-5,8.6c-2.3,2.6-5.2,4.8-8.8,6.4c-3.6,1.7-7.8,2.5-12.8,2.5
		c-1.3,0-3.1-0.1-5.4-0.2c-2.3-0.2-4.8-0.6-7.4-1.2c-2.6-0.6-5.3-1.5-8-2.5c-2.7-1-5-2.5-6.9-4.4v-16.7H501.4z"/>
	<path class="st0" d="M587.3,679.5h6.7v58.2h28.9v6.7H594v76.1h20v6.7h-26.7v-82.8h-21v-6.7h21V679.5z"/>
	<path class="st0" d="M639.6,820.6H657V655h-17.2v-6.7h23.9v172.3h19.8v6.7h-43.9V820.6z"/>
	<path class="st0" d="M776.3,818.6c-4.1,3.2-8.7,5.7-13.7,7.5c-5,1.8-10.3,2.7-15.9,2.7c-6.5,0-12.6-1.2-18.3-3.7
		c-5.6-2.5-10.5-5.8-14.7-9.9c-4.1-4.1-7.4-9-9.9-14.7c-2.5-5.6-3.7-11.7-3.7-18.3c0-6.4,1.2-12.4,3.7-18.1
		c2.5-5.7,5.8-10.7,9.9-14.8c4.1-4.1,9-7.4,14.7-9.9c5.6-2.5,11.7-3.7,18.3-3.7c5.7,0,11.1,0.9,16.1,2.7c5,1.8,9.5,4.3,13.5,7.5
		v22.2h-6.7v-18.2c-3.3-2.4-6.9-4.2-10.8-5.6c-3.9-1.3-8-2-12.4-2c-5.5,0-10.7,1-15.5,3.1c-4.8,2.1-9,4.9-12.6,8.6
		c-3.6,3.6-6.4,7.9-8.4,12.7c-2.1,4.8-3.1,10-3.1,15.6c0,5.6,1,10.7,3.1,15.6c2.1,4.8,4.9,9,8.5,12.6c3.6,3.6,7.8,6.4,12.6,8.4
		c4.9,2.1,10.1,3.1,15.6,3.1c4.9,0,9.5-0.8,13.7-2.3c4.2-1.5,8.1-3.6,11.6-6.3L776.3,818.6z"/>
	<path class="st0" d="M793.2,782.4c0-6.4,1.2-12.4,3.6-18.1c2.4-5.7,5.7-10.7,9.9-14.9c4.2-4.2,9.1-7.6,14.8-10
		c5.6-2.5,11.7-3.7,18.3-3.7c6.5,0,12.6,1.2,18.4,3.7c5.7,2.5,10.7,5.8,14.9,10c4.2,4.2,7.6,9.2,10,14.9c2.5,5.7,3.7,11.8,3.7,18.1
		c0,6.5-1.2,12.6-3.7,18.3c-2.5,5.6-5.8,10.5-10,14.7c-4.2,4.1-9.2,7.4-14.9,9.9c-5.7,2.5-11.9,3.7-18.4,3.7
		c-6.5,0-12.6-1.2-18.3-3.7c-5.6-2.5-10.6-5.8-14.8-9.9c-4.2-4.1-7.5-9-9.9-14.7C794.4,795,793.2,788.9,793.2,782.4z M799.9,782.4
		c0,5.6,1,10.8,3.1,15.6c2.1,4.9,4.9,9.1,8.5,12.6c3.6,3.6,7.8,6.4,12.7,8.5c4.9,2.1,10.1,3.1,15.7,3.1c5.4,0,10.6-1,15.6-3.1
		c4.9-2.1,9.2-4.9,12.8-8.5c3.6-3.6,6.5-7.8,8.6-12.6c2.2-4.9,3.2-10.1,3.2-15.6c0-5.6-1.1-10.8-3.2-15.6c-2.2-4.9-5-9.1-8.6-12.8
		c-3.6-3.7-7.9-6.5-12.8-8.6c-4.9-2.1-10.1-3.1-15.6-3.1c-5.6,0-10.8,1-15.7,3.1c-4.9,2.1-9.1,4.9-12.7,8.6
		c-3.6,3.7-6.4,7.9-8.5,12.8C801,771.6,799.9,776.8,799.9,782.4z"/>
	<path class="st0" d="M903.5,820.6h19.1v-76.1h-19.1v-6.7h25.8v82.8h18.4v6.7h-44.1V820.6z M919.7,707c0-1.7,0.6-3.3,1.9-4.5
		c1.3-1.3,2.8-1.9,4.5-1.9c1.7,0,3.2,0.6,4.4,1.9c1.2,1.3,1.8,2.8,1.8,4.5c0,1.8-0.6,3.2-1.8,4.4c-1.2,1.2-2.7,1.8-4.4,1.8
		c-1.8,0-3.3-0.6-4.5-1.8C920.3,710.2,919.7,708.7,919.7,707z"/>
	<path class="st0" d="M1030.7,820.6h18.9v-57.2c-0.3-5.5-2.3-10.3-6.1-14.2s-8.9-6.1-15.6-6.4c-5.1,0-9.9,0.8-14.6,2.5
		c-4.7,1.7-8.8,4-12.4,7c-3.6,3-6.4,6.6-8.4,10.8c-2.1,4.2-3.1,8.7-3.1,13.6v43.9h18.6v6.7h-43.9v-6.7h18.6v-76.1h-17.4v-6.7h22.4
		l0.5,10.5c0,2.4,0.1,4.5,0.2,6.4c0.2,1.9,0.2,4.1,0.2,6.4c3.2-7.6,8.3-13.7,15.3-18.3c7-4.5,15-6.8,24.1-6.8
		c8.6,0,15.3,2.5,20.3,7.4c4.9,4.9,7.6,11.3,7.9,19.3v57.8h18.6v6.7h-44.1V820.6z"/>
</g>
<g>
	
		<image style="overflow:visible;opacity:0.75;" width="927" height="926" xlink:href="EDDE74E6.png"  transform="matrix(1 0 0 1 113 885)">
	</image>
	<g>
		<linearGradient id="SVGID_1_" gradientUnits="userSpaceOnUse" x1="887.7424" y1="1658.7838" x2="254.1748" y2="1025.2162">
			<stop  offset="0" style="stop-color:#113D4F"/>
			<stop  offset="0.9831" style="stop-color:#418FAF"/>
		</linearGradient>
		<circle class="st1" cx="571" cy="1342" r="448"/>
	</g>
</g>
<g>
	
		<image style="overflow:visible;opacity:0.75;" width="511" height="106" xlink:href="EDDE74EA.png"  transform="matrix(1 0 0 1 322 1037)">
	</image>
	<g>
		<g>
			<path class="st0" d="M331.1,1111.5v-10.6h2.9v9.2c1.9,1.8,4.3,3.4,7.1,4.6s6.2,1.9,10.2,1.9c2.5,0,4.8-0.4,7.2-1.2
				c2.3-0.8,4.4-1.9,6.1-3.3c1.8-1.4,3.2-3.2,4.3-5.3c1.1-2.1,1.6-4.4,1.6-7c0-3.1-0.5-5.6-1.5-7.6s-2.4-3.7-4.1-4.9
				c-1.7-1.3-3.6-2.3-5.8-3.1c-2.2-0.8-4.4-1.5-6.7-2.2c-2.3-0.6-4.5-1.3-6.7-2.1c-2.2-0.7-4.2-1.7-6-2.8c-1.8-1.2-3.2-2.7-4.4-4.5
				c-1.1-1.8-1.8-4.2-1.9-7.1c-0.1-2.3,0.1-4.5,0.8-6.8c0.6-2.3,1.7-4.4,3.2-6.2c1.5-1.8,3.4-3.3,5.7-4.5c2.3-1.1,5.1-1.7,8.4-1.7
				c1.2,0,2.4,0.1,3.7,0.2c1.3,0.1,2.7,0.4,4.1,0.7c1.4,0.3,2.8,0.8,4.2,1.4c1.4,0.6,2.7,1.4,3.9,2.5v11.4h-2.9v-9.9
				c-1.4-0.9-3.1-1.8-5.3-2.4c-2.2-0.7-4.8-1-7.8-1c-2.5,0-4.7,0.4-6.6,1.3c-1.9,0.9-3.5,2-4.7,3.4c-1.3,1.4-2.2,3.1-2.8,4.9
				c-0.6,1.8-0.9,3.8-0.9,5.7c0,2.6,0.5,4.7,1.6,6.4c1.1,1.7,2.4,3,4.1,4.1c1.7,1.1,3.7,1.9,5.8,2.6c2.2,0.7,4.4,1.4,6.8,2.1
				c2.3,0.7,4.6,1.5,6.8,2.4c2.2,0.9,4.2,2.1,5.9,3.5c1.7,1.4,3.2,3.3,4.3,5.5c1.1,2.3,1.7,5.1,1.7,8.4c0.1,3-0.5,5.8-1.6,8.2
				s-2.7,4.6-4.7,6.3c-2,1.7-4.3,3.1-7,4c-2.7,0.9-5.5,1.4-8.4,1.4c-2.7,0-5.2-0.3-7.4-0.8c-2.2-0.5-4.2-1.2-5.9-2.1
				c-1.7-0.8-3.2-1.7-4.4-2.6C332.7,1113.1,331.8,1112.3,331.1,1111.5z"/>
			<path class="st0" d="M379.6,1115.8h7.9v-66.1h-7.9v-2.9h50v15.8h-2.9v-12.9h-36.4v31.4h35.2v2.9h-35.2v31.8h37.8v-12.9h2.9v15.8
				h-51.4V1115.8z"/>
			<path class="st0" d="M438.2,1115.8h8.1v-66.1h-8.1v-2.9h10.9l55.5,65.9l2,2.7l-0.3-3.3v-62.4h-7.9v-2.9h19.3v2.9H509v72.3
				l-58.2-68.8l-1.8-2.3l0.2,2.9v62h8.3v2.9h-19.3V1115.8z"/>
			<path class="st0" d="M543.4,1115.8h8.2v-66.1h-24v12.9h-2.9v-15.8h56.8v15.8h-2.9v-12.9h-24.1v66.1h8.2v2.9h-19.3V1115.8z"/>
			<path class="st0" d="M588.7,1115.8h7.9v-66.1h-7.9v-2.9H608v2.9h-8.5v66.1h8.5v2.9h-19.3V1115.8z"/>
			<path class="st0" d="M615.2,1115.8h8.1v-66.1h-8.1v-2.9h10.9l55.5,65.9l2,2.7l-0.3-3.3v-62.4h-7.9v-2.9h19.3v2.9h-8.5v72.3
				l-58.2-68.8l-1.8-2.3l0.2,2.9v62h8.3v2.9h-19.3V1115.8z"/>
			<path class="st0" d="M701.8,1115.8h7.9v-66.1h-7.9v-2.9h50v15.8h-2.9v-12.9h-36.4v31.4h35.2v2.9h-35.2v31.8h37.8v-12.9h2.9v15.8
				h-51.4V1115.8z"/>
			<path class="st0" d="M760.4,1115.8h7.5v-66.1h-7.5v-2.9h18.9v2.9h-8.5v66.1h37.8v-12.9h2.9v15.8h-51V1115.8z"/>
		</g>
	</g>
</g>
<g>
	
		<image style="overflow:visible;opacity:0.75;" width="504" height="486" xlink:href="EDDE74ED.png"  transform="matrix(1 0 0 1 328 1120)">
	</image>
	<g>
		<g>
			<path class="st0" d="M550.3,1421.6l-6.8-10.5l-127.7,173.6h-15.8l135.2-184.1l-8.3-10.5l-142.7,194.6h-15L519.5,1379l-7.5-10.5
				l-157.7,216.2h-15.8l166-227.3L337,1129.1h15.8l332,455.7h-14.3l-96.9-131.7l-96.2,131.7h-14.3l102.9-141.6l-7.5-11.1
				l-111.2,152.7h-16.5L550.3,1421.6z M383.6,1129.1l332.8,455.7h-15.8l-332-455.7H383.6z M414.4,1129.1l332.8,455.7h-15.8
				l-332.8-455.7H414.4z M445.9,1129.1l332,455.7h-15l-333.5-455.7H445.9z M596.9,1294l8.3,10.5l127.7-175.4h15.8L613.4,1315
				l6.8,11.1l143.5-197h15l-150.2,207.4l7.5,11.1l159.3-218.5H811l-166.8,228.4l165.3,227.3h-15.8l-332.8-455.7h16.5l96.9,132.9
				l96.9-132.9h15.8l-105.2,143.3l7.5,11.1l112.7-154.4h15.8L596.9,1294z"/>
		</g>
	</g>
</g>
</svg>
