<?xml version="1.0" encoding="utf-8"?>
<!-- Generator: Adobe Illustrator 23.0.1, SVG Export Plug-In . SVG Version: 6.00 Build 0)  -->
<svg version="1.1" id="Layer_1" xmlns="http://www.w3.org/2000/svg" xmlns:xlink="http://www.w3.org/1999/xlink" x="0px" y="0px"
	 viewBox="0 0 1494 165.1" style="enable-background:new 0 0 1494 165.1;" xml:space="preserve">
<style type="text/css">
	.st0{fill:url(#SVGID_1_);}
	.st1{fill:url(#SVGID_2_);}
	.st2{fill:url(#SVGID_3_);}
	.st3{fill:#FFFFFF;}
</style>
<g>
	<linearGradient id="SVGID_1_" gradientUnits="userSpaceOnUse" x1="28.9288" y1="98.7233" x2="131.7166" y2="98.7233">
		<stop  offset="0" style="stop-color:#00A5BD"/>
		<stop  offset="1" style="stop-color:#005E78"/>
	</linearGradient>
	<path class="st0" d="M28.9,158.9c6.3-6.1,12.5-12.2,18.8-18.2c11.5-11,23-22.1,34.5-33.1c13.1-12.5,26.1-25.1,39.2-37.6
		c0.2-0.2,0.5-0.3,0.8-0.5c-0.1-0.2-0.2-0.4-0.3-0.6c-11.6,3.4-23.1,6.7-35.1,10.2c2.1-3.5,4-6.8,5.9-10.1
		c5.8-9.9,11.7-19.7,17.5-29.5c0.4-0.8,0.7-1.4,1.7-0.5c7,6.7,13,14.1,16.5,23.2c2.9,7.4,3.5,15.1,3.1,22.9
		c-0.6,15.5-6.3,28.8-17.4,39.6c-7.4,7.2-16.4,11.4-26.4,13.4c-5,1-10.1,1.5-15.1,2.5c-8.4,1.6-16.2,4.9-23.7,8.8
		c-6.4,3.3-12.9,6.4-19.3,9.6C29.4,159.1,29.2,159.1,28.9,158.9z"/>
	<linearGradient id="SVGID_2_" gradientUnits="userSpaceOnUse" x1="12.4032" y1="66.0086" x2="115.5246" y2="66.0086">
		<stop  offset="0" style="stop-color:#00A5BD"/>
		<stop  offset="1" style="stop-color:#005E78"/>
	</linearGradient>
	<path class="st1" d="M115.5,5.5c-31.4,30.2-62.7,60.2-94,90.3c0,0.1,0.1,0.2,0.1,0.3c11.7-3.4,23.4-6.8,35.1-10.2
		c0.1,0.1,0.2,0.2,0.2,0.3C49,99.6,41,113,33,126.6c-3.1-3-5.8-6.2-8.3-9.5c-6.6-8.9-10.6-18.7-11.9-29.7
		c-2.8-22.8,9.8-46.7,29.4-56c6.5-3.1,13.2-5.2,20.3-5.9c11-1.1,21.2-4.6,31-9.4c7-3.4,13.9-7,20.9-10.4
		C114.6,5.5,114.9,5.3,115.5,5.5z"/>
	<linearGradient id="SVGID_3_" gradientUnits="userSpaceOnUse" x1="28.3353" y1="159.286" x2="29.6964" y2="159.286">
		<stop  offset="0" style="stop-color:#00A5BD"/>
		<stop  offset="1" style="stop-color:#005E78"/>
	</linearGradient>
	<path class="st2" d="M28.9,158.9c0.3,0,0.5,0,0.8,0c-0.4,0.2-0.9,0.5-1.4,0.8C28.3,159.1,28.7,159.1,28.9,158.9z"/>
</g>
<g>
	<path class="st3" d="M138,134.2c0-0.5,0.4-1.2,1.1-2c0.7-0.9,1.6-1.7,2.6-2.6c-2.4-1.5-3.6-3.3-3.6-5.2v-20.7
		c0-3.5,1.1-6.7,3.2-9.7c2.1-3,4.7-5.6,7.6-7.8c3-2.2,6.1-3.9,9.3-5.2c3.2-1.3,5.9-1.9,8.2-1.9h75.6c0.7,0,1.5,0.3,2.5,0.9
		c1,0.6,1.9,1.3,2.8,2.1c0.9,0.8,1.7,1.6,2.3,2.4c0.6,0.8,0.9,1.4,0.9,1.8v13.8c0,0.9-0.3,1.8-1,2.7c-0.7,0.9-1.4,1.8-2.2,2.7
		c0.8,0.7,1.5,1.6,2.2,2.6c0.7,1,1,2.1,1,3.1v37.3c0,0.8-0.3,1.6-0.8,2.5c-0.6,0.9-1.3,1.6-2.1,2.4c-0.9,0.7-1.8,1.3-2.9,1.8
		c-1.1,0.4-2.2,0.7-3.2,0.7h-94.4c-1,0-2-0.3-3.1-0.8c-1.1-0.5-2-1.2-2.9-2c-0.9-0.8-1.6-1.6-2.1-2.5c-0.6-0.9-0.8-1.6-0.8-2.4
		V134.2z M140,134.2v13.9c0,0.7,0.2,1.3,0.6,2c0.4,0.7,0.9,1.3,1.6,1.9c0.7,0.6,1.4,1.1,2.3,1.5c0.9,0.4,1.7,0.6,2.5,0.6h94.4
		c0.9,0,1.8-0.2,2.6-0.5c0.8-0.4,1.6-0.8,2.3-1.3c0.7-0.5,1.3-1.1,1.7-1.8c0.4-0.7,0.6-1.4,0.6-2v-37.3c0-1.1-0.4-2.2-1.2-3.2
		c-0.8-1-1.9-1.8-3.2-2.5c1.3-0.6,2.4-1.5,3.2-2.6c0.8-1.1,1.2-2,1.2-2.7V86.3c0-0.3-0.2-0.8-0.7-1.5c-0.5-0.6-1-1.3-1.7-1.9
		c-0.7-0.6-1.4-1.2-2.1-1.6c-0.7-0.5-1.4-0.7-2-0.7h-75.6c-2,0-4.5,0.6-7.5,1.8c-3,1.2-5.9,2.8-8.7,4.9c-2.8,2.1-5.1,4.5-7.1,7.3
		c-2,2.8-2.9,5.8-2.9,9.1v20.7c0,0.7,0.5,1.6,1.4,2.6c0.9,1,2,1.8,3.2,2.4c-1.2,0.7-2.3,1.6-3.2,2.7
		C140.4,133.1,140,133.8,140,134.2z M213,131.3c0.5,0,1-0.1,1.6-0.2c0.6-0.2,0.8-0.7,0.8-1.6c0-0.6-0.1-1-0.3-1.2
		c-0.2-0.1-0.5-0.3-0.9-0.4c-0.2-0.1-0.7-0.2-1.4-0.5h-65.5c-0.8,0-1.7-0.3-2.6-1c-0.9-0.7-1.4-1.4-1.4-2v-20.7c0-2.8,0.9-5.5,2.6-8
		c1.7-2.5,3.8-4.6,6.2-6.5c2.4-1.8,4.9-3.3,7.5-4.3c2.6-1.1,4.8-1.6,6.5-1.6h75.6c0.5,0,1.1,0.4,1.9,1.2c0.8,0.8,1.1,1.4,1.1,1.8
		v13.8c0,0.7-0.4,1.4-1.1,2.2c-0.8,0.8-1.5,1.2-2.3,1.2h-62.2c-0.8,0-1.8,0.3-3.1,0.8c-1.3,0.5-1.9,1.2-1.9,2.1c0,0.7,0.4,1,1.1,1.1
		h65.8c0.8,0,1.6,0.4,2.5,1.1c0.9,0.7,1.3,1.6,1.3,2.6v37.3c0,0.7-0.4,1.3-1.2,2c-0.8,0.7-1.6,1-2.4,1h-94.4c-0.9,0-1.7-0.4-2.4-1.2
		c-0.7-0.8-1.1-1.5-1.1-2.2v-13.9c0-0.3,0.4-0.9,1.1-1.7c0.8-0.8,1.4-1.2,1.9-1.2H213z M212.4,130.3l-0.3,0.2l-0.2-0.1v-0.2
		C212.2,130.2,212.3,130.2,212.4,130.3z"/>
	<path class="st3" d="M336.8,155.7c-2.1,0-4.2-0.8-6.1-2.4c-2-1.6-2.9-3.5-2.9-5.7v-5.4h-31.6v5.4c0,2.3-1,4.2-3,5.7
		c-2,1.5-4.1,2.3-6.3,2.3h-21.7c-2.2,0-4.3-0.8-6.3-2.3c-2-1.5-3-3.4-3-5.7V86.3c0-0.8,0.3-1.6,0.8-2.5c0.5-0.9,1.2-1.6,2-2.4
		c0.9-0.7,1.8-1.3,2.9-1.8c1.1-0.4,2.3-0.7,3.5-0.7h22c1.1,0,2.2,0.2,3.3,0.7c1.1,0.4,2.1,1,2.9,1.8c0.9,0.7,1.6,1.5,2.1,2.4
		c0.6,0.9,0.8,1.7,0.8,2.5v27.3h31.6V86.3c0-0.8,0.3-1.6,0.8-2.5c0.6-0.9,1.2-1.6,2-2.4c0.8-0.7,1.7-1.3,2.8-1.8
		c1.1-0.4,2.1-0.7,3.2-0.7H359c1,0,2.1,0.2,3.2,0.7c1.1,0.4,2.1,1,2.9,1.8c0.9,0.7,1.6,1.5,2.1,2.4c0.6,0.9,0.8,1.7,0.8,2.5v61.4
		c0,2.2-1,4.1-2.9,5.7c-2,1.6-4.1,2.4-6.3,2.4H336.8z M336.8,154.2h22c1.7,0,3.3-0.7,4.9-2c1.6-1.3,2.3-2.8,2.3-4.4V86.3
		c0-0.6-0.2-1.3-0.6-2c-0.4-0.7-1-1.3-1.7-1.8c-0.7-0.5-1.5-1-2.3-1.3c-0.8-0.4-1.7-0.5-2.6-0.5h-22.3c-1.7,0-3.3,0.6-4.8,1.9
		c-1.5,1.3-2.2,2.5-2.2,3.8v28.7h-35.5V86.3c0-1.3-0.8-2.6-2.3-3.8c-1.5-1.3-3.2-1.9-5-1.9h-22c-1.8,0-3.5,0.6-5,1.9
		c-1.5,1.3-2.3,2.5-2.3,3.8v61.4c0,1.6,0.8,3.1,2.3,4.4c1.6,1.3,3.2,2,5.1,2h21.7c1.8,0,3.5-0.7,5.1-2c1.6-1.3,2.3-2.8,2.3-4.4v-6.9
		h35.5v6.9c0,1.6,0.8,3.1,2.3,4.4C333.5,153.5,335.1,154.2,336.8,154.2z M330.8,138h-37.6c-0.6,0-1.2,0.2-1.7,0.7
		c-0.6,0.4-0.8,0.9-0.8,1.3v7.8c0,1-0.4,1.8-1.2,2.6c-0.8,0.8-1.7,1.2-2.6,1.2h-21.7c-0.9,0-1.8-0.4-2.6-1.2
		c-0.9-0.8-1.3-1.6-1.3-2.6V86.3c0-0.6,0.4-1.3,1.1-2c0.8-0.7,1.6-1,2.6-1h22c1,0,1.9,0.3,2.6,1c0.7,0.7,1.1,1.4,1.1,2v29.6
		c0,0.4,0.3,0.8,0.8,1.3c0.6,0.4,1.1,0.7,1.6,0.7h37.9c0.5,0,1-0.2,1.5-0.7c0.5-0.4,0.8-0.9,0.8-1.3V86.3c0-0.6,0.4-1.3,1.1-2
		c0.8-0.7,1.5-1,2.3-1H359c0.8,0,1.6,0.3,2.4,1c0.8,0.7,1.2,1.4,1.2,2v61.4c0,1-0.4,1.8-1.3,2.6c-0.9,0.8-1.7,1.2-2.5,1.2h-22
		c-0.8,0-1.6-0.4-2.4-1.2c-0.8-0.8-1.2-1.6-1.2-2.6v-7.8c0-0.4-0.3-0.8-0.8-1.3C331.9,138.2,331.4,138,330.8,138z"/>
	<path class="st3" d="M485.8,131.1c0,3.5-1.1,6.7-3.2,9.7c-2.1,3-4.7,5.6-7.7,7.8c-3,2.2-6.1,3.9-9.4,5.2c-3.2,1.3-5.9,1.9-8.2,1.9
		h-55.7c-2.2,0-4.9-0.6-8.2-1.9c-3.2-1.3-6.3-3-9.3-5.2c-3-2.2-5.5-4.8-7.6-7.8c-2.1-3-3.2-6.2-3.2-9.7V86.3c0-0.8,0.3-1.6,0.8-2.5
		c0.5-0.9,1.2-1.6,2-2.4c0.9-0.7,1.8-1.3,2.9-1.8c1.1-0.4,2.3-0.7,3.5-0.7h94.1c1,0,2.1,0.2,3.2,0.7c1.1,0.4,2.1,1,2.9,1.8
		c0.9,0.7,1.6,1.5,2.1,2.4c0.6,0.9,0.8,1.7,0.8,2.5V131.1z M483.9,86.3c0-0.6-0.2-1.3-0.6-2c-0.4-0.7-1-1.3-1.7-1.8
		c-0.7-0.5-1.5-1-2.3-1.3c-0.8-0.4-1.7-0.5-2.6-0.5h-94.1c-1.8,0-3.5,0.6-5,1.9c-1.5,1.3-2.3,2.5-2.3,3.8v44.8c0,3.2,1,6.3,2.9,9.1
		c2,2.8,4.3,5.2,7.1,7.3c2.8,2.1,5.7,3.7,8.7,4.9c3,1.2,5.5,1.8,7.5,1.8h55.7c2.1,0,4.7-0.6,7.6-1.8c3-1.2,5.9-2.8,8.7-4.9
		c2.8-2.1,5.2-4.5,7.2-7.3c2-2.8,2.9-5.8,2.9-9.1V86.3z M480.4,131.1c0,2.8-0.9,5.5-2.6,8c-1.7,2.5-3.8,4.6-6.2,6.5
		c-2.4,1.8-4.9,3.3-7.5,4.3c-2.6,1.1-4.8,1.6-6.6,1.6h-55.7c-1.7,0-3.9-0.5-6.5-1.6c-2.6-1.1-5.1-2.5-7.5-4.3
		c-2.4-1.8-4.5-4-6.2-6.5c-1.7-2.5-2.6-5.1-2.6-8V86.3c0-0.6,0.4-1.3,1.1-2c0.8-0.7,1.6-1,2.6-1h94.1c0.8,0,1.6,0.3,2.4,1
		c0.8,0.7,1.2,1.4,1.2,2V131.1z M408.4,126.2c0,0.4,0.2,0.9,0.7,1.5c0.5,0.6,1,1.1,1.7,1.6c0.7,0.5,1.3,1,2,1.4
		c0.7,0.4,1.4,0.6,2,0.6h30c0.6,0,1.2-0.2,1.9-0.5c0.7-0.4,1.3-0.8,1.9-1.3c0.6-0.5,1.1-1,1.6-1.5c0.5-0.5,0.7-1,0.8-1.4v-21.2
		c-0.1-0.4-0.4-0.8-0.9-1.2c-0.5-0.4-1-0.6-1.5-0.6h-37.6c-0.6,0-1.2,0.2-1.7,0.6c-0.6,0.4-0.8,0.9-0.8,1.3V126.2z M447.5,126.2
		c-0.2,0.4-0.6,0.9-1.1,1.5c-0.6,0.6-1.1,0.9-1.6,0.9h-30c-0.4,0-1-0.3-1.7-1c-0.7-0.6-1.1-1.1-1.1-1.5v-20h35.5V126.2z M444.8,127
		c0.1,0,0.3-0.1,0.5-0.4c0.2-0.2,0.3-0.5,0.3-0.7v-18.1H414v18.4c0,0.6,0.3,0.9,0.8,0.9H444.8z"/>
	<path class="st3" d="M568.6,117.1c-1.1-0.5-2-1.2-2.8-1.9c-0.8-0.8-1.4-1.6-1.9-2.6c-0.5-1-0.7-1.9-0.7-2.8v-1.9h-31.6v18.1
		c0,0.2,0.1,0.4,0.4,0.7c0.3,0.3,0.5,0.4,0.7,0.4h61.7c0.9,0,1.9,0.2,2.9,0.7s2,1.1,2.9,1.8c0.9,0.7,1.7,1.5,2.3,2.4
		c0.6,0.9,0.9,1.6,0.9,2.4v14.1c0,0.8-0.3,1.6-0.8,2.5c-0.6,0.9-1.3,1.6-2.1,2.4c-0.9,0.7-1.8,1.3-2.9,1.8c-1.1,0.4-2.2,0.7-3.2,0.7
		h-74.9c-2.2,0-4.9-0.6-8.2-1.9c-3.2-1.3-6.3-3-9.4-5.2c-3-2.2-5.6-4.8-7.7-7.9c-2.1-3-3.2-6.2-3.2-9.7V86.3c0-0.8,0.3-1.6,0.8-2.5
		c0.5-0.9,1.2-1.6,2-2.4c0.9-0.7,1.8-1.3,2.9-1.8c1.1-0.4,2.3-0.7,3.5-0.7h94.1c1,0,2.1,0.2,3.2,0.7c1.1,0.4,2.1,1,2.9,1.8
		c0.9,0.7,1.6,1.5,2.1,2.4c0.6,0.9,0.8,1.7,0.8,2.5v23.5c0,2.2-1,4.1-2.9,5.7c-2,1.6-4.1,2.4-6.3,2.4h-22.2
		C570.9,117.9,569.7,117.6,568.6,117.1z M599.3,114.3c1.6-1.3,2.3-2.8,2.3-4.4V86.3c0-0.6-0.2-1.3-0.6-2c-0.4-0.7-1-1.3-1.7-1.8
		c-0.7-0.5-1.5-1-2.3-1.3c-0.8-0.4-1.7-0.5-2.6-0.5h-94.1c-1.8,0-3.5,0.6-5,1.9c-1.5,1.3-2.3,2.5-2.3,3.8V131c0,3.3,1,6.4,2.9,9.2
		c2,2.8,4.4,5.2,7.2,7.3c2.8,2.1,5.7,3.7,8.8,4.9c3,1.2,5.5,1.8,7.5,1.8h74.9c0.9,0,1.8-0.2,2.6-0.5c0.8-0.4,1.6-0.8,2.3-1.3
		c0.7-0.5,1.3-1.1,1.7-1.8c0.4-0.7,0.6-1.4,0.6-2v-14.1c0-0.6-0.2-1.2-0.7-1.9c-0.5-0.7-1-1.3-1.7-1.9c-0.7-0.6-1.5-1-2.3-1.4
		c-0.9-0.4-1.6-0.5-2.3-0.5h-61.7c-0.5,0-1.1-0.4-1.9-1.1s-1.1-1.3-1.1-1.6v-19.7h35.5v3.5c0,1.5,0.7,2.9,2,4.4c1.3,1.5,3,2.2,5,2.2
		h22.2C596.1,116.3,597.7,115.6,599.3,114.3z M568,104.3c-0.5-0.4-1-0.6-1.5-0.8h-37.7c-0.6,0-1.2,0.2-1.7,0.5
		c-0.5,0.4-0.8,0.8-0.9,1.2v20.7c0,0.4,0.3,0.9,0.8,1.5c0.5,0.6,1.1,1.2,1.8,1.8c0.7,0.6,1.4,1.1,2.2,1.5c0.8,0.4,1.4,0.6,1.9,0.6
		h61.7c0.8,0,1.6,0.4,2.4,1.1c0.8,0.7,1.2,1.4,1.2,1.9v14.1c0,0.7-0.4,1.3-1.2,2c-0.8,0.7-1.6,1-2.4,1h-74.9c-1.8,0-4-0.5-6.6-1.6
		c-2.6-1.1-5.1-2.5-7.5-4.3c-2.4-1.8-4.5-4-6.2-6.5c-1.7-2.5-2.6-5.2-2.6-8.1V86.3c0-0.6,0.4-1.3,1.1-2c0.8-0.7,1.6-1,2.6-1h94.1
		c0.8,0,1.6,0.3,2.4,1c0.8,0.7,1.2,1.4,1.2,2v23.5c0,1-0.4,1.8-1.3,2.6c-0.9,0.7-1.7,1.1-2.5,1.1h-22.2c-1.1,0-2-0.4-2.6-1.3
		c-0.6-0.9-0.9-1.7-0.9-2.5v-4.3C568.7,105.1,568.5,104.7,568,104.3z"/>
	<path class="st3" d="M679.3,79.9c1.9-0.6,3.6-0.9,5.4-0.9H715c2.1,0.7,3.7,1.6,4.8,3c1.1,1.3,1.6,2.8,1.6,4.3
		c0,0.7-0.1,1.4-0.3,2.1c-0.2,0.7-0.6,1.4-1.2,2l-17.4,15.9c2.4,0.9,4.7,2,6.9,3.4c2.2,1.4,4.2,2.9,6,4.5c1.8,1.6,3.2,3.3,4.2,5.2
		c1.1,1.8,1.6,3.6,1.6,5.3v23.9c0,0.8-0.3,1.6-0.9,2.5c-0.6,0.9-1.4,1.6-2.3,2.3c-0.9,0.7-1.9,1.2-2.9,1.6c-1,0.4-1.9,0.7-2.7,0.7
		H691c-0.9,0-1.9-0.2-3-0.5c-1.1-0.4-2.1-0.9-3.1-1.5c-1-0.6-1.8-1.4-2.5-2.3c-0.7-0.9-1.1-1.8-1.1-2.7v-14.7c0-0.6-0.1-1.1-0.2-1.5
		c-0.1-0.4-0.3-0.7-0.5-0.7h-31.3v15.9c0,2.3-1,4.2-3,5.7c-2,1.5-4.1,2.3-6.3,2.3h-21.7c-2.2,0-4.3-0.8-6.3-2.3c-2-1.5-3-3.4-3-5.7
		V86.3c0-0.8,0.3-1.6,0.8-2.5c0.5-0.9,1.2-1.6,2-2.4c0.9-0.7,1.8-1.3,2.9-1.8c1.1-0.4,2.3-0.7,3.5-0.7h22c1.1,0,2.2,0.2,3.3,0.7
		c1.1,0.4,2.1,1,2.9,1.8c0.9,0.7,1.6,1.5,2.1,2.4c0.6,0.9,0.8,1.7,0.8,2.5v16.6h3.2l22.2-20.3C676,81.4,677.4,80.5,679.3,79.9z
		 M653.7,104.5h-6.2V86.3c0-1.3-0.8-2.6-2.3-3.8c-1.5-1.3-3.2-1.9-5-1.9h-22c-1.8,0-3.5,0.6-5,1.9c-1.5,1.3-2.3,2.5-2.3,3.8v61.4
		c0,1.6,0.8,3.1,2.3,4.4c1.6,1.3,3.2,2,5.1,2h21.7c1.8,0,3.5-0.7,5.1-2c1.6-1.3,2.3-2.8,2.3-4.4v-17.5h33.2c0.6,0,1.2,0.4,1.7,1.2
		c0.6,0.8,0.8,1.7,0.8,2.6v14.7c0,0.7,0.3,1.4,0.8,2.1c0.6,0.7,1.2,1.2,2,1.8c0.8,0.5,1.6,0.9,2.5,1.2c0.9,0.3,1.7,0.4,2.4,0.4h21.4
		c0.6,0,1.3-0.2,2.1-0.5c0.8-0.3,1.6-0.7,2.3-1.2c0.7-0.5,1.3-1.1,1.8-1.7c0.5-0.6,0.8-1.3,0.8-2.1v-23.9c0-1.7-0.6-3.4-1.8-5.2
		c-1.2-1.8-2.7-3.5-4.6-5.2c-1.9-1.7-4-3.1-6.4-4.4c-2.4-1.3-4.8-2.3-7.2-3l18.9-17.3c0.5-0.6,0.8-1.2,1-1.8c0.2-0.5,0.2-1,0.2-1.5
		c0-1.1-0.4-2.3-1.1-3.4c-0.8-1.1-1.9-1.9-3.4-2.3h-30.2c-1.5,0-3.1,0.3-4.7,0.8c-1.6,0.5-2.9,1.4-3.8,2.5h-0.2L653.7,104.5z
		 M681.4,83.8c1.1-0.4,2.1-0.5,3.2-0.5h29.4c0.7,0.2,1.2,0.7,1.4,1.2c0.3,0.6,0.4,1.2,0.4,1.8c0,0.7-0.2,1.4-0.6,1.9L693,108.6
		c2.2,0.1,4.7,0.6,7.3,1.6c2.7,1,5.2,2.3,7.5,3.8c2.3,1.5,4.2,3.3,5.7,5.2c1.5,1.9,2.3,3.8,2.3,5.5v23.9c0,0.7-0.4,1.4-1.2,1.9
		c-0.8,0.6-1.5,0.9-2.1,0.9H691c-0.8,0-1.7-0.3-2.8-0.8c-1.1-0.5-1.6-1.2-1.6-2v-14.7c0-1.6-0.6-3.1-1.8-4.4c-1.2-1.3-2.6-2-4.1-2
		h-34.3c-0.6,0-1.2,0.2-1.7,0.6c-0.6,0.4-0.8,0.8-0.8,1.2v18.4c0,1-0.4,1.8-1.2,2.6c-0.8,0.8-1.7,1.2-2.6,1.2h-21.7
		c-0.9,0-1.8-0.4-2.6-1.2c-0.9-0.8-1.3-1.6-1.3-2.6V86.3c0-0.6,0.4-1.3,1.1-2c0.8-0.7,1.6-1,2.6-1h22c1,0,1.9,0.3,2.6,1
		c0.7,0.7,1.1,1.4,1.1,2v19c0,0.4,0.3,0.8,0.8,1.2c0.6,0.4,1.1,0.6,1.6,0.6h8.8l23.9-21.8C679.5,84.7,680.4,84.2,681.4,83.8z"/>
	<path class="st3" d="M906.9,148c-0.6,1-1.4,1.9-2.4,2.6c-0.9,0.7-2,1.3-3.2,1.7c-1.2,0.4-2.3,0.6-3.4,0.6H790.2
		c-2.5,0-4.6-0.3-6.2-0.9c-1.6-0.6-3.2-1.5-4.6-2.5l-43-63.3c-0.7-1.1-1.1-2.3-1.1-3.7c0-3,2-5.5,6-7.4h29.6c2.1,0,4.1,0.3,6.1,0.8
		c2,0.5,3.6,1.8,4.9,3.8l29.6,43.2h-0.2l0.6,1h1.6l-25.3-37.6c-0.7-1.1-1.1-2.3-1.1-3.7c0-3,2-5.5,6-7.4h29.5c2.2,0,4.3,0.3,6.3,0.8
		c2,0.5,3.6,1.8,4.9,3.8l29.8,43.2h-0.2l0.6,1h0.3V82.4c0-0.8,0.3-1.7,0.9-2.5c0.6-0.9,1.3-1.7,2.3-2.4c0.9-0.7,2-1.3,3.1-1.8
		c1.1-0.5,2.3-0.7,3.5-0.7H898c1.3,0,2.5,0.2,3.6,0.7c1.1,0.5,2.2,1.1,3.1,1.8c0.9,0.7,1.7,1.5,2.3,2.4c0.6,0.9,0.9,1.7,0.9,2.5
		v62.3C907.9,145.9,907.6,147,906.9,148z M903.5,78.5c-1.6-1.3-3.4-1.9-5.5-1.9h-23.8c-2,0-3.8,0.6-5.3,1.9
		c-1.6,1.3-2.4,2.6-2.4,3.9v42.9h-3c-0.2-0.2-0.5-0.4-0.9-0.7c-0.4-0.3-0.8-0.8-1.3-1.5h0.2L832,80.2c-0.9-1.5-2.3-2.5-4-2.9
		c-1.7-0.5-3.5-0.7-5.3-0.7h-29c-2.9,1.3-4.4,3.3-4.4,5.8c0,1.2,0.4,2.3,1.1,3.1l26.7,39.8h-5.6c-0.2-0.2-0.4-0.4-0.7-0.7
		c-0.3-0.3-0.7-0.8-1.2-1.4l-29.5-43c-0.9-1.5-2.2-2.5-3.9-2.9c-1.7-0.5-3.4-0.7-5.2-0.7h-29.2c-2.9,1.3-4.4,3.3-4.4,5.8
		c0,1.2,0.4,2.2,1.3,3.1l-0.2,0.1l42.8,62.9v-0.1c1.1,0.9,2.4,1.6,3.8,2.1c1.4,0.5,3.1,0.7,5.2,0.7H898c1.9,0,3.7-0.7,5.3-2
		c1.7-1.4,2.5-2.9,2.5-4.5V82.4C905.8,81.1,905.1,79.8,903.5,78.5z M900.7,147.4c-0.9,0.8-1.8,1.2-2.7,1.2H790.2
		c-1.6,0-2.8-0.2-3.6-0.5c-0.8-0.3-1.6-0.7-2.2-1.1l-42.7-62.8v0.1c-0.4-0.6-0.6-1.2-0.6-1.9c0-1.4,0.6-2.4,1.7-3.1h28.1
		c1.1,0,2.2,0.1,3.2,0.4c1,0.2,1.9,0.9,2.6,1.9l29.5,43.2v-0.1c0.7,0.8,1.5,1.6,2.2,2.2c0.7,0.7,1.5,1.1,2.4,1.2h8
		c1.9,0,2.8-0.8,2.8-2.3l-27.9-41.6v0.1c-0.4-0.6-0.6-1.2-0.6-1.9c0-1.4,0.6-2.4,1.7-3.1h27.9c1.1,0,2.2,0.1,3.3,0.4
		c1,0.2,1.9,0.9,2.7,1.9l29.8,43.2v-0.1c0.6,0.8,1.3,1.6,2,2.2c0.7,0.7,1.5,1.1,2.4,1.2h4.9c1.7,0,2.5-0.8,2.5-2.3V82.4
		c0-0.7,0.4-1.3,1.2-2c0.8-0.7,1.7-1.1,2.7-1.1H898c1.1,0,2.1,0.4,2.9,1.1c0.8,0.7,1.2,1.4,1.2,2v62.3
		C902.1,145.7,901.6,146.6,900.7,147.4z"/>
	<path class="st3" d="M1002.3,75.7c1.1,0.5,2.2,1.1,3.1,1.8c0.9,0.7,1.6,1.5,2.2,2.4c0.6,0.9,0.9,1.7,0.9,2.5v14.3
		c0,0.7-0.3,1.5-0.9,2.4c-0.6,0.9-1.3,1.7-2.2,2.4c-0.9,0.7-1.9,1.4-3.1,1.9c-1.2,0.5-2.2,0.7-3.3,0.7h-16.8v19.5H999
		c1,0,2.1,0.2,3.3,0.7c1.1,0.5,2.2,1.1,3.1,1.9c0.9,0.7,1.6,1.5,2.2,2.4c0.6,0.9,0.9,1.7,0.9,2.4v14.3c0,0.8-0.3,1.7-0.9,2.5
		c-0.6,0.9-1.3,1.7-2.2,2.4c-0.9,0.7-1.9,1.3-3.1,1.8c-1.2,0.5-2.3,0.7-3.5,0.7h-75.6c-1.3,0-2.5-0.2-3.7-0.7
		c-1.2-0.5-2.3-1.1-3.1-1.8c-0.9-0.7-1.6-1.5-2.1-2.4c-0.5-0.9-0.8-1.7-0.8-2.5v-14.3c0-0.7,0.3-1.5,0.9-2.4
		c0.6-0.9,1.3-1.7,2.3-2.4c0.9-0.7,2-1.4,3.1-1.9s2.2-0.7,3.4-0.7h16.5v-19.5h-16.5c-1.2,0-2.3-0.2-3.4-0.7
		c-1.1-0.5-2.1-1.1-3.1-1.9c-0.9-0.7-1.7-1.5-2.3-2.4c-0.6-0.9-0.9-1.7-0.9-2.4V82.4c0-0.8,0.3-1.7,0.8-2.5c0.5-0.9,1.2-1.7,2.1-2.4
		c0.9-0.7,1.9-1.3,3.1-1.8c1.2-0.5,2.4-0.7,3.7-0.7h75.6C1000,75,1001.2,75.2,1002.3,75.7z M920.3,125.9c-0.9,0.4-1.7,0.8-2.4,1.4
		c-0.7,0.6-1.3,1.2-1.7,1.9c-0.5,0.7-0.7,1.3-0.7,1.9v14.3c0,1.3,0.8,2.6,2.4,3.9c1.6,1.3,3.3,1.9,5.3,1.9h75.6
		c1.9,0,3.6-0.6,5.2-1.9c1.6-1.3,2.4-2.6,2.4-3.9v-14.3c0-0.6-0.2-1.2-0.7-1.9c-0.5-0.7-1-1.3-1.7-1.9c-0.7-0.6-1.5-1.1-2.4-1.4
		c-0.9-0.4-1.8-0.6-2.6-0.6h-18.8V103c-0.1-0.1-0.3-0.1-0.5-0.1v-0.2H999c0.8,0,1.7-0.2,2.6-0.6c0.9-0.4,1.7-0.8,2.4-1.4
		c0.7-0.6,1.3-1.2,1.7-1.9c0.5-0.7,0.7-1.3,0.7-2V82.4c0-1.3-0.8-2.6-2.4-3.9c-1.6-1.3-3.3-1.9-5.2-1.9h-75.6c-2,0-3.8,0.6-5.3,1.9
		c-1.6,1.3-2.4,2.6-2.4,3.9v14.3c0,0.7,0.2,1.3,0.7,2c0.5,0.7,1,1.3,1.7,1.9c0.7,0.6,1.5,1.1,2.4,1.4c0.9,0.4,1.8,0.6,2.7,0.6h19.4
		c-0.3,0.2-0.6,0.4-0.9,0.4v21.8h0.2c0,0.2,0.1,0.4,0.2,0.4v0.2h-18.8C922.2,125.3,921.2,125.5,920.3,125.9z M1001.5,80.4
		c0.7,0.7,1.1,1.4,1.1,2v14.3c0,0.6-0.4,1.2-1.2,2c-0.8,0.7-1.6,1.1-2.4,1.1h-19.4c-0.6,0-1.3,0.3-1.9,0.9c-0.6,0.6-1,1.2-1.1,1.9
		v22.9c0.1,0.7,0.5,1.3,1.1,1.8c0.6,0.5,1.3,0.8,1.9,0.8H999c0.8,0,1.6,0.4,2.4,1.1c0.8,0.7,1.2,1.4,1.2,2v14.3c0,0.7-0.4,1.3-1.1,2
		c-0.7,0.7-1.6,1.1-2.7,1.1h-75.6c-1,0-2-0.3-2.7-1.1c-0.8-0.7-1.2-1.4-1.2-2v-14.3c0-0.6,0.4-1.2,1.3-2c0.8-0.7,1.7-1.1,2.5-1.1
		h19.1c0.5,0,1.1-0.3,1.8-0.8c0.7-0.5,1.1-1.1,1.3-1.8v-22.9c-0.1-0.7-0.5-1.3-1.2-1.9c-0.7-0.6-1.3-0.9-2-0.9h-19.1
		c-0.8,0-1.7-0.4-2.5-1.1c-0.8-0.7-1.3-1.4-1.3-2V82.4c0-0.7,0.4-1.3,1.2-2c0.8-0.7,1.7-1.1,2.7-1.1h75.6
		C999.9,79.3,1000.8,79.7,1001.5,80.4z"/>
	<path class="st3" d="M1108.6,75.7c1.1,0.5,2.2,1.1,3.1,1.8c0.9,0.7,1.6,1.5,2.2,2.4c0.6,0.9,0.9,1.7,0.9,2.5v14.3
		c0,0.5-0.2,1.1-0.7,1.9c-0.5,0.7-1.9,2-4.2,3.9c-2.4,1.9-6.1,4.5-11.1,7.8c-5.1,3.3-12.2,7.8-21.3,13.4h28.1c1,0,2.1,0.2,3.2,0.7
		s2.1,1.1,3,1.9c0.9,0.7,1.6,1.5,2.2,2.4c0.6,0.9,0.9,1.7,0.9,2.4v14.3c0,0.8-0.3,1.7-0.9,2.5c-0.6,0.9-1.3,1.7-2.2,2.4
		c-0.9,0.7-1.9,1.3-3.1,1.8c-1.2,0.5-2.3,0.7-3.3,0.7h-82c-1.2,0-2.3-0.2-3.5-0.7c-1.2-0.5-2.1-1.1-3-1.8c-0.8-0.7-1.5-1.5-2-2.4
		c-0.5-0.9-0.8-1.7-0.8-2.5v-14.3c0-0.3,0.3-0.9,0.8-1.7c0.5-0.8,1.9-2.1,4.2-4.1c2.2-1.9,5.7-4.6,10.4-8
		c4.7-3.4,11.1-7.8,19.2-13.2h-25.4c-1,0-2.1-0.2-3.2-0.7c-1.1-0.5-2.1-1.1-2.9-1.9c-0.8-0.7-1.5-1.5-2.1-2.4
		c-0.6-0.9-0.9-1.7-0.9-2.4V82.4c0-0.8,0.3-1.7,0.8-2.5c0.5-0.9,1.2-1.7,2-2.4c0.8-0.7,1.8-1.3,3-1.8c1.1-0.5,2.3-0.7,3.5-0.7h82
		C1106.4,75,1107.5,75.2,1108.6,75.7z M1018.2,78.5c-1.5,1.3-2.3,2.6-2.3,3.9v14.3c0,0.7,0.2,1.3,0.6,2c0.4,0.7,1,1.3,1.6,1.9
		c0.7,0.6,1.5,1.1,2.4,1.4c0.9,0.4,1.7,0.6,2.6,0.6h30.9c-9,5.9-16.1,10.6-21.2,14.2c-5.1,3.6-8.9,6.4-11.5,8.5
		c-2.5,2.1-4.1,3.5-4.6,4.3c-0.6,0.8-0.9,1.3-0.9,1.7v14.3c0,1.3,0.8,2.6,2.3,3.9c1.5,1.3,3.2,1.9,5.1,1.9h82c0.9,0,1.8-0.2,2.7-0.6
		c0.8-0.4,1.6-0.8,2.4-1.4c0.7-0.5,1.3-1.2,1.7-1.9c0.4-0.7,0.6-1.4,0.6-2v-14.3c0-0.6-0.2-1.2-0.6-1.9c-0.4-0.7-1-1.3-1.7-1.9
		c-0.7-0.6-1.5-1.1-2.4-1.4c-0.8-0.4-1.7-0.6-2.5-0.6h-34.2c6.8-4.1,12.5-7.6,17.3-10.6c4.7-2.9,8.6-5.4,11.6-7.4
		c3-2,5.4-3.6,7.1-4.9c1.7-1.2,3-2.2,3.8-3c0.8-0.7,1.3-1.3,1.4-1.7c0.2-0.4,0.2-0.7,0.2-1.1V82.4c0-0.7-0.2-1.3-0.6-2
		c-0.4-0.7-1-1.3-1.7-1.9c-0.7-0.5-1.5-1-2.4-1.4c-0.8-0.4-1.7-0.6-2.7-0.6h-82C1021.4,76.6,1019.7,77.3,1018.2,78.5z M1107.9,80.4
		c0.8,0.7,1.3,1.4,1.3,2v14.3c0,0.2-0.1,0.5-0.2,0.9c-0.2,0.3-0.7,0.8-1.6,1.5c-0.9,0.7-2.4,1.7-4.4,3c-2,1.3-4.8,3.1-8.3,5.4
		c-3.6,2.3-8.1,5.1-13.5,8.3c-5.4,3.3-12.1,7.3-20.1,12.1h44.5c0.8,0,1.6,0.4,2.4,1.1c0.8,0.7,1.2,1.4,1.2,2v14.3
		c0,0.7-0.4,1.3-1.3,2c-0.8,0.7-1.7,1.1-2.5,1.1h-82c-0.8,0-1.7-0.3-2.5-1.1c-0.8-0.7-1.3-1.4-1.3-2v-14.3c0-0.2,0.1-0.4,0.3-0.7
		c0.2-0.3,0.8-0.9,1.7-1.7c0.9-0.8,2.4-1.9,4.2-3.2c1.9-1.4,4.5-3.2,7.8-5.4c3.3-2.2,7.4-5,12.3-8.3c4.9-3.3,10.9-7.3,18-12h-40.8
		c-0.9,0-1.8-0.4-2.5-1.1c-0.7-0.7-1.1-1.4-1.1-2V82.4c0-0.7,0.4-1.3,1.3-2c0.8-0.7,1.7-1.1,2.5-1.1h82
		C1106.2,79.3,1107,79.7,1107.9,80.4z"/>
	<path class="st3" d="M1160.6,78.7v-0.1c1.5-1.1,3-1.9,4.6-2.6c1.6-0.7,3.7-1,6.2-1h60.1c1.1,0,2.3,0.2,3.5,0.7
		c1.1,0.5,2.2,1.1,3.1,1.8c0.9,0.7,1.7,1.6,2.3,2.6c0.6,1,0.9,2,0.9,3.1v62.3c0,0.8-0.3,1.7-0.9,2.5c-0.6,0.9-1.3,1.7-2.2,2.4
		c-0.9,0.7-1.9,1.3-3.1,1.8c-1.2,0.5-2.3,0.7-3.5,0.7h-47.2c-1,0-2.1-0.3-3.2-0.8c-1.1-0.5-2.1-1.2-3-2c-0.9-0.8-1.6-1.7-2.2-2.5
		c-0.6-0.9-0.9-1.7-0.9-2.4V131c0-0.4,0.3-1,0.9-1.9c0.6-0.8,1.4-1.6,2.4-2.4c0.9-0.8,1.9-1.5,2.9-2.1c1-0.6,1.9-0.9,2.6-0.9h15.1
		v-19.5h-6.3l-1.1,1.5l-28.4,42.7c-1.3,2-2.8,3.2-4.8,3.8c-1.9,0.5-3.9,0.8-6,0.8h-28.9c-1.9-0.9-3.3-1.9-4.3-3.1
		c-1-1.2-1.5-2.6-1.5-4.3c0-0.7,0.1-1.3,0.3-1.9c0.2-0.6,0.5-1.2,0.8-1.9L1160.6,78.7z M1162.4,79.3l-41.7,63.1h0.2
		c-0.7,0.8-1.1,1.9-1.1,3.1c0,2.6,1.5,4.5,4.4,5.8h28.2c1.8,0,3.5-0.2,5.1-0.7c1.6-0.5,2.9-1.4,3.8-2.9l28.5-42.9h-0.3
		c0.1-0.1,0.2-0.2,0.4-0.4c0.2-0.2,0.3-0.3,0.4-0.4c0.2-0.2,0.5-0.5,0.9-0.9c0.4-0.3,0.5-0.5,0.5-0.6h9.3v22.8h-17.1
		c-0.5,0-1.2,0.2-2,0.7c-0.8,0.5-1.5,1.1-2.2,1.7c-0.7,0.6-1.3,1.2-1.8,1.9c-0.5,0.6-0.8,1.1-0.8,1.4v14.1c0,0.7,0.2,1.3,0.6,2
		c0.4,0.7,1,1.4,1.6,2c0.7,0.6,1.5,1.1,2.4,1.5c0.9,0.4,1.7,0.6,2.6,0.6h47.2c1.9,0,3.6-0.6,5.2-1.9c1.6-1.3,2.4-2.6,2.4-3.9V83.2
		c0-1.6-0.8-3.2-2.4-4.5c-1.6-1.4-3.4-2-5.3-2h-60.1c-2.2,0-3.9,0.2-5.3,0.7c-1.3,0.5-2.5,1.2-3.7,2.1V79.3z M1165.4,81.2v-0.1
		c0.6-0.5,1.4-0.9,2.2-1.2c0.8-0.3,2.1-0.5,3.8-0.5h60.1c0.9,0,1.9,0.4,2.7,1.2c0.9,0.8,1.3,1.7,1.3,2.6v62.3c0,0.7-0.4,1.3-1.3,2
		c-0.8,0.7-1.7,1.1-2.7,1.1h-47.2c-0.9,0-1.8-0.4-2.5-1.2c-0.7-0.8-1.1-1.6-1.1-2.2V131c0-0.3,0.4-0.9,1.2-1.7
		c0.8-0.8,1.4-1.2,2-1.2h18.4c0.5,0,1.1-0.2,1.6-0.6c0.6-0.4,0.9-0.9,0.9-1.4v-23.9c0-1.6-0.8-2.3-2.5-2.3h-11
		c-0.8,0.2-1.6,0.6-2.4,1.2c-0.7,0.7-1.4,1.4-2,2.2v-0.1l-28.9,43.2c-0.5,1-1.3,1.6-2.4,1.9s-2.2,0.4-3.2,0.4h-27.3
		c-1-0.6-1.6-1.6-1.6-3.1c0-0.4,0-0.7,0.1-1c0.1-0.2,0.2-0.5,0.4-0.9v0.1L1165.4,81.2z"/>
	<path class="st3" d="M1294.4,141.2c-1.9,0-3.7-0.9-5.5-2.8v7.2c0,0.7-0.3,1.5-0.9,2.4c-0.6,0.9-1.3,1.7-2.2,2.4
		c-0.9,0.7-1.8,1.4-2.8,1.9c-1,0.5-2,0.7-2.9,0.7h-23.7c-1.3,0-2.5-0.2-3.6-0.7c-1.2-0.5-2.2-1.1-3.1-1.8c-0.9-0.7-1.6-1.5-2.1-2.4
		c-0.5-0.9-0.8-1.7-0.8-2.5V82.4c0-0.8,0.3-1.7,0.8-2.5c0.5-0.9,1.2-1.7,2.1-2.4c0.9-0.7,1.9-1.3,3.1-1.8c1.1-0.5,2.4-0.7,3.6-0.7
		h97.7c1,0,2.1,0.2,3.3,0.7c1.1,0.5,2.2,1.1,3.1,1.8c0.9,0.7,1.6,1.5,2.2,2.4c0.6,0.9,0.9,1.7,0.9,2.5v51.3c0,1-0.3,2-1,3
		c-0.7,1-1.5,1.9-2.4,2.6l1.9,2.1c0.6,0.7,1,1.3,1.3,2c0.2,0.7,0.3,1.4,0.3,2.1c0,3.1-1.9,5.6-5.8,7.4H1329c-1.9,0-3.8-0.2-5.7-0.7
		c-1.9-0.5-3.5-1.7-4.8-3.6v0.1l-6.6-7.5H1294.4z M1288.2,135.2c0.5,0.7,1.1,1.3,1.8,1.9c0.7,0.6,1.4,1.2,2.2,1.7
		c0.8,0.5,1.5,0.7,2.1,0.7h18.8l6.7,7.8c1.1,1.7,2.5,2.8,4.2,3.3c1.6,0.5,3.3,0.7,4.9,0.7h28.1c2.9-1.3,4.4-3.3,4.4-5.8
		c0-0.5-0.1-1-0.2-1.5c-0.2-0.5-0.5-1.1-1-1.7l-3-3.5c1.1-0.6,2.1-1.3,3-2.3c0.8-0.9,1.3-1.9,1.3-2.8V82.4c0-0.7-0.2-1.3-0.6-2
		c-0.4-0.7-1-1.3-1.7-1.9c-0.7-0.5-1.5-1-2.4-1.4c-0.8-0.4-1.7-0.6-2.7-0.6h-97.7c-1.9,0-3.6,0.6-5.2,1.9c-1.6,1.3-2.4,2.6-2.4,3.9
		v63.1c0,1.3,0.8,2.6,2.4,3.9c1.6,1.3,3.3,1.9,5.2,1.9h23.7c0.7,0,1.5-0.2,2.3-0.6s1.5-0.8,2.2-1.4c0.7-0.5,1.2-1.2,1.6-1.9
		c0.4-0.7,0.6-1.4,0.6-2v-42.9h36.9v11h-29c-0.8,0-1.7,0.2-2.5,0.6c-0.8,0.4-1.6,0.9-2.4,1.5c-0.7,0.6-1.3,1.3-1.7,2
		c-0.4,0.7-0.6,1.4-0.6,2v14C1287.5,134.1,1287.7,134.6,1288.2,135.2z M1326.4,100.5c-0.6-0.4-1.1-0.6-1.6-0.6h-39.1
		c-0.6,0-1.2,0.2-1.8,0.6c-0.6,0.4-0.9,0.8-0.9,1.2v43.8c0,0.7-0.3,1.3-1,2c-0.7,0.7-1.3,1.1-2,1.1h-23.7c-1,0-2-0.3-2.7-1.1
		c-0.8-0.7-1.2-1.4-1.2-2V82.4c0-0.7,0.4-1.3,1.2-2c0.8-0.7,1.7-1.1,2.7-1.1h97.7c0.8,0,1.7,0.4,2.5,1.1c0.8,0.7,1.3,1.4,1.3,2v51.3
		c0,0.7-0.4,1.3-1.3,2c-0.8,0.7-1.7,1.1-2.5,1.1h-2.8l6,6.7c0.4,0.6,0.6,1.2,0.6,2c0,1.4-0.6,2.4-1.7,3.1H1329
		c-1.2,0-2.2-0.1-3.2-0.4c-1-0.2-1.8-0.9-2.3-1.9v0.1l-8.6-9.6h-20.5c-0.5,0-1.2-0.4-2-1.2c-0.8-0.8-1.2-1.4-1.2-1.9v-14
		c0-0.7,0.3-1.4,1-2.2c0.7-0.8,1.5-1.2,2.4-1.2h30.1c0.5,0,1-0.2,1.5-0.6c0.5-0.4,0.8-0.8,1-1.2v-12.7
		C1327.3,101.4,1327,100.9,1326.4,100.5z M1291.6,112.7c1-0.5,2-0.7,3.1-0.7h27v-7.8h-32.8v10.3
		C1289.7,113.8,1290.6,113.2,1291.6,112.7z"/>
	<path class="st3" d="M1371.1,106.7c1.3-1.4,2.8-2.4,4.5-3c-1.8-0.7-3.3-1.7-4.5-3.1c-1.3-1.4-1.9-2.7-1.9-3.8V82.4
		c0-0.8,0.3-1.7,0.8-2.5c0.5-0.9,1.2-1.7,2.1-2.4c0.9-0.7,1.9-1.3,3.1-1.8c1.1-0.5,2.4-0.7,3.6-0.7h97.7c1,0,2.1,0.2,3.3,0.7
		c1.1,0.5,2.2,1.1,3.1,1.8c0.9,0.7,1.6,1.5,2.2,2.4c0.6,0.9,0.9,1.7,0.9,2.5v45.4c0,3.5-1.1,6.8-3.3,9.9c-2.2,3.1-4.9,5.7-8,8
		c-3.1,2.3-6.4,4-9.8,5.3c-3.4,1.3-6.2,1.9-8.5,1.9h-77.5c-1.3,0-2.5-0.2-3.6-0.7c-1.2-0.5-2.2-1.1-3.1-1.8
		c-0.9-0.7-1.6-1.5-2.1-2.4c-0.5-0.9-0.8-1.7-0.8-2.5v-34.3C1369.2,109.6,1369.8,108.1,1371.1,106.7z M1409.2,111.4
		c0-1.5-0.7-3-2.2-4.5c-1.5-1.5-3.2-2.2-5.3-2.2h-22.7c-1.9,0-3.6,0.7-5.3,2c-1.6,1.4-2.4,2.9-2.4,4.5v34.3c0,1.3,0.8,2.6,2.4,3.9
		c1.6,1.3,3.3,1.9,5.2,1.9h77.5c2.2,0,4.9-0.6,8-1.8c3.1-1.2,6.2-2.8,9.1-4.9c2.9-2.1,5.4-4.6,7.5-7.4c2-2.8,3.1-6,3.1-9.3V82.4
		c0-0.7-0.2-1.3-0.6-2c-0.4-0.7-1-1.3-1.7-1.9c-0.7-0.5-1.5-1-2.4-1.4c-0.8-0.4-1.7-0.6-2.7-0.6h-97.7c-1.9,0-3.6,0.6-5.2,1.9
		c-1.6,1.3-2.4,2.6-2.4,3.9v14.3c0,0.7,0.2,1.3,0.6,2c0.4,0.7,1,1.3,1.7,1.9c0.7,0.6,1.5,1.1,2.4,1.4c0.8,0.4,1.7,0.6,2.7,0.6h67.4
		v20c0,0.3-0.5,0.8-1.4,1.5c-0.9,0.7-1.7,1.1-2.4,1.2h-33.1V111.4z M1406.3,127.4c0.6,0.4,1.2,0.6,1.8,0.6h35c0.6-0.1,1.3-0.3,2-0.7
		c0.7-0.4,1.4-0.9,2.1-1.4c0.7-0.5,1.3-1.1,1.7-1.7c0.5-0.6,0.7-1.1,0.7-1.5v-21c-0.1-0.4-0.4-0.8-0.9-1.2c-0.5-0.4-1-0.6-1.6-0.6
		h-68.5c-0.8,0-1.7-0.4-2.5-1.1c-0.8-0.7-1.3-1.4-1.3-2V82.4c0-0.7,0.4-1.3,1.2-2c0.8-0.7,1.7-1.1,2.7-1.1h97.7
		c0.8,0,1.7,0.4,2.5,1.1c0.8,0.7,1.3,1.4,1.3,2v45.4c0,3-0.9,5.7-2.7,8.2c-1.8,2.5-3.9,4.7-6.5,6.6c-2.6,1.9-5.2,3.3-7.9,4.4
		c-2.7,1.1-5,1.6-6.9,1.6h-77.5c-1,0-2-0.3-2.7-1.1c-0.8-0.7-1.2-1.4-1.2-2v-34.3c0-1,0.4-1.9,1.3-2.6c0.9-0.7,1.8-1.1,2.7-1.1h22.7
		c1.3,0,2.2,0.4,2.8,1.2c0.6,0.8,0.9,1.7,0.9,2.6v14.7C1405.4,126.6,1405.7,127,1406.3,127.4z M1442.3,123.7
		c0.4-0.2,0.8-0.3,1.2-0.6c0.4-0.2,0.5-0.4,0.5-0.6v-18.4h-37.8c1.5,0.9,2.7,2,3.6,3.2c0.9,1.2,1.4,2.6,1.4,4v12.4H1442.3z"/>
</g>
<g>
	<path class="st3" d="M225,62.4L225,62.4c-1.1-0.7-2.1-1.6-3.1-2.7c-1-1.1-1.9-2.2-2.7-3.5c-0.8-1.3-1.4-2.7-1.9-4.1
		c-0.5-1.4-0.7-2.9-0.7-4.5V10.5c0-0.8,0.4-1.6,1.1-2.4c0.8-0.8,1.6-1.3,2.6-1.3h61.9c0.7,0,1.3,0.3,2,0.8c0.7,0.5,1.1,1.1,1.4,1.8
		h-0.1l2.1,2c0.8,0.8,1.3,1.6,1.3,2.4v11.8c0,0.7-0.3,1.4-1,2.2c-0.7,0.8-1.5,1.2-2.3,1.2h-0.3c0.1,0.1,0.1,0.1,0.1,0.2
		c0,0.1,0,0.1,0.1,0.2h-0.1l1.5,1.5l0.3,0.2c0.5,0.5,0.9,1,1.2,1.6c0.3,0.6,0.5,1.2,0.5,1.7v31c0,0.8-0.4,1.6-1.1,2.3
		c-0.7,0.8-1.5,1.2-2.3,1.2h-49.2c-1.3,0-2.9-0.5-4.9-1.5c-1.9-1-3.8-2.4-5.6-4.2L225,62.4z M263.7,44.4c0.4,0,0.8,0.3,1.2,0.8
		c0.4,0.5,0.6,0.9,0.6,1.3c-0.1,0.4-0.4,0.7-0.8,1.1c-0.4,0.4-0.8,0.6-1.1,0.6h-22.1c-0.4-0.1-0.8-0.3-1.3-0.7s-1-0.8-1.4-1.4
		c-0.4-0.5-0.8-1-1.2-1.5c-0.3-0.5-0.5-0.9-0.5-1.2V26.2c0.1-0.4,0.3-0.7,0.7-1.1c0.4-0.4,0.8-0.5,1.2-0.5h43.4
		c0.5,0,0.9-0.3,1.4-0.8c0.4-0.5,0.7-1,0.7-1.5V10.5c0-0.5-0.2-1-0.7-1.4c-0.5-0.5-0.9-0.7-1.5-0.7h-61.9c-0.5,0-1,0.2-1.5,0.7
		s-0.7,1-0.7,1.4v37.1c0,2.3,0.6,4.5,1.7,6.6c1.1,2,2.5,3.8,4,5.3s3.2,2.7,4.9,3.6c1.7,0.9,3.1,1.3,4.2,1.3h49.2
		c0.5,0,1-0.3,1.5-0.8c0.4-0.5,0.7-1,0.7-1.5v-31c0-0.7-0.2-1.4-0.7-1.9c-0.5-0.6-1-0.9-1.5-0.9h-37c-0.3,0-0.7,0.3-1.1,0.9
		c-0.4,0.6-0.6,1-0.6,1.3v11.3c0,0.5,0.2,1,0.6,1.6s0.9,0.9,1.3,0.9H263.7z M241.5,46.6h4.1l-0.9-0.9v0.1c-0.7-0.2-1.4-0.8-1.9-1.7
		c-0.6-0.9-0.9-1.6-0.9-2.3V30.5c0-0.4,0.2-0.9,0.7-1.5h-0.5c-0.4,0-0.6,0.1-0.6,0.4V46.6z"/>
	<path class="st3" d="M356.1,56.3L356.1,56.3c-0.4,0-0.9-0.4-1.4-0.9c-0.5-0.6-0.9-1.1-1.2-1.6v11.7c0,0.7-0.3,1.5-0.9,2.2
		c-0.6,0.8-1.3,1.2-1.9,1.2h-15.1c-0.7,0-1.3-0.4-2.1-1.1l-2.3-2.3v0.1c-0.7-0.3-1.3-0.8-1.8-1.5c-0.5-0.7-0.7-1.4-0.7-2V10.5
		c0-0.8,0.4-1.6,1.1-2.4c0.8-0.8,1.6-1.3,2.6-1.3h61.9c0.7,0,1.3,0.3,2,0.8c0.7,0.5,1.1,1.1,1.4,1.8h-0.1l2.1,2
		c0.8,0.8,1.3,1.6,1.3,2.4v42c0,0.7-0.4,1.5-1.1,2.3c-0.7,0.8-1.5,1.2-2.3,1.2l2.9,4.2c0.4,0.7,0.5,1.3,0.5,2c0,1.5-0.6,2.6-1.9,3.4
		h-17.4c-0.7,0-1.3-0.1-1.9-0.2c-0.6-0.2-1.2-0.5-1.8-1l-2.3-2.3v0.1c-0.4-0.2-0.8-0.4-1.1-0.7s-0.6-0.8-0.9-1.4l-3-4.1h-11.1
		c-0.3,0-0.7-0.3-1.3-0.8L356.1,56.3z M377.6,37c-0.1,0.4-0.4,0.8-0.8,1.1c-0.4,0.3-0.8,0.5-1.1,0.5h-19c-0.5,0-0.9,0.3-1.4,0.9
		c-0.4,0.6-0.6,1.1-0.6,1.6v11.5c0,0.3,0.2,0.7,0.6,1.3c0.4,0.6,0.8,0.9,1.1,0.9h13.3l5.4,7.9c0.4,0.7,0.8,1.1,1.4,1.3
		c0.6,0.2,1.2,0.3,1.9,0.3h17c0.7-0.5,1-1.2,1-2.2c0-0.5-0.1-0.9-0.4-1.3l-4.1-6h2.3c0.5,0,1-0.3,1.5-0.8c0.4-0.5,0.7-1,0.7-1.5v-42
		c0-0.5-0.2-1-0.7-1.4c-0.5-0.5-0.9-0.7-1.5-0.7h-61.9c-0.5,0-1,0.2-1.5,0.7s-0.7,1-0.7,1.4v51.6c0,0.5,0.2,1,0.7,1.5
		c0.5,0.5,0.9,0.8,1.5,0.8h15c0.4,0,0.7-0.2,1.1-0.7c0.4-0.5,0.6-1,0.6-1.4V26.3c0-0.4,0.2-0.7,0.6-1.1c0.4-0.4,0.8-0.6,1.3-0.6
		h24.7c0.4,0,0.8,0.2,1.3,0.6s0.6,0.8,0.6,1.2V37z M376.1,36.6V29h-21.9c-0.4,0-0.6,0.2-0.6,0.5v10.3c0.3-0.7,0.8-1.3,1.4-1.8
		c0.6-0.6,1.2-0.9,1.8-0.9h19L376.1,36.6z"/>
	<path class="st3" d="M449.4,62.7c-1.1-0.8-2.1-1.7-3.2-2.8c-1-1.1-1.9-2.3-2.7-3.5c-0.8-1.3-1.4-2.6-1.9-4.1
		c-0.5-1.5-0.7-3-0.7-4.5V10.5c0-0.8,0.4-1.6,1.1-2.4c0.8-0.8,1.6-1.3,2.6-1.3h61.9c0.7,0,1.3,0.3,2,0.8c0.7,0.5,1.1,1.1,1.4,1.8
		h-0.1l2.1,2c0.8,0.8,1.3,1.6,1.3,2.4V51c0,2.5-0.6,4.9-1.8,7.1c-1.2,2.2-2.7,4.1-4.4,5.7c-1.7,1.6-3.5,2.9-5.3,3.8
		c-1.8,0.9-3.3,1.4-4.6,1.4h-36.7c-1.3,0-2.9-0.5-4.9-1.5s-3.8-2.4-5.5-4.1v0.1L449.4,62.7z M508.7,10.5c0-0.5-0.2-1-0.7-1.4
		c-0.5-0.5-0.9-0.7-1.5-0.7h-61.9c-0.5,0-1,0.2-1.5,0.7s-0.7,1-0.7,1.4v37.2c0,2.3,0.6,4.5,1.7,6.6c1.1,2,2.4,3.8,4,5.3
		c1.6,1.5,3.2,2.6,4.9,3.5c1.7,0.9,3.1,1.3,4.2,1.3h36.7c1.1,0,2.5-0.4,4.2-1.3c1.7-0.9,3.3-2,4.9-3.5c1.6-1.5,2.9-3.2,4-5.3
		c1.1-2,1.7-4.2,1.7-6.6V10.5z M461.3,26.4c0-0.4,0.2-0.8,0.6-1.2s0.8-0.6,1.3-0.6h24.7c0.4,0,0.8,0.2,1.2,0.6
		c0.4,0.4,0.7,0.8,0.7,1.1v17.5c-0.1,0.4-0.2,0.8-0.5,1.3s-0.7,1-1.1,1.4s-0.9,0.8-1.4,1.1c-0.5,0.3-0.9,0.5-1.4,0.5h-19.7
		c-0.4,0-0.8-0.2-1.3-0.5c-0.5-0.4-1-0.8-1.4-1.3s-0.8-1-1.1-1.5c-0.3-0.5-0.4-0.9-0.4-1.3V26.4z M465.7,46.6h19.6
		c0.2,0,0.4-0.1,0.7-0.3c0.3-0.2,0.6-0.4,0.9-0.7s0.6-0.6,0.8-0.9c0.2-0.3,0.4-0.6,0.5-0.9V29h-21.9c-0.4,0-0.6,0.2-0.6,0.6V46.6z"
		/>
	<path class="st3" d="M555.6,65.5L555.6,65.5c-0.7-0.2-1.3-0.7-1.8-1.4c-0.5-0.7-0.7-1.4-0.7-2v-37c0-2.6,0.6-5,1.8-7.2
		c1.2-2.2,2.7-4.2,4.4-5.8c1.7-1.6,3.5-2.9,5.4-3.8c1.9-0.9,3.5-1.4,4.7-1.4h49.2c0.7,0,1.3,0.3,2,0.8c0.7,0.5,1.1,1.1,1.4,1.8H622
		l2.1,2c0.8,0.8,1.3,1.6,1.3,2.4v31c0,1-0.4,1.9-1.1,2.8c-0.8,0.8-1.5,1.3-2.4,1.3h-0.2c0,0.1,0,0.1,0.1,0.1V49h0.1l0.1,0.1l2.8,2.7
		c0.4,0.4,0.6,1,0.6,1.9v11.7c0,0.8-0.4,1.6-1.1,2.3c-0.7,0.8-1.5,1.2-2.3,1.2h-62c-0.7,0-1.3-0.4-2.1-1.1L555.6,65.5z M581.8,28.3
		c-0.5,0-0.9,0.3-1.3,0.9c-0.4,0.6-0.6,1.1-0.6,1.6v11.3c0,0.3,0.2,0.7,0.6,1.3s0.8,0.9,1.1,0.9h37c0.5,0,1-0.3,1.5-0.9
		c0.5-0.6,0.7-1.2,0.7-1.9v-31c0-0.5-0.2-1-0.7-1.4c-0.5-0.5-0.9-0.7-1.5-0.7h-49.2c-1.1,0-2.6,0.4-4.2,1.3s-3.3,2-4.9,3.5
		s-2.9,3.3-4,5.3c-1.1,2-1.7,4.3-1.7,6.7v37c0,0.5,0.2,1,0.7,1.5c0.5,0.5,0.9,0.8,1.5,0.8h61.9c0.5,0,1-0.3,1.5-0.8
		c0.4-0.5,0.7-1,0.7-1.5V50.4c0-0.5-0.2-1-0.7-1.5c-0.5-0.5-0.9-0.8-1.4-0.8h-43.4c-0.4,0-0.8-0.2-1.2-0.5c-0.4-0.4-0.6-0.8-0.7-1.2
		V29.3c0-0.2,0.2-0.6,0.5-1.1s0.7-1,1.2-1.5c0.5-0.5,0.9-1,1.4-1.4s0.9-0.6,1.3-0.7H600c0.4,0,0.7,0.2,1.1,0.6
		c0.4,0.4,0.6,0.7,0.8,1c-0.1,0.4-0.3,0.8-0.6,1.3c-0.4,0.5-0.8,0.8-1.2,0.8H581.8z M577.9,46.6h4.3l-1-0.9v0.1
		c-0.2-0.1-0.5-0.3-0.9-0.6c-0.3-0.3-0.6-0.7-0.9-1.1c-0.3-0.4-0.6-0.8-0.8-1.2c-0.2-0.4-0.3-0.7-0.3-0.9V31.4
		c-0.3,0.5-0.5,0.8-0.5,1.1V46.6z"/>
	<path class="st3" d="M669,46.6l-1.3-1.2v0.1c-0.7-0.3-1.2-0.8-1.8-1.5c-0.5-0.7-0.8-1.4-0.8-2V25c0-2.6,0.6-5,1.8-7.2
		c1.2-2.2,2.7-4.1,4.4-5.8c1.7-1.6,3.5-2.9,5.4-3.8c1.9-0.9,3.4-1.4,4.7-1.4h49.8c0.4,0,0.8,0.3,1.4,0.9c0.6,0.6,1,1.1,1.3,1.7h-0.1
		l1.5,1.4v-0.1c0.5,0.5,0.9,1.1,1.4,1.7c0.5,0.6,0.7,1,0.7,1.3v11.6c0,0.4-0.1,0.8-0.3,1.2s-0.4,0.8-0.8,1.2
		c-0.3,0.4-0.7,0.7-1.1,0.9c-0.4,0.3-0.8,0.4-1.1,0.4h-0.5c0,0.1,0,0.1,0.1,0.1c0.1,0.1,0.1,0.1,0.1,0.2s0,0.1,0.1,0.2l1.5,1.5
		l0.3,0.2c0.5,0.5,0.9,1,1.2,1.6s0.5,1.2,0.5,1.7v30.9c0,0.8-0.4,1.6-1.1,2.3c-0.7,0.8-1.5,1.2-2.3,1.2h-62.2c-0.5,0-1.1-0.3-1.7-1
		l-2.3-2.2v0.1c-0.7-0.3-1.3-0.9-1.8-1.7c-0.6-0.8-0.9-1.6-0.9-2.3V50.3c0-0.2,0.1-0.5,0.4-0.9c0.2-0.4,0.5-0.8,0.9-1.3
		c0.3-0.4,0.7-0.8,1-1.1c0.4-0.3,0.7-0.5,1-0.5H669z M668.4,48.2c-0.3,0-0.7,0.3-1.1,0.9c-0.4,0.6-0.6,1-0.6,1.3v11.5
		c0,0.5,0.2,1,0.6,1.6c0.4,0.6,0.9,0.9,1.3,0.9h62.1c0.5,0,1-0.3,1.5-0.8c0.4-0.5,0.7-1,0.7-1.5V31.2c0-0.7-0.2-1.4-0.7-1.9
		c-0.5-0.6-1-0.9-1.5-0.9h-43.3c-0.2-0.1-0.5-0.2-0.7-0.4c-0.2-0.2-0.3-0.5-0.3-0.8c0-0.4,0.1-0.7,0.4-1c0.3-0.3,0.6-0.6,1-0.9
		c0.4-0.2,0.8-0.4,1.2-0.6c0.4-0.1,0.7-0.2,0.9-0.2h41c0.5,0,0.9-0.3,1.4-0.9c0.4-0.6,0.6-1.1,0.6-1.6V10.5c0-0.2-0.2-0.6-0.6-1.2
		c-0.4-0.6-0.8-0.9-1.1-0.9h-49.8c-1.1,0-2.5,0.4-4.2,1.3s-3.3,2-4.9,3.5c-1.6,1.5-2.9,3.3-4,5.3c-1.1,2-1.7,4.2-1.7,6.6v17
		c0,0.5,0.3,1,0.8,1.5c0.5,0.5,1,0.8,1.5,0.8h43.3l0.7,0.4c0.4,0.1,0.6,0.3,0.8,0.5c0.2,0.2,0.3,0.6,0.3,1.3c0,0.8-0.2,1.3-0.6,1.5
		s-0.8,0.3-1.3,0.3H668.4z"/>
	<path class="st3" d="M792.1,29h-8c-0.4,0-0.8-0.1-1.2-0.3c-0.4-0.2-0.7-0.5-0.9-0.8l-2.3-2.2v0.1c-0.7-0.3-1.2-0.8-1.7-1.5
		s-0.7-1.4-0.7-2V10.5c0-0.8,0.4-1.6,1.1-2.4c0.8-0.8,1.6-1.3,2.6-1.3h52.3c0.7,0,1.3,0.3,2,0.8c0.7,0.5,1.1,1.1,1.4,1.8h-0.1
		l1.5,1.5l0.2,0.1c1.1,1.1,1.6,2,1.6,2.8v11.8c0,0.7-0.3,1.4-1,2.2s-1.5,1.2-2.3,1.2h-18.7c-0.2,0-0.4,0.1-0.6,0.4
		c-0.2,0.3-0.3,0.6-0.4,0.9v16.3h8c0.6,0,1.2,0.3,1.7,0.8c0.5,0.5,1,1.1,1.3,1.7h-0.1l2,2.1c1,1,1.4,1.9,1.4,2.8v11.5
		c0,0.2-0.1,0.5-0.3,0.9c-0.2,0.4-0.5,0.8-0.8,1.1c-0.3,0.4-0.6,0.7-0.9,1c-0.3,0.3-0.6,0.4-0.9,0.4h-16.8c-1.3,0-2.9-0.5-4.9-1.5
		s-3.8-2.4-5.5-4.1v0.1l-0.7-0.6c-1.1-0.8-2.1-1.7-3.1-2.8c-1-1.1-1.9-2.3-2.7-3.5c-0.8-1.3-1.4-2.6-1.9-4.1c-0.5-1.5-0.7-3-0.7-4.5
		V29z M793.6,47.7c0,2.3,0.6,4.5,1.7,6.6c1.1,2,2.4,3.8,4,5.3c1.6,1.5,3.2,2.6,4.9,3.5c1.7,0.9,3.1,1.3,4.2,1.3h16.8
		c0.3,0,0.7-0.3,1.1-0.9c0.4-0.6,0.6-1,0.6-1.3V50.7c0-0.5-0.2-1-0.6-1.6c-0.4-0.6-0.9-0.9-1.3-0.9h-8.4c-0.4-0.1-0.8-0.3-1.3-0.6
		c-0.5-0.4-0.9-0.8-1.3-1.3c-0.4-0.5-0.7-1-1-1.5c-0.3-0.5-0.5-0.9-0.5-1.2V27c0.1-0.5,0.3-1.1,0.8-1.6c0.5-0.5,0.9-0.8,1.3-0.8
		h18.7c0.5,0,0.9-0.3,1.4-0.8s0.7-1,0.7-1.5V10.5c0-0.5-0.2-1-0.7-1.4s-0.9-0.7-1.5-0.7H781c-0.5,0-1,0.2-1.5,0.7s-0.7,1-0.7,1.4
		v11.8c0,0.5,0.2,1,0.7,1.5s0.9,0.8,1.4,0.8h10.4c0.4,0,0.9,0.3,1.4,0.8c0.5,0.5,0.8,1.1,0.9,1.6V47.7z"/>
	<path class="st3" d="M888.3,62.7c-2.2-1.6-4.2-3.7-5.9-6.3c-1.7-2.5-2.6-5.4-2.6-8.7V10.5c0-0.8,0.4-1.6,1.1-2.4
		c0.8-0.8,1.6-1.3,2.6-1.3H898c0.7,0,1.3,0.3,2,0.8c0.7,0.5,1.1,1.1,1.4,1.8h-0.1l2.1,2c0.4,0.4,0.7,0.8,0.9,1.2
		c0.2,0.4,0.4,0.8,0.4,1.3v32.8h25.6c0.6,0,1.2,0.3,1.7,0.8c0.5,0.5,1,1.1,1.3,1.7h-0.1l2.1,2.1c1,1,1.4,1.9,1.4,2.8v11.5
		c0,0.2-0.1,0.5-0.3,0.9c-0.2,0.4-0.5,0.8-0.8,1.1c-0.3,0.4-0.7,0.7-1,1c-0.3,0.3-0.6,0.4-0.9,0.4h-34.5c-1.3,0-2.8-0.5-4.8-1.5
		s-3.8-2.4-5.5-4.1v0.1L888.3,62.7z M900.2,10.5c0-0.5-0.2-1-0.7-1.4s-0.9-0.7-1.5-0.7h-14.5c-0.5,0-1,0.2-1.5,0.7s-0.7,1-0.7,1.4
		v37.2c0,2.3,0.6,4.5,1.7,6.6c1.1,2,2.4,3.8,4,5.3c1.6,1.5,3.2,2.6,4.9,3.5c1.7,0.9,3.1,1.3,4.2,1.3h34.4c0.3,0,0.7-0.3,1.1-0.9
		c0.4-0.6,0.6-1,0.6-1.3V50.7c0-0.5-0.2-1-0.6-1.6c-0.4-0.6-0.9-0.9-1.3-0.9h-25.7c-0.4-0.1-0.8-0.3-1.3-0.6c-0.5-0.4-1-0.8-1.4-1.3
		s-0.8-1-1.1-1.4s-0.5-0.9-0.5-1.3V10.5z"/>
	<path class="st3" d="M985,62.4L985,62.4c-1.1-0.7-2.1-1.6-3.1-2.7c-1-1.1-1.9-2.2-2.7-3.5c-0.8-1.3-1.4-2.7-1.9-4.1
		c-0.5-1.4-0.7-2.9-0.7-4.5V10.5c0-0.8,0.4-1.6,1.1-2.4c0.8-0.8,1.6-1.3,2.6-1.3h61.9c0.7,0,1.3,0.3,2,0.8c0.7,0.5,1.1,1.1,1.4,1.8
		h-0.1l1.5,1.5l0.2,0.1c1.1,1.1,1.6,2,1.6,2.8v19.5c0,1-0.4,1.9-1.1,2.8c-0.8,0.8-1.5,1.3-2.4,1.3h-14.5c-0.7,0-1.4-0.3-2-0.9
		l-2.3-2.3v0.1c-0.8-0.3-1.5-0.9-1.9-1.7c-0.4-0.8-0.7-1.7-0.7-2.5v-1h-21.9c-0.4,0-0.6,0.1-0.6,0.4v17.2h40.8
		c0.6,0,1.2,0.3,1.9,0.9c0.7,0.6,1.2,1.2,1.5,1.8h-0.1l1.6,1.6c0.1,0,0.2,0.1,0.2,0.2c0.4,0.4,0.8,0.9,1.1,1.3
		c0.3,0.5,0.5,0.9,0.5,1.2v11.7c0,0.8-0.4,1.6-1.1,2.3c-0.7,0.8-1.5,1.2-2.3,1.2h-49.2c-1.3,0-2.9-0.5-4.9-1.5
		c-1.9-1-3.8-2.4-5.6-4.2L985,62.4z M1025.5,30c0,0.7,0.2,1.3,0.6,1.9c0.4,0.6,0.9,0.9,1.6,0.9h14.5c0.5,0,1-0.3,1.5-0.9
		c0.5-0.6,0.7-1.2,0.7-1.9V10.5c0-0.5-0.2-1-0.7-1.4c-0.5-0.5-0.9-0.7-1.5-0.7h-61.9c-0.5,0-1,0.2-1.5,0.7s-0.7,1-0.7,1.4v37.1
		c0,2.3,0.6,4.5,1.7,6.6c1.1,2,2.5,3.8,4,5.3s3.2,2.7,4.9,3.6c1.7,0.9,3.1,1.3,4.2,1.3h49.2c0.5,0,1-0.3,1.5-0.8
		c0.4-0.5,0.7-1,0.7-1.5V50.4c0-0.5-0.2-1-0.7-1.5c-0.5-0.5-1-0.8-1.4-0.8h-40.7c-0.4,0-0.8-0.2-1.3-0.5c-0.5-0.4-1-0.8-1.5-1.3
		c-0.5-0.5-0.9-1-1.2-1.6s-0.5-1-0.5-1.4V26.2c0.1-0.4,0.3-0.7,0.7-1.1c0.4-0.4,0.8-0.5,1.2-0.5h24.8c0.4,0.1,0.7,0.4,1.1,0.8
		c0.4,0.4,0.6,0.7,0.6,1V30z"/>
	<path class="st3" d="M1097.2,62.7c-1.1-0.8-2.1-1.7-3.2-2.8c-1-1.1-1.9-2.3-2.7-3.5c-0.8-1.3-1.4-2.6-1.9-4.1
		c-0.5-1.5-0.7-3-0.7-4.5V10.5c0-0.8,0.4-1.6,1.1-2.4c0.8-0.8,1.6-1.3,2.6-1.3h61.9c0.7,0,1.3,0.3,2,0.8c0.7,0.5,1.1,1.1,1.4,1.8
		h-0.1l2.1,2c0.8,0.8,1.3,1.6,1.3,2.4V51c0,2.5-0.6,4.9-1.8,7.1c-1.2,2.2-2.7,4.1-4.4,5.7c-1.7,1.6-3.5,2.9-5.3,3.8
		c-1.8,0.9-3.3,1.4-4.6,1.4h-36.7c-1.3,0-2.9-0.5-4.9-1.5s-3.8-2.4-5.5-4.1v0.1L1097.2,62.7z M1156.5,10.5c0-0.5-0.2-1-0.7-1.4
		c-0.5-0.5-0.9-0.7-1.5-0.7h-61.9c-0.5,0-1,0.2-1.5,0.7s-0.7,1-0.7,1.4v37.2c0,2.3,0.6,4.5,1.7,6.6c1.1,2,2.4,3.8,4,5.3
		c1.6,1.5,3.2,2.6,4.9,3.5c1.7,0.9,3.1,1.3,4.2,1.3h36.7c1.1,0,2.5-0.4,4.2-1.3c1.7-0.9,3.3-2,4.9-3.5c1.6-1.5,2.9-3.2,4-5.3
		c1.1-2,1.7-4.2,1.7-6.6V10.5z M1109.2,26.4c0-0.4,0.2-0.8,0.6-1.2s0.8-0.6,1.3-0.6h24.7c0.4,0,0.8,0.2,1.2,0.6
		c0.4,0.4,0.7,0.8,0.7,1.1v17.5c-0.1,0.4-0.2,0.8-0.5,1.3s-0.7,1-1.1,1.4s-0.9,0.8-1.4,1.1c-0.5,0.3-0.9,0.5-1.4,0.5h-19.7
		c-0.4,0-0.8-0.2-1.3-0.5c-0.5-0.4-1-0.8-1.4-1.3s-0.8-1-1.1-1.5c-0.3-0.5-0.4-0.9-0.4-1.3V26.4z M1113.6,46.6h19.6
		c0.2,0,0.4-0.1,0.7-0.3c0.3-0.2,0.6-0.4,0.9-0.7s0.6-0.6,0.8-0.9c0.2-0.3,0.4-0.6,0.5-0.9V29h-21.9c-0.4,0-0.6,0.2-0.6,0.6V46.6z"
		/>
	<path class="st3" d="M1251.6,6.9c0.7,0,1.3,0.3,2,0.8c0.7,0.5,1.1,1.1,1.4,1.8h-0.1l2.1,2c0.8,0.8,1.3,1.6,1.3,2.4v11.8
		c0,0.7-0.3,1.4-1,2.2c-0.7,0.8-1.5,1.2-2.3,1.2h-12c-0.2,0-0.4,0.1-0.6,0.4c-0.2,0.3-0.3,0.6-0.4,0.9v16.3h9.7
		c0.6,0,1.2,0.2,1.8,0.7c0.6,0.4,1.1,1,1.4,1.7h-0.1l0.1,0.1l2.8,2.7c0.4,0.4,0.6,1,0.6,1.9v11.7c0,0.8-0.4,1.6-1.1,2.3
		c-0.7,0.8-1.5,1.2-2.3,1.2h-47.2c-0.7,0-1.4-0.4-2.2-1.1l-2.2-2.3v0.1c-0.7-0.3-1.3-0.8-1.8-1.5c-0.5-0.7-0.7-1.4-0.7-2V50.4
		c0-0.4,0.1-0.8,0.3-1.2c0.2-0.4,0.5-0.9,0.9-1.3c0.4-0.4,0.8-0.7,1.2-0.9c0.4-0.2,0.8-0.4,1.3-0.4h12c0.1,0,0.2-0.1,0.4-0.4
		l0.4-0.9V29h-9.5c-1,0-1.7-0.4-2.3-1.1h0.1l-2.3-2.2v0.1c-0.7-0.3-1.2-0.8-1.7-1.5s-0.7-1.4-0.7-2V10.5c0-0.8,0.4-1.6,1.1-2.4
		c0.8-0.8,1.6-1.3,2.6-1.3H1251.6z M1204.6,8.4c-0.5,0-1,0.2-1.5,0.7s-0.7,1-0.7,1.4v11.8c0,0.5,0.2,1,0.7,1.5s0.9,0.8,1.4,0.8h12
		c0.4,0,0.9,0.3,1.4,0.8c0.5,0.5,0.8,1.1,0.9,1.6v18.8c-0.1,0.5-0.4,1-0.9,1.5c-0.5,0.5-0.9,0.8-1.4,0.8h-12c-0.5,0-0.9,0.3-1.4,0.8
		c-0.5,0.5-0.7,1-0.7,1.5v11.7c0,0.5,0.2,1,0.7,1.5c0.5,0.5,0.9,0.8,1.5,0.8h47.1c0.5,0,1-0.3,1.5-0.8c0.5-0.5,0.7-1,0.7-1.5V50.4
		c0-0.5-0.2-1-0.7-1.5c-0.5-0.5-0.9-0.8-1.4-0.8h-12c-0.5,0-1-0.3-1.4-0.8c-0.5-0.5-0.8-1.1-0.8-1.6V27c0.1-0.5,0.3-1.1,0.9-1.6
		c0.5-0.5,1-0.8,1.4-0.8h12c0.5,0,0.9-0.3,1.4-0.8s0.7-1,0.7-1.5V10.5c0-0.5-0.2-1-0.7-1.4s-0.9-0.7-1.5-0.7H1204.6z"/>
	<path class="st3" d="M1348.2,8.1c0.8-0.8,1.6-1.3,2.6-1.3h14.6c0.7,0,1.3,0.3,2,0.8c0.7,0.5,1.1,1.1,1.4,1.8h-0.1l2.1,2
		c0.8,0.8,1.3,1.6,1.3,2.4v51.4c0,0.8-0.2,1.5-0.6,2.2s-0.9,1.2-1.5,1.5h-19.3c-0.7,0-1.3-0.1-2-0.3c-0.7-0.2-1.3-0.5-1.8-1.1
		l-2.2-2.2v0.1c-0.5-0.2-0.9-0.4-1.2-0.7c-0.3-0.3-0.6-0.6-0.9-1.1L1323,41.2v23.6c0,1-0.4,2-1.1,2.8c-0.7,0.8-1.5,1.3-2.3,1.3
		h-14.5c-0.7,0-1.3-0.4-2.1-1.1l-2.2-2.3v0.1c-0.7-0.3-1.3-0.8-1.8-1.6c-0.5-0.8-0.8-1.6-0.8-2.5V10.7c0-0.7,0.2-1.4,0.7-2.2
		s1-1.4,1.7-1.7h19.3c0.7,0,1.3,0.1,2,0.4c0.7,0.2,1.3,0.6,1.8,1.1V8l3.2,3.6h-0.1l0.7,0.7l19.6,22.8V10.5
		C1347.1,9.8,1347.5,9,1348.2,8.1z M1348.6,39.3L1323.3,10c-0.3-0.5-0.8-0.9-1.4-1.2s-1.3-0.4-2-0.4h-19c-0.3,0.1-0.6,0.4-0.8,0.9
		c-0.2,0.5-0.4,1-0.4,1.4v50.8c0,0.7,0.2,1.4,0.7,1.9c0.5,0.6,1,0.9,1.5,0.9h14.4c0.5,0,1-0.3,1.5-0.9c0.5-0.6,0.7-1.2,0.7-1.9V33.4
		l25.2,29.3c0.4,0.7,0.9,1.1,1.5,1.3s1.3,0.3,2,0.3h19c0.8-0.5,1.3-1.4,1.3-2.4V10.5c0-0.5-0.2-1-0.7-1.4c-0.4-0.5-0.9-0.7-1.5-0.7
		h-14.6c-0.5,0-1,0.2-1.5,0.7s-0.7,1-0.7,1.4V39.3z"/>
</g>
</svg>
