<?xml version="1.0" encoding="utf-8"?>
<!-- Generator: Adobe Illustrator 23.0.1, SVG Export Plug-In . SVG Version: 6.00 Build 0)  -->
<svg version="1.1" id="Layer_1" xmlns="http://www.w3.org/2000/svg" xmlns:xlink="http://www.w3.org/1999/xlink" x="0px" y="0px"
	 viewBox="0 0 1494 165.1" style="enable-background:new 0 0 1494 165.1;" xml:space="preserve">
<style type="text/css">
	.st0{filter:url(#Adobe_OpacityMaskFilter);}
	.st1{mask:url(#SVGID_1_);}
	.st2{fill:url(#SVGID_2_);}
	.st3{fill:url(#SVGID_3_);}
	.st4{fill:url(#SVGID_4_);}
	.st5{fill:#FFFFFF;}
</style>
<g>
	<defs>
		<filter id="Adobe_OpacityMaskFilter" filterUnits="userSpaceOnUse" x="-5.2" y="-8.8" width="154" height="189">
			<feFlood  style="flood-color:white;flood-opacity:1" result="back"/>
			<feBlend  in="SourceGraphic" in2="back" mode="normal"/>
		</filter>
	</defs>
	<mask maskUnits="userSpaceOnUse" x="-5.2" y="-8.8" width="154" height="189" id="SVGID_1_">
		<g class="st0">
			
				<image style="overflow:visible;" width="158" height="193" xlink:href="7179E7C8.jpg"  transform="matrix(1 0 0 1 -7.1667 -10.8369)">
			</image>
		</g>
	</mask>
	<g class="st1">
		<g style="opacity:0.39;">
			
				<image style="overflow:visible;" width="154" height="189" xlink:href="7179E7C8.png"  transform="matrix(1 0 0 1 -5.1667 -8.8369)">
			</image>
		</g>
		<g>
			<g style="opacity:0.75;">
				
					<image style="overflow:visible;" width="132" height="167" xlink:href="7179E7CF.png"  transform="matrix(1 0 0 1 5.8333 2.1631)">
				</image>
			</g>
			<g>
				<g>
					<linearGradient id="SVGID_2_" gradientUnits="userSpaceOnUse" x1="25.7907" y1="98.7233" x2="128.5784" y2="98.7233">
						<stop  offset="0" style="stop-color:#00A5BD"/>
						<stop  offset="1" style="stop-color:#005E78"/>
					</linearGradient>
					<path class="st2" d="M25.8,158.9c6.3-6.1,12.5-12.2,18.8-18.2c11.5-11,23-22.1,34.5-33.1c13.1-12.5,26.1-25.1,39.2-37.6
						c0.2-0.2,0.5-0.3,0.8-0.5c-0.1-0.2-0.2-0.4-0.3-0.6c-11.6,3.4-23.1,6.7-35.1,10.2c2.1-3.5,4-6.8,5.9-10.1
						c5.8-9.9,11.7-19.7,17.5-29.5c0.4-0.8,0.7-1.4,1.7-0.5c7,6.7,13,14.1,16.5,23.2c2.9,7.4,3.5,15.1,3.1,22.9
						c-0.6,15.5-6.3,28.8-17.4,39.6c-7.4,7.2-16.4,11.4-26.4,13.4c-5,1-10.1,1.5-15.1,2.5c-8.4,1.6-16.2,4.9-23.7,8.8
						c-6.4,3.3-12.9,6.4-19.3,9.6C26.3,159.1,26,159.1,25.8,158.9z"/>
					<linearGradient id="SVGID_3_" gradientUnits="userSpaceOnUse" x1="9.2651" y1="66.0086" x2="112.3864" y2="66.0086">
						<stop  offset="0" style="stop-color:#00A5BD"/>
						<stop  offset="1" style="stop-color:#005E78"/>
					</linearGradient>
					<path class="st3" d="M112.4,5.5C81,35.6,49.7,65.7,18.4,95.8c0,0.1,0.1,0.2,0.1,0.3c11.7-3.4,23.4-6.8,35.1-10.2
						c0.1,0.1,0.2,0.2,0.2,0.3c-8,13.4-15.9,26.9-24,40.4c-3.1-3-5.8-6.2-8.3-9.5C15,108.2,11,98.4,9.7,87.4
						c-2.8-22.8,9.8-46.7,29.4-56c6.5-3.1,13.2-5.2,20.3-5.9c11-1.1,21.2-4.6,31-9.4c7-3.4,13.9-7,20.9-10.4
						C111.5,5.5,111.8,5.3,112.4,5.5z"/>
					<linearGradient id="SVGID_4_" gradientUnits="userSpaceOnUse" x1="25.1972" y1="159.286" x2="26.5582" y2="159.286">
						<stop  offset="0" style="stop-color:#00A5BD"/>
						<stop  offset="1" style="stop-color:#005E78"/>
					</linearGradient>
					<path class="st4" d="M25.8,158.9c0.3,0,0.5,0,0.8,0c-0.4,0.2-0.9,0.5-1.4,0.8C25.1,159.1,25.6,159.1,25.8,158.9z"/>
				</g>
			</g>
		</g>
	</g>
</g>
<g>
	<path class="st5" d="M136.9,134.2c0-0.5,0.4-1.2,1.1-2c0.7-0.9,1.6-1.7,2.6-2.6c-2.4-1.5-3.6-3.3-3.6-5.2v-20.7
		c0-3.5,1.1-6.7,3.2-9.7c2.1-3,4.7-5.6,7.6-7.8c3-2.2,6.1-3.9,9.3-5.2c3.2-1.3,5.9-1.9,8.2-1.9h75.6c0.7,0,1.5,0.3,2.5,0.9
		c1,0.6,1.9,1.3,2.8,2.1c0.9,0.8,1.7,1.6,2.3,2.4c0.6,0.8,0.9,1.4,0.9,1.8v13.8c0,0.9-0.3,1.8-1,2.7c-0.7,0.9-1.4,1.8-2.2,2.7
		c0.8,0.7,1.5,1.6,2.2,2.6c0.7,1,1,2.1,1,3.1v37.3c0,0.8-0.3,1.6-0.8,2.5c-0.6,0.9-1.3,1.6-2.1,2.4c-0.9,0.7-1.8,1.3-2.9,1.8
		c-1.1,0.4-2.2,0.7-3.2,0.7h-94.4c-1,0-2-0.3-3.1-0.8c-1.1-0.5-2-1.2-2.9-2c-0.9-0.8-1.6-1.6-2.1-2.5c-0.6-0.9-0.8-1.6-0.8-2.4
		V134.2z M138.8,134.2v13.9c0,0.7,0.2,1.3,0.6,2c0.4,0.7,0.9,1.3,1.6,1.9c0.7,0.6,1.4,1.1,2.3,1.5c0.9,0.4,1.7,0.6,2.5,0.6h94.4
		c0.9,0,1.8-0.2,2.6-0.5c0.8-0.4,1.6-0.8,2.3-1.3c0.7-0.5,1.3-1.1,1.7-1.8c0.4-0.7,0.6-1.4,0.6-2v-37.3c0-1.1-0.4-2.2-1.2-3.2
		c-0.8-1-1.9-1.8-3.2-2.5c1.3-0.6,2.4-1.5,3.2-2.6c0.8-1.1,1.2-2,1.2-2.7V86.3c0-0.3-0.2-0.8-0.7-1.5c-0.5-0.6-1-1.3-1.7-1.9
		c-0.7-0.6-1.4-1.2-2.1-1.6c-0.7-0.5-1.4-0.7-2-0.7h-75.6c-2,0-4.5,0.6-7.5,1.8c-3,1.2-5.9,2.8-8.7,4.9c-2.8,2.1-5.1,4.5-7.1,7.3
		c-2,2.8-2.9,5.8-2.9,9.1v20.7c0,0.7,0.5,1.6,1.4,2.6c0.9,1,2,1.8,3.2,2.4c-1.2,0.7-2.3,1.6-3.2,2.7
		C139.3,133.1,138.8,133.8,138.8,134.2z M211.9,131.3c0.5,0,1-0.1,1.6-0.2c0.6-0.2,0.8-0.7,0.8-1.6c0-0.6-0.1-1-0.3-1.2
		c-0.2-0.1-0.5-0.3-0.9-0.4c-0.2-0.1-0.7-0.2-1.4-0.5h-65.5c-0.8,0-1.7-0.3-2.6-1c-0.9-0.7-1.4-1.4-1.4-2v-20.7c0-2.8,0.9-5.5,2.6-8
		c1.7-2.5,3.8-4.6,6.2-6.5c2.4-1.8,4.9-3.3,7.5-4.3c2.6-1.1,4.8-1.6,6.5-1.6h75.6c0.5,0,1.1,0.4,1.9,1.2c0.8,0.8,1.1,1.4,1.1,1.8
		v13.8c0,0.7-0.4,1.4-1.1,2.2c-0.8,0.8-1.5,1.2-2.3,1.2h-62.2c-0.8,0-1.8,0.3-3.1,0.8c-1.3,0.5-1.9,1.2-1.9,2.1c0,0.7,0.4,1,1.1,1.1
		H240c0.8,0,1.6,0.4,2.5,1.1c0.9,0.7,1.3,1.6,1.3,2.6v37.3c0,0.7-0.4,1.3-1.2,2c-0.8,0.7-1.6,1-2.4,1h-94.4c-0.9,0-1.7-0.4-2.4-1.2
		c-0.7-0.8-1.1-1.5-1.1-2.2v-13.9c0-0.3,0.4-0.9,1.1-1.7c0.8-0.8,1.4-1.2,1.9-1.2H211.9z M211.3,130.3l-0.3,0.2l-0.2-0.1v-0.2
		C211,130.2,211.2,130.2,211.3,130.3z"/>
	<path class="st5" d="M335.7,155.7c-2.1,0-4.2-0.8-6.1-2.4c-2-1.6-2.9-3.5-2.9-5.7v-5.4h-31.6v5.4c0,2.3-1,4.2-3,5.7
		c-2,1.5-4.1,2.3-6.3,2.3H264c-2.2,0-4.3-0.8-6.3-2.3c-2-1.5-3-3.4-3-5.7V86.3c0-0.8,0.3-1.6,0.8-2.5c0.5-0.9,1.2-1.6,2-2.4
		c0.9-0.7,1.8-1.3,2.9-1.8c1.1-0.4,2.3-0.7,3.5-0.7h22c1.1,0,2.2,0.2,3.3,0.7c1.1,0.4,2.1,1,2.9,1.8c0.9,0.7,1.6,1.5,2.1,2.4
		c0.6,0.9,0.8,1.7,0.8,2.5v27.3h31.6V86.3c0-0.8,0.3-1.6,0.8-2.5c0.6-0.9,1.2-1.6,2-2.4c0.8-0.7,1.7-1.3,2.8-1.8
		c1.1-0.4,2.1-0.7,3.2-0.7h22.3c1,0,2.1,0.2,3.2,0.7c1.1,0.4,2.1,1,2.9,1.8c0.9,0.7,1.6,1.5,2.1,2.4c0.6,0.9,0.8,1.7,0.8,2.5v61.4
		c0,2.2-1,4.1-2.9,5.7c-2,1.6-4.1,2.4-6.3,2.4H335.7z M335.7,154.2h22c1.7,0,3.3-0.7,4.9-2c1.6-1.3,2.3-2.8,2.3-4.4V86.3
		c0-0.6-0.2-1.3-0.6-2c-0.4-0.7-1-1.3-1.7-1.8c-0.7-0.5-1.5-1-2.3-1.3c-0.8-0.4-1.7-0.5-2.6-0.5h-22.3c-1.7,0-3.3,0.6-4.8,1.9
		c-1.5,1.3-2.2,2.5-2.2,3.8v28.7h-35.5V86.3c0-1.3-0.8-2.6-2.3-3.8c-1.5-1.3-3.2-1.9-5-1.9h-22c-1.8,0-3.5,0.6-5,1.9
		c-1.5,1.3-2.3,2.5-2.3,3.8v61.4c0,1.6,0.8,3.1,2.3,4.4c1.6,1.3,3.2,2,5.1,2h21.7c1.8,0,3.5-0.7,5.1-2c1.6-1.3,2.3-2.8,2.3-4.4v-6.9
		h35.5v6.9c0,1.6,0.8,3.1,2.3,4.4C332.4,153.5,334,154.2,335.7,154.2z M329.6,138h-37.6c-0.6,0-1.2,0.2-1.7,0.7
		c-0.6,0.4-0.8,0.9-0.8,1.3v7.8c0,1-0.4,1.8-1.2,2.6c-0.8,0.8-1.7,1.2-2.6,1.2H264c-0.9,0-1.8-0.4-2.6-1.2c-0.9-0.8-1.3-1.6-1.3-2.6
		V86.3c0-0.6,0.4-1.3,1.1-2c0.8-0.7,1.6-1,2.6-1h22c1,0,1.9,0.3,2.6,1c0.7,0.7,1.1,1.4,1.1,2v29.6c0,0.4,0.3,0.8,0.8,1.3
		c0.6,0.4,1.1,0.7,1.6,0.7h37.9c0.5,0,1-0.2,1.5-0.7c0.5-0.4,0.8-0.9,0.8-1.3V86.3c0-0.6,0.4-1.3,1.1-2c0.8-0.7,1.5-1,2.3-1h22.3
		c0.8,0,1.6,0.3,2.4,1c0.8,0.7,1.2,1.4,1.2,2v61.4c0,1-0.4,1.8-1.3,2.6c-0.9,0.8-1.7,1.2-2.5,1.2h-22c-0.8,0-1.6-0.4-2.4-1.2
		c-0.8-0.8-1.2-1.6-1.2-2.6v-7.8c0-0.4-0.3-0.8-0.8-1.3C330.8,138.2,330.2,138,329.6,138z"/>
	<path class="st5" d="M484.7,131.1c0,3.5-1.1,6.7-3.2,9.7c-2.1,3-4.7,5.6-7.7,7.8c-3,2.2-6.1,3.9-9.4,5.2c-3.2,1.3-5.9,1.9-8.2,1.9
		h-55.7c-2.2,0-4.9-0.6-8.2-1.9c-3.2-1.3-6.3-3-9.3-5.2c-3-2.2-5.5-4.8-7.6-7.8c-2.1-3-3.2-6.2-3.2-9.7V86.3c0-0.8,0.3-1.6,0.8-2.5
		c0.5-0.9,1.2-1.6,2-2.4c0.9-0.7,1.8-1.3,2.9-1.8c1.1-0.4,2.3-0.7,3.5-0.7h94.1c1,0,2.1,0.2,3.2,0.7c1.1,0.4,2.1,1,2.9,1.8
		c0.9,0.7,1.6,1.5,2.1,2.4c0.6,0.9,0.8,1.7,0.8,2.5V131.1z M482.7,86.3c0-0.6-0.2-1.3-0.6-2c-0.4-0.7-1-1.3-1.7-1.8
		c-0.7-0.5-1.5-1-2.3-1.3c-0.8-0.4-1.7-0.5-2.6-0.5h-94.1c-1.8,0-3.5,0.6-5,1.9c-1.5,1.3-2.3,2.5-2.3,3.8v44.8c0,3.2,1,6.3,2.9,9.1
		c2,2.8,4.3,5.2,7.1,7.3c2.8,2.1,5.7,3.7,8.7,4.9c3,1.2,5.5,1.8,7.5,1.8h55.7c2.1,0,4.7-0.6,7.6-1.8c3-1.2,5.9-2.8,8.7-4.9
		c2.8-2.1,5.2-4.5,7.2-7.3c2-2.8,2.9-5.8,2.9-9.1V86.3z M479.3,131.1c0,2.8-0.9,5.5-2.6,8c-1.7,2.5-3.8,4.6-6.2,6.5
		c-2.4,1.8-4.9,3.3-7.5,4.3c-2.6,1.1-4.8,1.6-6.6,1.6h-55.7c-1.7,0-3.9-0.5-6.5-1.6c-2.6-1.1-5.1-2.5-7.5-4.3
		c-2.4-1.8-4.5-4-6.2-6.5c-1.7-2.5-2.6-5.1-2.6-8V86.3c0-0.6,0.4-1.3,1.1-2c0.8-0.7,1.6-1,2.6-1h94.1c0.8,0,1.6,0.3,2.4,1
		c0.8,0.7,1.2,1.4,1.2,2V131.1z M407.2,126.2c0,0.4,0.2,0.9,0.7,1.5c0.5,0.6,1,1.1,1.7,1.6c0.7,0.5,1.3,1,2,1.4
		c0.7,0.4,1.4,0.6,2,0.6h30c0.6,0,1.2-0.2,1.9-0.5c0.7-0.4,1.3-0.8,1.9-1.3c0.6-0.5,1.1-1,1.6-1.5c0.5-0.5,0.7-1,0.8-1.4v-21.2
		c-0.1-0.4-0.4-0.8-0.9-1.2c-0.5-0.4-1-0.6-1.5-0.6h-37.6c-0.6,0-1.2,0.2-1.7,0.6c-0.6,0.4-0.8,0.9-0.8,1.3V126.2z M446.3,126.2
		c-0.2,0.4-0.6,0.9-1.1,1.5c-0.6,0.6-1.1,0.9-1.6,0.9h-30c-0.4,0-1-0.3-1.7-1c-0.7-0.6-1.1-1.1-1.1-1.5v-20h35.5V126.2z M443.6,127
		c0.1,0,0.3-0.1,0.5-0.4c0.2-0.2,0.3-0.5,0.3-0.7v-18.1h-31.6v18.4c0,0.6,0.3,0.9,0.8,0.9H443.6z"/>
	<path class="st5" d="M567.5,117.1c-1.1-0.5-2-1.2-2.8-1.9c-0.8-0.8-1.4-1.6-1.9-2.6c-0.5-1-0.7-1.9-0.7-2.8v-1.9h-31.6v18.1
		c0,0.2,0.1,0.4,0.4,0.7c0.3,0.3,0.5,0.4,0.7,0.4h61.7c0.9,0,1.9,0.2,2.9,0.7c1.1,0.5,2,1.1,2.9,1.8s1.7,1.5,2.3,2.4
		c0.6,0.9,0.9,1.6,0.9,2.4v14.1c0,0.8-0.3,1.6-0.8,2.5c-0.6,0.9-1.3,1.6-2.1,2.4c-0.9,0.7-1.8,1.3-2.9,1.8c-1.1,0.4-2.2,0.7-3.2,0.7
		h-74.9c-2.2,0-4.9-0.6-8.2-1.9c-3.2-1.3-6.3-3-9.4-5.2c-3-2.2-5.6-4.8-7.7-7.9c-2.1-3-3.2-6.2-3.2-9.7V86.3c0-0.8,0.3-1.6,0.8-2.5
		c0.5-0.9,1.2-1.6,2-2.4c0.9-0.7,1.8-1.3,2.9-1.8c1.1-0.4,2.3-0.7,3.5-0.7h94.1c1,0,2.1,0.2,3.2,0.7c1.1,0.4,2.1,1,2.9,1.8
		c0.9,0.7,1.6,1.5,2.1,2.4c0.6,0.9,0.8,1.7,0.8,2.5v23.5c0,2.2-1,4.1-2.9,5.7c-2,1.6-4.1,2.4-6.3,2.4H571
		C569.7,117.9,568.6,117.6,567.5,117.1z M598.1,114.3c1.6-1.3,2.3-2.8,2.3-4.4V86.3c0-0.6-0.2-1.3-0.6-2c-0.4-0.7-1-1.3-1.7-1.8
		c-0.7-0.5-1.5-1-2.3-1.3c-0.8-0.4-1.7-0.5-2.6-0.5h-94.1c-1.8,0-3.5,0.6-5,1.9c-1.5,1.3-2.3,2.5-2.3,3.8V131c0,3.3,1,6.4,2.9,9.2
		c2,2.8,4.4,5.2,7.2,7.3c2.8,2.1,5.7,3.7,8.8,4.9c3,1.2,5.5,1.8,7.5,1.8h74.9c0.9,0,1.8-0.2,2.6-0.5c0.8-0.4,1.6-0.8,2.3-1.3
		c0.7-0.5,1.3-1.1,1.7-1.8c0.4-0.7,0.6-1.4,0.6-2v-14.1c0-0.6-0.2-1.2-0.7-1.9c-0.5-0.7-1-1.3-1.7-1.9c-0.7-0.6-1.5-1-2.3-1.4
		c-0.9-0.4-1.6-0.5-2.3-0.5h-61.7c-0.5,0-1.1-0.4-1.9-1.1c-0.8-0.7-1.1-1.3-1.1-1.6v-19.7h35.5v3.5c0,1.5,0.7,2.9,2,4.4
		c1.3,1.5,3,2.2,5,2.2h22.2C594.9,116.3,596.6,115.6,598.1,114.3z M566.8,104.3c-0.5-0.4-1-0.6-1.5-0.8h-37.7
		c-0.6,0-1.2,0.2-1.7,0.5c-0.5,0.4-0.8,0.8-0.9,1.2v20.7c0,0.4,0.3,0.9,0.8,1.5c0.5,0.6,1.1,1.2,1.8,1.8c0.7,0.6,1.4,1.1,2.2,1.5
		c0.8,0.4,1.4,0.6,1.9,0.6h61.7c0.8,0,1.6,0.4,2.4,1.1c0.8,0.7,1.2,1.4,1.2,1.9v14.1c0,0.7-0.4,1.3-1.2,2c-0.8,0.7-1.6,1-2.4,1
		h-74.9c-1.8,0-4-0.5-6.6-1.6c-2.6-1.1-5.1-2.5-7.5-4.3c-2.4-1.8-4.5-4-6.2-6.5c-1.7-2.5-2.6-5.2-2.6-8.1V86.3c0-0.6,0.4-1.3,1.1-2
		c0.8-0.7,1.6-1,2.6-1h94.1c0.8,0,1.6,0.3,2.4,1c0.8,0.7,1.2,1.4,1.2,2v23.5c0,1-0.4,1.8-1.3,2.6c-0.9,0.7-1.7,1.1-2.5,1.1H571
		c-1.1,0-2-0.4-2.6-1.3c-0.6-0.9-0.9-1.7-0.9-2.5v-4.3C567.6,105.1,567.3,104.7,566.8,104.3z"/>
	<path class="st5" d="M678.2,79.9c1.9-0.6,3.6-0.9,5.4-0.9h30.3c2.1,0.7,3.7,1.6,4.8,3c1.1,1.3,1.6,2.8,1.6,4.3
		c0,0.7-0.1,1.4-0.3,2.1c-0.2,0.7-0.6,1.4-1.2,2l-17.4,15.9c2.4,0.9,4.7,2,6.9,3.4c2.2,1.4,4.2,2.9,6,4.5c1.8,1.6,3.2,3.3,4.2,5.2
		c1.1,1.8,1.6,3.6,1.6,5.3v23.9c0,0.8-0.3,1.6-0.9,2.5c-0.6,0.9-1.4,1.6-2.3,2.3c-0.9,0.7-1.9,1.2-2.9,1.6c-1,0.4-1.9,0.7-2.7,0.7
		h-21.4c-0.9,0-1.9-0.2-3-0.5c-1.1-0.4-2.1-0.9-3.1-1.5c-1-0.6-1.8-1.4-2.5-2.3c-0.7-0.9-1.1-1.8-1.1-2.7v-14.7
		c0-0.6-0.1-1.1-0.2-1.5c-0.1-0.4-0.3-0.7-0.5-0.7h-31.3v15.9c0,2.3-1,4.2-3,5.7c-2,1.5-4.1,2.3-6.3,2.3h-21.7
		c-2.2,0-4.3-0.8-6.3-2.3c-2-1.5-3-3.4-3-5.7V86.3c0-0.8,0.3-1.6,0.8-2.5c0.5-0.9,1.2-1.6,2-2.4c0.9-0.7,1.8-1.3,2.9-1.8
		c1.1-0.4,2.3-0.7,3.5-0.7h22c1.1,0,2.2,0.2,3.3,0.7c1.1,0.4,2.1,1,2.9,1.8c0.9,0.7,1.6,1.5,2.1,2.4c0.6,0.9,0.8,1.7,0.8,2.5v16.6
		h3.2l22.2-20.3C674.8,81.4,676.3,80.5,678.2,79.9z M652.6,104.5h-6.2V86.3c0-1.3-0.8-2.6-2.3-3.8c-1.5-1.3-3.2-1.9-5-1.9h-22
		c-1.8,0-3.5,0.6-5,1.9c-1.5,1.3-2.3,2.5-2.3,3.8v61.4c0,1.6,0.8,3.1,2.3,4.4c1.6,1.3,3.2,2,5.1,2H639c1.8,0,3.5-0.7,5.1-2
		c1.6-1.3,2.3-2.8,2.3-4.4v-17.5h33.2c0.6,0,1.2,0.4,1.7,1.2c0.6,0.8,0.8,1.7,0.8,2.6v14.7c0,0.7,0.3,1.4,0.8,2.1
		c0.6,0.7,1.2,1.2,2,1.8c0.8,0.5,1.6,0.9,2.5,1.2c0.9,0.3,1.7,0.4,2.4,0.4h21.4c0.6,0,1.3-0.2,2.1-0.5c0.8-0.3,1.6-0.7,2.3-1.2
		c0.7-0.5,1.3-1.1,1.8-1.7c0.5-0.6,0.8-1.3,0.8-2.1v-23.9c0-1.7-0.6-3.4-1.8-5.2c-1.2-1.8-2.7-3.5-4.6-5.2c-1.9-1.7-4-3.1-6.4-4.4
		c-2.4-1.3-4.8-2.3-7.2-3L717,89.6c0.5-0.6,0.8-1.2,1-1.8c0.2-0.5,0.2-1,0.2-1.5c0-1.1-0.4-2.3-1.1-3.4c-0.8-1.1-1.9-1.9-3.4-2.3
		h-30.2c-1.5,0-3.1,0.3-4.7,0.8c-1.6,0.5-2.9,1.4-3.8,2.5h-0.2L652.6,104.5z M680.3,83.8c1.1-0.4,2.1-0.5,3.2-0.5H713
		c0.7,0.2,1.2,0.7,1.4,1.2c0.3,0.6,0.4,1.2,0.4,1.8c0,0.7-0.2,1.4-0.6,1.9l-22.3,20.3c2.2,0.1,4.7,0.6,7.3,1.6
		c2.7,1,5.2,2.3,7.5,3.8c2.3,1.5,4.2,3.3,5.7,5.2c1.5,1.9,2.3,3.8,2.3,5.5v23.9c0,0.7-0.4,1.4-1.2,1.9c-0.8,0.6-1.5,0.9-2.1,0.9
		h-21.4c-0.8,0-1.7-0.3-2.8-0.8c-1.1-0.5-1.6-1.2-1.6-2v-14.7c0-1.6-0.6-3.1-1.8-4.4c-1.2-1.3-2.6-2-4.1-2h-34.3
		c-0.6,0-1.2,0.2-1.7,0.6c-0.6,0.4-0.8,0.8-0.8,1.2v18.4c0,1-0.4,1.8-1.2,2.6c-0.8,0.8-1.7,1.2-2.6,1.2h-21.7
		c-0.9,0-1.8-0.4-2.6-1.2c-0.9-0.8-1.3-1.6-1.3-2.6V86.3c0-0.6,0.4-1.3,1.1-2c0.8-0.7,1.6-1,2.6-1h22c1,0,1.9,0.3,2.6,1
		c0.7,0.7,1.1,1.4,1.1,2v19c0,0.4,0.3,0.8,0.8,1.2c0.6,0.4,1.1,0.6,1.6,0.6h8.8l23.9-21.8C678.4,84.7,679.2,84.2,680.3,83.8z"/>
	<path class="st5" d="M905.8,148c-0.6,1-1.4,1.9-2.4,2.6c-0.9,0.7-2,1.3-3.2,1.7c-1.2,0.4-2.3,0.6-3.4,0.6H789.1
		c-2.5,0-4.6-0.3-6.2-0.9c-1.6-0.6-3.2-1.5-4.6-2.5l-43-63.3c-0.7-1.1-1.1-2.3-1.1-3.7c0-3,2-5.5,6-7.4h29.6c2.1,0,4.1,0.3,6.1,0.8
		c2,0.5,3.6,1.8,4.9,3.8l29.6,43.2h-0.2l0.6,1h1.6l-25.3-37.6c-0.7-1.1-1.1-2.3-1.1-3.7c0-3,2-5.5,6-7.4h29.5c2.2,0,4.3,0.3,6.3,0.8
		c2,0.5,3.6,1.8,4.9,3.8l29.8,43.2h-0.2l0.6,1h0.3V82.4c0-0.8,0.3-1.7,0.9-2.5c0.6-0.9,1.3-1.7,2.3-2.4c0.9-0.7,2-1.3,3.1-1.8
		c1.1-0.5,2.3-0.7,3.5-0.7h23.8c1.3,0,2.5,0.2,3.6,0.7c1.1,0.5,2.2,1.1,3.1,1.8c0.9,0.7,1.7,1.5,2.3,2.4c0.6,0.9,0.9,1.7,0.9,2.5
		v62.3C906.7,145.9,906.4,147,905.8,148z M902.4,78.5c-1.6-1.3-3.4-1.9-5.5-1.9H873c-2,0-3.8,0.6-5.3,1.9c-1.6,1.3-2.4,2.6-2.4,3.9
		v42.9h-3c-0.2-0.2-0.5-0.4-0.9-0.7c-0.4-0.3-0.8-0.8-1.3-1.5h0.2l-29.5-42.9c-0.9-1.5-2.3-2.5-4-2.9c-1.7-0.5-3.5-0.7-5.3-0.7h-29
		c-2.9,1.3-4.4,3.3-4.4,5.8c0,1.2,0.4,2.3,1.1,3.1l26.7,39.8h-5.6c-0.2-0.2-0.4-0.4-0.7-0.7c-0.3-0.3-0.7-0.8-1.2-1.4l-29.5-43
		c-0.9-1.5-2.2-2.5-3.9-2.9c-1.7-0.5-3.4-0.7-5.2-0.7h-29.2c-2.9,1.3-4.4,3.3-4.4,5.8c0,1.2,0.4,2.2,1.3,3.1l-0.2,0.1l42.8,62.9
		v-0.1c1.1,0.9,2.4,1.6,3.8,2.1c1.4,0.5,3.1,0.7,5.2,0.7h107.8c1.9,0,3.7-0.7,5.3-2c1.7-1.4,2.5-2.9,2.5-4.5V82.4
		C904.7,81.1,903.9,79.8,902.4,78.5z M899.6,147.4c-0.9,0.8-1.8,1.2-2.7,1.2H789.1c-1.6,0-2.8-0.2-3.6-0.5c-0.8-0.3-1.6-0.7-2.2-1.1
		l-42.7-62.8v0.1c-0.4-0.6-0.6-1.2-0.6-1.9c0-1.4,0.6-2.4,1.7-3.1h28.1c1.1,0,2.2,0.1,3.2,0.4c1,0.2,1.9,0.9,2.6,1.9l29.5,43.2v-0.1
		c0.7,0.8,1.5,1.6,2.2,2.2c0.7,0.7,1.5,1.1,2.4,1.2h8c1.9,0,2.8-0.8,2.8-2.3l-27.9-41.6v0.1c-0.4-0.6-0.6-1.2-0.6-1.9
		c0-1.4,0.6-2.4,1.7-3.1h27.9c1.1,0,2.2,0.1,3.3,0.4c1,0.2,1.9,0.9,2.7,1.9l29.8,43.2v-0.1c0.6,0.8,1.3,1.6,2,2.2
		c0.7,0.7,1.5,1.1,2.4,1.2h4.9c1.7,0,2.5-0.8,2.5-2.3V82.4c0-0.7,0.4-1.3,1.2-2c0.8-0.7,1.7-1.1,2.7-1.1h23.8c1.1,0,2.1,0.4,2.9,1.1
		c0.8,0.7,1.2,1.4,1.2,2v62.3C900.9,145.7,900.5,146.6,899.6,147.4z"/>
	<path class="st5" d="M1001.2,75.7c1.1,0.5,2.2,1.1,3.1,1.8c0.9,0.7,1.6,1.5,2.2,2.4c0.6,0.9,0.9,1.7,0.9,2.5v14.3
		c0,0.7-0.3,1.5-0.9,2.4c-0.6,0.9-1.3,1.7-2.2,2.4c-0.9,0.7-1.9,1.4-3.1,1.9c-1.2,0.5-2.2,0.7-3.3,0.7h-16.8v19.5h16.8
		c1,0,2.1,0.2,3.3,0.7c1.1,0.5,2.2,1.1,3.1,1.9c0.9,0.7,1.6,1.5,2.2,2.4c0.6,0.9,0.9,1.7,0.9,2.4v14.3c0,0.8-0.3,1.7-0.9,2.5
		c-0.6,0.9-1.3,1.7-2.2,2.4c-0.9,0.7-1.9,1.3-3.1,1.8c-1.2,0.5-2.3,0.7-3.5,0.7h-75.6c-1.3,0-2.5-0.2-3.7-0.7
		c-1.2-0.5-2.3-1.1-3.1-1.8c-0.9-0.7-1.6-1.5-2.1-2.4c-0.5-0.9-0.8-1.7-0.8-2.5v-14.3c0-0.7,0.3-1.5,0.9-2.4
		c0.6-0.9,1.3-1.7,2.3-2.4c0.9-0.7,2-1.4,3.1-1.9s2.2-0.7,3.4-0.7h16.5v-19.5H922c-1.2,0-2.3-0.2-3.4-0.7c-1.1-0.5-2.1-1.1-3.1-1.9
		c-0.9-0.7-1.7-1.5-2.3-2.4c-0.6-0.9-0.9-1.7-0.9-2.4V82.4c0-0.8,0.3-1.7,0.8-2.5c0.5-0.9,1.2-1.7,2.1-2.4c0.9-0.7,1.9-1.3,3.1-1.8
		c1.2-0.5,2.4-0.7,3.7-0.7h75.6C998.9,75,1000,75.2,1001.2,75.7z M919.2,125.9c-0.9,0.4-1.7,0.8-2.4,1.4c-0.7,0.6-1.3,1.2-1.7,1.9
		c-0.5,0.7-0.7,1.3-0.7,1.9v14.3c0,1.3,0.8,2.6,2.4,3.9c1.6,1.3,3.3,1.9,5.3,1.9h75.6c1.9,0,3.6-0.6,5.2-1.9
		c1.6-1.3,2.4-2.6,2.4-3.9v-14.3c0-0.6-0.2-1.2-0.7-1.9c-0.5-0.7-1-1.3-1.7-1.9c-0.7-0.6-1.5-1.1-2.4-1.4c-0.9-0.4-1.8-0.6-2.6-0.6
		H979V103c-0.1-0.1-0.3-0.1-0.5-0.1v-0.2h19.3c0.8,0,1.7-0.2,2.6-0.6c0.9-0.4,1.7-0.8,2.4-1.4c0.7-0.6,1.3-1.2,1.7-1.9
		c0.5-0.7,0.7-1.3,0.7-2V82.4c0-1.3-0.8-2.6-2.4-3.9c-1.6-1.3-3.3-1.9-5.2-1.9h-75.6c-2,0-3.8,0.6-5.3,1.9c-1.6,1.3-2.4,2.6-2.4,3.9
		v14.3c0,0.7,0.2,1.3,0.7,2c0.5,0.7,1,1.3,1.7,1.9c0.7,0.6,1.5,1.1,2.4,1.4c0.9,0.4,1.8,0.6,2.7,0.6h19.4c-0.3,0.2-0.6,0.4-0.9,0.4
		v21.8h0.2c0,0.2,0.1,0.4,0.2,0.4v0.2H922C921,125.3,920.1,125.5,919.2,125.9z M1000.4,80.4c0.7,0.7,1.1,1.4,1.1,2v14.3
		c0,0.6-0.4,1.2-1.2,2c-0.8,0.7-1.6,1.1-2.4,1.1h-19.4c-0.6,0-1.3,0.3-1.9,0.9c-0.6,0.6-1,1.2-1.1,1.9v22.9c0.1,0.7,0.5,1.3,1.1,1.8
		c0.6,0.5,1.3,0.8,1.9,0.8h19.4c0.8,0,1.6,0.4,2.4,1.1c0.8,0.7,1.2,1.4,1.2,2v14.3c0,0.7-0.4,1.3-1.1,2c-0.7,0.7-1.6,1.1-2.7,1.1
		h-75.6c-1,0-2-0.3-2.7-1.1c-0.8-0.7-1.2-1.4-1.2-2v-14.3c0-0.6,0.4-1.2,1.3-2c0.8-0.7,1.7-1.1,2.5-1.1h19.1c0.5,0,1.1-0.3,1.8-0.8
		c0.7-0.5,1.1-1.1,1.3-1.8v-22.9c-0.1-0.7-0.5-1.3-1.2-1.9c-0.7-0.6-1.3-0.9-2-0.9H922c-0.8,0-1.7-0.4-2.5-1.1
		c-0.8-0.7-1.3-1.4-1.3-2V82.4c0-0.7,0.4-1.3,1.2-2c0.8-0.7,1.7-1.1,2.7-1.1h75.6C998.8,79.3,999.6,79.7,1000.4,80.4z"/>
	<path class="st5" d="M1107.5,75.7c1.1,0.5,2.2,1.1,3.1,1.8c0.9,0.7,1.6,1.5,2.2,2.4c0.6,0.9,0.9,1.7,0.9,2.5v14.3
		c0,0.5-0.2,1.1-0.7,1.9c-0.5,0.7-1.9,2-4.2,3.9c-2.4,1.9-6.1,4.5-11.1,7.8c-5.1,3.3-12.2,7.8-21.3,13.4h28.1c1,0,2.1,0.2,3.2,0.7
		s2.1,1.1,3,1.9c0.9,0.7,1.6,1.5,2.2,2.4c0.6,0.9,0.9,1.7,0.9,2.4v14.3c0,0.8-0.3,1.7-0.9,2.5c-0.6,0.9-1.3,1.7-2.2,2.4
		c-0.9,0.7-1.9,1.3-3.1,1.8c-1.2,0.5-2.3,0.7-3.3,0.7h-82c-1.2,0-2.3-0.2-3.5-0.7c-1.2-0.5-2.1-1.1-3-1.8c-0.8-0.7-1.5-1.5-2-2.4
		c-0.5-0.9-0.8-1.7-0.8-2.5v-14.3c0-0.3,0.3-0.9,0.8-1.7c0.5-0.8,1.9-2.1,4.2-4.1c2.2-1.9,5.7-4.6,10.4-8
		c4.7-3.4,11.1-7.8,19.2-13.2H1022c-1,0-2.1-0.2-3.2-0.7c-1.1-0.5-2.1-1.1-2.9-1.9c-0.8-0.7-1.5-1.5-2.1-2.4
		c-0.6-0.9-0.9-1.7-0.9-2.4V82.4c0-0.8,0.3-1.7,0.8-2.5c0.5-0.9,1.2-1.7,2-2.4c0.8-0.7,1.8-1.3,3-1.8c1.1-0.5,2.3-0.7,3.5-0.7h82
		C1105.3,75,1106.4,75.2,1107.5,75.7z M1017.1,78.5c-1.5,1.3-2.3,2.6-2.3,3.9v14.3c0,0.7,0.2,1.3,0.6,2c0.4,0.7,1,1.3,1.6,1.9
		c0.7,0.6,1.5,1.1,2.4,1.4c0.9,0.4,1.7,0.6,2.6,0.6h30.9c-9,5.9-16.1,10.6-21.2,14.2c-5.1,3.6-8.9,6.4-11.5,8.5
		c-2.5,2.1-4.1,3.5-4.6,4.3c-0.6,0.8-0.9,1.3-0.9,1.7v14.3c0,1.3,0.8,2.6,2.3,3.9c1.5,1.3,3.2,1.9,5.1,1.9h82c0.9,0,1.8-0.2,2.7-0.6
		c0.8-0.4,1.6-0.8,2.4-1.4c0.7-0.5,1.3-1.2,1.7-1.9c0.4-0.7,0.6-1.4,0.6-2v-14.3c0-0.6-0.2-1.2-0.6-1.9c-0.4-0.7-1-1.3-1.7-1.9
		c-0.7-0.6-1.5-1.1-2.4-1.4c-0.8-0.4-1.7-0.6-2.5-0.6h-34.2c6.8-4.1,12.5-7.6,17.3-10.6c4.7-2.9,8.6-5.4,11.6-7.4
		c3-2,5.4-3.6,7.1-4.9c1.7-1.2,3-2.2,3.8-3s1.3-1.3,1.4-1.7c0.2-0.4,0.2-0.7,0.2-1.1V82.4c0-0.7-0.2-1.3-0.6-2
		c-0.4-0.7-1-1.3-1.7-1.9c-0.7-0.5-1.5-1-2.4-1.4c-0.8-0.4-1.7-0.6-2.7-0.6h-82C1020.3,76.6,1018.6,77.3,1017.1,78.5z M1106.7,80.4
		c0.8,0.7,1.3,1.4,1.3,2v14.3c0,0.2-0.1,0.5-0.2,0.9c-0.2,0.3-0.7,0.8-1.6,1.5c-0.9,0.7-2.4,1.7-4.4,3c-2,1.3-4.8,3.1-8.3,5.4
		c-3.6,2.3-8.1,5.1-13.5,8.3c-5.4,3.3-12.1,7.3-20.1,12.1h44.5c0.8,0,1.6,0.4,2.4,1.1c0.8,0.7,1.2,1.4,1.2,2v14.3
		c0,0.7-0.4,1.3-1.3,2c-0.8,0.7-1.7,1.1-2.5,1.1h-82c-0.8,0-1.7-0.3-2.5-1.1c-0.8-0.7-1.3-1.4-1.3-2v-14.3c0-0.2,0.1-0.4,0.3-0.7
		c0.2-0.3,0.8-0.9,1.7-1.7c0.9-0.8,2.4-1.9,4.2-3.2c1.9-1.4,4.5-3.2,7.8-5.4c3.3-2.2,7.4-5,12.3-8.3c4.9-3.3,10.9-7.3,18-12H1022
		c-0.9,0-1.8-0.4-2.5-1.1c-0.7-0.7-1.1-1.4-1.1-2V82.4c0-0.7,0.4-1.3,1.3-2c0.8-0.7,1.7-1.1,2.5-1.1h82
		C1105.1,79.3,1105.9,79.7,1106.7,80.4z"/>
	<path class="st5" d="M1159.4,78.7v-0.1c1.5-1.1,3-1.9,4.6-2.6c1.6-0.7,3.7-1,6.2-1h60.1c1.1,0,2.3,0.2,3.5,0.7
		c1.1,0.5,2.2,1.1,3.1,1.8c0.9,0.7,1.7,1.6,2.3,2.6c0.6,1,0.9,2,0.9,3.1v62.3c0,0.8-0.3,1.7-0.9,2.5c-0.6,0.9-1.3,1.7-2.2,2.4
		c-0.9,0.7-1.9,1.3-3.1,1.8c-1.2,0.5-2.3,0.7-3.5,0.7h-47.2c-1,0-2.1-0.3-3.2-0.8c-1.1-0.5-2.1-1.2-3-2c-0.9-0.8-1.6-1.7-2.2-2.5
		c-0.6-0.9-0.9-1.7-0.9-2.4V131c0-0.4,0.3-1,0.9-1.9c0.6-0.8,1.4-1.6,2.4-2.4c0.9-0.8,1.9-1.5,2.9-2.1c1-0.6,1.9-0.9,2.6-0.9h15.1
		v-19.5h-6.3l-1.1,1.5l-28.4,42.7c-1.3,2-2.8,3.2-4.8,3.8c-1.9,0.5-3.9,0.8-6,0.8h-28.9c-1.9-0.9-3.3-1.9-4.3-3.1
		c-1-1.2-1.5-2.6-1.5-4.3c0-0.7,0.1-1.3,0.3-1.9c0.2-0.6,0.5-1.2,0.8-1.9L1159.4,78.7z M1161.3,79.3l-41.7,63.1h0.2
		c-0.7,0.8-1.1,1.9-1.1,3.1c0,2.6,1.5,4.5,4.4,5.8h28.2c1.8,0,3.5-0.2,5.1-0.7c1.6-0.5,2.9-1.4,3.8-2.9l28.5-42.9h-0.3
		c0.1-0.1,0.2-0.2,0.4-0.4c0.2-0.2,0.3-0.3,0.4-0.4c0.2-0.2,0.5-0.5,0.9-0.9c0.4-0.3,0.5-0.5,0.5-0.6h9.3v22.8h-17.1
		c-0.5,0-1.2,0.2-2,0.7c-0.8,0.5-1.5,1.1-2.2,1.7c-0.7,0.6-1.3,1.2-1.8,1.9c-0.5,0.6-0.8,1.1-0.8,1.4v14.1c0,0.7,0.2,1.3,0.6,2
		c0.4,0.7,1,1.4,1.6,2c0.7,0.6,1.5,1.1,2.4,1.5c0.9,0.4,1.7,0.6,2.6,0.6h47.2c1.9,0,3.6-0.6,5.2-1.9c1.6-1.3,2.4-2.6,2.4-3.9V83.2
		c0-1.6-0.8-3.2-2.4-4.5c-1.6-1.4-3.4-2-5.3-2h-60.1c-2.2,0-3.9,0.2-5.3,0.7c-1.3,0.5-2.5,1.2-3.7,2.1V79.3z M1164.3,81.2v-0.1
		c0.6-0.5,1.4-0.9,2.2-1.2c0.8-0.3,2.1-0.5,3.8-0.5h60.1c0.9,0,1.9,0.4,2.7,1.2c0.9,0.8,1.3,1.7,1.3,2.6v62.3c0,0.7-0.4,1.3-1.3,2
		c-0.8,0.7-1.7,1.1-2.7,1.1h-47.2c-0.9,0-1.8-0.4-2.5-1.2c-0.7-0.8-1.1-1.6-1.1-2.2V131c0-0.3,0.4-0.9,1.2-1.7
		c0.8-0.8,1.4-1.2,2-1.2h18.4c0.5,0,1.1-0.2,1.6-0.6c0.6-0.4,0.9-0.9,0.9-1.4v-23.9c0-1.6-0.8-2.3-2.5-2.3h-11
		c-0.8,0.2-1.6,0.6-2.4,1.2c-0.7,0.7-1.4,1.4-2,2.2v-0.1l-28.9,43.2c-0.5,1-1.3,1.6-2.4,1.9s-2.2,0.4-3.2,0.4H1124
		c-1-0.6-1.6-1.6-1.6-3.1c0-0.4,0-0.7,0.1-1c0.1-0.2,0.2-0.5,0.4-0.9v0.1L1164.3,81.2z"/>
	<path class="st5" d="M1293.2,141.2c-1.9,0-3.7-0.9-5.5-2.8v7.2c0,0.7-0.3,1.5-0.9,2.4c-0.6,0.9-1.3,1.7-2.2,2.4
		c-0.9,0.7-1.8,1.4-2.8,1.9c-1,0.5-2,0.7-2.9,0.7h-23.7c-1.3,0-2.5-0.2-3.6-0.7c-1.2-0.5-2.2-1.1-3.1-1.8c-0.9-0.7-1.6-1.5-2.1-2.4
		c-0.5-0.9-0.8-1.7-0.8-2.5V82.4c0-0.8,0.3-1.7,0.8-2.5c0.5-0.9,1.2-1.7,2.1-2.4c0.9-0.7,1.9-1.3,3.1-1.8c1.1-0.5,2.4-0.7,3.6-0.7
		h97.7c1,0,2.1,0.2,3.3,0.7c1.1,0.5,2.2,1.1,3.1,1.8c0.9,0.7,1.6,1.5,2.2,2.4c0.6,0.9,0.9,1.7,0.9,2.5v51.3c0,1-0.3,2-1,3
		c-0.7,1-1.5,1.9-2.4,2.6l1.9,2.1c0.6,0.7,1,1.3,1.3,2c0.2,0.7,0.3,1.4,0.3,2.1c0,3.1-1.9,5.6-5.8,7.4h-28.7c-1.9,0-3.8-0.2-5.7-0.7
		c-1.9-0.5-3.5-1.7-4.8-3.6v0.1l-6.6-7.5H1293.2z M1287.1,135.2c0.5,0.7,1.1,1.3,1.8,1.9c0.7,0.6,1.4,1.2,2.2,1.7
		c0.8,0.5,1.5,0.7,2.1,0.7h18.8l6.7,7.8c1.1,1.7,2.5,2.8,4.2,3.3c1.6,0.5,3.3,0.7,4.9,0.7h28.1c2.9-1.3,4.4-3.3,4.4-5.8
		c0-0.5-0.1-1-0.2-1.5c-0.2-0.5-0.5-1.1-1-1.7l-3-3.5c1.1-0.6,2.1-1.3,3-2.3c0.8-0.9,1.3-1.9,1.3-2.8V82.4c0-0.7-0.2-1.3-0.6-2
		c-0.4-0.7-1-1.3-1.7-1.9c-0.7-0.5-1.5-1-2.4-1.4c-0.8-0.4-1.7-0.6-2.7-0.6h-97.7c-1.9,0-3.6,0.6-5.2,1.9c-1.6,1.3-2.4,2.6-2.4,3.9
		v63.1c0,1.3,0.8,2.6,2.4,3.9c1.6,1.3,3.3,1.9,5.2,1.9h23.7c0.7,0,1.5-0.2,2.3-0.6c0.8-0.4,1.5-0.8,2.2-1.4c0.7-0.5,1.2-1.2,1.6-1.9
		c0.4-0.7,0.6-1.4,0.6-2v-42.9h36.9v11h-29c-0.8,0-1.7,0.2-2.5,0.6c-0.8,0.4-1.6,0.9-2.4,1.5c-0.7,0.6-1.3,1.3-1.7,2
		c-0.4,0.7-0.6,1.4-0.6,2v14C1286.3,134.1,1286.6,134.6,1287.1,135.2z M1325.3,100.5c-0.6-0.4-1.1-0.6-1.6-0.6h-39.1
		c-0.6,0-1.2,0.2-1.8,0.6c-0.6,0.4-0.9,0.8-0.9,1.2v43.8c0,0.7-0.3,1.3-1,2c-0.7,0.7-1.3,1.1-2,1.1h-23.7c-1,0-2-0.3-2.7-1.1
		c-0.8-0.7-1.2-1.4-1.2-2V82.4c0-0.7,0.4-1.3,1.2-2c0.8-0.7,1.7-1.1,2.7-1.1h97.7c0.8,0,1.7,0.4,2.5,1.1c0.8,0.7,1.3,1.4,1.3,2v51.3
		c0,0.7-0.4,1.3-1.3,2c-0.8,0.7-1.7,1.1-2.5,1.1h-2.8l6,6.7c0.4,0.6,0.6,1.2,0.6,2c0,1.4-0.6,2.4-1.7,3.1h-27.1
		c-1.2,0-2.2-0.1-3.2-0.4c-1-0.2-1.8-0.9-2.3-1.9v0.1l-8.6-9.6h-20.5c-0.5,0-1.2-0.4-2-1.2c-0.8-0.8-1.2-1.4-1.2-1.9v-14
		c0-0.7,0.3-1.4,1-2.2c0.7-0.8,1.5-1.2,2.4-1.2h30.1c0.5,0,1-0.2,1.5-0.6c0.5-0.4,0.8-0.8,1-1.2v-12.7
		C1326.2,101.4,1325.9,100.9,1325.3,100.5z M1290.5,112.7c1-0.5,2-0.7,3.1-0.7h27v-7.8h-32.8v10.3
		C1288.6,113.8,1289.5,113.2,1290.5,112.7z"/>
	<path class="st5" d="M1369.9,106.7c1.3-1.4,2.8-2.4,4.5-3c-1.8-0.7-3.3-1.7-4.5-3.1c-1.3-1.4-1.9-2.7-1.9-3.8V82.4
		c0-0.8,0.3-1.7,0.8-2.5c0.5-0.9,1.2-1.7,2.1-2.4c0.9-0.7,1.9-1.3,3.1-1.8c1.1-0.5,2.4-0.7,3.6-0.7h97.7c1,0,2.1,0.2,3.3,0.7
		c1.1,0.5,2.2,1.1,3.1,1.8c0.9,0.7,1.6,1.5,2.2,2.4c0.6,0.9,0.9,1.7,0.9,2.5v45.4c0,3.5-1.1,6.8-3.3,9.9c-2.2,3.1-4.9,5.7-8,8
		c-3.1,2.3-6.4,4-9.8,5.3c-3.4,1.3-6.2,1.9-8.5,1.9h-77.5c-1.3,0-2.5-0.2-3.6-0.7c-1.2-0.5-2.2-1.1-3.1-1.8
		c-0.9-0.7-1.6-1.5-2.1-2.4c-0.5-0.9-0.8-1.7-0.8-2.5v-34.3C1368,109.6,1368.7,108.1,1369.9,106.7z M1408,111.4c0-1.5-0.7-3-2.2-4.5
		c-1.5-1.5-3.2-2.2-5.3-2.2h-22.7c-1.9,0-3.6,0.7-5.3,2c-1.6,1.4-2.4,2.9-2.4,4.5v34.3c0,1.3,0.8,2.6,2.4,3.9
		c1.6,1.3,3.3,1.9,5.2,1.9h77.5c2.2,0,4.9-0.6,8-1.8c3.1-1.2,6.2-2.8,9.1-4.9c2.9-2.1,5.4-4.6,7.5-7.4c2-2.8,3.1-6,3.1-9.3V82.4
		c0-0.7-0.2-1.3-0.6-2c-0.4-0.7-1-1.3-1.7-1.9c-0.7-0.5-1.5-1-2.4-1.4c-0.8-0.4-1.7-0.6-2.7-0.6h-97.7c-1.9,0-3.6,0.6-5.2,1.9
		c-1.6,1.3-2.4,2.6-2.4,3.9v14.3c0,0.7,0.2,1.3,0.6,2c0.4,0.7,1,1.3,1.7,1.9c0.7,0.6,1.5,1.1,2.4,1.4c0.8,0.4,1.7,0.6,2.7,0.6h67.4
		v20c0,0.3-0.5,0.8-1.4,1.5c-0.9,0.7-1.7,1.1-2.4,1.2H1408V111.4z M1405.1,127.4c0.6,0.4,1.2,0.6,1.8,0.6h35c0.6-0.1,1.3-0.3,2-0.7
		c0.7-0.4,1.4-0.9,2.1-1.4c0.7-0.5,1.3-1.1,1.7-1.7s0.7-1.1,0.7-1.5v-21c-0.1-0.4-0.4-0.8-0.9-1.2c-0.5-0.4-1-0.6-1.6-0.6h-68.5
		c-0.8,0-1.7-0.4-2.5-1.1c-0.8-0.7-1.3-1.4-1.3-2V82.4c0-0.7,0.4-1.3,1.2-2c0.8-0.7,1.7-1.1,2.7-1.1h97.7c0.8,0,1.7,0.4,2.5,1.1
		c0.8,0.7,1.3,1.4,1.3,2v45.4c0,3-0.9,5.7-2.7,8.2c-1.8,2.5-3.9,4.7-6.5,6.6c-2.6,1.9-5.2,3.3-7.9,4.4c-2.7,1.1-5,1.6-6.9,1.6h-77.5
		c-1,0-2-0.3-2.7-1.1c-0.8-0.7-1.2-1.4-1.2-2v-34.3c0-1,0.4-1.9,1.3-2.6c0.9-0.7,1.8-1.1,2.7-1.1h22.7c1.3,0,2.2,0.4,2.8,1.2
		c0.6,0.8,0.9,1.7,0.9,2.6v14.7C1404.3,126.6,1404.6,127,1405.1,127.4z M1441.1,123.7c0.4-0.2,0.8-0.3,1.2-0.6
		c0.4-0.2,0.5-0.4,0.5-0.6v-18.4h-37.8c1.5,0.9,2.7,2,3.6,3.2c0.9,1.2,1.4,2.6,1.4,4v12.4H1441.1z"/>
</g>
<g>
	<path class="st5" d="M265.1,47h-23.4V29.6h41.3c0.6,0,1.2,0.3,1.8,1c0.5,0.6,0.8,1.4,0.8,2.2v32.9c0,0.6-0.3,1.1-0.8,1.7
		s-1.1,0.9-1.7,0.9h-52.3c-1.3,0-2.8-0.5-4.6-1.4c-1.8-0.9-3.5-2.2-5.2-3.8c-1.7-1.6-3.1-3.5-4.3-5.7s-1.8-4.5-1.8-7.1V10.8
		c0-0.6,0.3-1.1,0.8-1.7c0.5-0.6,1.1-0.9,1.7-0.9h68.3v17.6h-50.3v19.9c0,0.3,0.2,0.7,0.5,1.3s0.7,1.1,1.2,1.6c0.5,0.5,1,1,1.5,1.3
		s1,0.6,1.4,0.7h25.3V47z"/>
	<path class="st5" d="M377.8,40.4V25.9H348v42.3h-20.4V8.3h68.3c0.6,0,1.2,0.3,1.7,0.9c0.5,0.6,0.8,1.1,0.8,1.7v44.6
		c0,0.6-0.3,1.1-0.8,1.7c-0.5,0.6-1.1,0.9-1.7,0.9h-2.1l6.7,10.2h-24.1L369.5,58h-16V40.4H377.8z"/>
	<path class="st5" d="M509.2,57.3c-1.2,2.2-2.6,4-4.3,5.7c-1.6,1.6-3.4,2.9-5.2,3.8c-1.8,0.9-3.4,1.4-4.6,1.4h-39
		c-1.3,0-2.8-0.5-4.6-1.4c-1.8-0.9-3.5-2.2-5.2-3.8c-1.6-1.6-3.1-3.5-4.3-5.7s-1.8-4.5-1.8-7V10.8c0-0.6,0.3-1.1,0.8-1.7
		c0.5-0.6,1.1-0.9,1.7-0.9h65.8c0.6,0,1.2,0.3,1.7,0.9c0.5,0.6,0.8,1.1,0.8,1.7v39.5C511,52.8,510.4,55.2,509.2,57.3z M461.2,47.2
		c0.3,0.5,0.7,1.1,1.2,1.6c0.5,0.5,1,0.9,1.5,1.3s1,0.5,1.3,0.5h20.9c0.4,0,0.8-0.2,1.3-0.5s1-0.7,1.4-1.2c0.4-0.5,0.8-1,1.1-1.4
		c0.3-0.5,0.5-0.9,0.6-1.3V25.9h-29.8v20.1C460.7,46.2,460.9,46.7,461.2,47.2z"/>
	<path class="st5" d="M603.3,25.9H578c-0.4,0.1-0.8,0.3-1.4,0.7c-0.5,0.4-1,0.8-1.5,1.3c-0.5,0.5-0.9,1-1.2,1.6
		c-0.3,0.5-0.5,1-0.5,1.3v19.9h50.3v17.6h-68.3c-0.6,0-1.2-0.3-1.7-0.9c-0.5-0.6-0.8-1.1-0.8-1.7V26.2c0-2.5,0.6-4.9,1.8-7.1
		c1.2-2.2,2.6-4.1,4.3-5.7c1.7-1.6,3.4-2.9,5.2-3.8c1.8-0.9,3.3-1.4,4.6-1.4h52.3c0.6,0,1.2,0.3,1.7,0.9c0.5,0.6,0.8,1.1,0.8,1.7
		v32.9c0,0.8-0.3,1.6-0.8,2.2s-1.1,1-1.8,1h-41.3V29.5h23.4V25.9z"/>
	<path class="st5" d="M716,46.9h-47.7c-0.6,0-1.1-0.3-1.7-0.9c-0.6-0.6-0.9-1.2-0.9-1.7V26.2c0-2.5,0.6-4.9,1.8-7s2.6-4,4.3-5.7
		c1.6-1.6,3.4-2.9,5.2-3.8c1.8-0.9,3.3-1.4,4.6-1.4h54.9v17.6h-45.8c-0.3,0-0.6,0.1-1,0.2c-0.4,0.1-0.8,0.3-1.2,0.6
		c-0.4,0.3-0.7,0.6-1,0.9s-0.4,0.7-0.4,1.1v1h46.9c0.6,0,1.2,0.3,1.8,1c0.5,0.6,0.8,1.4,0.8,2.2v32.8c0,0.6-0.3,1.1-0.8,1.7
		c-0.5,0.6-1.1,0.9-1.7,0.9h-68.3V50.6H716V46.9z"/>
	<path class="st5" d="M794.2,50.3V25.9h-15.7V8.3H839v17.6h-24.4v20.1c0,0.3,0.2,0.7,0.5,1.2s0.7,1,1.1,1.5c0.4,0.5,0.9,0.9,1.3,1.3
		c0.5,0.4,0.9,0.6,1.3,0.7h11.1v17.6H810c-1.3,0-2.8-0.5-4.6-1.4c-1.8-0.9-3.5-2.2-5.2-3.8c-1.6-1.6-3.1-3.5-4.3-5.7
		S794.2,52.8,794.2,50.3z"/>
	<path class="st5" d="M901.5,8.3v37.6c0,0.3,0.2,0.7,0.5,1.2c0.3,0.5,0.7,1,1.2,1.5s1,0.9,1.4,1.3c0.5,0.3,0.9,0.6,1.3,0.6h29.7
		v17.6h-38.6c-1.3,0-2.8-0.5-4.6-1.4c-1.8-0.9-3.5-2.2-5.2-3.8c-1.6-1.6-3.1-3.5-4.3-5.7s-1.8-4.5-1.8-7v-42H901.5z"/>
	<path class="st5" d="M1027.8,34.7v-8.8H998v19.9c0,0.3,0.2,0.8,0.5,1.3c0.3,0.6,0.8,1.1,1.3,1.6s1,1,1.5,1.3c0.5,0.4,1,0.6,1.3,0.6
		h45.6v17.6h-54.8c-1.3,0-2.8-0.5-4.6-1.4c-1.8-0.9-3.5-2.2-5.2-3.8c-1.7-1.6-3.1-3.5-4.3-5.7s-1.8-4.5-1.8-7.1V10.8
		c0-0.6,0.3-1.1,0.8-1.7c0.5-0.6,1.1-0.9,1.7-0.9h65.8c0.6,0,1.2,0.3,1.7,0.9c0.5,0.6,0.8,1.1,0.8,1.7v23.9H1027.8z"/>
	<path class="st5" d="M1159.2,57.3c-1.2,2.2-2.6,4-4.3,5.7c-1.6,1.6-3.4,2.9-5.2,3.8c-1.8,0.9-3.4,1.4-4.6,1.4h-39
		c-1.3,0-2.8-0.5-4.6-1.4c-1.8-0.9-3.5-2.2-5.2-3.8c-1.6-1.6-3.1-3.5-4.3-5.7s-1.8-4.5-1.8-7V10.8c0-0.6,0.3-1.1,0.8-1.7
		c0.5-0.6,1.1-0.9,1.7-0.9h65.8c0.6,0,1.2,0.3,1.7,0.9c0.5,0.6,0.8,1.1,0.8,1.7v39.5C1161,52.8,1160.4,55.2,1159.2,57.3z
		 M1111.2,47.2c0.3,0.5,0.7,1.1,1.2,1.6c0.5,0.5,1,0.9,1.5,1.3s1,0.5,1.3,0.5h20.9c0.4,0,0.8-0.2,1.3-0.5s1-0.7,1.4-1.2
		c0.4-0.5,0.8-1,1.1-1.4c0.3-0.5,0.5-0.9,0.6-1.3V25.9h-29.8v20.1C1110.7,46.2,1110.9,46.7,1111.2,47.2z"/>
	<path class="st5" d="M1203,8.3h55v17.6h-17.3v24.7h17.3v17.6h-55V50.6h17.3V25.9H1203V8.3z"/>
	<path class="st5" d="M1352.1,40.8V8.3h20.4v59.9h-21.7c-0.7,0-1.4-0.1-2.2-0.3c-0.8-0.2-1.3-0.7-1.7-1.5l-26.4-30.7v32.5h-20.4V8.3
		h21.6c0.7,0,1.4,0.1,2.1,0.4s1.3,0.7,1.8,1.4L1352.1,40.8z"/>
</g>
</svg>
